<svg xmlns="http://www.w3.org/2000/svg" viewBox="0 0 124.11 111.5"><defs><style>.cls-1{fill:#cfaa9d;}</style></defs><title>Ресурс 3</title><g id="Слой_2" data-name="Слой 2"><g id="Слой_1-2" data-name="Слой 1"><path class="cls-1" d="M0,21.75c.29-2.63.55-5.27.87-7.89C2.14,3.54,7.84,0,18.52.61c.8,0,1.6.22,2.4.21Q55.57.65,90.22.43C96.51.38,102.81,0,109.1,0c2.64,0,5.28.6,7.93.84,3,.27,4.61,2,5.59,4.63,1.82,4.91,1.51,10,1.38,15.09-.31,12.18-.69,24.36-1,36.55-.15,6.05,0,12.12-.3,18.16-.48,10.21-4.08,13.88-14.37,14.3s-20.66.43-31,.62c-1.12,0-2.25,0-4,0,1.18,1.87,2.09,3.41,3.09,4.9,2.29,3.41,4.58,6.82,7,10.17a2.63,2.63,0,0,0,1.72.92c1.44.14,2.91,0,4.36.07,1.7.07,2.74.92,2.71,2.72s-1.1,2.54-2.84,2.54c-6.22,0-12.44,0-18.66,0q-17.81,0-35.62,0c-1.52,0-3,0-3.47-1.87a2.57,2.57,0,0,1,3-3.34c2.35.19,3.22-1,4.33-2.77,2.84-4.65,6.06-9.07,9.19-13.67-4.33,0-9,0-13.59,0-6.68,0-13.42.37-20-.34C6.25,88.63,2.17,84.15,1.06,76c-.54-4-.52-8-.76-12.07C.22,62.61.1,61.33,0,60.05ZM117.82,64.31c0-1,0-1.83,0-2.62,0-16-.12-32,.06-48,0-3.49-.84-6.08-3.76-7.27A17.8,17.8,0,0,0,108,5.29c-29.8.09-59.61.81-89.41.85-3.89,0-8.15,0-10.39,2.9-2.75,3.54-2.93,9-2.9,13.53.11,13.24.3,26.49.48,39.73,0,.7.14,1.39.21,2ZM6.18,69.81c.45,2.61.67,4.86,1.24,7,1.18,4.49,3.8,6.64,8.45,7,3.22.25,6.45.38,9.67.43,15.18.21,30.36.3,45.53.59,9,.17,18.07,1,27.09.82,4.4-.08,11.88-1.19,16-2.79,5-1.94,4.7-8.1,3.38-13.05Zm71.45,36.25a5.81,5.81,0,0,0-.42-1q-4.78-6.82-9.59-13.62c-.36-.5-.93-1.28-1.35-1.25-4.13.36-8.49-1.63-12.27,2.15a79.52,79.52,0,0,0-10.63,13.71Z"/><path class="cls-1" d="M55.2,47.92c1.49,2.07,2.61,3.64,3.75,5.18s1.09,2.9-.42,4-2.76.4-3.76-.87c-2-2.6-4-5.28-6.08-7.82A8.08,8.08,0,0,0,46,46.25c-5.58-2.59-8.55-7.2-8.2-13,.31-5.24,3.79-9.36,9.69-11a22.19,22.19,0,0,1,7.14-.94,32.6,32.6,0,0,0,22.71-7.36,49.38,49.38,0,0,1,4.58-3.16c1.83-1.12,3.55-.32,3.91,1.81a26.44,26.44,0,0,1,.36,4.09q.2,18.89.35,37.77c0,1.47.14,3.3-1.63,3.57a5.22,5.22,0,0,1-3.74-1.26C73.88,50.27,65.32,47.79,55.2,47.92Zm25.63,1.82V17.79c-7.06,5-14,9-22.53,8.55V42.6A41.34,41.34,0,0,1,80.83,49.73Zm-28.1-23c-3.37-.73-5.34,1.16-7.59,2.72-.52.36-1,2.12-1.14,2.76-1.08,3.74.13,5.07,1.21,7.58s4.46,3.05,7.51,2.57Z"/><path class="cls-1" d="M62.39,75.24c.67,1,1.75,1.93,1.92,3a2.46,2.46,0,1,1-4.91,0c.15-1.08,1.22-2,1.87-3Z"/></g></g></svg>