<svg xmlns="http://www.w3.org/2000/svg" viewBox="0 0 124.12 91.92"><defs><style>.cls-1{fill:#cfaa9d;}</style></defs><title>Ресурс 2</title><g id="Слой_2" data-name="Слой 2"><g id="Слой_1-2" data-name="Слой 1"><path class="cls-1" d="M0,15.77C2,11.46,5.23,9.7,10,9.9c6.77.29,13.57,0,20.35.11a3.41,3.41,0,0,0,3.39-1.72C40.1-2,39.8.25,49.32.12,59.57,0,69.83.19,80.09,0a8,8,0,0,1,7.34,3.76,5.26,5.26,0,0,1,.69,1c1.71,4.59,5.07,5.61,9.7,5.29,5.95-.41,11.95-.12,17.92-.09,5.06,0,8.37,3.28,8.38,8.3q0,32.71,0,65.41c0,4.9-3.32,8.19-8.22,8.19q-53.79,0-107.57,0C4,91.93,1.7,89.55,0,86.07ZM62,87h52.84c4,0,4.34-.37,4.34-4.22q0-31.75,0-63.5c0-4-.33-4.34-4.46-4.34-5.49,0-11,.1-16.48,0C89.65,14.7,89.88,17,83.73,7.06a4,4,0,0,0-3.95-2c-10.5.08-21,.29-31.5-.08-4.69-.17-8.16.65-9.94,5.32a6,6,0,0,1-.82,1.2,7.66,7.66,0,0,1-7,3.51c-7.19-.18-14.38-.06-21.57-.06-3.61,0-4.06.44-4.06,4q0,32,0,64c0,3.62.43,4.06,4,4.06Z"/><path class="cls-1" d="M94.32,46.9C94.64,64.17,80,79.12,62.55,79.45S30.2,65.35,29.78,47.65c-.4-17.28,14.37-32.44,31.9-32.73C79,14.64,94,29.29,94.32,46.9ZM62,20C46.46,20,34.73,31.88,34.81,47.37s11.95,27.2,27.45,27.11a26.75,26.75,0,0,0,27-27.28C89.28,31.71,77.42,19.89,62,20Z"/><path class="cls-1" d="M21.14,32.3c-3.29,0-5.09-1-5.92-3.16a4.88,4.88,0,0,1,4-6.63,19.71,19.71,0,0,1,2.9-.05c3.12.11,5.11,2.05,5.1,4.92s-2,4.81-5.13,4.92Z"/><path class="cls-1" d="M62.09,24.93A22.67,22.67,0,0,1,84.37,47.38C84.33,59.29,74,69.59,62,69.57S39.69,59.16,39.73,47.07,50.08,24.91,62.09,24.93Zm0,4.92A17,17,0,0,0,44.66,47.09a17.4,17.4,0,1,0,34.8,0A17,17,0,0,0,62.06,29.84Z"/></g></g></svg>