<svg id="Слой_1" data-name="Слой 1" xmlns="http://www.w3.org/2000/svg" viewBox="0 0 25.1 25.1"><defs><style>.cls-1{fill:#cfaa9d;}</style></defs><title>иконки электрастайл</title><path class="cls-1" d="M19.84,19.72c0-.15,0-.29,0-.43-.14-3.27-.42-6.53-.42-9.8,0-.45-.66-.9-.95-1.21s-.41-.58-.73-.57H15.39a.18.18,0,0,1-.16,0,.23.23,0,0,1,0-.16,2.94,2.94,0,0,0-1.43-2.79,3.62,3.62,0,0,0-1.49-.31,2.81,2.81,0,0,0-1.12.13,2.27,2.27,0,0,0-.77.5,2.62,2.62,0,0,0-.93,2.2c0,.12,0,.28,0,.36s-.81.12-1.13.12c-.49,0-1,0-1.48,0a.85.85,0,0,0-.7.35L5.33,9a.93.93,0,0,0-.12.59c0,.68,0,1.37-.08,2.06C5,15,4.74,18.4,4.73,21.8c0,.11,0,.14.13.14H19.12c.45,0,.82.11.79-.48ZM11.08,6.23a1.1,1.1,0,0,1,.49-.36,1.72,1.72,0,0,1,1.24-.07,1.67,1.67,0,0,1,1.07,1.62c0,.3-.19.29-.45.29H11.06C10.39,7.71,10.88,6.5,11.08,6.23Zm7,14.5H6.25c-.25,0-.27-.25-.25-.45,0-.53.07-1.06.11-1.59.13-1.81.2-3.6.26-5.42,0-.27.06-4.13.31-4.13h1c1.54,0,3.07,0,4.61,0,1.87,0,3.73.06,5.59,0,.23,0,.25,1.15.26,1.28.12,1.57.12,3.15.2,4.72s.15,3.42.23,5.13C18.57,20.64,18.4,20.72,18.06,20.73Z"/><path class="cls-1" d="M14.66,11.68h-.33c-.58,0-.52.82-.46,1.43,0,.2,0,.39,0,.52a2.56,2.56,0,0,1-.34,1.31,1.39,1.39,0,0,1-1.28.66,1.64,1.64,0,0,1-1.56-1.76c0-.49,0-1,0-1.48,0-.32,0-.58-.37-.66a1.68,1.68,0,0,0-.67,0,.31.31,0,0,0-.29.34c0,.75-.07,1.54,0,2.28A2.59,2.59,0,0,0,10.05,16a3.22,3.22,0,0,0,1.45.91,3,3,0,0,0,3.36-1.39,7.17,7.17,0,0,0,.41-3.06C15.29,12,15.11,11.69,14.66,11.68Z"/></svg>