<svg id="Слой_1" data-name="Слой 1" xmlns="http://www.w3.org/2000/svg" viewBox="0 0 52.33 69.66"><defs><style>.cls-1{fill:#cfaa9d;}.cls-2{fill:#fff;}</style></defs><title>иконки электрастайл</title><rect class="cls-1" x="2.54" y="2.17" width="47.67" height="47.67"/><polygon class="cls-2" points="40.12 27.25 26.37 13.61 12.62 27.25 11.92 26.54 26.37 12.21 40.82 26.54 40.12 27.25"/><polygon class="cls-2" points="40.12 38.24 26.37 24.6 12.62 38.24 11.92 37.52 26.37 23.19 40.82 37.52 40.12 38.24"/><path class="cls-1" d="M4.78,66.63l1-.29V59.82l-1-.29v-.2H8v.2l-1,.29v2.8h4v-2.8l-1-.29v-.2h3.2v.2l-1.05.29v6.52l1.05.29v.2H10v-.2l1-.29V63.19H7v3.15l1,.29v.2H4.78Z"/><path class="cls-1" d="M17.6,59.17h.21l2.91,7.17.66.29v.2h-2.8v-.2l.91-.29-.76-1.88H16l-.75,1.88.88.29v.2H13.86v-.2l.69-.29ZM16.18,63.9H18.5l-1.19-3.09h0Z"/><path class="cls-1" d="M22.09,66.63l1-.29V59.82l-1-.29v-.2h3c1.46,0,2.48.46,2.48,1.64a1.9,1.9,0,0,1-1.36,1.75v.08A1.93,1.93,0,0,1,28,64.62c0,1.34-1,2.21-3,2.21h-2.9Zm2.17-3.92c1.64,0,2.13-.62,2.13-1.6a1.34,1.34,0,0,0-1.5-1.42,2.35,2.35,0,0,0-.63.08Zm0,3.63a2.61,2.61,0,0,0,.77.1,1.6,1.6,0,0,0,1.77-1.67c0-1.29-1-1.7-2.09-1.7h-.45Z"/><path class="cls-1" d="M29.05,66.63l1-.29V59.82l-1-.29v-.2h5.47V61h-.27c-.34-1-.5-1.18-1.39-1.18H31.25v2.89l1.86-.05.28-.91h.23v2.34h-.24l-.27-.91-1.86,0v3.24H33c1,0,1.25,0,1.61-1.45h.26v2H29.05Z"/><path class="cls-1" d="M39.22,59.33c1.66,0,2.75.56,2.75,2S40.9,63.7,39.21,63.7a8.5,8.5,0,0,1-1-.16v2.8l1.16.29v.2H36v-.2l1-.29V59.82l-1-.29v-.2Zm-1,3.92a4.34,4.34,0,0,0,.44,0,3.53,3.53,0,0,0,1-.12A1.81,1.81,0,0,0,39,59.69a2.53,2.53,0,0,0-.72.09Z"/><path class="cls-1" d="M45.86,59.33v.2l-.78.29,1.53,2.37,1.57-2.37-.8-.29v-.2h2.44v.2l-.82.29-2.15,2.72,2.52,3.8.79.29v.2H47.05v-.2l1-.29-1.95-3-1.88,3,.92.29v.2H42.57v-.2l.78-.29L45.82,63l-2.1-3.18-.9-.29v-.2Z"/></svg>