<svg xmlns="http://www.w3.org/2000/svg" viewBox="0 0 276.02 270"><defs><style>.cls-1{fill:#e3ad9f;}.cls-2{fill:#fff;}</style></defs><title>Ресурс 6</title><g id="Слой_2" data-name="Слой 2"><g id="Слой_1-2" data-name="Слой 1"><polygon class="cls-1" points="0 168 136.02 270 276.02 164 226.02 0 53.02 0 0 168"/><path class="cls-2" d="M92.15,130.2c-10.71,3.17-17.93,1.14-23.15-6.44a17.27,17.27,0,0,1,.68-21c5-6.38,13-8.92,20.18-6.3a19.06,19.06,0,0,1,10.22,8.73,17.62,17.62,0,0,1,1.67,13.36c5.51-1,9.46,2,13.59,4.48,6.28,3.82,12.61,7.54,18.86,11.4a2.5,2.5,0,0,0,3.25-.14c6.5-4.65,13.06-9.23,19.6-13.81,5.5-3.85,11.33-3.27,16.71.82,7.48,5.7,15.29,11,23,16.42,1.16.82,2.33,1.62,3.48,2.45a13,13,0,0,1,5,13.51c-1.22,5.06-6.76,8.76-12.41,7.89a16.78,16.78,0,0,1-6.56-2.51c-6.86-4.58-13.56-9.4-20.28-14.19a1.94,1.94,0,0,0-2.68,0c-6.45,4.61-12.95,9.15-19.45,13.7-5.09,3.56-10.62,3.25-15.84-.2-6.23-4.12-12.73-7.83-19.12-11.71-2.75-1.67-5.46-3.44-8.3-5C95.92,139.17,92.82,135.59,92.15,130.2Zm11.34-6.4a6.06,6.06,0,0,0-4.9,3.39,4.79,4.79,0,0,0,.37,5.46,13.12,13.12,0,0,0,3.2,2.73c4.1,2.56,8.27,5,12.41,7.5,5.52,3.33,11.11,6.53,16.53,10,4.84,3.12,5.46,3.25,10.22-.1,7-4.89,13.94-9.76,20.87-14.69A3.71,3.71,0,0,1,167,138q6,4.27,12,8.51c3.84,2.71,7.67,5.45,11.56,8.1,3.09,2.1,6,1.69,8-1,2.21-3,1.59-6-1.85-8.43-7.1-5-14.24-10-21.35-15a51.62,51.62,0,0,1-5.46-4c-3.56-3.28-5.28-3.51-9.27-.72-7.07,5-14.2,9.84-21.16,14.95-2.38,1.74-4.25,1.86-6.78.28-8.19-5.13-16.51-10.05-24.82-15A35.81,35.81,0,0,0,103.49,123.8Zm-19.38,2c7.2,0,12.11-5,12.1-12.19S91.15,101.47,84,101.5a11.79,11.79,0,0,0-12.16,12.25C71.89,120.89,76.93,125.87,84.1,125.85Z"/><path class="cls-2" d="M78.38,148.43c-.43.65-.82,1.22-1.19,1.81L56.09,184c-.27.44-.53.89-.84,1.3a3.1,3.1,0,0,1-4.11.9,3,3,0,0,1-1.09-4,16.48,16.48,0,0,1,.88-1.5l21.2-33.93c.34-.54.65-1.1,1.07-1.81l-7.06-4.75c-2.94-2-5.9-3.92-8.84-5.9-2-1.32-2.47-3.17-1.34-4.74s2.86-1.63,4.78-.34q34.88,23.3,69.74,46.63a2.8,2.8,0,0,0,3.55.1c8.13-5,16.38-9.76,24.48-14.8a7,7,0,0,1,7.31-.59c15.81,6.75,31.72,13.24,47.6,19.83a8.19,8.19,0,0,1,1.56.75,2.83,2.83,0,0,1,1.16,3.39,2.68,2.68,0,0,1-2.89,2.08,7.56,7.56,0,0,1-2.39-.67q-23.29-9.62-46.56-19.31a3.29,3.29,0,0,0-3.37.26c-8.64,5.25-17.36,10.39-26,15.67a4.58,4.58,0,0,1-5.64-.11q-24.53-16.53-49.16-32.9C79.61,149.16,79.06,148.85,78.38,148.43Z"/><path class="cls-2" d="M166.9,41.3c13.71,0,25.65,12,25.6,25.57,0,14-11.92,25.78-25.83,25.75-13.61,0-25.56-12-25.55-25.69S153.12,41.27,166.9,41.3Zm0,6.12c-11.25,0-19.62,8.2-19.69,19.42s8.22,19.55,19.47,19.66a19,19,0,0,0,19.64-19.44C186.38,55.76,178.19,47.47,166.94,47.43Z"/><path class="cls-2" d="M117.66,40.92a19.63,19.63,0,0,1,2.59,1.32q7.83,5.81,15.6,11.68c1.87,1.41,2.3,3.34,1.15,4.8s-2.89,1.55-4.78.14q-8-5.94-15.9-11.92c-1.29-1-1.87-2.31-1.14-3.71C115.68,42.3,116.8,41.69,117.66,40.92Z"/><path class="cls-2" d="M144.13,118.27c-3,0-4.34-2.59-3-4.95,3-5.19,6-10.34,9-15.51.42-.72.81-1.47,1.28-2.16a3,3,0,0,1,5.29,3c-3.49,6.08-7,12.14-10.64,18.15C145.66,117.57,144.57,118,144.13,118.27Z"/><path class="cls-2" d="M188.29,17.4c-.14.43-.32,1.12-.59,1.76q-3.79,8.76-7.62,17.51c-1,2.24-2.58,3.08-4.36,2.33s-2.26-2.5-1.28-4.77q3.92-9,7.86-18a3,3,0,0,1,3.49-2.06C187.37,14.45,188.22,15.5,188.29,17.4Z"/><path class="cls-2" d="M157.07,37.63c-.07,1.79-.84,2.85-2.31,3.23a3,3,0,0,1-3.54-1.68c-2-3.73-4-7.48-6-11.23-1.15-2.16-2.32-4.3-3.44-6.48-1-2-.6-3.83,1-4.64s3.32-.19,4.33,1.69q4.7,8.75,9.34,17.54A10.74,10.74,0,0,1,157.07,37.63Z"/><path class="cls-2" d="M214.85,42.94a3,3,0,0,1,3.12,2.3,3,3,0,0,1-1.78,3.65l-14.4,7c-1.33.65-2.64,1.34-4,1.92a3.06,3.06,0,0,1-4.24-1.45,3,3,0,0,1,1.57-4c6.17-3,12.37-6,18.57-9A7.41,7.41,0,0,1,214.85,42.94Z"/><path class="cls-2" d="M217.46,91.89c0,3.13-2.62,4.49-4.88,3.08-2.84-1.76-5.61-3.64-8.41-5.47s-5.61-3.64-8.4-5.49c-1.86-1.24-2.35-3.06-1.3-4.58s2.77-1.75,4.59-.57c5.56,3.6,11.13,7.19,16.63,10.89A8.39,8.39,0,0,1,217.46,91.89Z"/><path class="cls-2" d="M116.78,93c-.8-.84-1.92-1.57-2.36-2.59a2.69,2.69,0,0,1,1.35-3.46c2.71-1.61,5.43-3.19,8.15-4.78,3.05-1.78,6.1-3.57,9.17-5.34,2.09-1.2,3.89-.87,4.84.83s.32,3.24-1.73,4.45Q127.89,87,119.54,91.8A28.49,28.49,0,0,1,116.78,93Z"/><path class="cls-2" d="M185.06,118.58c-.45-.37-1.64-.88-2.09-1.77-3.14-6.12-6.16-12.3-9.15-18.5a3,3,0,1,1,5.48-2.66c3,6.1,6.07,12.21,9,18.35C189.41,116.29,188,118.57,185.06,118.58Z"/></g></g></svg>