<svg xmlns="http://www.w3.org/2000/svg" viewBox="0 0 276.02 270"><defs><style>.cls-1{fill:#e3ad9f;}.cls-2{fill:#fff;}</style></defs><title>Ресурс 5</title><g id="Слой_2" data-name="Слой 2"><g id="Слой_1-2" data-name="Слой 1"><polygon class="cls-1" points="0 168 136.02 270 276.02 164 226.02 0 53.02 0 0 168"/><path class="cls-2" d="M227.72,65.47c-.17.62-.36,1.23-.52,1.85a20.13,20.13,0,0,1-5.78,9.82q-14,13.45-27.91,26.93c-2.29,2.21-3.38,2.2-5.68,0L160.16,77.36c-8.12-7.84-8.74-19.56-1.45-27.61a20.9,20.9,0,0,1,28.75-1.9c1.07.92,2.09,1.89,3.22,2.92.93-.86,1.79-1.66,2.67-2.44a20.59,20.59,0,0,1,34.07,11.17,2.93,2.93,0,0,0,.29.62ZM190.55,98.72a3.1,3.1,0,0,0,.58-.32c9.06-8.73,18.17-17.4,27.13-26.23a12.52,12.52,0,0,0,3.54-11.62,13.6,13.6,0,0,0-9.54-11,14.66,14.66,0,0,0-15.11,3c-1.39,1.2-2.65,2.55-4,3.82-1.81,1.73-3.13,1.73-4.93,0-1.51-1.43-2.93-3-4.52-4.28A15.15,15.15,0,0,0,163,53.58c-5.25,5.81-4.75,13.93,1.24,19.72q8.63,8.36,17.29,16.69Z"/><path class="cls-2" d="M62.35,110.72H45.53V105H63.95c3,0,4.18,1.12,4.24,4.13,0,.46,0,.92,0,1.55h1.88c10,0,19.94.12,29.9-.05a32.81,32.81,0,0,1,11.46,1.91,18.46,18.46,0,0,0,5.52.95c5.46.12,10.92,0,16.38.06,6.72,0,11.79,5,11.78,11.44s-5.1,11.33-11.85,11.35c-5.4,0-10.8.05-16.2,0a4.89,4.89,0,0,0-4,1.46c-1,1.06-2.19,1.95-3.47,3.07,6.9,2.41,13.54,4.76,20.22,7a3.3,3.3,0,0,0,2.23-.6q22.65-13.06,45.26-26.17c4.22-2.44,8.68-2.19,12.13.62a10.31,10.31,0,0,1-.59,16.54C181,144,173.14,149.68,165.28,155.4c-8.63,6.28-17.41,12.37-25.84,18.92-5.34,4.15-10.8,5.3-17.43,4-17.29-3.3-34.66-6.15-52-9.18-.52-.09-1.06-.11-1.56-.15-.1.14-.23.24-.22.33.34,3.47-.77,4.08-4.32,4-6.1-.07-12.2,0-18.42,0v-5.67H62.35ZM68.25,163c.5.13.94.27,1.4.35,18.69,3.24,37.39,6.45,56.07,9.75a10.07,10.07,0,0,0,8.19-1.88q16.86-12.37,33.8-24.63,8.92-6.5,17.84-13a4.62,4.62,0,0,0,1.88-5.16,4.21,4.21,0,0,0-3.94-3.32,7.56,7.56,0,0,0-3.66,1q-23.15,13.26-46.21,26.68a5.1,5.1,0,0,1-4.69.48c-6.92-2.45-13.85-4.91-20.84-7.14-5.48-1.75-10.68-4.73-16.74-4.18-.08,0-.18-.13-.28-.2v-5.44a59.92,59.92,0,0,1,7.34.05,14.34,14.34,0,0,0,12.94-4.49,5.41,5.41,0,0,1,3.52-1.21c6.05-.12,12.11,0,18.16,0,3.79,0,6.37-2.31,6.39-5.67s-2.6-5.71-6.35-5.71c-5.7,0-11.4.06-17.09,0a21.17,21.17,0,0,1-5.37-.89c-3.17-.92-6.21-2-9.66-2-10.26.18-20.53.06-30.8.06H68.25Z"/><path class="cls-2" d="M157.1,80.42l3.18,4.63a20.87,20.87,0,0,1-10.2,3.56c-5.83.54-11.41-.78-17-2.25a104.59,104.59,0,0,0-14-3.09c-8.17-1-15.13,1.89-20.77,7.91a7.62,7.62,0,0,0-.72,1.12l-4.65-3.6c.69-.81,1.26-1.62,2-2.29,8.2-7.85,17.94-10.55,29-8.26,5.73,1.19,11.34,3,17.07,4.21C146.44,83.52,151.92,83.63,157.1,80.42Z"/><path class="cls-2" d="M166.85,100.21c-2.26,3.49-5.68,4.36-9.21,4.35-4.9,0-9.8-.61-14.71-.76a93.15,93.15,0,0,0-11.66.22c-1.39.13-2.65,1.54-4,2.36-.31.19-.66.55-1,.51-1.57-.17-3.13-.43-4.85-.69a8.6,8.6,0,0,1,4.94-6.49c3.8-2,8-2.26,12.12-2,3.72.23,7.43.76,11.15,1a67.36,67.36,0,0,0,8,.13,27.86,27.86,0,0,0,4.79-1.13Z"/></g></g></svg>