<svg xmlns="http://www.w3.org/2000/svg" viewBox="0 0 276.02 270"><defs><style>.cls-1{fill:#e3ad9f;}.cls-2{fill:#fff;}</style></defs><title>Ресурс 4</title><g id="Слой_2" data-name="Слой 2"><g id="Слой_1-2" data-name="Слой 1"><polygon class="cls-1" points="0 168 136.02 270 276.02 164 226.02 0 53.02 0 0 168"/><path class="cls-2" d="M137.07,108.21c0-4.28,0-8.55,0-12.83a2.69,2.69,0,0,1,2.78-2.83,2.72,2.72,0,0,1,2.65,2.77c0,.63,0,1.25,0,1.88,0,7.58,0,15.17,0,22.75a3,3,0,0,0,1.71,3.07,8.43,8.43,0,0,1-.11,14.65,2.57,2.57,0,0,0-1.59,2.81,8.9,8.9,0,0,1,0,1.88,2.62,2.62,0,0,1-2.66,2.37c-1.41,0-2.78-1-2.66-2.31.25-2.66-.83-4.13-3-5.76-4.71-3.6-3.83-10.83,1.42-13.79a2.45,2.45,0,0,0,1.47-2.52C137,116.3,137.07,112.26,137.07,108.21Z"/><path class="cls-2" d="M104.75,149.3a2.76,2.76,0,0,1-2.93,2.68,2.67,2.67,0,0,1-2.64-2.76,2.61,2.61,0,0,1,2.89-2.65A2.72,2.72,0,0,1,104.75,149.3Z"/><path class="cls-2" d="M180.43,149.27a2.68,2.68,0,0,1-2.86,2.71,2.72,2.72,0,0,1-2.7-2.72,2.69,2.69,0,0,1,2.89-2.69A2.62,2.62,0,0,1,180.43,149.27Z"/><path class="cls-2" d="M117.91,92.35a2.77,2.77,0,0,1-2.69-2.91A2.71,2.71,0,0,1,118,86.77a2.68,2.68,0,0,1,2.68,2.9A2.73,2.73,0,0,1,117.91,92.35Z"/><path class="cls-2" d="M164.39,89.46a2.79,2.79,0,0,1-2.73,2.9A2.76,2.76,0,0,1,159,89.64a2.66,2.66,0,0,1,2.7-2.87A2.72,2.72,0,0,1,164.39,89.46Z"/><path class="cls-2" d="M142.53,83.65a2.72,2.72,0,1,1-5.44.07,2.63,2.63,0,0,1,2.76-2.79A2.67,2.67,0,0,1,142.53,83.65Z"/><path class="cls-2" d="M177.69,102.81a2.71,2.71,0,0,1,2.74,2.68,2.67,2.67,0,0,1-2.78,2.79,2.73,2.73,0,1,1,0-5.46Z"/><path class="cls-2" d="M96.1,124.69a2.72,2.72,0,1,1,0,5.43,2.65,2.65,0,0,1-2.71-2.84A2.59,2.59,0,0,1,96.1,124.69Z"/><path class="cls-2" d="M186.26,127.4a2.57,2.57,0,0,1-2.64,2.71,2.71,2.71,0,1,1-.19-5.43A2.64,2.64,0,0,1,186.26,127.4Z"/><path class="cls-2" d="M120.65,165.3A2.58,2.58,0,0,1,118,168a2.66,2.66,0,0,1-2.79-2.75,2.58,2.58,0,0,1,2.84-2.68A2.54,2.54,0,0,1,120.65,165.3Z"/><path class="cls-2" d="M164.39,165.32a2.66,2.66,0,0,1-2.85,2.69,2.61,2.61,0,0,1-2.58-2.78,2.72,2.72,0,0,1,5.43.09Z"/><path class="cls-2" d="M104.74,105.55a2.75,2.75,0,0,1-2.72,2.72,2.73,2.73,0,1,1,0-5.46A2.77,2.77,0,0,1,104.74,105.55Z"/><path class="cls-2" d="M142.51,171.12a2.56,2.56,0,0,1-2.61,2.72,2.62,2.62,0,0,1-2.82-2.7,2.72,2.72,0,0,1,5.43,0Z"/><path class="cls-2" d="M86.59,82.24l-6.33-6.45c-1,1.16-1.88,2.45-3,3.59-1.62,1.69-3.05,1.67-4.72.08-.86-.83-1.73-1.66-2.53-2.55a2.68,2.68,0,0,1,0-4q5.75-5.85,11.61-11.61a2.63,2.63,0,0,1,4,.05c1,.88,1.9,1.81,2.78,2.78a2.71,2.71,0,0,1,0,4.1c-1.17,1.23-2.45,2.35-3.6,3.45l6.09,6a70.34,70.34,0,0,1,36.21-18.9c-5.92-5.33-8.42-11.67-7.29-19.19a19.42,19.42,0,0,1,7.63-12.73,20.32,20.32,0,0,1,27.05,2.06c6.46,6.6,8.86,20-1.85,29.87a70.26,70.26,0,0,1,35.76,18.65l5.89-5.87c-1.13-.93-2.42-1.87-3.55-3-1.77-1.73-1.72-3,0-4.83.72-.73,1.43-1.47,2.18-2.17,1.53-1.44,3-1.46,4.48,0q5.6,5.53,11.13,11.12c1.46,1.48,1.4,3-.07,4.49q-1.13,1.17-2.3,2.3c-1.57,1.5-3,1.51-4.6-.07-1.11-1.13-2.11-2.37-3.07-3.47l-5.87,5.81c14.23,17.22,19.78,37,15.58,59.15a67.2,67.2,0,0,1-24.42,40.57c-26,21.11-63.18,20.93-88.52-.4-14.81-12.46-23.31-28.38-25-47.71S74.4,97,86.59,82.24Zm117.51,45.19c0-35.21-29.19-64.4-64.36-64.27a64.46,64.46,0,0,0-64.23,64.18c0,35.31,28.89,64.42,64.24,64.34A64.38,64.38,0,0,0,204.09,127.43Zm-58.56-71.2c6.32-2.32,10-9.48,8.68-16.34a14.73,14.73,0,0,0-29.12,2c-.59,5.85,3.76,12.88,9,14.24,0-3.16,0-6.27,0-9.39,0-2.82.95-3.75,3.82-3.76h3.93c2.68,0,3.7,1,3.7,3.73C145.54,49.82,145.53,52.94,145.53,56.23Z"/><path class="cls-2" d="M139.76,185.5a58.11,58.11,0,1,1,58.15-58.1A58,58,0,0,1,139.76,185.5Zm52.68-58C192.58,98.74,169,75,140.11,74.86a52.66,52.66,0,0,0-52.93,52.5C87,156,110.76,179.9,139.5,180A52.86,52.86,0,0,0,192.43,127.46Z"/></g></g></svg>