<svg xmlns="http://www.w3.org/2000/svg" viewBox="0 0 84.45 76.02"><defs><style>.cls-1{fill:#c9a399;}</style></defs><title>eac</title><g id="Слой_2" data-name="Слой 2"><g id="Слой_1-2" data-name="Слой 1"><path class="cls-1" d="M19.6,0H1.1A1.1,1.1,0,0,0,0,1.1V74.92A1.1,1.1,0,0,0,1.1,76H19.6a1.1,1.1,0,0,0,1.1-1.1v-8.5a1.1,1.1,0,0,0-1.1-1.1H10.7V44.23h8.9a1.1,1.1,0,0,0,1.1-1.1v-8.5a1.1,1.1,0,0,0-1.1-1.1H10.7V10.7h8.9a1.1,1.1,0,0,0,1.1-1.1V1.1A1.1,1.1,0,0,0,19.6,0ZM18.5,8.5H9.6A1.1,1.1,0,0,0,8.5,9.6v25a1.1,1.1,0,0,0,1.1,1.1h8.9V42H9.6a1.1,1.1,0,0,0-1.1,1.1V66.42a1.1,1.1,0,0,0,1.1,1.1h8.9v6.3H2.2V2.2H18.5Z"/><path class="cls-1" d="M36.6,36H47.67a1.1,1.1,0,0,0,1.1-1.1V9.6a1.1,1.1,0,0,0-1.1-1.1H36.6a1.1,1.1,0,0,0-1.1,1.1V34.85A1.1,1.1,0,0,0,36.6,36ZM37.7,10.7h8.87v23H37.7Z"/><path class="cls-1" d="M56.17,0H28.1A1.1,1.1,0,0,0,27,1.1V74.92A1.1,1.1,0,0,0,28.1,76h8.5a1.1,1.1,0,0,0,1.1-1.1V44.45h8.87V74.92a1.1,1.1,0,0,0,1.1,1.1h8.5a1.1,1.1,0,0,0,1.1-1.1V1.1A1.1,1.1,0,0,0,56.17,0Zm-1.1,73.82h-6.3V43.35a1.1,1.1,0,0,0-1.1-1.1H36.6a1.1,1.1,0,0,0-1.1,1.1V73.82H29.2V2.2H55.07Z"/><path class="cls-1" d="M83.35,10.7a1.1,1.1,0,0,0,1.1-1.1V1.1A1.1,1.1,0,0,0,83.35,0H64.85a1.1,1.1,0,0,0-1.1,1.1V74.92a1.1,1.1,0,0,0,1.1,1.1h18.5a1.1,1.1,0,0,0,1.1-1.1v-8.5a1.1,1.1,0,0,0-1.1-1.1h-8.9V10.7Zm-10,56.82h8.9v6.3H65.95V2.2h16.3V8.5h-8.9a1.1,1.1,0,0,0-1.1,1.1V66.42A1.1,1.1,0,0,0,73.35,67.52Z"/></g></g></svg>