<svg xmlns="http://www.w3.org/2000/svg" viewBox="0 0 134.12 181.38"><title>Ресурс 9</title><path fill="#fff" d="M134,115.81l-2.88-21.1,0-.12c-.8-4.78-1.53-9.68-2.23-14.42-1.45-9.79-3-19.91-5.23-29.81L123.13,48c-2.17-9.6-4.87-21.55-11.32-29.3-4.82-5.79-12-5.48-17.74-5.23l-1.49.06-8.44-9.3A13,13,0,0,0,74.54,0H59.14a12.71,12.71,0,0,0-9,3.72L40.58,13.2a71.08,71.08,0,0,1-8.51.5h-.5l-.48.13C22,16.2,19.11,22.36,16,28.88c-8,16.87-10.21,35.72-12.36,54C3.14,87.35,2.58,92,2,96.52l-.39,2.74c-.12.9-.25,2.2-.34,3.38L.16,117.17A8.48,8.48,0,0,0,2,124.37c2.14,2.48,5.85,3.77,10.2,3.55h7a9.6,9.6,0,0,0,3.94-.84l-2.64,34a10.81,10.81,0,0,0,3.95,9.2L26.54,172a37.13,37.13,0,0,0,14.61,7.23,76.53,76.53,0,0,0,18,2.16h7.37A145.21,145.21,0,0,0,89,179.62l6.48-1a48,48,0,0,0,13.91-4.46,12.49,12.49,0,0,0,6.8-12.53l-3.81-33.66,10.82.15a10.9,10.9,0,0,0,8.24-3.65A10.78,10.78,0,0,0,134,115.81ZM54.41,32.37l-8.66-13,5.3-5.27ZM83,14.93l5.74,6.32L78.28,33.47ZM74.54,8a4.81,4.81,0,0,1,1.91.4l-6.15,24A46.05,46.05,0,0,1,66.11,43l-.15.28-.4-.76a25.44,25.44,0,0,1-2.48-7.19l-5-27.2a5.1,5.1,0,0,1,1-.12Zm-43,157.78-2.12-1.73a2.77,2.77,0,0,1-1-2.37l2.39-31.07,3.33-39.55,3.19-34.65.44-3.85-7.72-1.17L23.9,87.24l-3.19,31.28a1.55,1.55,0,0,1-1.55,1.4H11.83c-2.29.13-3.65-.52-3.82-.8a1.5,1.5,0,0,1,0-.62l1.16-15.27c.09-1.22.21-2.31.29-2.87l.38-2.73c.64-4.58,1.2-9.3,1.73-13.86C13.69,66.18,15.84,48,23.26,32.3c3-6.26,4.53-9.19,9.4-10.61,2,0,3.57-.08,5-.16L59.81,55l-.65.75a16.37,16.37,0,0,0-4,10.7V173.26A69.06,69.06,0,0,1,43,171.45,29.19,29.19,0,0,1,31.58,165.78Zm93.84-46.64a2.79,2.79,0,0,1-2.11,1h0l-9.6-.13L108.14,80l-5.28-31.3-3.8.47c-3.08.39-3.47,2.91-3.44,4.63h0l0,.1c0,.38,0,.72.06,1l2.84,31L104.2,127l4,35.46a4.46,4.46,0,0,1-2.43,4.48,40,40,0,0,1-11.58,3.71l-6.48,1a135.28,135.28,0,0,1-21.17,1.67H63.18v-107a8.38,8.38,0,0,1,2-5.48l.6-.7h0v0l33.36-38.8c2.89.12,5,.7,6.47,2.42,5.22,6.27,7.69,17.18,9.67,26l.53,2.37c2.21,9.58,3.69,19.55,5.12,29.19.7,4.75,1.43,9.66,2.24,14.5l2.88,21A2.79,2.79,0,0,1,125.42,119.14Z"/><path fill="#fff" d="M50.74,132A29.12,29.12,0,0,0,39,124.56a4,4,0,0,0-2.35,7.65,21,21,0,0,1,8.2,5.16A4,4,0,1,0,50.74,132Z"/><path fill="#fff" d="M89.76,125.27c-4.1,1-8.92,6.45-10.3,8.09a4,4,0,0,0,.48,5.63,3.94,3.94,0,0,0,2.58.95,4,4,0,0,0,3-1.42c2.13-2.51,5.13-5.19,6.17-5.5a4,4,0,0,0-2-7.75Z"/><ellipse  fill="#fff" cx="73.44" cy="85.42" rx="3.82" ry="6.16"/><ellipse  fill="#fff" cx="74" cy="103.17" rx="3.82" ry="6.16"/></svg>