<svg xmlns="http://www.w3.org/2000/svg" viewBox="0 0 156.08 133.78"><title>Ресурс 7</title><path fill="#fff" d="M154.51,30.4A41,41,0,0,0,120.29.58q-20.45-2.47-35.15,12c-2.35,2.3-4.65,4.66-7.11,7.12-2.1-2.13-4.11-4.11-6.06-6.16A41.36,41.36,0,0,0,44.66.23,3.34,3.34,0,0,1,43.94,0H39c-.45.09-.9.17-1.35.27C34.11,1,30.45,1.41,27.1,2.63-1.39,13-9.22,48.87,12.3,70.54c20.37,20.51,40.9,40.86,61.36,61.28a5.75,5.75,0,0,0,8.64,0l61.46-61.17a40.34,40.34,0,0,0,11-19.09c.63-2.48.93-5,1.37-7.58V38.72C155.57,36,155.23,33.12,154.51,30.4ZM11.14,43c-.66-14.26,7.6-26,21.31-30.19C43.82,9.28,54,11.61,62.56,20c3.11,3,6.17,6.1,9.24,9.17L29.22,71.7l-8.77-8.76C14.89,57.4,11.5,50.82,11.14,43Zm68.33,76c-.44.43-.81.93-1.32,1.52-.62-.59-1-.94-1.36-1.3l-40-40L78.14,37.91l42.25,40.21Zm57.19-57.16c-2.79,3-5.77,5.86-8.7,8.76L84.35,29.07c3.12-3.12,6.21-6.28,9.43-9.28,8.46-7.88,18.42-10.56,29.48-7.23s18.17,10.87,20.85,22.1C146.57,44.94,143.82,54.09,136.66,61.82Z"/></svg>