<svg xmlns="http://www.w3.org/2000/svg" viewBox="0 0 182.92 187.59"><title>Ресурс 8</title><path fill="#fff" d="M179.36,171.08l-7.53-5.41-.11-1.86v-42l5.12-4a10.36,10.36,0,0,0,4-8.24V98.9l-20.58.27V94.3H164a9,9,0,0,0,4-1l2.41-1.21a7.62,7.62,0,0,0,4.23-6.84V77.6a8.27,8.27,0,0,0-3.91-7.06l-2.38-1.49h0a8.47,8.47,0,0,0-4.46-1.28h-3.65V66.23h5.81a9.33,9.33,0,0,0,5.77-2l2.51-2a9.72,9.72,0,0,0,3.74-7.7v-18a10.5,10.5,0,0,0-2.69-7L174,27.93a12,12,0,0,0-8.91-4h-7.65a12.92,12.92,0,0,0-1.62-1.69l-9.12-7.88a11.76,11.76,0,0,0-7-2.83,13,13,0,0,0-2.43-7.46l-.41-.57A8.46,8.46,0,0,0,130,0a9.55,9.55,0,0,0-8.26,4.79l-.52.91a9.86,9.86,0,0,0-1.27,4l-.19,1.86H40.65a43.51,43.51,0,0,0-30.4,12.3L4.89,29A16.09,16.09,0,0,0,0,40.52V62.21a12.23,12.23,0,0,0,4.87,9.73l2.39,1.79A13.31,13.31,0,0,0,11.87,76v2.57A8.5,8.5,0,0,0,20.31,87H22.4V99.72H7.66A7.68,7.68,0,0,0,0,107.39v22.39a9.47,9.47,0,0,0,3,6.89l.21.2h0l7.53,7.05a9.21,9.21,0,0,0,6.32,2.5H122.48l.18,12.14a23.18,23.18,0,0,1-14.77,4.51c-7.67-.49-15.24-5.2-22.52-14a4,4,0,1,0-6.16,5.09c8.78,10.63,18.3,16.32,28.31,16.91.58,0,1.14,0,1.7,0a29.3,29.3,0,0,0,7-.89l-2.08,1.61a9.68,9.68,0,0,0-3.75,7.68v8.06h72.48V178A8.6,8.6,0,0,0,179.36,171.08Zm-32.17-7.62-2.22,0,18.75-19v3l-15.43,16Zm-8-20.48-8.55-9.29-.1-2.25,10.43,9.7Zm22-9.27v1.85L134,163.13h-3.11ZM153.69,128l-2.15-2.15h4.23Zm-4.8,6.52-1.61,1.56-11-10.23h3.95Zm-15,14.54-3.35,3.25-.11-7Zm25.3,14.6,4.5-4.68v4.76Zm13.65-54a2.43,2.43,0,0,1-.94,1.92l-8.1,6.29H127.76l-5.68-5.68a3,3,0,0,1-.89-2.16v-2.34l51.68-.66Zm-8.93-33.87a.44.44,0,0,1,.22.07l2.38,1.48a.35.35,0,0,1,.15.28v7.48l-2.22,1.11a1,1,0,0,1-.44.11h-3.74V75.77Zm-11.65-8V90.52l-21.39.38a12.41,12.41,0,1,0-19,.33l-5.85.11v-25a16,16,0,0,0,5.25.89A16.25,16.25,0,1,0,95.1,50.84a11.31,11.31,0,0,0-2.54-.3H89.63V43.66a6.86,6.86,0,0,1,1.73-4.55l4.91-5.52A4.87,4.87,0,0,1,99.9,32h52.38s0,.06,0,.09V67.77ZM116.87,83.09a4.41,4.41,0,1,1,4.4,4.41A4.41,4.41,0,0,1,116.87,83.09ZM103.09,51a8.25,8.25,0,1,1,8.25,8.25A8.26,8.26,0,0,1,103.09,51Zm57.2-19h4.79a4,4,0,0,1,3,1.33l1.44,1.59a2.45,2.45,0,0,1,.63,1.65v18a1.8,1.8,0,0,1-.69,1.42l-2.51,2a1.28,1.28,0,0,1-.82.29h-5.81V32ZM127.9,10.47a1.83,1.83,0,0,1,.25-.79l.52-.91A1.52,1.52,0,0,1,130,8a.42.42,0,0,1,.36.19l.41.56a5,5,0,0,1,.94,2.77h-3.91Zm11.08,9a3.78,3.78,0,0,1,2.48.93L145.54,24H99.9a12.88,12.88,0,0,0-9.61,4.32l-4.91,5.51a14.84,14.84,0,0,0-3.75,9.87v6.88h-7A12.39,12.39,0,0,0,66,54L53.9,65.45a8.76,8.76,0,0,1-3.37,2V19.52H139ZM8,62.21V40.52a8,8,0,0,1,2.45-5.77l5.36-5.18a35.55,35.55,0,0,1,24.84-10h1.88V68l-26.69.45h-.57a5.43,5.43,0,0,1-3.21-1.07L9.67,65.54A4.18,4.18,0,0,1,8,62.21ZM19.87,78.52V76.4H32.93V78a1,1,0,0,1-1.05,1h0L20.35,79A.49.49,0,0,1,19.87,78.52ZM30.4,87.06h1.48a9,9,0,0,0,9.05-9V76l7.21-.12a16.79,16.79,0,0,0,11.27-4.6l12.13-11.5a4.38,4.38,0,0,1,3-1.22H91.84A4.47,4.47,0,0,1,95.15,60a14.46,14.46,0,0,1,2.94,8.72V93.39l-8.6,6.33H30.4ZM8,107.72H92.12l11.32-8.34,48.85-.86V99l-35.14.69-4,.06V110.3a10.34,10.34,0,0,0,1.18,4.81H8Zm114.1,30.71H17.36a2,2,0,0,1-1.39-.55L8.67,131A2.15,2.15,0,0,1,8,129.48v-6.37H120l2.14,1.14Zm52.82,41.16H118.44v-.06a1.69,1.69,0,0,1,.67-1.36l9-7,38.5.64,8.06,5.79a.56.56,0,0,1,.23.46Z"/></svg>