<svg id="Слой_1" data-name="Слой 1" xmlns="http://www.w3.org/2000/svg" viewBox="0 0 49.31 49.31"><defs><style>.cls-1{fill:#ffffff;}.cls-2{fill:#CEA99D;}</style></defs><title>иконки электрастайл</title><polygon class="cls-1" points="1.12 31.61 9.12 4.85 38.78 4.85 47.28 30.25 24.11 48.02 1.12 31.61"/><path class="cls-2" d="M29.63,20v-.25H26.76c-.13,0-.2,0-.23,0a.35.35,0,0,1-.05-.22v-.05c0-.54,0-.54.58-.54h2.53v-5.6l0,0a27.69,27.69,0,0,0-4.27,0l-.16,0-.67.08a5.54,5.54,0,0,0-1.15.25,3.66,3.66,0,0,0-2.24,1.85,6.81,6.81,0,0,0-.53,3.41c0,.21,0,.4,0,.59s0,.23-.05.26-.11.05-.22,0h-2v5.9H19c.44,0,.87,0,1.3,0,.13,0,.2,0,.23,0a.37.37,0,0,1,.05.22q0,3.12,0,6.24v2h6V32.21q0-3.18,0-6.34a.32.32,0,0,1,.05-.21s.09,0,.21,0h2.47l0-.11c0-.12,0-.24,0-.35s.06-.48.08-.71c0-.07,0-.24,0-.48a29.61,29.61,0,0,1,.33-4A.08.08,0,0,1,29.63,20Zm-4.28,4.56v.29c0,.12,0,.23,0,.35V26.5q0,3.08,0,6.14c0,.16,0,.25-.06.29A.49.49,0,0,1,25,33L23.5,33l-1.63,0c-.11,0-.18,0-.21,0s-.05-.1-.05-.22c0-1.91,0-3.8,0-5.7V24.54H19.7c-.12,0-.19,0-.22,0s0-.09,0-.19c0-.95,0-2,0-3.25a.37.37,0,0,1,0-.2s.09,0,.19,0c.41,0,.83,0,1.27,0h.67v-.91c0-.58,0-1.13,0-1.68v-.17A5.31,5.31,0,0,1,22,16.14a2.5,2.5,0,0,1,1.74-1.49,9,9,0,0,1,1.84-.23c.55,0,1.12,0,1.68,0h1.06c.1,0,.15,0,.17,0s0,.08,0,.17c0,1.09,0,2.07,0,3,0,.09,0,.16,0,.18s-.09,0-.2,0c-.45,0-.91,0-1.35,0h-.12A1.34,1.34,0,0,0,25.4,19l0,.18c0,.16,0,.32-.05.48s0,.43,0,.66v.43l.31,0,.4,0h.49c.56,0,1.15,0,1.72,0a.34.34,0,0,1,.23.05s0,.1,0,.22c-.08.82-.16,1.65-.22,2.48a5,5,0,0,0,0,.54v.17a.29.29,0,0,1-.06.21.28.28,0,0,1-.21.05H25.35Z"/></svg>