<svg id="Слой_1" data-name="Слой 1" xmlns="http://www.w3.org/2000/svg" viewBox="0 0 48.84 48.84"><defs><style>.cls-1{fill:#fff;}.cls-2{opacity:0.5;}</style></defs><title>иконки электрастайл</title><path class="cls-1" d="M30.37,19.63v-.25H29.6c-.7,0-1.4,0-2.11,0-.12,0-.19,0-.22-.05s-.05-.1-.05-.21v-.05c0-.54,0-.54.58-.54h2.53v-5.6l0,0a26.49,26.49,0,0,0-4.27,0l-.19,0-.64.07a7.24,7.24,0,0,0-1.15.25,3.7,3.7,0,0,0-2.24,1.85,6.85,6.85,0,0,0-.53,3.42c0,.2,0,.4,0,.59a.38.38,0,0,1-.06.26.3.3,0,0,1-.22,0c-.44,0-.89,0-1.32,0H19v5.9h2c.13,0,.2,0,.23,0a.32.32,0,0,1,.05.21q0,3.12,0,6.24v2h6V31.85q0-3.17,0-6.34a.28.28,0,0,1,.05-.2s.09,0,.21,0H30v-.11c0-.12,0-.23.05-.35s.06-.48.08-.71c0-.06,0-.23,0-.47a27.59,27.59,0,0,1,.33-4S30.41,19.62,30.37,19.63Zm-4.28,4.55,0,.3c0,.12,0,.23,0,.34v1.33c0,2.05,0,4.09,0,6.14,0,.16,0,.24,0,.28a.39.39,0,0,1-.26.06c-.47,0-1,0-1.5,0H22.61a.37.37,0,0,1-.22,0,.38.38,0,0,1,0-.23V24.18h-.68c-.42,0-.83,0-1.23,0-.12,0-.19,0-.22,0a.31.31,0,0,1,0-.2c0-.94,0-2,0-3.25,0-.1,0-.17,0-.19a.26.26,0,0,1,.18,0h2v-.91c0-.58,0-1.13,0-1.69v-.17a5.09,5.09,0,0,1,.34-1.92,2.51,2.51,0,0,1,1.74-1.5,9.78,9.78,0,0,1,1.83-.23c.56,0,1.13,0,1.68,0H29a.28.28,0,0,1,.16,0,.32.32,0,0,1,0,.17c0,1.1,0,2.08,0,3a.34.34,0,0,1,0,.18.4.4,0,0,1-.2,0H27.53a1.33,1.33,0,0,0-1.39,1.24l0,.18c0,.15,0,.31-.05.48s0,.43,0,.66v.43l.31,0h.85c.58,0,1.17,0,1.76,0,.12,0,.19,0,.22,0a.33.33,0,0,1,0,.22c-.08.83-.15,1.66-.22,2.49,0,.18,0,.36,0,.54v.16a.28.28,0,0,1-.06.21s-.11,0-.21.06H26.09Z"/><g class="cls-2"><path class="cls-1" d="M24.16,48.29.57,31.46,8.78,4h30.4l8.73,26.07ZM1.74,31.06,24.13,47,46.74,29.71,38.46,5H9.53Z"/></g></svg>