<svg id="Слой_1" data-name="Слой 1" xmlns="http://www.w3.org/2000/svg" viewBox="0 0 35 35"><defs><style>.cls-1{fill:#5f7081;}</style></defs><title>иконки электрастайл</title><path class="cls-1" d="M22.06,9.32A5,5,0,0,0,13.7,7.17L12.84,8l-.73-.74A5,5,0,0,0,8.82,5.68l-.09,0h-.6L8,5.69A8.68,8.68,0,0,0,6.7,6a5,5,0,0,0-1.79,8.19c2.46,2.48,4.94,4.93,7.4,7.39a.69.69,0,0,0,1,0l7.41-7.37a4.88,4.88,0,0,0,1.32-2.31c.07-.3.11-.6.16-.91v-.63C22.19,10,22.15,9.65,22.06,9.32ZM4.77,10.83A3.55,3.55,0,0,1,7.34,7.19,3.47,3.47,0,0,1,11,8.06l1,1L7.39,14.74,5.9,13.25A3.62,3.62,0,0,1,4.77,10.83ZM13,20l-.15.19L12.69,20,8.46,15.8l4.38-5.36,4.34,5.4Zm6.9-6.89c-.37.4-.77.78-1.16,1.17l-.5.5L13.68,9.09c.35-.35.7-.71,1.06-1.05a3.49,3.49,0,0,1,3.56-.87,3.48,3.48,0,0,1,2.51,2.66A3.41,3.41,0,0,1,19.91,13.11Z"/></svg>