<svg id="Слой_1" data-name="Слой 1" xmlns="http://www.w3.org/2000/svg" viewBox="0 0 49 49"><defs><style>.cls-1{fill:#fff;}.cls-2{fill:#5E6B76;}</style></defs><title>иконки электрастайл</title><polygon class="cls-1" points="1.64 30.61 9.64 3.85 39.31 3.85 47.81 29.25 24.63 47.02 1.64 30.61"/><path class="cls-2" d="M33.5,18.35a9.27,9.27,0,0,1,.12,1.6v6A8.78,8.78,0,0,1,33.46,28a5.17,5.17,0,0,1-2.3,3.08,7.9,7.9,0,0,1-4.36.9H22.45a10.39,10.39,0,0,1-2.89-.27,5.31,5.31,0,0,1-3.76-3.8,8.64,8.64,0,0,1-.15-2V20.42A10.07,10.07,0,0,1,15.83,18c.64-2.61,3.24-4,5.79-4h5.56a11.36,11.36,0,0,1,1.94.11A5.8,5.8,0,0,1,32.4,16,4.71,4.71,0,0,1,33.5,18.35ZM32.27,23c0-1.34,0-2.68,0-4a3.27,3.27,0,0,0-1-2.37,4,4,0,0,0-2.89-1.24c-2.43,0-4.85,0-7.28,0a4.47,4.47,0,0,0-2.49.67A3.27,3.27,0,0,0,17,18.8c0,2.78,0,5.57,0,8.35a2.74,2.74,0,0,0,.37,1.4,4,4,0,0,0,3.71,2.06h6.81a6.35,6.35,0,0,0,1.23-.07A3.69,3.69,0,0,0,32.28,27C32.26,25.63,32.27,24.3,32.27,23Z"/><path class="cls-2" d="M28.84,22.67a4.2,4.2,0,0,1-8.39,0,4.2,4.2,0,0,1,8.39,0Zm-7,0a2.71,2.71,0,0,0,2.87,2.81,2.71,2.71,0,0,0,2.88-2.82,2.88,2.88,0,0,0-5.75,0Z"/><path class="cls-2" d="M29.36,19a1,1,0,0,1-.87-.89,1.1,1.1,0,0,1,.84-.89,1.06,1.06,0,0,1,.89.87A1,1,0,0,1,29.36,19Z"/></svg>