<svg id="Слой_1" data-name="Слой 1" xmlns="http://www.w3.org/2000/svg" viewBox="0 0 49 49"><defs><style>.cls-1{fill:#5E6F80;}</style></defs><title>иконки электрастайл</title><path class="cls-1" d="M33.5,18a9.34,9.34,0,0,1,.12,1.6v6a8.87,8.87,0,0,1-.16,2.06,5.12,5.12,0,0,1-2.3,3.07,7.82,7.82,0,0,1-4.36.91H22.45a10.78,10.78,0,0,1-2.89-.26,5.35,5.35,0,0,1-3.76-3.8,8.68,8.68,0,0,1-.15-2V20.07a10.07,10.07,0,0,1,.19-2.39c.64-2.61,3.24-4,5.79-4h5.56a11.36,11.36,0,0,1,1.94.11,5.86,5.86,0,0,1,3.28,1.85A4.75,4.75,0,0,1,33.5,18Zm-1.23,4.63c0-1.34,0-2.69,0-4a3.25,3.25,0,0,0-1-2.36A3.92,3.92,0,0,0,28.43,15c-2.43,0-4.85,0-7.28,0a4.47,4.47,0,0,0-2.49.67A3.24,3.24,0,0,0,17,18.44c0,2.79,0,5.57,0,8.36a2.77,2.77,0,0,0,.37,1.4,4,4,0,0,0,3.71,2.06h6.81a6.36,6.36,0,0,0,1.23-.08,3.67,3.67,0,0,0,3.16-3.58C32.26,25.27,32.27,23.94,32.27,22.62Z"/><path class="cls-1" d="M28.84,22.32a4.26,4.26,0,0,1-4.17,4.11,4.21,4.21,0,0,1-4.22-4.15,4.2,4.2,0,0,1,8.39,0Zm-7,0a2.72,2.72,0,0,0,2.87,2.81,2.72,2.72,0,0,0,2.88-2.82,2.88,2.88,0,0,0-5.75,0Z"/><path class="cls-1" d="M29.36,18.67a1,1,0,0,1-.87-.89,1.1,1.1,0,0,1,.84-.89,1.06,1.06,0,0,1,.89.88A1,1,0,0,1,29.36,18.67Z"/><g class="cls-2"><path class="cls-1" d="M24.64,47.29,1.06,30.46,9.27,3h30.4L48.4,29.07ZM2.22,30.06l22.4,16,22.6-17.33L39,4H10Z"/></g></svg>