<svg id="Слой_1" data-name="Слой 1" xmlns="http://www.w3.org/2000/svg" viewBox="0 0 25 25"><defs><style>.cls-1{fill:#cfaa9d;}</style></defs><title>иконки электрастайл</title><path class="cls-1" d="M18.65,7.71a6,6,0,0,0-4.84-4.57c-.21-.05-.44-.07-.66-.1h-.91l-.1,0A6,6,0,0,0,8,5.22a6.07,6.07,0,0,0-.82,6.59c.41.87.88,1.71,1.33,2.56,1.18,2.18,2.37,4.36,3.54,6.54a.7.7,0,0,0,.63.44.69.69,0,0,0,.63-.45c.52-1,1-2,1.57-3,1.07-2,2.17-4,3.23-6a6.36,6.36,0,0,0,.45-1.22,10.74,10.74,0,0,0,.22-1.13V8.71A8,8,0,0,0,18.65,7.71ZM16.94,11.4c-1.36,2.54-2.74,5.07-4.11,7.6l-.12.2-1.12-2.07c-1-1.9-2.09-3.79-3.09-5.72a4.65,4.65,0,0,1,.28-5,4.74,4.74,0,0,1,5-2,4.8,4.8,0,0,1,3.69,3.78A4.72,4.72,0,0,1,16.94,11.4Z"/><path class="cls-1" d="M12.71,5.65a3.49,3.49,0,1,0,3.5,3.49A3.49,3.49,0,0,0,12.71,5.65Zm0,5.67A2.18,2.18,0,1,1,14.9,9.14,2.18,2.18,0,0,1,12.71,11.32Z"/></svg>