<svg id="Слой_1" data-name="Слой 1" xmlns="http://www.w3.org/2000/svg" viewBox="0 0 84.92 88.71"><defs><style>.cls-1{fill:#fff;}</style></defs><title>иконки электрастайл</title><path class="cls-1" d="M19.82,78.74c-1.19-.64-2.31-1.24-2.31-2.32s.77-1.52,1.83-1.52a3.11,3.11,0,0,1,2.85,1.9h0l-.08-2.21a7.13,7.13,0,0,0-2.61-.44c-2.37,0-3.93,1-3.93,2.75s1.41,2.42,2.77,3.17c1.18.64,2.21,1.27,2.21,2.4s-1.05,1.68-2.32,1.68a4.51,4.51,0,0,1-2.94-1.09l-.22.19A4,4,0,0,0,18.74,85c2.17,0,3.9-.94,3.9-2.94C22.64,80.32,21.21,79.49,19.82,78.74Z"/><path class="cls-1" d="M25.51,74.35l-.08,2.12h.07c.23-1.07,1.34-1.36,2.5-1.36.85,0,1.28.13,1.28.85V84.8h2.54v0c-.38,0-.43-1.06-.43-1.32V76c0-.72.42-.85,1.26-.85,1.16,0,2.28.29,2.51,1.36h.05l-.09-2.12Z"/><path class="cls-1" d="M45.07,75.81l-2.26,3.72-2.42-3.88a4,4,0,0,1-.62-1.3H37.15a20,20,0,0,1,1.56,2.33l2.52,4v4.1h2.54v0c-.38,0-.43-1.11-.43-1.36V82.2a5.23,5.23,0,0,1,.3-2,6,6,0,0,1,.53-1l2-3.33a7.89,7.89,0,0,1,1.08-1.48h-1.6A3.45,3.45,0,0,1,45.07,75.81Z"/><path class="cls-1" d="M55,84h-.66c-1,0-1.5,0-1.5-.57V74.35H50.45v.06a2.52,2.52,0,0,1,.27,1.1V84.8H58l.13-2.06h-.05C57.62,83.77,56.56,84,55,84Z"/><path class="cls-1" d="M65.39,84h-.94c-.68,0-1.2,0-1.2-.48v-3.8h1.66c.62,0,2,0,2.13.59h0V78.69h0c-.12.21-1.5.26-1.88.26H63.25V75.11h1.66c1.55,0,2.46.4,2.68,1.18h.06l-.13-1.94H60.86v.06a2.52,2.52,0,0,1,.27,1.1V84.8h6.94l.11-2h-.06C67.75,83.61,67.14,84,65.39,84Z"/><path class="cls-1" d="M2.27,69.64H9.2l.12-2H9.25c-.36.82-1,1.23-2.72,1.23H5.59c-.68,0-1.2,0-1.2-.48V64.56H6.05c.62,0,2,0,2.12.6h.05V63.53H8.17c-.11.21-1.49.25-1.87.25H4.39V59.94H6.05c1.54,0,2.46.41,2.67,1.18h.07l-.13-1.94H2v.06a2.59,2.59,0,0,1,.27,1.11Z"/><path class="cls-1" d="M20.63,69.64l.13-2.06h-.05c-.5,1-1.56,1.27-3.12,1.27h-.66c-.95,0-1.5,0-1.5-.57v-9.1H13v.06a2.59,2.59,0,0,1,.27,1.11v9.29Z"/><path class="cls-1" d="M30.66,69.64l.11-2h-.06c-.37.82-1,1.23-2.73,1.23H27c-.68,0-1.2,0-1.2-.48V64.56H27.5c.62,0,2,0,2.13.6h.05V63.53h-.05c-.12.21-1.5.25-1.88.25H25.84V59.94H27.5c1.54,0,2.46.41,2.67,1.18h.07l-.13-1.94H23.45v.06a2.59,2.59,0,0,1,.27,1.11v9.29Z"/><path class="cls-1" d="M44.22,68.35,44,68.12a5.29,5.29,0,0,1-2.93.77,4.49,4.49,0,0,1-4.83-4.79c0-2.42,1.21-4.35,4-4.35a4.2,4.2,0,0,1,3.82,2h0L44,59.54A10.06,10.06,0,0,0,40.39,59c-3.74,0-6.48,1.88-6.48,5.38s2.71,5.45,6.18,5.45A5.52,5.52,0,0,0,44.22,68.35Z"/><path class="cls-1" d="M50.58,69.64h2.54v0c-.39,0-.44-1.06-.44-1.31V60.8c0-.72.42-.86,1.27-.86,1.16,0,2.27.29,2.5,1.36h0l-.08-2.12H46.81l-.08,2.12h.06c.24-1.07,1.35-1.36,2.51-1.36.85,0,1.28.14,1.28.86Z"/><path class="cls-1" d="M64.86,64.63c1.51-.38,2.74-1.19,2.74-2.74,0-2-1.79-2.71-4.23-2.71H59.78v.06A2.56,2.56,0,0,1,60,60.35v9.29H62.6v0c-.38,0-.43-1.1-.43-1.36V64.9a2.82,2.82,0,0,1,2.23,1.63l.64,1c.43.69.88,1.39,1.26,2.08h2.81v0C68.08,69.28,66.54,65.32,64.86,64.63Zm-1.58-.34A1.7,1.7,0,0,1,62.17,64V60a7.31,7.31,0,0,1,.91-.06c1.51,0,2.28.75,2.28,2.15A2,2,0,0,1,63.28,64.29Z"/><path class="cls-1" d="M80.46,67.23l-.4-.89c.21-.07.43-.14.64-.19a4.27,4.27,0,0,1,2,0,2.92,2.92,0,0,0-2-1,4,4,0,0,0-1.14.12l-2.9-6.36h-.79l-4.2,9a19.52,19.52,0,0,1-.9,1.78h1.72v0c-.33-.1-.09-.67.19-1.28l3-6.74,2,4.29a10.43,10.43,0,0,1-1,.3,4.14,4.14,0,0,1-2,0,2.92,2.92,0,0,0,2,1,4.66,4.66,0,0,0,1.51-.2l1.22,2.68H82v0C81.52,69.47,80.76,67.88,80.46,67.23Z"/><rect class="cls-1" x="2.27" y="79.11" width="9.3" height="0.81"/><rect class="cls-1" x="71.98" y="79.11" width="9.29" height="0.81"/><polygon class="cls-1" points="44 48.32 41.77 45.44 39.53 48.32 41.76 51.2 44 48.32"/><polygon class="cls-1" points="63.9 33.87 67.33 32.63 65.28 29.61 61.85 30.85 63.9 33.87"/><polygon class="cls-1" points="57.68 6.22 57.56 2.58 54.06 3.59 54.17 7.24 57.68 6.22"/><polygon class="cls-1" points="29.46 3.6 25.96 2.58 25.84 6.23 29.35 7.24 29.46 3.6"/><polygon class="cls-1" points="21.68 30.86 18.25 29.62 16.21 32.64 19.64 33.88 21.68 30.86"/><path class="cls-1" d="M37.21,12.8a5.1,5.1,0,0,0,4.56-2.12c2.09-3,1.33-8.11,4.55-8.11,1.88,0,3.41,1.13,3.41,4.55,0,2.27-1.14,4.55-4.55,4.55A8.73,8.73,0,0,0,47.45,6a1.14,1.14,0,1,0-2.27,0,9.26,9.26,0,0,1-3,6.82h4.09a5.69,5.69,0,0,0,0-11.37,5.1,5.1,0,0,0-4.56,2.12h0c-2.09,3-1.33,8.12-4.55,8.12-1.88,0-3.41-1.14-3.41-4.55,0-2.28,1.14-4.55,4.55-4.55a8.69,8.69,0,0,0-2.27,5.68,1.14,1.14,0,1,0,2.27,0A9.26,9.26,0,0,1,41.3,1.43H37.21a5.69,5.69,0,0,0,0,11.37Z"/><path class="cls-1" d="M51.31,16.43a5.08,5.08,0,0,0,3.43,3.67h0c3.5,1.06,8.13-1.24,9.12,1.82.59,1.79,0,3.59-3.27,4.65-2.16.7-4.68.33-5.73-2.92a8.67,8.67,0,0,0,6.11.4,1.14,1.14,0,0,0-.7-2.16,9.28,9.28,0,0,1-7.41-.7l1.27,3.89A5.69,5.69,0,0,0,65,21.56a5.11,5.11,0,0,0-3.43-3.67c-3.5-1.06-8.13,1.25-9.13-1.81-.58-1.79,0-3.6,3.27-4.66,2.17-.7,4.68-.32,5.74,2.92a8.69,8.69,0,0,0-6.11-.4A1.14,1.14,0,0,0,56,16.1a9.25,9.25,0,0,1,7.4.7l-1.26-3.89a5.69,5.69,0,1,0-10.82,3.52Z"/><path class="cls-1" d="M60.17,32.21A5.68,5.68,0,0,0,52.23,31a5.1,5.1,0,0,0-2.44,4.39h0c.08,3.66,3.7,7.35,1.1,9.24-1.52,1.11-3.43,1.09-5.44-1.67-1.33-1.84-1.75-4.35,1-6.36A8.73,8.73,0,0,0,48,42.5a1.14,1.14,0,0,0,1.84-1.34,9.29,9.29,0,0,1-1.63-7.25l-3.3,2.4a5.69,5.69,0,1,0,6.69,9.2A5.07,5.07,0,0,0,54,41.12c-.07-3.66-3.7-7.35-1.1-9.24,1.53-1.11,3.43-1.09,5.44,1.67,1.34,1.84,1.76,4.35-1,6.35A8.68,8.68,0,0,0,55.82,34,1.14,1.14,0,1,0,54,35.31a9.24,9.24,0,0,1,1.63,7.25l3.31-2.41A5.68,5.68,0,0,0,60.17,32.21Z"/><path class="cls-1" d="M37,40.67a1.14,1.14,0,0,0-1.85-1.33,9.22,9.22,0,0,1-6.39,3.79L32,45.54a5.69,5.69,0,0,0,6.67-9.22,5.07,5.07,0,0,0-4.93-1h0c-3.45,1.2-5.84,5.79-8.44,3.9-1.53-1.1-2.1-2.92-.1-5.68,1.34-1.85,3.59-3,6.36-1a8.71,8.71,0,0,0-5.18,3.27,1.14,1.14,0,0,0,1.84,1.34,9.29,9.29,0,0,1,6.4-3.8L31.32,31a5.69,5.69,0,0,0-6.67,9.21,5.1,5.1,0,0,0,4.93,1c3.45-1.21,5.84-5.8,8.45-3.91,1.52,1.11,2.09,2.93.09,5.69-1.33,1.84-3.59,3-6.35,1A8.73,8.73,0,0,0,37,40.67Z"/><path class="cls-1" d="M22.25,28.78a5.7,5.7,0,0,0,7.16-3.67,5.11,5.11,0,0,0-.62-5h0c-2.22-2.91-7.32-3.76-6.33-6.82.58-1.79,2.13-2.9,5.38-1.85,2.16.7,4,2.48,2.93,5.73a8.68,8.68,0,0,0-4.71-3.92,1.14,1.14,0,0,0-.7,2.17A9.28,9.28,0,0,1,31,20.35l1.25-3.9A5.68,5.68,0,1,0,21.38,13a5.06,5.06,0,0,0,.62,5h0c2.21,2.91,7.31,3.76,6.32,6.83-.58,1.79-2.13,2.89-5.38,1.84-2.16-.7-4-2.48-2.93-5.72a8.73,8.73,0,0,0,4.72,3.91,1.14,1.14,0,0,0,.7-2.17,9.28,9.28,0,0,1-5.59-4.9l-1.26,3.89A5.7,5.7,0,0,0,22.25,28.78Z"/><path class="cls-1" d="M39.83,18.7c1.55,0,2.46.4,2.68,1.18h.06l-.13-1.94H35.79V18a2.64,2.64,0,0,1,.26,1.1v9.29H43l.11-2H43c-.37.83-1,1.23-2.72,1.23h-1c-.68,0-1.2-.05-1.2-.48V23.31h1.66l.69,0a4.38,4.38,0,0,1,0-.52,2.64,2.64,0,0,1,0-.29H38.17V18.7Z"/><path class="cls-1" d="M48.08,28c0-1.72-1.42-2.56-2.82-3.3C44.07,24,43,23.42,43,22.34s.76-1.52,1.82-1.52a3.13,3.13,0,0,1,2.86,1.9h0l-.09-2.21a7.11,7.11,0,0,0-2.6-.44c-2.38,0-3.94,1-3.94,2.75s1.41,2.42,2.77,3.17C45,26.63,46,27.26,46,28.39s-1,1.67-2.32,1.67a4.53,4.53,0,0,1-2.67-.89h-.49a4,4,0,0,0,3.62,1.73C46.36,30.9,48.08,30,48.08,28Z"/></svg>