<svg id="Слой_1" data-name="Слой 1" xmlns="http://www.w3.org/2000/svg" viewBox="0 0 109.33 109.33"><defs><style>.cls-1{fill:#cfaa9d;}</style></defs><title>иконки электрастайл</title>
<path class="cls-1" d="M27.12,98.7c-1.45-.78-2.81-1.51-2.81-2.82S25.24,94,26.54,94A3.82,3.82,0,0,1,30,96.33h.06L30,93.64a8.83,8.83,0,0,0-3.18-.53c-2.9,0-4.8,1.26-4.8,3.35s1.72,3,3.38,3.86c1.44.79,2.69,1.55,2.69,2.94s-1.27,2-2.83,2A5.51,5.51,0,0,1,21.66,104l-.27.23a4.88,4.88,0,0,0,4.42,2.12c2.65,0,4.75-1.15,4.75-3.59C30.56,100.63,28.82,99.61,27.12,98.7Z"/>
<path class="cls-1" d="M34.07,93.35,34,95.93h.08c.28-1.31,1.64-1.66,3.06-1.66,1,0,1.56.17,1.56,1V106.1h3.09V106c-.46,0-.52-1.29-.52-1.6V95.31c0-.87.5-1,1.54-1,1.41,0,2.77.35,3,1.66h.06l-.1-2.58Z"/>
<path class="cls-1" d="M57.92,95.13l-2.75,4.54-3-4.74a4.61,4.61,0,0,1-.74-1.58h-3.2a25.86,25.86,0,0,1,1.9,2.84l3.08,4.9v5h3.09V106c-.46,0-.52-1.34-.52-1.65v-1.46a6.48,6.48,0,0,1,.36-2.48,7.64,7.64,0,0,1,.65-1.24l2.47-4.06a9.88,9.88,0,0,1,1.32-1.8H58.67A4.14,4.14,0,0,1,57.92,95.13Z"/>
<path class="cls-1" d="M70,105.13h-.81c-1.15,0-1.82,0-1.82-.69V93.35H64.49v.07a3,3,0,0,1,.33,1.35V106.1h8.93l.16-2.52h-.06C73.24,104.84,72,105.13,70,105.13Z"/>
<path class="cls-1" d="M82.72,105.13H81.56c-.83,0-1.45,0-1.45-.58V99.91h2c.75,0,2.47,0,2.59.72h.07v-2h-.07c-.14.25-1.82.31-2.28.31H80.11V94.27h2c1.89,0,3,.5,3.26,1.44h.08l-.16-2.36H77.19v.07a3.16,3.16,0,0,1,.33,1.35V106.1H86l.14-2.46H86C85.59,104.64,84.85,105.13,82.72,105.13Z"/>
<path class="cls-1" d="M5.71,87.6h8.46l.14-2.46h-.08c-.44,1-1.19,1.49-3.32,1.49H9.76c-.83,0-1.46,0-1.46-.58V81.41h2c.75,0,2.47,0,2.59.72H13v-2h-.06c-.14.25-1.82.31-2.29.31H8.3V75.77h2c1.88,0,3,.5,3.26,1.44h.08l-.16-2.36H5.39v.07a3.13,3.13,0,0,1,.32,1.35Z"/>
<path class="cls-1" d="M28.11,87.6l.16-2.52h-.06c-.61,1.26-1.9,1.55-3.81,1.55h-.81c-1.15,0-1.82,0-1.82-.69V74.85H18.86v.07a3.13,3.13,0,0,1,.32,1.35V87.6Z"/>
<path class="cls-1" d="M40.34,87.6l.14-2.46H40.4c-.44,1-1.19,1.49-3.32,1.49H35.93c-.83,0-1.46,0-1.46-.58V81.41h2c.75,0,2.48,0,2.6.72h.06v-2h-.06c-.14.25-1.83.31-2.29.31H34.47V75.77h2c1.89,0,3,.5,3.26,1.44h.09l-.17-2.36H31.55v.07a3,3,0,0,1,.33,1.35V87.6Z"/>
<path class="cls-1" d="M56.89,86l-.26-.29a6.51,6.51,0,0,1-3.59,1,5.48,5.48,0,0,1-5.89-5.85c0-3,1.48-5.3,4.84-5.3A5.11,5.11,0,0,1,56.64,78h.07l-.13-2.7a12.2,12.2,0,0,0-4.37-.67c-4.56,0-7.9,2.3-7.9,6.56s3.3,6.65,7.54,6.65A6.73,6.73,0,0,0,56.89,86Z"/>
<path class="cls-1" d="M64.64,87.6h3.1v-.06c-.46,0-.52-1.29-.52-1.6V76.81c0-.87.5-1,1.53-1,1.42,0,2.78.35,3.06,1.66h.06l-.1-2.58H60.05L60,77.43H60c.28-1.31,1.64-1.66,3-1.66,1,0,1.56.17,1.56,1Z"/>
<path class="cls-1" d="M82.07,81.5c1.84-.48,3.34-1.46,3.34-3.36,0-2.4-2.19-3.29-5.17-3.29H75.87v.07a3.13,3.13,0,0,1,.32,1.35V87.6h3.12v-.06c-.46,0-.52-1.34-.52-1.65V81.82a3.41,3.41,0,0,1,2.71,2l.79,1.26c.52.84,1.07,1.69,1.54,2.53h3.42v-.06C86,87.16,84.11,82.33,82.07,81.5Zm-1.93-.42a2.08,2.08,0,0,1-1.35-.35V75.79a8.7,8.7,0,0,1,1.11-.07c1.84,0,2.77.91,2.77,2.62S81.8,81.08,80.14,81.08Z"/>
<path class="cls-1" d="M101.1,84.67l-.5-1.09c.27-.08.53-.17.79-.23a5.08,5.08,0,0,1,2.48,0,3.58,3.58,0,0,0-2.48-1.24,5.52,5.52,0,0,0-1.39.14L96.46,74.5h-1L90.37,85.43a23,23,0,0,1-1.09,2.17h2.1v-.06c-.4-.12-.12-.81.22-1.56l3.69-8.22L97.67,83a11.58,11.58,0,0,1-1.24.36,5.08,5.08,0,0,1-2.48,0,3.6,3.6,0,0,0,2.48,1.23,5.9,5.9,0,0,0,1.85-.25l1.48,3.27H103v-.06C102.4,87.4,101.47,85.45,101.1,84.67Z"/>
<rect class="cls-1" x="5.71" y="99.15" width="11.34" height="0.99"/>
<rect class="cls-1" x="90.75" y="99.15" width="11.34" height="0.99"/>
<polygon class="cls-1" points="56.63 61.6 53.9 58.08 51.16 61.59 53.89 65.11 56.63 61.6"/>
<polygon class="cls-1" points="80.89 43.96 85.08 42.45 82.58 38.77 78.4 40.28 80.89 43.96"/>
<polygon class="cls-1" points="73.31 10.24 73.16 5.79 68.89 7.03 69.03 11.47 73.31 10.24"/>
<polygon class="cls-1" points="38.89 7.04 34.62 5.8 34.47 10.25 38.74 11.48 38.89 7.04"/>
<polygon class="cls-1" points="29.4 40.3 25.21 38.78 22.72 42.47 26.9 43.98 29.4 40.3"/>
<path class="cls-1" d="M48.34,18.27a6.2,6.2,0,0,0,5.55-2.59c2.56-3.66,1.63-9.9,5.56-9.9,2.29,0,4.16,1.39,4.16,5.55,0,2.78-1.39,5.55-5.55,5.55a10.61,10.61,0,0,0,2.77-6.94,1.39,1.39,0,1,0-2.77,0,11.32,11.32,0,0,1-3.6,8.33h5a6.94,6.94,0,0,0,0-13.88C56.6,4.39,55,5.46,53.89,7h0c-2.55,3.66-1.62,9.9-5.55,9.9-2.29,0-4.16-1.39-4.16-5.55,0-2.78,1.39-5.55,5.55-5.55A10.61,10.61,0,0,0,47,12.72a1.39,1.39,0,1,0,2.77,0,11.32,11.32,0,0,1,3.6-8.33h-5a6.94,6.94,0,0,0,0,13.88Z"/>
<path class="cls-1" d="M65.54,22.69a6.2,6.2,0,0,0,4.18,4.48h0c4.27,1.29,9.92-1.52,11.13,2.21.71,2.19,0,4.39-4,5.68-2.64.86-5.71.4-7-3.56a10.59,10.59,0,0,0,7.45.49,1.39,1.39,0,0,0-.85-2.64,11.32,11.32,0,0,1-9-.85L69,33.25A6.94,6.94,0,0,0,82.17,29C81.29,26.25,79.76,25,78,24.48c-4.27-1.3-9.92,1.52-11.13-2.22-.71-2.18,0-4.39,4-5.67,2.64-.86,5.71-.4,7,3.56a10.66,10.66,0,0,0-7.46-.5,1.39,1.39,0,1,0,.86,2.64,11.3,11.3,0,0,1,9,.85L78.74,18.4a6.94,6.94,0,0,0-13.2,4.29Z"/>
<path class="cls-1" d="M76.35,41.94a7,7,0,0,0-9.7-1.53c-2.29,1.68-3,3.52-3,5.36h0c.09,4.46,4.51,9,1.34,11.28-1.86,1.35-4.18,1.32-6.64-2-1.63-2.25-2.14-5.31,1.23-7.76a10.64,10.64,0,0,0,1.84,7.25,1.39,1.39,0,1,0,2.24-1.64,11.33,11.33,0,0,1-2-8.85l-4,2.94a6.94,6.94,0,1,0,8.17,11.22c2.3-1.68,3-3.52,3-5.36-.09-4.46-4.51-9-1.34-11.27,1.86-1.36,4.18-1.33,6.63,2,1.64,2.25,2.15,5.31-1.22,7.76A10.64,10.64,0,0,0,71,44.08a1.39,1.39,0,0,0-2.24,1.64,11.33,11.33,0,0,1,2,8.85l4-2.94A6.94,6.94,0,0,0,76.35,41.94Z"/>
<path class="cls-1" d="M48,52.27a1.39,1.39,0,0,0-2.25-1.63A11.3,11.3,0,0,1,38,55.27l4,2.93A6.94,6.94,0,0,0,50.15,47a6.23,6.23,0,0,0-6-1.17h0c-4.21,1.46-7.12,7.06-10.3,4.76C32,49.21,31.27,47,33.72,43.62c1.62-2.25,4.38-3.68,7.75-1.24a10.62,10.62,0,0,0-6.32,4A1.39,1.39,0,1,0,37.4,48a11.3,11.3,0,0,1,7.8-4.63l-4-2.93A6.94,6.94,0,0,0,33,51.68c2.3,1.67,4.27,1.77,6,1.16,4.21-1.46,7.12-7.06,10.3-4.76,1.86,1.35,2.56,3.57.12,6.94-1.63,2.25-4.38,3.68-7.75,1.24A10.64,10.64,0,0,0,48,52.27Z"/>
<path class="cls-1" d="M30.08,37.76a7,7,0,0,0,8.74-4.47c.87-2.71.36-4.61-.76-6.08-2.7-3.56-8.92-4.59-7.72-8.33.71-2.18,2.61-3.53,6.57-2.25,2.64.85,4.85,3,3.57,7a10.58,10.58,0,0,0-5.75-4.78,1.39,1.39,0,0,0-.85,2.64,11.33,11.33,0,0,1,6.82,6l1.53-4.75A6.94,6.94,0,1,0,29,18.46a6.21,6.21,0,0,0,.76,6.07c2.7,3.56,8.93,4.59,7.72,8.33-.71,2.18-2.6,3.53-6.56,2.26-2.64-.86-4.86-3-3.58-7a10.63,10.63,0,0,0,5.75,4.77A1.39,1.39,0,1,0,34,30.26a11.33,11.33,0,0,1-6.82-6L25.61,29A7,7,0,0,0,30.08,37.76Z"/>
<path class="cls-1" d="M51.54,25.46c1.88,0,3,.49,3.26,1.44h.08l-.16-2.37H46.6v.07A3.16,3.16,0,0,1,46.92,26V37.28h8.47l.14-2.46h-.08c-.45,1-1.2,1.5-3.32,1.5H51c-.83,0-1.46-.06-1.46-.59V31.09h2c.22,0,.52,0,.84,0a4.23,4.23,0,0,1-.05-.63c0-.12,0-.24,0-.36H49.51V25.46Z"/>
<path class="cls-1" d="M61.6,36.76c0-2.1-1.74-3.12-3.44-4-1.46-.78-2.81-1.51-2.81-2.82s.93-1.86,2.22-1.86a3.82,3.82,0,0,1,3.49,2.31h.06l-.1-2.7a9.06,9.06,0,0,0-3.18-.52c-2.9,0-4.8,1.25-4.8,3.35s1.72,2.95,3.38,3.86c1.44.78,2.69,1.55,2.69,2.93s-1.27,2-2.83,2A5.55,5.55,0,0,1,53,38.23h-.59a4.88,4.88,0,0,0,4.41,2.11C59.5,40.34,61.6,39.2,61.6,36.76Z"/></svg>