<svg id="Слой_1" data-name="Слой 1" xmlns="http://www.w3.org/2000/svg" viewBox="0 0 48 46"><defs><style>.cls-1{fill:#fff;}.cls-2{fill:#5f7081;}</style></defs><title>иконки электрастайл</title><polygon class="cls-1" points="8.92 0.15 37.92 0.15 47.58 27.65 23.08 45.98 0.42 27.48 8.92 0.15"/><path class="cls-2" d="M16.05,12.35l3.52,4.26v0l-.1-3.87-.74-.21v-.16H20.6v.16l-.61.21-.13,5.39h-.18l-4-4.93,0,0,.11,4.42.76.22V18h-2v-.15l.72-.22.08-4.84-.84-.27v-.16Z"/><path class="cls-2" d="M21.33,17.84l.78-.22v-4.9l-.78-.21v-.16h4.1v1.23h-.19c-.27-.72-.38-.88-1-.88H23v2.17l1.39,0,.21-.68h.17V15.9h-.18l-.2-.68-1.39,0v2.43h1.34c.77,0,.93,0,1.2-1.09h.2V18h-4.4Z"/><path class="cls-2" d="M28.38,12.35v.16l-.62.21.95,3.78h0l1.49-4.14h.14l1.53,4.14h0l.91-3.78-.7-.21v-.16h1.68v.16l-.48.21-1.57,5.4h-.12l-1.54-4.24h0l-1.62,4.24h-.14l-1.46-5.4-.52-.21v-.16Z"/><path class="cls-2" d="M9.67,27.84l.67-.22.29-4.85-.79-.26v-.16h1.57l1.89,4.23h0l1.88-4.23h1.56v.16l-.74.21.16,4.9.66.22V28H14.65v-.15l.66-.22-.15-4.4h0L13.08,28H13L11,23.29h0l-.07,4.33.69.22V28H9.67Z"/><path class="cls-2" d="M17.66,25.2a2.92,2.92,0,0,1,3.1-3,2.61,2.61,0,0,1,2.83,2.84,2.93,2.93,0,0,1-3.06,3.05A2.71,2.71,0,0,1,17.66,25.2Zm1-.05c0,1.62.84,2.66,2,2.66s2-1.08,2-2.64-.82-2.64-2-2.64S18.63,23.62,18.63,25.15Z"/><path class="cls-2" d="M24.37,27.84l.78-.22v-4.9l-.78-.21v-.16h2.42c1.66,0,3.18.49,3.18,2.66s-1.44,3-3.32,3H24.37ZM26,27.62a4.25,4.25,0,0,0,.67.06c1.49,0,2.32-.87,2.32-2.62s-.72-2.42-2.31-2.42a4,4,0,0,0-.68.06Z"/><path class="cls-2" d="M30.75,27.84l.78-.22v-4.9l-.78-.21v-.16h4.1v1.23h-.2c-.26-.72-.37-.88-1-.88H32.4v2.17l1.4,0,.21-.68h.17V25.9H34l-.2-.68-1.4,0v2.43h1.34c.78,0,.94,0,1.21-1.09h.2V28h-4.4Z"/><path class="cls-2" d="M36,27.84l.78-.22v-4.9L36,22.51v-.16h2.43v.16l-.78.21v4.89H39c.81,0,1-.23,1.23-1.19h.2V28H36Z"/></svg>