<svg id="Слой_1" data-name="Слой 1" xmlns="http://www.w3.org/2000/svg" viewBox="0 0 25 25"><defs><style>.cls-1{fill:#cfaa9d;}</style></defs><title>иконки электрастайл</title><path class="cls-1" d="M20.18,16.39c-.7-.65-1.36-1.34-2.08-2A1.63,1.63,0,0,0,16,14.25c-.22.15-.42.34-.63.5a1.24,1.24,0,0,1-1.68,0,2.85,2.85,0,0,1-.43-.42c-.46-.56-.91-1.13-1.35-1.69a2.74,2.74,0,0,1-.29-.46,1.26,1.26,0,0,1,.37-1.7c.15-.13.32-.24.48-.37A1.63,1.63,0,0,0,12.91,8c-.45-.86-1-1.7-1.5-2.53a1.7,1.7,0,0,0-2.36-.61A6.54,6.54,0,0,0,7.41,6.18a5.45,5.45,0,0,0-1.3,2.23,4.93,4.93,0,0,0,.23,3.15A9.6,9.6,0,0,0,7.8,14.13Q9.2,16,10.67,17.75a11.76,11.76,0,0,0,2.11,2.06A5.77,5.77,0,0,0,15.48,21H16l.31,0a6.55,6.55,0,0,0,4-2A1.72,1.72,0,0,0,20.18,16.39Zm-1.13,1.44a6,6,0,0,1-1.59,1.1,4,4,0,0,1-1.47.42,3,3,0,0,1-1.6-.46,7.22,7.22,0,0,1-1.91-1.57,50.86,50.86,0,0,1-3.83-4.84,7.78,7.78,0,0,1-.9-1.83A3,3,0,0,1,8.2,7.8,6.73,6.73,0,0,1,9.58,6.41l.2-.14L10,6.18l.91,1.52c.17.28.35.57.52.87s.12.23-.08.38a3.76,3.76,0,0,0-1.15,1.26A2.86,2.86,0,0,0,10.25,13a5.33,5.33,0,0,0,.5.74c.49.62,1,1.25,1.5,1.84a3,3,0,0,0,1.81,1A3,3,0,0,0,16.44,16a2.52,2.52,0,0,0,.35-.3c.12-.12.22-.1.33,0l.63.6c.43.41.86.83,1.29,1.23C19.15,17.66,19.15,17.73,19.05,17.83Z"/></svg>