<svg id="Слой_1" data-name="Слой 1" xmlns="http://www.w3.org/2000/svg" viewBox="0 0 48 46"><defs><style>.cls-1{fill:#c0a296;}.cls-2{fill:#fff;}</style></defs><title>иконки электрастайл</title><polygon class="cls-1" points="1.15 27.2 9.44 0.54 37.72 0.54 47.14 27.36 23.25 45.24 1.15 27.2"/><path class="cls-2" d="M37.36,1l9.19,26.14L23.26,44.61,1.73,27,9.81,1H37.36m.71-1h-29L.57,27.37l22.67,18.5,24.5-18.33L38.07,0Z"/><path class="cls-2" d="M16.64,19.7a1.21,1.21,0,0,0-1.29-1,1,1,0,0,0-1.07,1.06c0,1.55,2.91,1.27,2.91,3.28A2,2,0,0,1,15,24.86a3.14,3.14,0,0,1-1.59-.41V23.18h.22c.22,1,.81,1.34,1.4,1.34a1.14,1.14,0,0,0,1.26-1.13c0-1.6-2.82-1.29-2.82-3.33a1.78,1.78,0,0,1,2-1.74,3.11,3.11,0,0,1,1.39.31V19.7Z"/><path class="cls-2" d="M20.89,18.33h.18l2.42,6,.55.24v.17H21.71v-.17l.76-.24-.64-1.57h-2.3l-.62,1.57.73.24v.17H17.77v-.17l.58-.24Zm-1.18,3.94h1.93l-1-2.57h0Z"/><path class="cls-2" d="M24.5,24.55l.87-.24V18.87l-.87-.24v-.17h2.7v.17l-.86.24V24.3h1.48c.91,0,1.16-.26,1.37-1.32h.22v1.74H24.5Z"/><path class="cls-2" d="M30,24.55l.87-.24V18.87L30,18.63v-.17h4.56v1.36h-.22c-.29-.8-.42-1-1.16-1H31.87v2.41l1.55,0,.23-.76h.19V22.4h-.2l-.22-.76-1.55,0v2.7h1.49c.86,0,1,0,1.34-1.21h.22v1.63H30Z"/></svg>