<svg id="Слой_1" data-name="Слой 1" xmlns="http://www.w3.org/2000/svg" viewBox="0 0 20 20"><defs><style>.cls-1{fill:#c0a296;}</style></defs><title>иконки электрастайл</title><path class="cls-1" d="M19.39,17.13a3.32,3.32,0,0,0-1.12-1.79c-.53-.51-1.05-1-1.56-1.55l-1-1s-.05-.06,0-.09a7.59,7.59,0,0,0,.74-5.18A7.89,7.89,0,0,0,7.44,1.26,7.87,7.87,0,0,0,5.06,16a7.81,7.81,0,0,0,7,.12l.16-.08a1.52,1.52,0,0,1,.17-.09.69.69,0,0,1,.14.15l.12.13.89.89q.95,1,1.92,1.92a2.32,2.32,0,0,0,1.64.67,2.22,2.22,0,0,0,.57-.07,2.33,2.33,0,0,0,1.64-1.55c0-.1,0-.19.07-.28l0-.16Zm-5.65-4.3a6.33,6.33,0,0,1-5.07,2.54h0a6.35,6.35,0,1,1,0-12.69h0a6.35,6.35,0,0,1,5.2,10l-.06.08Zm1.11,1.27.63.64,2.11,2.1a.82.82,0,0,1,.25.71.75.75,0,0,1-.4.56h0a.74.74,0,0,1-.89-.1c-.73-.71-1.45-1.44-2.15-2.14l-.66-.66Z"/></svg>