<svg xmlns="http://www.w3.org/2000/svg" viewBox="0 0 73.21 74.16"><defs><style>.cls-1{fill:#c9a399;}</style></defs><title>sew</title><g id="Слой_2" data-name="Слой 2"><g id="Слой_1-2" data-name="Слой 1"><path class="cls-1" d="M53.59,0c1.75.72,1.68,2.23,1.57,3.8.47.09.89.15,1.32.25a10.93,10.93,0,0,1,7.16,5.28A1.09,1.09,0,0,0,64.8,10c.74,0,1.48,0,2.22,0a3.22,3.22,0,0,1,3.39,3.4q0,3.77,0,7.54A3.23,3.23,0,0,1,67,24.23H65.21V28H66.9a2.15,2.15,0,0,1,2.29,2.26q0,1.37,0,2.73a2.13,2.13,0,0,1-2.34,2.27H65.13v5.71h8a5.46,5.46,0,0,1-1.77,5.2c-.68.57-1.38,1.12-2,1.72a1.34,1.34,0,0,0-.43.85q0,8.91,0,17.81a1.14,1.14,0,0,0,.38.72c.67.61,1.4,1.17,2.09,1.76a5.22,5.22,0,0,1,1.72,5.16H47a5.42,5.42,0,0,1,1.7-5.09,7.72,7.72,0,0,1,1.08-.89,1.92,1.92,0,0,0,.85-2.42,16.51,16.51,0,0,1-9.78,1.11c-3.39-.78-6-2.82-8.55-5.14l1.53-1.66,1.94,1.67c4.11,3.48,8.67,4,13.61,2,1.35-.53,1.35-.53,1.35-2s0-2.8,0-4.29h-.88q-21.73,0-43.46,0A1.88,1.88,0,0,1,4.95,57c-1.49-1.44-3-2.83-4.52-4.26a1.28,1.28,0,0,1-.41-.8c0-3.6,0-7.19,0-10.79a3.47,3.47,0,0,1,.06-.4H1c10.77,0,21.53,0,32.3,0A7.46,7.46,0,0,0,39.36,38a6.6,6.6,0,0,0,1.58-4.35c0-2.22,0-4.43,0-6.65A4.83,4.83,0,0,0,36,22H30.71a4.86,4.86,0,0,0-3.64,1.51c-1.09,1.11-2.2,2.19-3.29,3.3A7,7,0,0,1,18.47,29c-1.08,0-2.16,0-3.31,0v4.26h-3.8v6.89H9.11V33.31H5.27V29A4.89,4.89,0,0,1,2,26.83a6.07,6.07,0,0,1-1-2.65,79.68,79.68,0,0,1,.09-8.86A12.9,12.9,0,0,1,13.28,3.85c5.84-.14,11.68-.06,17.52-.06H49.2c.22,0,.43,0,.74,0C49.86,2.23,49.77.7,51.52,0Zm9,12.18a2.71,2.71,0,0,0-.34-.06c-7.14,0-14.29,0-21.43,0a4.48,4.48,0,0,0-4.3,3.35,29,29,0,0,0-.36,4.23l1.82.24c.09-4.33,2.54-7,6.3-7a6.12,6.12,0,0,1,6,6.25c0,3.61-2.83,6-7.11,6,0,.68.13,1.36.13,2,0,2.49,0,5,0,7.46a2.87,2.87,0,0,0,3.14,3.11H62.83c0-.23,0-.36,0-.48,0-7.59,0-15.17,0-22.76A16.59,16.59,0,0,0,62.55,12.18ZM61.33,9.85c-.35-.42-.55-.69-.79-.94a8.82,8.82,0,0,0-6.65-2.85H20.49c-.24,0-.48,0-.74,0v20.5a4.58,4.58,0,0,0,2.49-1.43c1-1,2-2,3-3a7.18,7.18,0,0,1,5.68-2.35c1,0,2,0,3,0,0-1,0-1.86,0-2.74a9.39,9.39,0,0,1,.21-1.83,7.05,7.05,0,0,1,7.08-5.35c4.88,0,9.75,0,14.63,0ZM50.67,49.26H2.28a9.12,9.12,0,0,1,0,1.14A1.71,1.71,0,0,0,3,52.05c1,.9,2,1.89,3.05,2.79a1.82,1.82,0,0,0,1.09.42q19.58,0,39.16,0h4.39ZM17.34,26.75V6.09c-1.36,0-2.66-.06-4,0A10.55,10.55,0,0,0,3.51,15a73.53,73.53,0,0,0-.17,9.29,2.63,2.63,0,0,0,2.57,2.42C9.7,26.78,13.49,26.75,17.34,26.75ZM42,38.12c-.11.14-.17.21-.22.29A9.81,9.81,0,0,1,33,43c-10-.07-20,0-29.94,0H2.33v3.83H49.68A5.61,5.61,0,0,1,47,40.94H62.85l-.06-.82h-.72c-4.9,0-9.81,0-14.71,0C45.31,40.14,43.43,39.89,42,38.12Zm28.67,5.29-.15-.16H49.29a12.81,12.81,0,0,0,1,1.21c.81.72,1.64,1.41,2.5,2.07a1.77,1.77,0,0,0,1,.37q6.28,0,12.55,0a1.51,1.51,0,0,0,.85-.33q1.31-1,2.55-2.12A11.21,11.21,0,0,0,70.72,43.42Zm.07,28.44a6.44,6.44,0,0,0-.72-1q-1.47-1.29-3-2.51a1.27,1.27,0,0,0-.74-.21q-6.28,0-12.55,0a1.38,1.38,0,0,0-.8.27C52,69.21,51.1,70,50.2,70.78a8.28,8.28,0,0,0-.86,1.08ZM44,23a3.88,3.88,0,0,0,3.9-3.8,3.86,3.86,0,1,0-7.71-.08A3.84,3.84,0,0,0,44,23Zm21-1c.85,0,1.49,0,2.12,0a.85.85,0,0,0,.9-.95c0-2.61,0-5.21,0-7.82a1.14,1.14,0,0,0-.69-.85,15.71,15.71,0,0,0-2.31,0Zm1.46,29.31c-.18.17-.33.29-.46.42q-6.34,6.4-12.69,12.8A1.41,1.41,0,0,0,53,65.86a1.49,1.49,0,0,0,1.59-.47c3.65-3.73,7.29-7.47,11-11.11A3.12,3.12,0,0,0,66.54,51.25ZM57.4,65.88A3,3,0,0,0,60.35,65a72.63,72.63,0,0,1,5.39-5.45,2.8,2.8,0,0,0,.85-2.64ZM12.8,31V29.07H7.58V31Zm48,22.8c-1.35-1.3-2.72-2.47-3.91-3.8-.84-.94-1.75-.8-2.83-.73l5.72,5.56ZM62.18,52,65,49.28H59.4Zm-9.12-.25A2.35,2.35,0,0,0,54,54.49a8.52,8.52,0,0,1,.93.94l2,2.07L58,56.61ZM66.57,62.23l-3.72,3.64h3.72ZM53,61.43l2.33-2.22L53,57ZM65.18,32.92h1.68V30.29H65.18ZM52.06,3.06l.49.73a2.19,2.19,0,0,0,.32-.73c0-.27.25-.79-.34-.75C52.38,2.32,52.25,2.74,52.06,3.06Z"/><path class="cls-1" d="M49.57,36.29a15,15,0,0,1-2.41-.24A3,3,0,0,1,45,32.71,3.08,3.08,0,0,1,47.91,30c1.11,0,2.22,0,3.32,0a3.11,3.11,0,0,1,3,3.16,3.16,3.16,0,0,1-3,3.07c-.54,0-1.08,0-1.63,0Zm.08-4.06H48.18a.83.83,0,0,0-.94.82.81.81,0,0,0,.87.89c1,0,2,0,2.95,0a.81.81,0,0,0,.87-.9.84.84,0,0,0-.94-.82Z"/></g></g></svg>