<svg id="Слой_1" data-name="Слой 1" xmlns="http://www.w3.org/2000/svg" viewBox="0 0 25.1 25.1"><defs><style>.cls-1{fill:#cfaa9d;}</style></defs><title>иконки электрастайл</title><path class="cls-1" d="M21.15,21.12c0-.08,0-.16,0-.25A10.75,10.75,0,0,0,21,19.51a8.48,8.48,0,0,0-7.39-6.65A4,4,0,0,0,16.7,9a4,4,0,0,0-3.95-4,4,4,0,0,0-.88,7.84,8,8,0,0,0-3.7,1.32,8.32,8.32,0,0,0-3.88,7,.72.72,0,0,0,.17.52.73.73,0,0,0,.52.18H20.43a.63.63,0,0,0,.72-.76Zm-4.66-6a6.9,6.9,0,0,1,3.38,5.46H5.58a6.85,6.85,0,0,1,3.19-5.34A6.92,6.92,0,0,1,16.49,15.15ZM10,9a2.67,2.67,0,0,1,2.72-2.72h0A2.66,2.66,0,0,1,15.43,9a2.78,2.78,0,0,1-.78,2,2.69,2.69,0,0,1-1.92.78h0A2.66,2.66,0,0,1,10,9Z"/></svg>