<svg id="Слой_1" data-name="Слой 1" xmlns="http://www.w3.org/2000/svg" viewBox="0 0 18 18"><defs><style>.cls-1{fill:#d7dadd;}</style></defs><title>иконки электрастайл</title><rect class="cls-1" x="0.01" y="0.01" width="3" height="3"/><rect class="cls-1" x="4.99" y="0.01" width="3" height="3"/><rect class="cls-1" x="9.99" y="0.01" width="3" height="3"/><rect class="cls-1" x="14.97" y="0.01" width="3" height="3"/><rect class="cls-1" x="0.01" y="5.01" width="3" height="3"/><rect class="cls-1" x="4.99" y="5.01" width="3" height="3"/><rect class="cls-1" x="9.99" y="5.01" width="3" height="3"/><rect class="cls-1" x="14.97" y="5.01" width="3" height="3"/><rect class="cls-1" x="0.01" y="9.95" width="3" height="3"/><rect class="cls-1" x="4.99" y="9.95" width="3" height="3"/><rect class="cls-1" x="9.99" y="9.95" width="3" height="3"/><rect class="cls-1" x="14.97" y="9.95" width="3" height="3"/><rect class="cls-1" x="0.01" y="14.95" width="3" height="3"/><rect class="cls-1" x="4.99" y="14.95" width="3" height="3"/><rect class="cls-1" x="9.99" y="14.95" width="3" height="3"/><rect class="cls-1" x="14.97" y="14.95" width="3" height="3"/></svg>