<svg id="Слой_1" data-name="Слой 1" xmlns="http://www.w3.org/2000/svg" viewBox="0 0 49.31 49.31"><defs><style>.cls-1{fill:#fff;}.cls-2{fill:#CEA99D;}</style></defs><title>иконки электрастайл</title><polygon class="cls-1" points="0.64 31.61 8.64 4.85 38.31 4.85 46.81 30.25 23.63 48.02 0.64 31.61"/><path class="cls-2" d="M33.51,16.68a1.8,1.8,0,0,0-.52-.05H32c-1,0-2,0-2.92,0h0a1,1,0,0,0-.95.65l-.38.89-.36.83a16.12,16.12,0,0,1-1.67,2.9,6.63,6.63,0,0,1-.64.76.5.5,0,0,1-.43.18.47.47,0,0,1-.3-.37,2.78,2.78,0,0,1-.12-.72c0-.62,0-1.24,0-1.86v-.71c0-.17,0-.33,0-.5,0-.39,0-.78,0-1.17A2.14,2.14,0,0,0,23.54,16a2.51,2.51,0,0,0-1.65-.41h-.05a9.07,9.07,0,0,0-1.87.08,4.69,4.69,0,0,0-2.15,1.13l-.17.12.19.09.17.08a1.65,1.65,0,0,0,.36.16,1.36,1.36,0,0,1,1,1.27v.18a19.33,19.33,0,0,1,.1,2.28,6.74,6.74,0,0,1-.3,1.66c0,.13-.09.21-.18.24a.48.48,0,0,1-.4-.1,3.17,3.17,0,0,1-.94-1.08l-.12-.19a24.31,24.31,0,0,1-2.06-4.06,1.24,1.24,0,0,0-1.23-.84h-3a1.45,1.45,0,0,0-1,.34l0,0v.67l.57,1.2c.43.9.87,1.82,1.32,2.72A29.34,29.34,0,0,0,15,26.35a8.54,8.54,0,0,0,5.12,3.53,17,17,0,0,0,3,.24c.67,0,1-.28,1.07-.87s.15-1,.25-1.5a.81.81,0,0,1,.17-.35c.16-.2.29-.29.42-.3h0c.17,0,.38.13.69.41a12,12,0,0,1,1.16,1.28A4.64,4.64,0,0,0,29,30.37H32.9l1.1-.61v-.7L34,29a10.82,10.82,0,0,0-2-2.67c-.19-.2-.4-.4-.6-.6s-.5-.49-.74-.75c-.55-.59-.65-.91-.16-1.65.38-.57.79-1.14,1.18-1.69s.87-1.24,1.29-1.87a12.34,12.34,0,0,0,.73-1.33l.31-.61,0-.06v-.16C34,17.26,34,16.83,33.51,16.68ZM29.05,23.9a1.83,1.83,0,0,0,.5,1.52c.31.36.64.71,1,1s.6.63.88.95.68.82,1,1.23l.29.38a.82.82,0,0,1,.09.17h-.83c-.9,0-1.75,0-2.62,0a1.58,1.58,0,0,1-.82-.44c-.34-.33-.67-.7-1-1.05L27,27.06l-.1-.1a4.64,4.64,0,0,0-.72-.68,1.78,1.78,0,0,0-1.05-.36,1.24,1.24,0,0,0-.33,0,1.79,1.79,0,0,0-1.16,1,5.2,5.2,0,0,0-.51,2c-.3,0-.61,0-.9,0a6.35,6.35,0,0,1-2-.17,7.12,7.12,0,0,1-3.41-2.15,29.86,29.86,0,0,1-2.13-2.91,32.9,32.9,0,0,1-2.13-3.9L12,18.88c-.13-.26-.24-.53-.37-.81l-.12-.27.18,0h2.43a.28.28,0,0,1,.29.21,22.89,22.89,0,0,0,2.17,4.26A4.93,4.93,0,0,0,18,23.82a1.47,1.47,0,0,0,1.18.2,1.29,1.29,0,0,0,.84-.68,4.67,4.67,0,0,0,.45-1.49,18.55,18.55,0,0,0,.07-2.45,4.07,4.07,0,0,0-.68-2.53,5,5,0,0,1,1.89-.12c.36.06.68.13,1,.2a.42.42,0,0,1,.35.49c0,.49,0,1,0,1.49s0,.78,0,1.17c0,.19,0,.37,0,.55a7.58,7.58,0,0,0,0,.83v.06a3.65,3.65,0,0,0,.3,1.54,1.58,1.58,0,0,0,1.11.94,1.47,1.47,0,0,0,1.3-.44A9.27,9.27,0,0,0,27.66,21c.34-.65.65-1.33.95-2,.16-.35.32-.71.49-1.06a.16.16,0,0,1,.09-.09h3.55l-.16.29a7.36,7.36,0,0,1-.51.87q-.55.82-1.14,1.65c-.38.55-.77,1.1-1.15,1.66A3.8,3.8,0,0,0,29.05,23.9Z"/></svg>