<svg id="Слой_1" data-name="Слой 1" xmlns="http://www.w3.org/2000/svg" viewBox="0 0 49 49"><defs><style>.cls-1{fill:#cfaa9d;}</style></defs><title>иконки электрастайл</title><path class="cls-1" d="M35.68,16.33a1.84,1.84,0,0,0-.52,0h-1c-1,0-1.94,0-2.9,0a1,1,0,0,0-1,.65c-.13.29-.25.59-.38.89l-.36.83a15.69,15.69,0,0,1-1.67,2.89,5.21,5.21,0,0,1-.64.77.39.39,0,0,1-.73-.2,3.18,3.18,0,0,1-.12-.72c0-.61,0-1.23,0-1.85V18.33c0-.38,0-.78,0-1.17a2.11,2.11,0,0,0-.67-1.53,2.52,2.52,0,0,0-1.65-.42h0a10.69,10.69,0,0,0-1.87.08A4.79,4.79,0,0,0,20,16.42l-.17.13.19.09.17.08a2.32,2.32,0,0,0,.36.16,1.33,1.33,0,0,1,1,1.26v.18a19.5,19.5,0,0,1,.1,2.29,6.66,6.66,0,0,1-.3,1.65.31.31,0,0,1-.18.25.48.48,0,0,1-.4-.1,3.17,3.17,0,0,1-.94-1.08l-.12-.2a24.18,24.18,0,0,1-2.06-4.05,1.26,1.26,0,0,0-1.23-.85h-3a1.42,1.42,0,0,0-1,.35l0,0v.68c.2.4.39.8.58,1.21.42.89.86,1.81,1.31,2.71A29.94,29.94,0,0,0,17.17,26a8.46,8.46,0,0,0,5.12,3.53,17,17,0,0,0,3,.24h0c.64,0,1-.28,1-.86a15.13,15.13,0,0,1,.25-1.5.88.88,0,0,1,.17-.35c.16-.2.29-.29.42-.3h0c.17,0,.38.13.69.41a11.74,11.74,0,0,1,1.16,1.27A4.5,4.5,0,0,0,31.18,30h3.89l1.1-.62v-.7l0-.05a11,11,0,0,0-2-2.67c-.2-.21-.41-.41-.61-.61l-.74-.74c-.55-.6-.65-.92-.16-1.65.38-.57.78-1.14,1.17-1.69s.88-1.24,1.3-1.87a12.48,12.48,0,0,0,.73-1.34c.11-.2.21-.4.31-.6l0-.06v-.17C36.18,16.9,36.2,16.47,35.68,16.33Zm-4.46,7.21a1.85,1.85,0,0,0,.5,1.53c.31.36.64.7,1,1s.6.63.88.95.68.82,1,1.22l.29.38a1.22,1.22,0,0,1,.09.17h-.83c-.9,0-1.75,0-2.62,0a1.49,1.49,0,0,1-.82-.43c-.35-.34-.68-.71-1-1.06s-.36-.41-.55-.61L29,26.6a5.71,5.71,0,0,0-.71-.68,1.63,1.63,0,0,0-1.38-.32,1.8,1.8,0,0,0-1.16,1,5.19,5.19,0,0,0-.51,2h-.9a6.27,6.27,0,0,1-2-.18,7,7,0,0,1-3.42-2.15,28.7,28.7,0,0,1-2.13-2.91,32,32,0,0,1-2.13-3.89l-.45-.93c-.13-.26-.24-.52-.37-.8l-.12-.27.19,0h2.42a.27.27,0,0,1,.29.21,23.2,23.2,0,0,0,2.17,4.26,4.9,4.9,0,0,0,1.42,1.58,1.47,1.47,0,0,0,1.18.21,1.35,1.35,0,0,0,.84-.68,4.2,4.2,0,0,0,.45-1.5A18.49,18.49,0,0,0,22.74,19a4.06,4.06,0,0,0-.68-2.52A5.2,5.2,0,0,1,24,16.39c.35.06.67.13,1,.21a.41.41,0,0,1,.35.48c0,.5,0,1,0,1.49s0,.79,0,1.18c0,.18,0,.36,0,.55a7.49,7.49,0,0,0,0,.82v.06a3.82,3.82,0,0,0,.3,1.55,1.63,1.63,0,0,0,1.11.94,1.46,1.46,0,0,0,1.3-.44,9.48,9.48,0,0,0,1.9-2.62c.35-.65.65-1.32,1-2,.16-.35.32-.7.49-1.05,0,0,.07-.09.09-.09h3.55l-.15.28c-.17.31-.33.6-.52.88-.37.55-.75,1.1-1.14,1.64L32,22A3.63,3.63,0,0,0,31.22,23.54Z"/><g class="cls-2"><path class="cls-1" d="M24.59,48.29,1,31.46,9.22,4h30.4l8.72,26.07ZM2.17,31.06l22.4,16,22.6-17.33L38.9,5H10Z"/></g></svg>