<svg id="Слой_1" data-name="Слой 1" xmlns="http://www.w3.org/2000/svg" viewBox="0 0 49.31 49.31"><defs><style>.cls-1{fill:#ffffff;}.cls-2{fill:#CEA99D;}</style></defs><title>иконки электрастайл</title><polygon class="cls-1" points="1.48 31.61 9.48 4.85 39.15 4.85 47.65 30.25 24.47 48.02 1.48 31.61"/><path class="cls-2" d="M35.14,26.61a6.68,6.68,0,0,0-1-4.18,4.22,4.22,0,0,0-3.36-1.71c-3.38,0-6.82,0-10.15,0H17.55a6.83,6.83,0,0,0-.79.06h0c-1.94.21-3.15,1.45-3.6,3.69a16.3,16.3,0,0,0-.16,3.9,4.57,4.57,0,0,0,1.73,3.42,5.83,5.83,0,0,0,3.84.93h12.1a5.62,5.62,0,0,0,.91-.05A4.47,4.47,0,0,0,35,29.18,11.74,11.74,0,0,0,35.14,26.61Zm-1.33.72v.9a3.12,3.12,0,0,1-2.64,3.13l-.08,0a5.46,5.46,0,0,1-.56,0H17.4a3.07,3.07,0,0,1-3.1-2.64A13.63,13.63,0,0,1,14.23,27v-.26a20.45,20.45,0,0,1,.07-2.07,3,3,0,0,1,2.32-2.54,2.32,2.32,0,0,1,.61-.07H30.9A3,3,0,0,1,33.54,24a5.53,5.53,0,0,1,.26,1.46C33.82,26.05,33.82,26.7,33.81,27.33Z"/><path class="cls-2" d="M18.11,12.89c.2.64.4,1.29.64,1.93a8.06,8.06,0,0,1,.62,3.54c0,.31,0,.63,0,.94,0,.14,0,.28,0,.42v.12h1.57V19c0-.71,0-1.41,0-2.11A1.43,1.43,0,0,1,21,16.4c.13-.42.28-.85.42-1.27l.27-.78c.18-.56.37-1.12.55-1.68l.26-.79H20.84l-.65,2.62a.74.74,0,0,0,0,.14l-.77-2.76H17.79l.05.16Z"/><path class="cls-2" d="M22.27,15.9c0,.84,0,1.7,0,2.56a1.47,1.47,0,0,0,.66,1.19,1.88,1.88,0,0,0,1.13.36,2.83,2.83,0,0,0,.68-.09,1.59,1.59,0,0,0,1.14-1.27c0-.41,0-.82.07-1.23l0-.57,0-.12h0v-.27c0-.29,0-.59,0-.88A1.82,1.82,0,0,0,25.21,14a2.11,2.11,0,0,0-1.4-.28,1.64,1.64,0,0,0-1.54,1.48Zm1.5-.55c0-.23.07-.31.27-.31h0a.46.46,0,0,1,.32.08.28.28,0,0,1,.07.21c0,1.11,0,2.1,0,3a.38.38,0,0,1-.09.28.42.42,0,0,1-.3.08c-.19,0-.29-.06-.29-.38v-3Z"/><path class="cls-2" d="M27,19.78a.86.86,0,0,0,.51.16,1.14,1.14,0,0,0,.4-.08,4.52,4.52,0,0,0,.69-.36l.13-.07v.41h1.46v-6H28.69v1.53c0,.9,0,1.81,0,2.72a.53.53,0,0,1-.2.36.43.43,0,0,1-.3.12c-.16,0-.18-.12-.18-.39V13.89H26.74l-.1,0,0,.08a.24.24,0,0,0,0,.1v1.29c0,1.18,0,2.4,0,3.6A1,1,0,0,0,27,19.78Z"/><path class="cls-2" d="M27.62,25.1a1,1,0,0,0-.64-.58,1.15,1.15,0,0,0-.93.14l-.19.13V22.7h-1.3V30h1.26l0-.19.12.05a2.07,2.07,0,0,0,.57.21l.18,0a1,1,0,0,0,.63-.23,1.28,1.28,0,0,0,.43-1c0-.94,0-2,0-3A2.1,2.1,0,0,0,27.62,25.1Zm-1.16,2.59v.91a.45.45,0,0,1-.12.33.17.17,0,0,1-.13,0c-.27,0-.35-.1-.34-.36,0-.88,0-1.78,0-2.68,0-.28.08-.34.26-.36h0a.25.25,0,0,1,.17.07.4.4,0,0,1,.14.32v1.73Z"/><path class="cls-2" d="M30.37,24.51a1.87,1.87,0,0,0-1.64.22,1.62,1.62,0,0,0-.68,1.34c0,.72,0,1.57,0,2.45a1.52,1.52,0,0,0,.72,1.34,1.63,1.63,0,0,0,.91.26,1.94,1.94,0,0,0,1.14-.37,1.81,1.81,0,0,0,.49-1.64l0-.1h-1.2l0,.1c0,.06,0,.11,0,.17a1.42,1.42,0,0,0-.05.36c0,.21-.06.27-.27.28h0a.27.27,0,0,1-.31-.3c0-.27,0-.54,0-.83v-.26h2V27a7.2,7.2,0,0,0,0-.93A1.6,1.6,0,0,0,30.37,24.51ZM30,26.44h-.63s0-.08,0-.12a4.6,4.6,0,0,1,0-.53c0-.14.07-.2.36-.18.13,0,.19,0,.2.22a4.88,4.88,0,0,0,.06.52Z"/><path class="cls-2" d="M22.75,25.69c0,.84,0,1.71,0,2.56a.48.48,0,0,1-.34.54c-.18.08-.21.05-.22.05s0,0,0-.21V24.57H20.84v.13c0,.43,0,.86,0,1.29,0,1,0,2.07,0,3.1a1,1,0,0,0,.38.81.81.81,0,0,0,.46.14A1.3,1.3,0,0,0,22.1,30a3.33,3.33,0,0,0,.58-.33l.08-.05,0,.37H24V24.57H22.75Z"/><polygon class="cls-2" points="16.89 24.04 18.06 24.04 18.06 29.96 19.46 29.96 19.46 24.02 20.62 24.02 20.62 22.71 16.89 22.71 16.89 24.04"/></svg>