<?xml version="1.0" standalone="no"?>
<!DOCTYPE svg PUBLIC "-//W3C//DTD SVG 1.1//EN" "http://www.w3.org/Graphics/SVG/1.1/DTD/svg11.dtd" >
<svg xmlns="http://www.w3.org/2000/svg" xmlns:xlink="http://www.w3.org/1999/xlink" version="1.1">
<metadata>
Created by FontForge 20170910 at Fri Feb  6 11:30:07 2015
 By Jimmy Wärting
Copyright (c) 2015 Monotype ITC Inc.  All rights reserved.
</metadata>
<defs>
<font id="ITCNewVeljovicPro-Regular" horiz-adv-x="325" >
  <font-face 
    font-family="ITC New Veljovic Pro"
    font-weight="400"
    font-stretch="normal"
    units-per-em="1000"
    panose-1="2 0 5 3 6 5 10 2 2 4"
    ascent="747"
    descent="-253"
    x-height="452"
    cap-height="626"
    bbox="-140 -261 1286 943"
    underline-thickness="50"
    underline-position="-125"
    stemh="33"
    stemv="84"
    unicode-range="U+000D-FB06"
  />
<missing-glyph horiz-adv-x="494" 
d="M0 -4v672h494v-672h-494zM42 628v-592h410v592h-410zM199 262v74c38 20 97 40 97 115c0 54 -32 80 -72 80c-42 0 -73 -35 -90 -82h-22v84c33 13 81 30 136 30c98 0 130 -51 130 -102c0 -88 -78 -98 -114 -125c-26 -20 -34 -49 -43 -74h-22zM216 98c-29 0 -53 23 -53 52
c0 28 24 52 53 52c28 0 51 -24 51 -52c0 -29 -23 -52 -51 -52z" />
    <glyph glyph-name="napostrophe" unicode="&#x22;n" horiz-adv-x="608" 
d="M43 411l160 55l-2 -109h3c25 33 90 109 180 109c93 0 126 -56 126 -143v-282l72 -24v-17h-218v17l62 24v272c0 50 -12 94 -76 94c-31 0 -64 -12 -97 -38c-35 -29 -50 -52 -50 -68v-260l62 -24v-17h-218v17l72 24v350l-76 3v17zM4 511l-17 10c17 25 32 61 32 89
c0 27 -17 44 -37 62l42 34c20 -7 56 -35 56 -72c0 -36 -32 -76 -76 -123z" />
    <glyph glyph-name="f_b" unicode="fb" horiz-adv-x="869" 
d="M33 0v17l77 24v352h-77v18l77 28v32c0 121 52 227 208 227c32 0 67 -4 100 -19l80 31v-362h2c26 48 76 118 161 118c105 0 163 -83 163 -215c0 -152 -82 -265 -222 -265c-53 0 -105 22 -137 52l-36 -61l-15 8v628c-17 29 -54 54 -98 54c-98 0 -121 -65 -121 -168v-64h131
v-42h-131v-352l83 -24v-17h-245zM631 407c-68 0 -112 -54 -126 -122c-4 -13 -8 -59 -8 -95c0 -30 1 -75 7 -95c14 -56 60 -75 100 -75c82 0 128 85 128 216c0 89 -31 171 -101 171z" />
    <glyph glyph-name="f_f" unicode="ff" horiz-adv-x="635" 
d="M38 411l72 28v14c0 131 70 225 212 225c38 0 83 -8 120 -23l-5 -73c26 65 82 116 175 116c37 0 75 -7 113 -23l-9 -101h-21c-11 46 -44 93 -96 93c-74 0 -98 -65 -98 -168v-63h128v-43h-128v-352l92 -24v-17h-238v17l62 24v352h-222v-352l74 -24v-17h-232v17l73 24v352
h-72v18zM195 436h222v30c0 36 5 72 15 103h-17c-15 47 -45 77 -101 77c-77 0 -119 -59 -119 -184v-26z" />
    <glyph glyph-name="f_f_b" unicode="ffb" horiz-adv-x="1176" 
d="M38 411l72 28v14c0 131 69 230 215 230c35 0 80 -7 117 -23l-5 -73c26 64 98 111 183 111c41 0 77 -7 108 -19l76 31v-355h2c23 47 83 111 159 111c109 0 166 -84 166 -220c0 -147 -76 -260 -222 -260c-53 0 -105 19 -138 47l-34 -43l-17 4v622c-29 39 -71 51 -101 51
c-91 0 -118 -65 -118 -168v-63h134v-43h-134v-352l77 -24v-17h-222v17l61 24v352h-222v-352l76 -24v-17h-234v17l73 24v352h-72v18zM928 407c-58 0 -102 -46 -117 -114c-4 -13 -7 -67 -7 -103c0 -30 0 -74 6 -95c14 -56 61 -75 101 -75c82 0 128 87 128 213
c0 95 -34 174 -111 174zM195 436h222v35c0 36 5 72 15 103h-17c-15 47 -45 78 -101 78c-77 0 -119 -60 -119 -185v-31z" />
    <glyph glyph-name="f_f_h" unicode="ffh" horiz-adv-x="1225" 
d="M38 411l72 28v14c0 131 69 230 215 230c35 0 80 -7 117 -23l-5 -73c26 65 92 111 185 111c41 0 74 -7 106 -18l82 30v-355h2c25 32 88 111 188 111c86 0 117 -52 117 -141v-284l83 -24v-17h-235v17l67 24v256c0 63 -8 112 -69 112c-32 0 -73 -15 -108 -47
c-30 -29 -45 -51 -45 -87v-234l68 -24v-17h-227v17l74 24v573c-23 36 -62 53 -107 53c-83 0 -117 -57 -117 -165v-66h128v-43h-128v-352l79 -24v-17h-222v17l59 24v352h-222v-352l73 -24v-17h-231v17l73 24v352h-72v18zM195 436h222v22c0 35 5 85 15 116h-17
c-15 47 -45 78 -101 78c-77 0 -119 -60 -119 -185v-31z" />
    <glyph glyph-name="f_f_i" unicode="ffi" horiz-adv-x="904" 
d="M38 411l72 28v12c0 138 75 232 221 232c35 0 78 -7 116 -23l-3 -73c32 69 108 111 203 111c52 0 104 -10 146 -26l-15 -106h-20c-18 53 -49 100 -123 100c-91 0 -134 -63 -134 -196v-34h204l103 30v-425l80 -24v-17h-226v17l62 24v352h-223v-352l75 -24v-17h-223v17
l64 24v352h-222v-352l71 -24v-17h-229v17l73 24v352h-72v18zM195 436h222v24c0 47 8 79 21 114h-17c-20 51 -57 78 -106 78c-70 0 -120 -52 -120 -178v-38z" />
    <glyph glyph-name="f_f_j" unicode="ffj" horiz-adv-x="899" 
d="M33 411l77 28v17c0 135 74 232 219 232c35 0 84 -7 122 -23l-8 -87c30 65 104 120 204 120c59 0 106 -11 145 -26l-14 -106h-21c-15 52 -51 100 -125 100c-84 0 -131 -61 -131 -195v-35h201l106 30v-454c0 -142 -55 -228 -177 -228c-44 0 -84 14 -100 24l1 107h18
c12 -52 40 -103 88 -103c58 0 85 57 85 159v422h-222v-352l87 -24v-17h-240v17l69 24v352h-222v-352l82 -24v-17h-244v17l77 24v352h-77v18zM195 436h222v13c0 26 6 79 21 117h-17c-11 45 -50 91 -107 91c-74 0 -119 -53 -119 -193v-28z" />
    <glyph glyph-name="f_f_k" unicode="ffk" horiz-adv-x="1179" 
d="M38 411l72 28v14c0 131 69 230 215 230c35 0 80 -7 117 -23l-5 -73c26 65 92 111 185 111c35 0 73 -5 107 -17l79 29v-480l183 181l-67 24v17h207v-17l-82 -24l-146 -130l211 -240l63 -24v-17h-218v17l56 22l-168 190l-39 -31v-157l71 -24v-17h-223v17l68 24v575
c-16 28 -56 51 -104 51c-94 0 -119 -61 -119 -154v-77h128v-43h-128v-352l75 -24v-17h-214v17l55 24v352h-222v-352l68 -24v-17h-226v17l73 24v352h-72v18zM195 436h222v21c0 39 5 86 15 117h-17c-15 47 -45 78 -101 78c-79 0 -119 -60 -119 -185v-31z" />
    <glyph glyph-name="f_f_l" unicode="ffl" horiz-adv-x="912" 
d="M38 410l72 28v20c0 127 78 225 223 225c35 0 79 -7 117 -23l-4 -71c29 61 79 109 184 109c36 0 70 -8 98 -21l80 33v-669l82 -24v-17h-226v17l60 24v585c-22 27 -67 40 -98 40c-90 0 -125 -62 -125 -206v-23h156v-45h-156v-351l70 -24v-17h-219v17l65 24v351h-222v-351
l68 -24v-17h-226v17l73 24v351h-72v18zM195 437h222c0 43 5 92 22 137h-15c-11 41 -51 76 -102 76c-77 0 -127 -50 -127 -186v-27z" />
    <glyph glyph-name="f_h" unicode="fh" horiz-adv-x="906" 
d="M33 411l77 28v32c0 121 63 227 209 227c39 0 66 -5 102 -18l82 30v-355h2c26 32 89 111 188 111c86 0 117 -52 117 -141v-284l83 -24v-17h-235v17l68 24v256c0 63 -8 112 -70 112c-32 0 -72 -15 -107 -47c-30 -29 -46 -51 -46 -87v-234l68 -24v-17h-227v17l75 24v573
c-23 35 -68 52 -114 52c-75 0 -110 -63 -110 -167v-64h131v-42h-131v-352l82 -24v-17h-244v17l77 24v352h-77v18z" />
    <glyph glyph-name="f_i" unicode="fi" horiz-adv-x="597" 
d="M110 393h-72v18l72 27c0 129 47 260 235 260c55 0 109 -14 142 -26l-14 -106h-21c-20 62 -58 100 -126 100c-96 0 -131 -68 -131 -197v-34h204l102 31v-425l80 -24v-17h-225v17l61 24v352h-222v-352l72 -24v-17h-230v17l73 24v352z" />
    <glyph glyph-name="f_j" unicode="fj" horiz-adv-x="587" 
d="M33 411l77 28v24c0 129 82 235 230 235c41 0 90 -8 130 -23l-9 -101h-21c-14 49 -47 92 -109 92c-83 0 -136 -56 -136 -194v-37h189l111 31v-454c0 -142 -50 -228 -172 -228c-46 0 -84 13 -100 24l2 107h18c12 -52 39 -103 88 -103c57 0 80 60 80 177v404h-216v-352
l94 -24v-17h-256v17l77 24v352h-77v18z" />
    <glyph glyph-name="f_k" unicode="fk" horiz-adv-x="872" 
d="M33 411l77 28v32c0 134 76 227 212 227c34 0 74 -6 107 -17l72 29v-480l183 181l-67 24v17h207v-17l-81 -24l-147 -130l211 -240l63 -24v-17h-217v17l56 22l-169 190l-39 -31v-157l71 -24v-17h-220v17l65 24v575c-16 28 -50 51 -103 51c-72 0 -119 -48 -119 -185v-47h131
v-42h-131v-352l76 -24v-17h-238v17l77 24v352h-77v18z" />
    <glyph glyph-name="f_l" unicode="fl" horiz-adv-x="606" 
d="M110 393h-72v18l72 27c0 103 21 260 214 260c36 0 69 -7 98 -21l79 33v-669l82 -24v-17h-227v17l61 24v580c-21 27 -65 45 -98 45c-94 0 -124 -68 -124 -206v-25h131v-42h-131v-352l69 -24v-17h-227v17l73 24v352z" />
    <glyph glyph-name="longs_b" unicode="&#x17f;b" horiz-adv-x="869" 
d="M33 0v17l77 24v350l-49 26v16l49 7v34c0 120 56 224 207 224c33 0 68 -5 102 -17l79 29v-362h2c26 48 79 118 163 118c106 0 161 -83 161 -215c0 -152 -82 -265 -222 -265c-53 0 -105 22 -137 52l-36 -61l-15 8v628c-16 29 -57 54 -101 54c-93 0 -118 -70 -118 -168v-458
l91 -24v-17h-253zM634 407c-72 0 -115 -54 -129 -122c-4 -13 -8 -59 -8 -95c0 -30 1 -75 7 -95c14 -56 60 -75 100 -75c82 0 128 85 128 216c0 89 -28 171 -98 171z" />
    <glyph glyph-name="longs_h" unicode="&#x17f;h" horiz-adv-x="906" 
d="M61 433l49 7v31c0 121 63 227 209 227c39 0 66 -5 102 -18l82 30v-355h2c26 32 89 111 188 111c86 0 117 -52 117 -141v-284l83 -24v-17h-235v17l68 24v256c0 63 -8 112 -70 112c-32 0 -72 -15 -107 -47c-30 -29 -46 -51 -46 -87v-234l68 -24v-17h-235v17l83 24v573
c-23 35 -68 52 -114 52c-75 0 -110 -63 -110 -167v-458l90 -24v-17h-252v17l77 24v350l-49 26v16z" />
    <glyph glyph-name="longs_i" unicode="&#x17f;i" horiz-adv-x="583" 
d="M61 433l49 7v29c0 141 81 229 223 229c50 0 95 -8 142 -24l-9 -106h-24c-15 65 -60 97 -117 97c-78 0 -130 -48 -130 -176v-448l78 -24v-17h-237v17l74 24v350l-49 26v16zM349 0v17l68 24v350l-76 3v17l160 55v-425l74 -24v-17h-226z" />
    <glyph glyph-name="longs_k" unicode="&#x17f;k" horiz-adv-x="872" 
d="M61 433l49 7v31c0 134 76 227 213 227c32 0 66 -5 99 -17l79 29v-480l183 181l-67 24v17h207v-17l-81 -24l-147 -130l211 -240l63 -24v-17h-217v17l56 22l-169 190l-39 -31v-157l71 -24v-17h-233v17l78 24v575c-16 28 -49 51 -102 51c-73 0 -120 -48 -120 -185v-441
l91 -24v-17h-253v17l77 24v350l-49 26v16z" />
    <glyph glyph-name="longs_l" unicode="&#x17f;l" horiz-adv-x="606" 
d="M110 391l-49 26v16l49 7c0 102 21 258 214 258c35 0 71 -8 97 -21l80 33v-669l82 -24v-17h-232v17l66 24v580c-22 27 -65 45 -99 45c-93 0 -123 -68 -123 -206v-419l77 -24v-17h-235v17l73 24v350z" />
    <glyph glyph-name="longs_longs" unicode="&#x17f;&#x17f;" horiz-adv-x="643" 
d="M343 0v17l74 24v350l-50 26v16l50 7v23c0 36 4 73 14 105c-17 53 -52 82 -116 82c-68 0 -120 -45 -120 -159v-450l81 -24v-17h-243v17l77 24v350l-49 26v16l49 7v23c0 117 68 220 219 220c33 0 86 -9 124 -24l-3 -40h5c25 42 77 79 149 79c33 0 76 -7 109 -24l-10 -106
h-23c-16 69 -43 97 -92 97c-61 0 -87 -57 -87 -171v-453l98 -24v-17h-256z" />
    <glyph glyph-name="longs_longs_i" unicode="&#x17f;&#x17f;i" horiz-adv-x="889" 
d="M656 0v17l68 24v350l-76 3v17l160 55v-425l74 -24v-17h-226zM343 0v17l74 24v350l-50 26v16l50 7v23c0 36 4 73 14 105c-17 53 -52 82 -116 82c-68 0 -120 -45 -120 -165v-444l81 -24v-17h-243v17l77 24v350l-49 26v16l49 7v21c0 121 68 222 219 222c33 0 86 -9 124 -24
l-3 -44h5c35 48 105 83 183 83c50 0 96 -8 142 -24l-9 -106h-24c-15 65 -60 97 -116 97c-77 0 -130 -48 -130 -176v-448l79 -24v-17h-237z" />
    <glyph glyph-name="longs_longs_l" unicode="&#x17f;&#x17f;l" horiz-adv-x="908" 
d="M656 0v17l68 24v566c-20 41 -65 58 -104 58c-78 0 -119 -57 -119 -171v-453l81 -24v-17h-239v17l74 24v350l-50 26v16l50 7v23c0 36 4 73 14 105c-17 53 -52 82 -116 82c-68 0 -120 -45 -120 -159v-450l81 -24v-17h-243v17l77 24v350l-49 26v16l49 7v23
c0 117 68 220 219 220c33 0 86 -9 123 -24l-2 -44h5c29 44 96 83 166 83c40 0 74 -5 119 -23l68 35v-669l77 -24v-17h-229z" />
    <glyph glyph-name=".notdef" horiz-adv-x="494" 
d="M0 -4v672h494v-672h-494zM42 628v-592h410v592h-410zM199 262v74c38 20 97 40 97 115c0 54 -32 80 -72 80c-42 0 -73 -35 -90 -82h-22v84c33 13 81 30 136 30c98 0 130 -51 130 -102c0 -88 -78 -98 -114 -125c-26 -20 -34 -49 -43 -74h-22zM216 98c-29 0 -53 23 -53 52
c0 28 24 52 53 52c28 0 51 -24 51 -52c0 -29 -23 -52 -51 -52z" />
    <glyph glyph-name="CR" unicode="&#xd;" horiz-adv-x="212" 
 />
    <glyph glyph-name="space" unicode=" " horiz-adv-x="212" 
 />
    <glyph glyph-name="exclam" unicode="!" horiz-adv-x="311" 
d="M167 176h-21c-13 84 -39 304 -39 352v41c0 24 8 57 49 57s48 -34 48 -56v-42c0 -50 -26 -269 -37 -352zM156 -14c-31 0 -56 25 -56 56s25 57 56 57s56 -26 56 -57s-25 -56 -56 -56z" />
    <glyph glyph-name="quotedbl" unicode="&#x22;" horiz-adv-x="347" 
d="M49 651h89l-31 -225h-28zM209 651h89l-31 -225h-28z" />
    <glyph glyph-name="numbersign" unicode="#" horiz-adv-x="543" 
d="M233 616h65l-46 -143h109l46 143h65l-46 -143h108l-10 -30h-108l-47 -150h108l-10 -31h-108l-44 -142h-65l44 142h-109l-44 -142h-65l44 142h-108l10 31h108l47 150h-108l10 30h108zM242 443l-47 -150h109l47 150h-109z" />
    <glyph glyph-name="dollar" unicode="$" horiz-adv-x="504" 
d="M233 707h47l-4 -88c42 -1 96 -11 139 -27v-100h-19c-18 61 -47 93 -120 93v-225c91 -42 179 -77 179 -198c0 -102 -89 -166 -189 -171l4 -99h-48l4 98c-69 4 -123 19 -166 44v124h20c14 -62 51 -130 146 -134v259c-86 37 -155 75 -155 174c0 98 72 151 166 161zM237 584
c-52 -3 -99 -34 -99 -94c0 -61 38 -90 99 -118v212zM266 271v-246c67 2 115 49 115 118c0 66 -49 97 -115 128z" />
    <glyph glyph-name="percent" unicode="%" horiz-adv-x="817" 
d="M585 620h46l-396 -620h-46zM225 620c90 0 138 -61 138 -176c0 -105 -50 -182 -144 -182c-97 0 -142 58 -142 175c0 105 50 183 148 183zM219 595c-49 0 -72 -63 -72 -154c0 -94 24 -154 75 -154c48 0 70 50 70 151c0 108 -24 157 -73 157zM603 349c90 0 137 -61 137 -176
c0 -105 -49 -182 -144 -182c-96 0 -142 58 -142 175c0 105 51 183 149 183zM596 324c-49 0 -71 -63 -71 -154c0 -94 23 -154 75 -154c47 0 70 50 70 151c0 108 -24 157 -74 157z" />
    <glyph glyph-name="ampersand" unicode="&#x26;" horiz-adv-x="661" 
d="M430 602v-91h-20c-13 52 -45 85 -106 85c-68 0 -94 -48 -94 -103c0 -84 56 -103 115 -109v-25c-116 0 -180 -63 -180 -165c0 -118 75 -176 163 -176c113 0 172 67 172 134c0 51 -27 78 -78 78c-35 0 -61 -22 -82 -53l-14 10c40 76 43 88 85 117l119 73
c69 41 84 58 102 109l16 -5c-7 -35 -17 -75 -28 -97c-14 -29 -30 -44 -77 -71l-118 -56v-4c42 -2 87 -7 123 -16c17 -14 31 -37 31 -71c0 -102 -98 -179 -261 -179c-158 0 -258 66 -258 199c0 114 103 178 204 189v4c-48 8 -122 35 -122 114c0 84 77 130 185 130
c53 0 97 -9 123 -21z" />
    <glyph glyph-name="quotesingle" unicode="'" horiz-adv-x="187" 
d="M49 651h89l-31 -225h-28z" />
    <glyph glyph-name="parenleft" unicode="(" horiz-adv-x="319" 
d="M60 222c0 250 95 386 219 420v-23c-112 -48 -149 -219 -149 -397c0 -180 36 -351 148 -399v-23c-124 34 -218 172 -218 422z" />
    <glyph glyph-name="parenright" unicode=")" horiz-adv-x="319" 
d="M259 222c0 -250 -94 -388 -218 -422v23c111 48 148 219 148 399c0 178 -38 349 -149 397v23c124 -34 219 -170 219 -420z" />
    <glyph glyph-name="asterisk" unicode="*" horiz-adv-x="464" 
d="M261 635l-20 -139l109 88c12 -13 24 -34 29 -51l-131 -51l131 -51c-5 -17 -17 -38 -29 -51l-109 87l20 -138c-17 -4 -41 -4 -58 0l21 138l-110 -87c-12 13 -24 34 -29 51l130 51l-130 51c5 17 17 38 29 51l110 -88l-21 139c17 4 41 4 58 0z" />
    <glyph glyph-name="plus" unicode="+" horiz-adv-x="618" 
d="M280 466h57v-204h207v-54h-207v-203h-57v203h-206v54h206v204z" />
    <glyph glyph-name="comma" unicode="," horiz-adv-x="249" 
d="M76 -162l-20 9c42 58 60 105 60 154c0 23 -28 53 -48 66l58 36c29 -13 68 -45 68 -82c0 -48 -58 -126 -118 -183z" />
    <glyph glyph-name="hyphen" unicode="-" horiz-adv-x="334" 
d="M46 207v68h242v-68h-242z" />
    <glyph glyph-name="period" unicode="." horiz-adv-x="249" 
d="M125 -14c-31 0 -57 25 -57 56s26 57 57 57s56 -26 56 -57s-25 -56 -56 -56z" />
    <glyph glyph-name="slash" unicode="/" horiz-adv-x="379" 
d="M30 -20l265 660h54l-264 -660h-55z" />
    <glyph glyph-name="zero" unicode="0" horiz-adv-x="504" 
d="M244 -14c-134 0 -199 118 -199 314c0 200 79 319 221 319c131 0 194 -116 194 -298c0 -218 -86 -335 -216 -335zM139 306c0 -187 30 -289 112 -289c88 0 114 102 114 304c0 168 -21 267 -109 267c-98 0 -117 -118 -117 -282z" />
    <glyph glyph-name="one" unicode="1" horiz-adv-x="504" 
d="M128 0v17l89 24v509l-122 2v17l208 55v-583l90 -24v-17h-265z" />
    <glyph glyph-name="two" unicode="2" horiz-adv-x="504" 
d="M26 0v17c122 127 302 306 302 450c0 76 -49 122 -112 122c-72 0 -114 -49 -136 -129h-22v119c37 17 97 40 178 40c123 0 188 -54 188 -149c0 -156 -178 -265 -301 -396v-3h283l30 74h19v-145h-429z" />
    <glyph glyph-name="three" unicode="3" horiz-adv-x="504" 
d="M74 489v97c39 14 96 33 176 33c104 0 171 -46 171 -120c0 -82 -75 -132 -130 -153v-3c65 -5 157 -45 157 -159c0 -120 -100 -198 -234 -198c-78 0 -123 19 -164 40v112h23c19 -68 54 -121 135 -121c78 0 145 54 145 152c0 84 -52 135 -131 135c-13 0 -29 -1 -41 -3v21
c41 8 144 48 144 153c0 72 -39 114 -107 114c-81 0 -106 -53 -121 -100h-23z" />
    <glyph glyph-name="four" unicode="4" horiz-adv-x="504" 
d="M221 0v17l74 24v140h-268v24l295 405h57v-380h86v-49h-86v-140l66 -24v-17h-224zM293 526l-195 -296h197v296h-2z" />
    <glyph glyph-name="five" unicode="5" horiz-adv-x="504" 
d="M160 538l-34 -163c34 10 73 18 120 18c139 0 207 -83 207 -191c0 -134 -94 -216 -228 -216c-82 0 -137 21 -169 43v99h23c22 -69 58 -111 139 -111c76 0 139 58 139 158c0 93 -55 151 -146 151c-55 0 -95 -15 -113 -24l-15 6l42 302h277v-72h-242z" />
    <glyph glyph-name="six" unicode="6" horiz-adv-x="504" 
d="M431 501h-22c-12 38 -34 84 -112 84c-125 0 -155 -159 -155 -255v-34h2c19 43 69 100 152 100c97 0 165 -69 165 -182c0 -140 -86 -228 -210 -228c-142 0 -204 100 -204 286c0 219 98 347 269 347c34 0 88 -9 115 -23v-95zM147 199c0 -91 33 -183 110 -183
c71 0 110 74 110 170c0 95 -39 153 -109 153c-66 0 -111 -57 -111 -140z" />
    <glyph glyph-name="seven" unicode="7" horiz-adv-x="504" 
d="M176 -15l-70 15l301 535h-305l-32 -68h-18v143h432v-7z" />
    <glyph glyph-name="eight" unicode="8" horiz-adv-x="504" 
d="M248 -14c-121 0 -201 65 -201 177c0 102 74 156 145 167v2c-68 12 -127 60 -127 139c0 86 73 148 188 148c123 0 189 -54 189 -140c0 -70 -66 -130 -130 -143v-2c77 -8 146 -55 146 -159c0 -107 -74 -189 -210 -189zM159 474c0 -80 36 -125 93 -125s96 45 96 129
c0 74 -33 111 -95 111c-61 0 -94 -45 -94 -115zM142 170c0 -96 36 -153 110 -153s111 57 111 153c0 89 -29 144 -111 144c-74 0 -110 -53 -110 -144z" />
    <glyph glyph-name="nine" unicode="9" horiz-adv-x="504" 
d="M65 116h23c17 -58 53 -98 126 -98c118 0 148 158 148 254v46h-2c-17 -43 -74 -98 -152 -98c-104 0 -167 76 -167 184c0 131 91 215 210 215c153 0 207 -104 207 -288c0 -210 -85 -345 -246 -345c-54 0 -112 14 -147 34v96zM135 426c0 -97 42 -150 111 -150
c63 0 114 60 114 158c0 68 -28 155 -115 155c-71 0 -110 -68 -110 -163z" />
    <glyph glyph-name="colon" unicode=":" horiz-adv-x="249" 
d="M125 -14c-31 0 -57 25 -57 56s26 57 57 57s56 -26 56 -57s-25 -56 -56 -56zM125 303c-31 0 -57 25 -57 56s26 56 57 56s56 -25 56 -56s-25 -56 -56 -56z" />
    <glyph glyph-name="semicolon" unicode=";" horiz-adv-x="249" 
d="M130 303c-31 0 -56 25 -56 56s25 56 56 56c30 0 55 -25 55 -56s-25 -56 -55 -56zM123 102c19 -8 67 -44 67 -81c0 -48 -58 -126 -118 -183l-19 9c42 58 59 105 59 154c0 23 -30 51 -47 69z" />
    <glyph glyph-name="less" unicode="&#x3c;" horiz-adv-x="618" 
d="M534 449v-64l-375 -151l375 -150v-63l-450 188v51z" />
    <glyph glyph-name="equal" unicode="=" horiz-adv-x="618" 
d="M74 282v55h470v-55h-470zM74 125v54h470v-54h-470z" />
    <glyph glyph-name="greater" unicode="&#x3e;" horiz-adv-x="618" 
d="M83 449l450 -189v-51l-450 -188v63l375 150l-375 151v64z" />
    <glyph glyph-name="question" unicode="?" horiz-adv-x="449" 
d="M165 178v117c64 33 141 83 141 187c0 62 -26 114 -96 114c-78 0 -107 -61 -120 -109h-22v104c42 18 102 35 176 35c98 0 156 -54 156 -130c0 -108 -95 -139 -157 -189c-22 -18 -44 -94 -57 -129h-21zM188 -14c-31 0 -57 25 -57 56s26 57 57 57s56 -26 56 -57
s-25 -56 -56 -56z" />
    <glyph glyph-name="at" unicode="@" horiz-adv-x="774" 
d="M597 442c-36 -85 -64 -224 -64 -288c0 -18 1 -30 2 -42c74 1 157 102 157 228c0 150 -119 228 -253 228c-213 0 -314 -172 -314 -347c0 -209 156 -281 278 -281c114 0 176 28 214 55l13 -22c-68 -49 -156 -70 -234 -70c-170 0 -344 85 -344 320c0 183 125 380 387 380
c164 0 285 -97 285 -261c0 -161 -99 -271 -246 -288c-10 23 -12 51 -12 79c0 43 10 81 18 113l-4 2c-27 -61 -106 -196 -189 -196c-42 0 -64 36 -64 92c0 130 97 307 229 307c37 0 58 -10 78 -27l52 23zM512 390c-6 20 -26 30 -51 30c-87 0 -161 -183 -161 -270
c0 -30 6 -48 25 -48c68 0 177 226 187 288z" />
    <glyph glyph-name="A" unicode="A" horiz-adv-x="660" 
d="M75 41l254 598h18l242 -598l55 -24v-17h-233v17l76 24l-64 157h-230l-62 -157l73 -24v-17h-187v17zM304 502l-93 -257h193l-99 257h-1z" />
    <glyph glyph-name="B" unicode="B" horiz-adv-x="583" 
d="M43 0v17l84 24v544l-84 24v17h252c122 0 207 -39 207 -137c0 -82 -65 -130 -114 -146v-7c64 -11 148 -54 148 -151c0 -112 -87 -185 -251 -185h-242zM224 589v-245c137 0 178 52 178 133c0 89 -63 119 -125 119c-18 0 -40 -3 -53 -7zM224 313v-272c19 -6 40 -8 64 -8
c85 0 148 48 148 139c0 108 -85 142 -174 142c-21 0 -30 0 -38 -1z" />
    <glyph glyph-name="C" unicode="C" horiz-adv-x="637" 
d="M591 162l-13 -128c-52 -26 -113 -48 -221 -48c-213 0 -311 155 -311 324c0 196 133 330 337 330c90 0 152 -20 188 -39v-111h-22c-22 65 -66 117 -167 116c-138 0 -228 -109 -228 -292c0 -161 87 -294 222 -294c114 0 166 59 193 142h22z" />
    <glyph glyph-name="D" unicode="D" horiz-adv-x="709" 
d="M40 0v17l87 24v544l-87 24v17h269c185 0 354 -54 354 -295c0 -233 -160 -331 -369 -331h-254zM224 588v-547c25 -5 54 -7 74 -7c166 0 258 97 258 291c0 180 -80 269 -257 269c-12 0 -49 -1 -75 -6z" />
    <glyph glyph-name="E" unicode="E" horiz-adv-x="581" 
d="M40 0v17l87 24v544l-87 24v17h456v-136h-22c-29 80 -42 98 -116 98h-134v-241l155 4l23 76h19v-195h-20l-22 76l-155 4v-270h149c86 0 104 4 134 121h22v-163h-489z" />
    <glyph glyph-name="F" unicode="F" horiz-adv-x="533" 
d="M40 626h461v-136h-23c-26 84 -40 98 -116 98h-138v-257l158 4l24 79h19v-201h-20l-23 78l-158 4v-254l97 -24v-17h-281v17l87 24v544l-87 24v17z" />
    <glyph glyph-name="G" unicode="G" horiz-adv-x="700" 
d="M601 245v-164c0 -14 3 -22 9 -30c-54 -32 -138 -65 -242 -65c-215 0 -322 141 -322 323c0 196 130 331 355 331c86 0 148 -17 200 -41v-109h-22c-32 90 -109 117 -183 117c-145 0 -241 -107 -241 -296c0 -152 76 -291 232 -291c61 0 100 19 121 42v183l-82 24v17h241v-17
z" />
    <glyph glyph-name="H" unicode="H" horiz-adv-x="779" 
d="M40 0v17l87 24v544l-87 24v17h267v-17l-83 -24v-234h331v234l-83 24v17h267v-17l-87 -24v-544l87 -24v-17h-267v17l83 24v263h-331v-263l83 -24v-17h-267z" />
    <glyph glyph-name="I" unicode="I" horiz-adv-x="351" 
d="M40 0v17l87 24v544l-87 24v17h271v-17l-87 -24v-544l87 -24v-17h-271z" />
    <glyph glyph-name="J" unicode="J" horiz-adv-x="448" 
d="M337 585v-393c0 -116 -47 -206 -182 -206c-51 0 -98 12 -130 27v123h22c28 -86 56 -120 107 -120c66 0 87 63 87 169v400l-89 24v17h264v-17z" />
    <glyph glyph-name="K" unicode="K" horiz-adv-x="682" 
d="M40 626h255v-17l-71 -24v-257l265 257l-69 24v17h209v-17l-71 -24l-230 -201l285 -343l62 -24v-17h-238v17l62 20l-237 286l-38 -26v-256l70 -24v-17h-254v17l87 24v544l-87 24v17z" />
    <glyph glyph-name="L" unicode="L" horiz-adv-x="560" 
d="M40 0v17l87 24v544l-87 24v17h270v-17l-86 -24v-543h148c91 0 116 26 137 132h22v-174h-491z" />
    <glyph glyph-name="M" unicode="M" horiz-adv-x="878" 
d="M36 0v17l75 24l32 539l-88 29v17h174l210 -469h1l209 469h174v-17l-83 -24l18 -544l73 -24v-17h-242v17l74 24l-17 489h-2l-229 -530h-8l-229 522h-2l-8 -481l77 -24v-17h-209z" />
    <glyph glyph-name="N" unicode="N" horiz-adv-x="752" 
d="M33 626h173l390 -473l2 2l-12 430l-82 24v17h207v-17l-68 -24l-14 -598h-20l-444 547l-2 -2l12 -491l85 -24v-17h-222v17l80 24l9 538l-94 30v17z" />
    <glyph glyph-name="O" unicode="O" horiz-adv-x="751" 
d="M365 -14c-189 0 -319 122 -319 324c0 195 145 330 344 330c192 0 315 -116 315 -316c0 -209 -152 -338 -340 -338zM375 606c-132 0 -221 -121 -221 -291c0 -180 93 -295 220 -295c136 0 223 120 223 293c0 178 -91 293 -222 293z" />
    <glyph glyph-name="P" unicode="P" horiz-adv-x="572" 
d="M40 626h267c138 0 229 -47 229 -166c0 -124 -89 -199 -230 -199c-11 0 -60 9 -82 14v-234l97 -24v-17h-281v17l87 24v544l-87 24v17zM224 588v-289c8 -1 24 -3 37 -3c23 0 60 2 84 10c61 19 90 78 90 143c0 84 -50 147 -151 147c-27 0 -45 -4 -60 -8z" />
    <glyph glyph-name="Q" unicode="Q" horiz-adv-x="752" 
d="M391 640c180 0 314 -116 314 -315c0 -174 -109 -295 -254 -329c107 -82 248 -123 326 -123c38 0 69 5 85 8v-17c-26 -11 -112 -32 -203 -32c-60 0 -110 13 -183 55c-50 29 -101 71 -131 99c-175 8 -299 128 -299 324c0 195 145 330 345 330zM375 606
c-132 0 -221 -121 -221 -291c0 -179 93 -295 220 -295c136 0 223 121 223 293c0 177 -91 293 -222 293z" />
    <glyph glyph-name="R" unicode="R" horiz-adv-x="638" 
d="M40 0v17l87 24v544l-87 24v17h274c157 0 218 -65 218 -156c0 -87 -61 -136 -133 -161l87 -138c84 -131 121 -153 156 -154v-17c-8 -1 -36 -2 -95 -2c-53 0 -86 27 -154 143l-82 144l-87 6v-250l76 -24v-17h-260zM224 589v-274c142 3 207 42 207 149
c0 96 -64 132 -142 132c-14 0 -44 -1 -65 -7z" />
    <glyph glyph-name="S" unicode="S" horiz-adv-x="484" 
d="M400 502h-22c-17 65 -54 104 -129 104c-61 0 -107 -38 -107 -106c0 -155 291 -127 291 -328c0 -100 -83 -186 -218 -186c-69 0 -127 21 -159 41v127h22c22 -104 81 -134 140 -134c69 0 126 41 126 113c0 160 -282 129 -282 333c0 91 68 174 199 174c57 0 110 -15 139 -31
v-107z" />
    <glyph glyph-name="T" unicode="T" horiz-adv-x="599" 
d="M23 626h553v-136h-23c-24 93 -37 97 -108 97h-97v-546l92 -24v-17h-282v17l93 24v546h-96c-72 0 -86 -4 -109 -97h-23v136z" />
    <glyph glyph-name="U" unicode="U" horiz-adv-x="720" 
d="M30 626h265v-17l-82 -24v-318c0 -184 72 -229 179 -229c110 0 181 58 181 242l-1 305l-87 24v17h210v-17l-68 -24l-9 -326c-5 -173 -79 -273 -252 -273c-154 0 -250 70 -250 247v352l-86 24v17z" />
    <glyph glyph-name="V" unicode="V" horiz-adv-x="646" 
d="M17 626h239v-17l-71 -24l167 -444h2l160 444l-76 24v17h197v-17l-58 -24l-249 -599h-14l-230 599l-67 24v17z" />
    <glyph glyph-name="W" unicode="W" horiz-adv-x="855" 
d="M15 626h228v-17l-70 -24l106 -420h2l166 460h15l170 -460h2l100 420l-77 24v17h186v-17l-53 -24l-174 -599h-14l-171 470h-1l-180 -470h-15l-162 599l-58 24v17z" />
    <glyph glyph-name="X" unicode="X" horiz-adv-x="657" 
d="M35 626h253v-17l-65 -24l128 -198l131 198l-67 24v17h203v-17l-68 -24l-179 -227l210 -317l66 -24v-17h-260v17l80 24l-162 248l-157 -248l77 -24v-17h-211v17l65 24l206 279l-175 265l-75 24v17z" />
    <glyph glyph-name="Y" unicode="Y" horiz-adv-x="610" 
d="M18 626h229v-17l-69 -24l162 -260l148 260l-76 24v17h180v-17l-47 -24l-190 -299v-245l85 -24v-17h-267v17l87 24v243l-187 301l-55 24v17z" />
    <glyph glyph-name="Z" unicode="Z" horiz-adv-x="620" 
d="M74 626h488v-19l-401 -566h223c116 0 144 10 171 130h22v-171h-546v17l408 573l-191 -1c-110 0 -127 -12 -153 -99h-21v136z" />
    <glyph glyph-name="bracketleft" unicode="[" horiz-adv-x="265" 
d="M70 -200v842h155v-17l-93 -24v-760l93 -24v-17h-155z" />
    <glyph glyph-name="backslash" unicode="\" horiz-adv-x="380" 
d="M84 641l269 -661h-57l-269 661h57z" />
    <glyph glyph-name="bracketright" unicode="]" horiz-adv-x="265" 
d="M40 642h155v-842h-155v17l93 24v760l-93 24v17z" />
    <glyph glyph-name="asciicircum" unicode="^" horiz-adv-x="608" 
d="M280 613h51l168 -381h-63l-131 306l-132 -306h-64z" />
    <glyph glyph-name="underscore" unicode="_" horiz-adv-x="500" 
d="M0 -125v50h500v-50h-500z" />
    <glyph glyph-name="grave" unicode="`" horiz-adv-x="350" 
d="M208 508l-101 137l62 29l54 -159z" />
    <glyph glyph-name="a" unicode="a" horiz-adv-x="506" 
d="M94 430c43 16 112 36 185 36c118 0 131 -60 131 -140v-276l78 -2v-17l-162 -45l2 81h-2c-29 -43 -88 -81 -157 -81c-73 0 -125 41 -125 119c0 116 128 147 282 160v58c0 69 -19 109 -80 109c-65 0 -110 -34 -130 -104h-22v102zM326 235c-126 -12 -194 -40 -194 -117
c0 -46 32 -77 83 -77c21 0 50 4 79 27c26 20 32 42 32 59v108z" />
    <glyph glyph-name="b" unicode="b" horiz-adv-x="550" 
d="M19 656l160 54v-355h2c23 47 83 111 159 111c109 0 165 -84 165 -220c0 -147 -75 -260 -221 -260c-53 0 -104 14 -141 41l-31 -37l-17 4v642l-76 3v17zM303 407c-58 0 -103 -46 -118 -114c-3 -13 -7 -67 -7 -103c0 -30 0 -74 6 -95c14 -56 62 -75 102 -75
c82 0 127 87 127 213c0 95 -33 174 -110 174z" />
    <glyph glyph-name="c" unicode="c" horiz-adv-x="470" 
d="M443 121l-25 -101c-33 -21 -88 -34 -149 -34c-142 0 -223 95 -223 240c0 119 78 240 234 240c66 0 114 -16 136 -27v-97h-25c-22 63 -50 91 -109 91c-91 0 -141 -91 -141 -199c0 -116 56 -212 147 -212c57 0 102 20 134 99h21z" />
    <glyph glyph-name="d" unicode="d" horiz-adv-x="548" 
d="M293 656l165 54v-659l75 -2v-17l-160 -46v86h-2c-36 -50 -85 -86 -147 -86c-101 0 -179 84 -179 225c0 150 89 255 228 255c41 0 76 -7 100 -17v187l-80 3v17zM137 233c0 -126 53 -189 127 -189c45 0 93 28 105 86c5 24 5 94 5 139c0 33 1 87 -6 107
c-10 32 -48 57 -96 57c-81 0 -135 -75 -135 -200z" />
    <glyph glyph-name="e" unicode="e" horiz-adv-x="491" 
d="M440 108l-30 -87c-37 -20 -73 -35 -146 -35c-133 0 -219 85 -219 232c0 136 84 248 224 248c144 0 177 -125 177 -213h-304c-1 -9 -2 -24 -2 -34c0 -121 65 -199 152 -199c56 0 99 30 125 88h23zM144 289h210c-1 62 -19 145 -97 145c-65 0 -100 -57 -113 -145z" />
    <glyph glyph-name="f" unicode="f" horiz-adv-x="337" 
d="M42 0v17l68 24v350h-68v18l68 29v35c0 119 52 225 196 225c36 0 78 -7 112 -23l-9 -100h-22c-17 57 -43 92 -96 92c-71 0 -96 -65 -96 -168v-58h134v-50h-134v-350l84 -24v-17h-237z" />
    <glyph glyph-name="g" unicode="g" horiz-adv-x="524" 
d="M260 466c34 0 67 -7 92 -18c24 -11 34 -17 37 -17c59 0 99 7 117 12v-54h-99c16 -20 27 -56 27 -83c0 -128 -111 -160 -217 -160l-62 -50c7 -17 26 -31 80 -31c53 0 92 1 126 1c78 0 125 -38 125 -103c0 -103 -102 -179 -243 -179c-168 0 -205 83 -206 148
c19 19 76 52 115 71v4c-11 3 -31 14 -42 25c-17 18 -26 44 -27 68c22 5 61 27 97 55c-28 7 -115 40 -115 145c0 96 76 166 195 166zM149 303c0 -72 32 -128 102 -128c71 0 99 67 99 129c0 65 -18 132 -98 132c-70 0 -103 -61 -103 -133zM182 -2c-36 -22 -67 -56 -67 -80
c0 -53 56 -99 136 -99c93 0 167 46 167 113c0 47 -33 60 -98 60c-71 0 -110 1 -138 6z" />
    <glyph glyph-name="h" unicode="h" horiz-adv-x="604" 
d="M44 0v17l70 24v595l-75 3v17l159 54v-350h2c20 29 89 106 184 106c90 0 121 -55 121 -141v-284l73 -24v-17h-220v17l63 24v264c0 59 -10 101 -73 101c-32 0 -67 -11 -104 -40c-32 -25 -46 -46 -46 -66v-259l64 -24v-17h-218z" />
    <glyph glyph-name="i" unicode="i" horiz-adv-x="305" 
d="M47 0v17l72 24v350l-75 3v17l160 55v-425l73 -24v-17h-230zM108 616c0 27 22 49 50 49c27 0 49 -22 49 -49c0 -28 -22 -50 -49 -50c-28 0 -50 22 -50 50z" />
    <glyph glyph-name="j" unicode="j" horiz-adv-x="295" 
d="M203 466v-453c0 -143 -50 -229 -164 -229c-47 0 -81 17 -96 25l1 99h20c12 -54 35 -96 80 -96c56 0 75 58 75 173v406l-81 3v17zM108 616c0 27 21 49 49 49c27 0 50 -22 50 -49c0 -28 -23 -50 -50 -50c-28 0 -49 22 -49 50z" />
    <glyph glyph-name="k" unicode="k" horiz-adv-x="555" 
d="M34 656l160 54v-474l182 175l-60 24v17h199v-17l-75 -24l-150 -128l210 -242l53 -24v-17h-200v17l48 19l-169 196l-38 -30v-161l64 -24v-17h-218v17l70 24v595l-76 3v17z" />
    <glyph glyph-name="l" unicode="l" horiz-adv-x="302" 
d="M40 0v17l74 24v595l-76 3v17l161 54v-669l77 -24v-17h-236z" />
    <glyph glyph-name="m" unicode="m" horiz-adv-x="903" 
d="M43 411l160 55l-2 -108h2c33 43 98 108 184 108c82 0 110 -58 112 -108h4c28 37 91 108 183 108c91 0 119 -61 119 -145v-280l73 -24v-17h-221v17l64 24v272c0 57 -12 94 -71 94c-32 0 -65 -12 -103 -42c-27 -22 -43 -43 -43 -58v-266l62 -24v-17h-208v17l62 24v266
c0 57 -10 100 -67 100c-35 0 -66 -11 -103 -39c-32 -24 -47 -44 -47 -68v-259l64 -24v-17h-220v17l72 24v350l-76 3v17z" />
    <glyph glyph-name="n" unicode="n" horiz-adv-x="608" 
d="M43 411l160 55l-2 -109h3c25 33 90 109 180 109c93 0 126 -56 126 -143v-282l72 -24v-17h-218v17l62 24v272c0 50 -12 94 -76 94c-31 0 -64 -12 -97 -38c-35 -29 -50 -52 -50 -68v-260l62 -24v-17h-218v17l72 24v350l-76 3v17z" />
    <glyph glyph-name="o" unicode="o" horiz-adv-x="550" 
d="M263 -14c-129 0 -218 84 -218 231c0 134 80 249 244 249c132 0 216 -87 216 -223c0 -155 -90 -257 -242 -257zM140 223c0 -133 49 -205 134 -205c83 0 136 90 136 211c0 143 -52 205 -130 205c-96 0 -140 -93 -140 -211z" />
    <glyph glyph-name="p" unicode="p" horiz-adv-x="572" 
d="M39 -216v17l75 24v566l-83 3v17l167 55l-3 -107h5c20 35 76 107 160 107c126 0 167 -108 167 -215c0 -149 -80 -264 -219 -264c-49 0 -81 13 -110 34v-196l90 -24v-17h-249zM196 149c0 -105 69 -129 106 -129c81 0 133 81 133 213c0 112 -40 176 -111 176
c-59 0 -118 -58 -125 -113c-3 -25 -3 -113 -3 -147z" />
    <glyph glyph-name="q" unicode="q" horiz-adv-x="544" 
d="M280 -216v17l88 24v264h-2c-26 -52 -84 -102 -152 -102c-102 0 -167 88 -167 220c0 147 81 259 227 259c54 0 95 -11 130 -27l34 28h14v-642l72 -24v-17h-244zM141 228c0 -120 45 -184 112 -184c52 0 101 45 112 117c5 25 6 73 6 108c0 29 -1 81 -8 104
c-13 47 -54 63 -94 63c-87 0 -128 -81 -128 -208z" />
    <glyph glyph-name="r" unicode="r" horiz-adv-x="407" 
d="M42 0v17l72 24v350l-78 3v17l162 55l-7 -124h6c22 47 67 124 141 124c25 0 45 -8 59 -19l-7 -96h-23c-14 35 -35 49 -64 49c-51 0 -105 -87 -105 -125v-234l85 -24v-17h-241z" />
    <glyph glyph-name="s" unicode="s" horiz-adv-x="407" 
d="M335 442v-87h-23c-18 68 -61 81 -94 81c-46 0 -79 -32 -79 -73c0 -38 23 -64 95 -90c77 -28 127 -68 127 -144c0 -81 -65 -143 -170 -143c-52 0 -97 16 -131 33v110h23c19 -86 59 -112 109 -112c56 0 94 36 94 82c0 35 -17 69 -98 100c-81 30 -118 69 -118 139
c0 72 59 128 158 128c51 0 87 -14 107 -24z" />
    <glyph glyph-name="t" unicode="t" horiz-adv-x="354" 
d="M356 80l-36 -71c-29 -18 -68 -23 -96 -23c-88 0 -125 58 -125 160v245h-76v17l86 36l48 138h26v-141h135v-50h-135v-219c0 -71 9 -127 73 -127c33 0 59 10 90 43z" />
    <glyph glyph-name="u" unicode="u" horiz-adv-x="588" 
d="M401 -14v109h-2c-32 -49 -98 -109 -180 -109c-88 0 -115 59 -115 155v263l-68 13v17l152 32v-296c0 -68 6 -127 78 -127c22 0 62 12 95 45c28 27 40 51 40 71v245l-70 29v17l154 6v-399l75 -1v-17z" />
    <glyph glyph-name="v" unicode="v" horiz-adv-x="487" 
d="M6 452h206v-17l-66 -22l120 -301h2l115 301l-65 22v17h167v-17l-50 -22l-190 -427h-13l-175 427l-51 22v17z" />
    <glyph glyph-name="w" unicode="w" horiz-adv-x="695" 
d="M16 452h201v-17l-66 -22l78 -296h2l139 334h9l140 -327h2l71 289l-67 22v17h166v-17l-47 -22l-141 -427h-14l-138 325l-149 -325h-14l-123 427l-49 22v17z" />
    <glyph glyph-name="x" unicode="x" horiz-adv-x="514" 
d="M14 0v17l44 24l157 180l-139 192l-53 22v17h205v-17l-55 -22l100 -137l105 137l-48 22v17h153v-17l-47 -22l-145 -161l154 -213l61 -22v-17h-219v17l59 22l-113 157l-114 -157l70 -22v-17h-175z" />
    <glyph glyph-name="y" unicode="y" horiz-adv-x="499" 
d="M446 413l-167 -427c-50 -123 -93 -202 -164 -202c-24 0 -47 6 -60 16v102h19c9 -40 32 -52 58 -52c39 0 82 52 110 151l-181 412l-48 22v17h210v-17l-70 -22l132 -316l106 316l-62 22v17h164v-17z" />
    <glyph glyph-name="z" unicode="z" horiz-adv-x="473" 
d="M35 0v16l293 398h-137c-58 0 -84 -10 -101 -79h-23v117h371v-19l-289 -393l163 -1c64 0 78 3 104 99h22v-138h-403z" />
    <glyph glyph-name="braceleft" unicode="{" horiz-adv-x="318" 
d="M278 642v-22c-62 -15 -98 -67 -98 -115c0 -40 24 -98 24 -139c0 -94 -79 -131 -123 -148c44 -18 123 -57 123 -148c0 -41 -24 -99 -24 -139c0 -48 36 -100 98 -115v-22c-86 4 -165 63 -165 145c0 54 29 112 29 161c0 53 -52 92 -100 106v24c48 14 100 48 100 106
c0 49 -29 107 -29 161c0 82 79 141 165 145z" />
    <glyph glyph-name="bar" unicode="|" horiz-adv-x="333" 
d="M138 750h58v-1000h-58v1000z" />
    <glyph glyph-name="braceright" unicode="}" horiz-adv-x="318" 
d="M40 642c86 -4 165 -63 165 -145c0 -54 -29 -112 -29 -161c0 -58 52 -92 100 -106v-24c-48 -14 -100 -53 -100 -106c0 -49 29 -107 29 -161c0 -82 -79 -141 -165 -145v22c62 15 99 67 99 115c0 40 -24 98 -24 139c0 91 79 130 122 148c-43 17 -122 54 -122 148
c0 41 24 99 24 139c0 48 -37 100 -99 115v22z" />
    <glyph glyph-name="asciitilde" unicode="~" horiz-adv-x="618" 
d="M62 157c0 98 50 168 133 168c98 0 159 -113 227 -113c66 0 77 49 77 114h57c0 -83 -41 -168 -137 -168c-101 0 -155 108 -224 108c-62 0 -75 -43 -75 -109h-58z" />
    <glyph glyph-name="uni00A0" unicode="&#xa0;" horiz-adv-x="212" 
 />
    <glyph glyph-name="exclamdown" unicode="&#xa1;" horiz-adv-x="311" 
d="M146 277h21c11 -83 37 -302 37 -352v-42c0 -22 -7 -56 -48 -56s-49 33 -49 57v41c0 48 26 268 39 352zM156 467c31 0 56 -25 56 -56s-25 -57 -56 -57s-56 26 -56 57s25 56 56 56z" />
    <glyph glyph-name="cent" unicode="&#xa2;" horiz-adv-x="504" 
d="M316 630l-6 -93c60 -2 95 -15 120 -27v-101h-28c-20 53 -43 89 -92 96l-1 -415c55 6 99 46 129 116h22l-25 -111c-28 -17 -75 -32 -126 -37l5 -95h-48l4 94c-138 5 -219 92 -219 240c0 124 77 229 220 239l-3 94h48zM146 305c0 -114 45 -198 124 -211l1 411
c-83 -10 -125 -86 -125 -200z" />
    <glyph glyph-name="sterling" unicode="&#xa3;" horiz-adv-x="504" 
d="M209 469c0 -54 7 -94 13 -129h133v-37h-129c1 -6 1 -12 1 -17c0 -80 -72 -166 -120 -215l7 -7c46 28 81 34 115 34c54 0 94 -33 135 -33c46 0 69 35 82 102h22v-128c-39 -39 -84 -53 -124 -53c-67 0 -100 41 -176 41c-55 0 -93 -23 -128 -61l-22 21
c44 48 120 128 120 277c0 13 -1 26 -2 39h-100v37h97c-3 30 -6 62 -6 101c0 111 66 191 189 191c52 0 76 -11 104 -26v-97h-21c-17 43 -32 94 -99 94c-51 0 -91 -32 -91 -134z" />
    <glyph glyph-name="currency" unicode="&#xa4;" horiz-adv-x="504" 
d="M69 313c0 43 14 82 39 113l-66 66l34 33l65 -65c32 24 69 38 111 38c43 0 79 -14 110 -38l64 65l34 -34l-64 -65c24 -31 38 -70 38 -113c0 -42 -14 -81 -38 -112l65 -65l-34 -34l-65 65c-31 -24 -67 -39 -110 -39s-80 15 -111 39l-65 -65l-34 34l66 65
c-25 31 -39 70 -39 112zM117 313c0 -75 60 -139 135 -139c76 0 134 64 134 139c0 76 -58 139 -134 139c-75 0 -135 -63 -135 -139z" />
    <glyph glyph-name="yen" unicode="&#xa5;" horiz-adv-x="504" 
d="M17 591v17h201v-17l-56 -24l118 -270l115 270l-68 24v17h175v-17l-53 -24l-130 -257h132v-38h-151l-8 -18v-54h159v-38h-159v-121l79 -24v-17h-241v17l82 24v121h-150v38h150v54l-6 18h-144v38h128l-117 257z" />
    <glyph glyph-name="brokenbar" unicode="&#xa6;" horiz-adv-x="333" 
d="M136 675h62v-350h-62v350zM136 175h62v-350h-62v350z" />
    <glyph glyph-name="section" unicode="&#xa7;" horiz-adv-x="504" 
d="M386 492h-21c-17 62 -42 100 -92 100c-32 0 -76 -27 -76 -86c0 -141 238 -197 238 -431c0 -135 -93 -281 -205 -281c-56 0 -90 17 -112 29v126h21c17 -62 31 -125 97 -125c35 0 72 33 72 80c0 152 -240 184 -240 429c0 96 77 289 216 289c58 0 78 -17 102 -27v-103z
M113 365c0 -208 251 -276 251 -432c19 28 30 63 30 103c0 201 -257 294 -254 444c-23 -30 -27 -83 -27 -115z" />
    <glyph glyph-name="dieresis" unicode="&#xa8;" horiz-adv-x="354" 
d="M85 565c-26 0 -46 21 -46 46c0 26 20 47 46 47s46 -21 46 -47c0 -25 -20 -46 -46 -46zM269 565c-26 0 -46 21 -46 46c0 26 20 47 46 47c25 0 46 -21 46 -47c0 -25 -21 -46 -46 -46z" />
    <glyph glyph-name="copyright" unicode="&#xa9;" horiz-adv-x="817" 
d="M409 -18c-184 0 -321 147 -321 328c0 182 137 327 321 327c182 0 322 -145 322 -327c0 -181 -140 -328 -322 -328zM143 310c0 -154 110 -284 266 -284c155 0 266 130 266 284c0 155 -111 282 -266 282c-156 0 -266 -127 -266 -282zM550 249l-8 -86
c-25 -12 -65 -26 -124 -26c-113 0 -174 72 -174 168c0 110 80 183 185 183c50 0 89 -13 110 -23v-79h-24c-9 41 -32 71 -85 71c-77 0 -112 -61 -112 -150c0 -78 33 -141 104 -141c66 0 91 37 105 83h23z" />
    <glyph glyph-name="ordfeminine" unicode="&#xaa;" horiz-adv-x="343" 
d="M69 567c32 10 78 23 128 23c81 0 89 -36 89 -89v-156l54 -3v-13l-122 -27v51h-1c-18 -23 -51 -51 -104 -51c-44 0 -76 26 -76 70c0 71 84 91 181 103v31c0 38 -12 59 -48 59c-42 0 -68 -23 -82 -63h-19v65zM218 454c-69 -9 -111 -24 -111 -70c0 -30 15 -43 40 -43
c15 0 31 3 48 18c15 13 23 29 23 53v42z" />
    <glyph glyph-name="guillemotleft" unicode="&#xab;" horiz-adv-x="456" 
d="M229 43l-186 183l186 182l17 -13l-126 -169l126 -169zM399 43l-189 183l190 182l17 -13l-126 -169l126 -169z" />
    <glyph glyph-name="logicalnot" unicode="&#xac;" horiz-adv-x="618" 
d="M74 338h471v-218h-59v162h-412v56z" />
    <glyph glyph-name="uni00AD" unicode="&#xad;" horiz-adv-x="334" 
d="M46 207v68h242v-68h-242z" />
    <glyph glyph-name="registered" unicode="&#xae;" horiz-adv-x="408" 
d="M133 460v13l22 6v125l-22 6v13h84c43 0 61 -16 61 -40s-23 -36 -35 -43l25 -46c10 -18 18 -19 25 -19v-15c-29 0 -43 6 -56 24l-26 47h-23v-52l19 -6v-13h-74zM188 605v-58c29 0 55 5 55 30c0 23 -25 30 -36 30c-12 0 -16 0 -19 -2zM67 536c0 -77 60 -139 137 -139
c76 0 138 62 138 139c0 75 -62 138 -138 138c-77 0 -137 -63 -137 -138zM35 536c0 90 78 165 169 165c90 0 169 -75 169 -165s-79 -165 -169 -165c-91 0 -169 75 -169 165z" />
    <glyph glyph-name="macron" unicode="&#xaf;" horiz-adv-x="350" 
d="M59 572v52h231v-52h-231z" />
    <glyph glyph-name="degree" unicode="&#xb0;" horiz-adv-x="359" 
d="M180 597c77 0 135 -52 135 -131c0 -73 -63 -131 -135 -131c-79 0 -136 52 -136 131c0 73 63 131 136 131zM180 562c-45 0 -80 -38 -80 -96s35 -96 80 -96c44 0 80 38 80 96s-36 96 -80 96z" />
    <glyph glyph-name="plusminus" unicode="&#xb1;" horiz-adv-x="618" 
d="M280 472h58v-153h198v-54h-198v-153h-58v153h-198v54h198v153zM74 -1v57h470v-57h-470z" />
    <glyph glyph-name="twosuperior" unicode="&#xb2;" 
d="M26 440v16c49 50 176 155 176 236c0 41 -27 63 -60 63c-43 0 -64 -29 -77 -72h-19v76c24 7 73 20 119 20c67 0 108 -24 108 -81c0 -77 -102 -126 -172 -202v-2h152l19 45h13v-99h-259z" />
    <glyph glyph-name="threesuperior" unicode="&#xb3;" 
d="M49 696v66c27 8 65 17 111 17c68 0 106 -23 106 -66c0 -48 -44 -73 -85 -85v-2c45 -4 101 -21 101 -84c0 -65 -58 -110 -145 -110c-47 0 -78 10 -107 21v77h20c14 -46 40 -75 81 -75c42 0 80 24 80 75c0 42 -29 71 -79 71c-7 0 -19 -1 -26 -2l2 19c39 7 88 24 88 81
c0 41 -29 58 -58 58c-40 0 -58 -26 -69 -61h-20z" />
    <glyph glyph-name="acute" unicode="&#xb4;" horiz-adv-x="350" 
d="M135 508l-15 9l74 157l59 -34z" />
    <glyph glyph-name="mu" unicode="&#xb5;" horiz-adv-x="595" 
d="M104 449l66 17h18v-296c0 -68 15 -128 84 -128c23 0 63 14 94 49c28 29 41 59 41 111v247l66 17h18v-303c0 -84 29 -111 66 -111v-15l-69 -46c-41 3 -71 49 -78 109h-2c-32 -49 -101 -114 -179 -114c-42 0 -79 24 -95 72c0 -28 5 -119 13 -158c6 -30 16 -69 32 -93v-4
l-68 -19c-7 18 -14 55 -14 114c0 77 7 189 7 278v273z" />
    <glyph glyph-name="paragraph" unicode="&#xb6;" horiz-adv-x="532" 
d="M482 626v-38h-53v-766h-42v766h-83v-766h-42v374c-98 16 -212 56 -212 208c0 164 136 222 275 222h157z" />
    <glyph glyph-name="periodcentered" unicode="&#xb7;" horiz-adv-x="258" 
d="M129 190c-34 0 -61 27 -61 60c0 34 27 61 61 61c33 0 60 -27 60 -61c0 -33 -27 -60 -60 -60z" />
    <glyph glyph-name="cedilla" unicode="&#xb8;" horiz-adv-x="381" 
d="M187 5h23l-22 -60h15c48 0 98 -12 98 -62c0 -59 -66 -75 -125 -75c-13 0 -35 1 -51 4v20c7 -2 21 -2 26 -2c47 0 79 15 79 50c0 24 -24 45 -81 45z" />
    <glyph glyph-name="onesuperior" unicode="&#xb9;" 
d="M68 440v14l66 20v256l-93 6v15l159 30v-307l66 -20v-14h-198z" />
    <glyph glyph-name="ordmasculine" unicode="&#xba;" horiz-adv-x="368" 
d="M185 302c-90 0 -145 47 -145 137c0 81 50 151 163 151c90 0 143 -47 143 -131c0 -93 -58 -157 -161 -157zM117 444c0 -82 24 -119 76 -119c50 0 76 50 76 122c0 89 -26 119 -75 119c-57 0 -77 -51 -77 -122z" />
    <glyph glyph-name="guillemotright" unicode="&#xbb;" horiz-adv-x="455" 
d="M38 395l18 14l185 -183l-185 -183l-17 14l125 169zM209 395l17 14l186 -183l-185 -183l-17 14l124 169z" />
    <glyph glyph-name="onequarter" unicode="&#xbc;" horiz-adv-x="710" 
d="M75 278v14l66 20v256l-93 6v15l159 30v-307l66 -20v-14h-198zM193 -21l335 654h46l-335 -654h-46zM512 0v14l48 16v66h-157v17l175 220h43v-201h52v-36h-52v-66l44 -16v-14h-153zM559 278l-107 -146h108v146h-1z" />
    <glyph glyph-name="onehalf" unicode="&#xbd;" horiz-adv-x="804" 
d="M75 278v14l66 20v256l-93 6v15l159 30v-307l66 -20v-14h-198zM193 -21l335 654h46l-335 -654h-46zM481 0v16c49 50 176 155 176 236c0 41 -27 63 -60 63c-43 0 -64 -29 -77 -72h-19v76c24 7 73 20 119 20c67 0 108 -24 108 -81c0 -77 -102 -126 -172 -202v-2h152l19 45
h13v-99h-259z" />
    <glyph glyph-name="threequarters" unicode="&#xbe;" horiz-adv-x="718" 
d="M64 524v66c27 8 65 17 111 17c68 0 106 -23 106 -66c0 -48 -44 -73 -85 -85v-2c45 -4 101 -21 101 -84c0 -65 -58 -110 -145 -110c-47 0 -78 10 -107 21v77h20c14 -46 40 -75 81 -75c42 0 80 24 80 75c0 42 -29 71 -79 71c-7 0 -19 -1 -26 -2l2 19c39 7 88 24 88 81
c0 41 -29 58 -58 58c-40 0 -58 -26 -69 -61h-20zM201 -21l335 654h46l-335 -654h-46zM519 0v14l48 16v66h-157v17l175 220h43v-201h52v-36h-52v-66l44 -16v-14h-153zM566 278l-107 -146h108v146h-1z" />
    <glyph glyph-name="questiondown" unicode="&#xbf;" horiz-adv-x="449" 
d="M284 274v-117c-64 -33 -143 -83 -143 -187c0 -62 28 -114 97 -114c79 0 108 68 121 116h22v-111c-42 -17 -102 -35 -176 -35c-98 0 -156 54 -156 131c0 107 95 138 145 179c49 38 56 103 68 138h22zM261 466c31 0 56 -25 56 -56s-25 -56 -56 -56s-56 25 -56 56
s25 56 56 56z" />
    <glyph glyph-name="Agrave" unicode="&#xc0;" horiz-adv-x="660" 
d="M75 41l254 598h18l242 -598l55 -24v-17h-233v17l76 24l-64 157h-230l-62 -157l73 -24v-17h-187v17zM304 502l-93 -257h193l-99 257h-1zM350 672l-158 80l58 53l116 -120z" />
    <glyph glyph-name="Aacute" unicode="&#xc1;" horiz-adv-x="660" 
d="M75 41l254 598h18l242 -598l55 -24v-17h-233v17l76 24l-64 157h-230l-62 -157l73 -24v-17h-187v17zM304 502l-93 -257h193l-99 257h-1zM329 673l-16 12l144 119l54 -52z" />
    <glyph glyph-name="Acircumflex" unicode="&#xc2;" horiz-adv-x="660" 
d="M75 41l254 598h18l242 -598l55 -24v-17h-233v17l76 24l-64 157h-230l-62 -157l73 -24v-17h-187v17zM304 502l-93 -257h193l-99 257h-1zM328 804h27l105 -125l-16 -5l-103 59l-103 -59l-17 5z" />
    <glyph glyph-name="Atilde" unicode="&#xc3;" horiz-adv-x="660" 
d="M75 41l254 598h18l242 -598l55 -24v-17h-233v17l76 24l-64 157h-230l-62 -157l73 -24v-17h-187v17zM304 502l-93 -257h193l-99 257h-1zM211 688l-16 10c20 41 47 83 94 83c42 0 73 -34 106 -34c25 0 41 3 68 40l16 -11c-16 -33 -46 -82 -93 -82c-46 0 -74 34 -106 34
c-26 0 -44 -9 -69 -40z" />
    <glyph glyph-name="Adieresis" unicode="&#xc4;" horiz-adv-x="660" 
d="M75 41l254 598h18l242 -598l55 -24v-17h-233v17l76 24l-64 157h-230l-62 -157l73 -24v-17h-187v17zM304 502l-93 -257h193l-99 257h-1zM232 696c-27 0 -48 22 -48 48c0 27 21 48 48 48c26 0 47 -21 47 -48c0 -26 -21 -48 -47 -48zM439 696c-27 0 -48 22 -48 48
c0 27 21 48 48 48c26 0 48 -21 48 -48c0 -26 -22 -48 -48 -48z" />
    <glyph glyph-name="Aring" unicode="&#xc5;" horiz-adv-x="660" 
d="M75 41l254 598h18l242 -598l55 -24v-17h-233v17l76 24l-64 157h-230l-62 -157l73 -24v-17h-187v17zM304 502l-93 -257h193l-99 257h-1zM337 665c-47 0 -84 34 -84 81s37 82 84 82s84 -35 84 -82s-37 -81 -84 -81zM292 746c0 -24 20 -43 45 -43s46 19 46 43
c0 25 -21 44 -46 44s-45 -19 -45 -44z" />
    <glyph glyph-name="AE" unicode="&#xc6;" horiz-adv-x="881" 
d="M314 626h478v-136h-23c-27 79 -35 98 -116 98h-126v-244l138 5l24 83h19v-211h-20l-23 84l-138 4v-267h146c87 0 104 12 134 121h22v-163h-475v17l76 24v218h-187l-127 -218l83 -24v-17h-209v17l66 24l342 547l-84 21v17zM267 303h163v277h-2z" />
    <glyph glyph-name="Ccedilla" unicode="&#xc7;" horiz-adv-x="637" 
d="M591 162l-13 -128c-49 -25 -106 -45 -203 -48l-15 -41h15c48 0 98 -12 98 -62c0 -59 -66 -75 -125 -75c-13 0 -35 2 -51 4v20c7 -1 21 -2 26 -2c47 0 76 14 76 50c0 24 -21 45 -78 45l29 61c-208 4 -304 157 -304 324c0 196 133 330 337 330c90 0 152 -20 188 -39v-111
h-22c-22 65 -66 117 -167 116c-138 0 -228 -109 -228 -292c0 -161 87 -294 222 -294c114 0 166 59 193 142h22z" />
    <glyph glyph-name="Egrave" unicode="&#xc8;" horiz-adv-x="581" 
d="M40 0v17l87 24v544l-87 24v17h456v-136h-22c-29 80 -42 98 -116 98h-134v-241l155 4l23 76h19v-195h-20l-22 76l-155 4v-270h149c86 0 104 4 134 121h22v-163h-489zM322 672l-158 80l58 53l116 -120z" />
    <glyph glyph-name="Eacute" unicode="&#xc9;" horiz-adv-x="581" 
d="M40 0v17l87 24v544l-87 24v17h456v-136h-22c-29 80 -42 98 -116 98h-134v-241l155 4l23 76h19v-195h-20l-22 76l-155 4v-270h149c86 0 104 4 134 121h22v-163h-489zM299 673l-16 12l144 119l54 -52z" />
    <glyph glyph-name="Ecircumflex" unicode="&#xca;" horiz-adv-x="581" 
d="M40 0v17l87 24v544l-87 24v17h456v-136h-22c-29 80 -42 98 -116 98h-134v-241l155 4l23 76h19v-195h-20l-22 76l-155 4v-270h149c86 0 104 4 134 121h22v-163h-489zM316 804h27l105 -125l-16 -5l-103 59l-103 -59l-17 5z" />
    <glyph glyph-name="Edieresis" unicode="&#xcb;" horiz-adv-x="581" 
d="M40 0v17l87 24v544l-87 24v17h456v-136h-22c-29 80 -42 98 -116 98h-134v-241l155 4l23 76h19v-195h-20l-22 76l-155 4v-270h149c86 0 104 4 134 121h22v-163h-489zM214 696c-27 0 -48 22 -48 48c0 27 21 48 48 48c26 0 47 -21 47 -48c0 -26 -21 -48 -47 -48zM421 696
c-27 0 -48 22 -48 48c0 27 21 48 48 48c26 0 48 -21 48 -48c0 -26 -22 -48 -48 -48z" />
    <glyph glyph-name="Igrave" unicode="&#xcc;" horiz-adv-x="351" 
d="M40 0v17l87 24v544l-87 24v17h271v-17l-87 -24v-544l87 -24v-17h-271zM197 672l-158 80l58 53l116 -120z" />
    <glyph glyph-name="Iacute" unicode="&#xcd;" horiz-adv-x="351" 
d="M40 0v17l87 24v544l-87 24v17h271v-17l-87 -24v-544l87 -24v-17h-271zM159 673l-16 12l144 119l54 -52z" />
    <glyph glyph-name="Icircumflex" unicode="&#xce;" horiz-adv-x="351" 
d="M40 0v17l87 24v544l-87 24v17h271v-17l-87 -24v-544l87 -24v-17h-271zM165 804h27l105 -125l-16 -5l-103 59l-103 -59l-17 5z" />
    <glyph glyph-name="Idieresis" unicode="&#xcf;" horiz-adv-x="351" 
d="M40 0v17l87 24v544l-87 24v17h271v-17l-87 -24v-544l87 -24v-17h-271zM73 696c-27 0 -48 22 -48 48c0 27 21 48 48 48c26 0 47 -21 47 -48c0 -26 -21 -48 -47 -48zM280 696c-27 0 -48 22 -48 48c0 27 21 48 48 48c26 0 48 -21 48 -48c0 -26 -22 -48 -48 -48z" />
    <glyph glyph-name="Eth" unicode="&#xd0;" horiz-adv-x="709" 
d="M40 0v17l87 24v272h-84v40h84v232l-87 24v17h269c185 0 354 -54 354 -295c0 -233 -160 -331 -369 -331h-254zM224 588v-235h140v-40h-140v-272c25 -5 54 -7 74 -7c166 0 258 97 258 291c0 180 -80 269 -257 269c-12 0 -49 -1 -75 -6z" />
    <glyph glyph-name="Ntilde" unicode="&#xd1;" horiz-adv-x="752" 
d="M33 626h173l390 -473l2 2l-12 430l-82 24v17h207v-17l-68 -24l-14 -598h-20l-444 547l-2 -2l12 -491l85 -24v-17h-222v17l80 24l9 538l-94 30v17zM277 688l-16 10c20 41 47 83 94 83c42 0 73 -34 106 -34c25 0 41 3 68 40l16 -11c-16 -33 -46 -82 -93 -82
c-46 0 -74 34 -106 34c-26 0 -44 -9 -69 -40z" />
    <glyph glyph-name="Ograve" unicode="&#xd2;" horiz-adv-x="751" 
d="M365 -14c-189 0 -319 122 -319 324c0 195 145 330 344 330c192 0 315 -116 315 -316c0 -209 -152 -338 -340 -338zM375 606c-132 0 -221 -121 -221 -291c0 -180 93 -295 220 -295c136 0 223 120 223 293c0 178 -91 293 -222 293zM396 672l-158 80l58 53l116 -120z" />
    <glyph glyph-name="Oacute" unicode="&#xd3;" horiz-adv-x="751" 
d="M365 -14c-189 0 -319 122 -319 324c0 195 145 330 344 330c192 0 315 -116 315 -316c0 -209 -152 -338 -340 -338zM375 606c-132 0 -221 -121 -221 -291c0 -180 93 -295 220 -295c136 0 223 120 223 293c0 178 -91 293 -222 293zM371 673l-16 12l144 119l54 -52z" />
    <glyph glyph-name="Ocircumflex" unicode="&#xd4;" horiz-adv-x="751" 
d="M365 -14c-189 0 -319 122 -319 324c0 195 145 330 344 330c192 0 315 -116 315 -316c0 -209 -152 -338 -340 -338zM375 606c-132 0 -221 -121 -221 -291c0 -180 93 -295 220 -295c136 0 223 120 223 293c0 178 -91 293 -222 293zM371 804h27l105 -125l-16 -5l-103 59
l-103 -59l-17 5z" />
    <glyph glyph-name="Otilde" unicode="&#xd5;" horiz-adv-x="751" 
d="M365 -14c-189 0 -319 122 -319 324c0 195 145 330 344 330c192 0 315 -116 315 -316c0 -209 -152 -338 -340 -338zM375 606c-132 0 -221 -121 -221 -291c0 -180 93 -295 220 -295c136 0 223 120 223 293c0 178 -91 293 -222 293zM261 688l-16 10c20 41 47 83 94 83
c42 0 73 -34 106 -34c25 0 41 3 68 40l16 -11c-16 -33 -46 -82 -93 -82c-46 0 -74 34 -106 34c-26 0 -44 -9 -69 -40z" />
    <glyph glyph-name="Odieresis" unicode="&#xd6;" horiz-adv-x="751" 
d="M365 -14c-189 0 -319 122 -319 324c0 195 145 330 344 330c192 0 315 -116 315 -316c0 -209 -152 -338 -340 -338zM375 606c-132 0 -221 -121 -221 -291c0 -180 93 -295 220 -295c136 0 223 120 223 293c0 178 -91 293 -222 293zM283 696c-27 0 -48 22 -48 48
c0 27 21 48 48 48c26 0 47 -21 47 -48c0 -26 -21 -48 -47 -48zM490 696c-27 0 -48 22 -48 48c0 27 21 48 48 48c26 0 48 -21 48 -48c0 -26 -22 -48 -48 -48z" />
    <glyph glyph-name="multiply" unicode="&#xd7;" horiz-adv-x="618" 
d="M132 450l176 -177l178 178l38 -38l-178 -178l178 -178l-38 -38l-178 178l-176 -177l-38 38l176 177l-176 177z" />
    <glyph glyph-name="Oslash" unicode="&#xd8;" horiz-adv-x="766" 
d="M612 678l33 -19l-51 -74c80 -54 126 -144 126 -260c0 -211 -143 -339 -350 -339c-60 0 -111 11 -155 31l-59 -87l-33 18l58 88c-87 53 -135 150 -135 274c0 189 133 330 352 330c62 0 118 -13 163 -36zM526 552c-36 34 -84 54 -145 54c-148 0 -227 -120 -227 -291
c0 -93 24 -170 68 -219zM552 521l-304 -454c35 -31 79 -47 133 -47c153 0 230 120 230 293c0 88 -20 159 -59 208z" />
    <glyph glyph-name="Ugrave" unicode="&#xd9;" horiz-adv-x="720" 
d="M30 626h265v-17l-82 -24v-318c0 -184 72 -229 179 -229c110 0 181 58 181 242l-1 305l-87 24v17h210v-17l-68 -24l-9 -326c-5 -173 -79 -273 -252 -273c-154 0 -250 70 -250 247v352l-86 24v17zM400 672l-158 80l58 53l116 -120z" />
    <glyph glyph-name="Uacute" unicode="&#xda;" horiz-adv-x="720" 
d="M30 626h265v-17l-82 -24v-318c0 -184 72 -229 179 -229c110 0 181 58 181 242l-1 305l-87 24v17h210v-17l-68 -24l-9 -326c-5 -173 -79 -273 -252 -273c-154 0 -250 70 -250 247v352l-86 24v17zM391 673l-16 12l144 119l54 -52z" />
    <glyph glyph-name="Ucircumflex" unicode="&#xdb;" horiz-adv-x="720" 
d="M30 626h265v-17l-82 -24v-318c0 -184 72 -229 179 -229c110 0 181 58 181 242l-1 305l-87 24v17h210v-17l-68 -24l-9 -326c-5 -173 -79 -273 -252 -273c-154 0 -250 70 -250 247v352l-86 24v17zM386 804h27l105 -125l-16 -5l-103 59l-103 -59l-17 5z" />
    <glyph glyph-name="Udieresis" unicode="&#xdc;" horiz-adv-x="720" 
d="M30 626h265v-17l-82 -24v-318c0 -184 72 -229 179 -229c110 0 181 58 181 242l-1 305l-87 24v17h210v-17l-68 -24l-9 -326c-5 -173 -79 -273 -252 -273c-154 0 -250 70 -250 247v352l-86 24v17zM299 696c-27 0 -48 22 -48 48c0 27 21 48 48 48c26 0 47 -21 47 -48
c0 -26 -21 -48 -47 -48zM506 696c-27 0 -48 22 -48 48c0 27 21 48 48 48c26 0 48 -21 48 -48c0 -26 -22 -48 -48 -48z" />
    <glyph glyph-name="Yacute" unicode="&#xdd;" horiz-adv-x="610" 
d="M18 626h229v-17l-69 -24l162 -260l148 260l-76 24v17h180v-17l-47 -24l-190 -299v-245l85 -24v-17h-267v17l87 24v243l-187 301l-55 24v17zM336 673l-16 12l144 119l54 -52z" />
    <glyph glyph-name="Thorn" unicode="&#xde;" horiz-adv-x="579" 
d="M40 626h265v-17l-81 -24v-97c22 3 56 9 108 9c107 0 211 -34 211 -156c0 -108 -84 -176 -213 -176c-26 0 -79 3 -106 12v-136l95 -24v-17h-279v17l87 24v544l-87 24v17zM224 458v-254c15 -3 36 -6 69 -6c82 0 150 44 150 143c0 75 -48 125 -154 125c-23 0 -46 -4 -65 -8z
" />
    <glyph glyph-name="germandbls" unicode="&#xdf;" horiz-adv-x="586" 
d="M38 0v17l72 24v354h-65v17l65 24v39c0 123 92 223 233 223c112 0 171 -54 171 -119c0 -33 -15 -63 -56 -101c-38 -35 -67 -63 -67 -102c0 -27 12 -52 75 -105c64 -55 89 -96 89 -147c0 -69 -58 -138 -167 -138c-37 0 -63 7 -83 15l-13 83h21c12 -39 39 -65 85 -65
c48 0 74 33 74 79c0 35 -21 70 -69 112c-65 58 -82 88 -82 117c0 88 121 121 121 240c0 63 -42 98 -107 98c-76 0 -141 -51 -141 -183v-482h-156z" />
    <glyph glyph-name="agrave" unicode="&#xe0;" horiz-adv-x="506" 
d="M94 430c43 16 112 36 185 36c118 0 131 -60 131 -140v-276l78 -2v-17l-162 -45l2 81h-2c-29 -43 -88 -81 -157 -81c-73 0 -125 41 -125 119c0 116 128 147 282 160v58c0 69 -19 109 -80 109c-65 0 -110 -34 -130 -104h-22v102zM326 235c-126 -12 -194 -40 -194 -117
c0 -46 32 -77 83 -77c21 0 50 4 79 27c26 20 32 42 32 59v108zM261 508l-101 137l62 29l54 -159z" />
    <glyph glyph-name="aacute" unicode="&#xe1;" horiz-adv-x="506" 
d="M94 430c43 16 112 36 185 36c118 0 131 -60 131 -140v-276l78 -2v-17l-162 -45l2 81h-2c-29 -43 -88 -81 -157 -81c-73 0 -125 41 -125 119c0 116 128 147 282 160v58c0 69 -19 109 -80 109c-65 0 -110 -34 -130 -104h-22v102zM326 235c-126 -12 -194 -40 -194 -117
c0 -46 32 -77 83 -77c21 0 50 4 79 27c26 20 32 42 32 59v108zM247 508l-15 9l74 157l59 -34z" />
    <glyph glyph-name="acircumflex" unicode="&#xe2;" horiz-adv-x="506" 
d="M94 430c43 16 112 36 185 36c118 0 131 -60 131 -140v-276l78 -2v-17l-162 -45l2 81h-2c-29 -43 -88 -81 -157 -81c-73 0 -125 41 -125 119c0 116 128 147 282 160v58c0 69 -19 109 -80 109c-65 0 -110 -34 -130 -104h-22v102zM326 235c-126 -12 -194 -40 -194 -117
c0 -46 32 -77 83 -77c21 0 50 4 79 27c26 20 32 42 32 59v108zM239 670h25l87 -159l-15 -5l-84 94l-84 -94l-15 5z" />
    <glyph glyph-name="atilde" unicode="&#xe3;" horiz-adv-x="506" 
d="M94 430c43 16 112 36 185 36c118 0 131 -60 131 -140v-276l78 -2v-17l-162 -45l2 81h-2c-29 -43 -88 -81 -157 -81c-73 0 -125 41 -125 119c0 116 128 147 282 160v58c0 69 -19 109 -80 109c-65 0 -110 -34 -130 -104h-22v102zM326 235c-126 -12 -194 -40 -194 -117
c0 -46 32 -77 83 -77c21 0 50 4 79 27c26 20 32 42 32 59v108zM145 540l-16 10c18 36 43 88 88 88c32 0 69 -37 103 -37c22 0 35 4 62 41l16 -10c-18 -36 -44 -88 -88 -88c-36 0 -68 37 -106 37c-19 0 -34 -9 -59 -41z" />
    <glyph glyph-name="adieresis" unicode="&#xe4;" horiz-adv-x="506" 
d="M94 430c43 16 112 36 185 36c118 0 131 -60 131 -140v-276l78 -2v-17l-162 -45l2 81h-2c-29 -43 -88 -81 -157 -81c-73 0 -125 41 -125 119c0 116 128 147 282 160v58c0 69 -19 109 -80 109c-65 0 -110 -34 -130 -104h-22v102zM326 235c-126 -12 -194 -40 -194 -117
c0 -46 32 -77 83 -77c21 0 50 4 79 27c26 20 32 42 32 59v108zM166 565c-26 0 -46 21 -46 46c0 26 20 47 46 47s46 -21 46 -47c0 -25 -20 -46 -46 -46zM350 565c-26 0 -46 21 -46 46c0 26 20 47 46 47c25 0 46 -21 46 -47c0 -25 -21 -46 -46 -46z" />
    <glyph glyph-name="aring" unicode="&#xe5;" horiz-adv-x="506" 
d="M94 430c43 16 112 36 185 36c118 0 131 -60 131 -140v-276l78 -2v-17l-162 -45l2 81h-2c-29 -43 -88 -81 -157 -81c-73 0 -125 41 -125 119c0 116 128 147 282 160v58c0 69 -19 109 -80 109c-65 0 -110 -34 -130 -104h-22v102zM326 235c-126 -12 -194 -40 -194 -117
c0 -46 32 -77 83 -77c21 0 50 4 79 27c26 20 32 42 32 59v108zM258 520c-50 0 -87 36 -87 86s37 87 87 87c51 0 87 -37 87 -87s-36 -86 -87 -86zM208 606c0 -28 22 -50 50 -50s51 22 51 50s-23 50 -51 50s-50 -22 -50 -50z" />
    <glyph glyph-name="ae" unicode="&#xe6;" horiz-adv-x="750" 
d="M96 429c38 16 106 37 174 37c71 0 101 -27 114 -68c34 45 87 68 143 68c161 0 177 -152 177 -213h-298c-1 -10 -2 -24 -2 -36c0 -117 43 -201 133 -201c76 0 115 42 140 98h22l-24 -87c-31 -23 -71 -41 -149 -41c-90 0 -161 37 -192 108c-30 -56 -83 -108 -163 -108
c-77 0 -128 40 -128 117c0 124 154 142 278 166v54c0 78 -30 111 -85 111c-58 0 -100 -37 -118 -105h-22v100zM321 240c-116 -16 -194 -48 -194 -126c0 -50 27 -80 74 -80c52 0 120 50 120 135v71zM407 285l205 3c-2 45 -8 148 -96 148c-56 0 -108 -55 -109 -151z" />
    <glyph glyph-name="ccedilla" unicode="&#xe7;" horiz-adv-x="470" 
d="M443 121l-25 -101c-33 -21 -88 -34 -149 -34h-10l-15 -41h15c48 0 98 -12 98 -62c0 -59 -66 -75 -125 -75c-13 0 -35 1 -51 4v20c7 -2 21 -2 26 -2c47 0 79 15 79 50c0 24 -24 45 -81 45l30 63c-121 14 -189 105 -189 238c0 119 78 240 234 240c66 0 114 -16 136 -27v-97
h-25c-22 63 -50 91 -109 91c-91 0 -141 -91 -141 -199c0 -116 56 -212 147 -212c57 0 102 20 134 99h21z" />
    <glyph glyph-name="egrave" unicode="&#xe8;" horiz-adv-x="491" 
d="M440 108l-30 -87c-37 -20 -73 -35 -146 -35c-133 0 -219 85 -219 232c0 136 84 248 224 248c144 0 177 -125 177 -213h-304c-1 -9 -2 -24 -2 -34c0 -121 65 -199 152 -199c56 0 99 30 125 88h23zM144 289h210c-1 62 -19 145 -97 145c-65 0 -100 -57 -113 -145zM264 508
l-101 137l62 29l54 -159z" />
    <glyph glyph-name="eacute" unicode="&#xe9;" horiz-adv-x="491" 
d="M440 108l-30 -87c-37 -20 -73 -35 -146 -35c-133 0 -219 85 -219 232c0 136 84 248 224 248c144 0 177 -125 177 -213h-304c-1 -9 -2 -24 -2 -34c0 -121 65 -199 152 -199c56 0 99 30 125 88h23zM144 289h210c-1 62 -19 145 -97 145c-65 0 -100 -57 -113 -145zM260 508
l-15 9l74 157l59 -34z" />
    <glyph glyph-name="ecircumflex" unicode="&#xea;" horiz-adv-x="491" 
d="M440 108l-30 -87c-37 -20 -73 -35 -146 -35c-133 0 -219 85 -219 232c0 136 84 248 224 248c144 0 177 -125 177 -213h-304c-1 -9 -2 -24 -2 -34c0 -121 65 -199 152 -199c56 0 99 30 125 88h23zM144 289h210c-1 62 -19 145 -97 145c-65 0 -100 -57 -113 -145zM246 670
h25l87 -159l-15 -5l-84 94l-84 -94l-15 5z" />
    <glyph glyph-name="edieresis" unicode="&#xeb;" horiz-adv-x="491" 
d="M440 108l-30 -87c-37 -20 -73 -35 -146 -35c-133 0 -219 85 -219 232c0 136 84 248 224 248c144 0 177 -125 177 -213h-304c-1 -9 -2 -24 -2 -34c0 -121 65 -199 152 -199c56 0 99 30 125 88h23zM144 289h210c-1 62 -19 145 -97 145c-65 0 -100 -57 -113 -145zM172 565
c-26 0 -46 21 -46 46c0 26 20 47 46 47s46 -21 46 -47c0 -25 -20 -46 -46 -46zM356 565c-26 0 -46 21 -46 46c0 26 20 47 46 47c25 0 46 -21 46 -47c0 -25 -21 -46 -46 -46z" />
    <glyph glyph-name="igrave" unicode="&#xec;" horiz-adv-x="305" 
d="M47 0v17l72 24v350l-75 3v17l160 55v-425l73 -24v-17h-230zM164 508l-101 137l62 29l54 -159z" />
    <glyph glyph-name="iacute" unicode="&#xed;" horiz-adv-x="305" 
d="M47 0v17l72 24v350l-75 3v17l160 55v-425l73 -24v-17h-230zM141 508l-15 9l74 157l59 -34z" />
    <glyph glyph-name="icircumflex" unicode="&#xee;" horiz-adv-x="305" 
d="M47 0v17l72 24v350l-75 3v17l160 55v-425l73 -24v-17h-230zM142 670h25l87 -159l-15 -5l-84 94l-84 -94l-15 5z" />
    <glyph glyph-name="idieresis" unicode="&#xef;" horiz-adv-x="305" 
d="M65 557c-26 0 -46 20 -46 46c0 25 20 46 46 46s46 -21 46 -46c0 -26 -20 -46 -46 -46zM240 557c-25 0 -45 20 -45 46c0 25 20 46 45 46c26 0 47 -21 47 -46c0 -26 -21 -46 -47 -46zM47 0v17l72 24v350l-75 3v17l160 55v-425l73 -24v-17h-230z" />
    <glyph glyph-name="eth" unicode="&#xf0;" horiz-adv-x="549" 
d="M121 698l40 12c32 -5 99 -33 138 -59l100 56l22 -31l-87 -51c90 -72 166 -192 166 -359c0 -160 -86 -280 -243 -280c-128 0 -212 83 -212 230c0 145 83 249 231 249c44 0 83 -18 111 -45l3 2c-29 86 -83 150 -114 171l-106 -60l-23 29l99 58c-37 27 -87 58 -125 69v9z
M276 434c-92 0 -136 -97 -136 -211c0 -124 42 -207 127 -207c93 0 137 96 137 213c0 125 -40 205 -128 205z" />
    <glyph glyph-name="ntilde" unicode="&#xf1;" horiz-adv-x="608" 
d="M43 411l160 55l-2 -109h3c25 33 90 109 180 109c93 0 126 -56 126 -143v-282l72 -24v-17h-218v17l62 24v272c0 50 -12 94 -76 94c-31 0 -64 -12 -97 -38c-35 -29 -50 -52 -50 -68v-260l62 -24v-17h-218v17l72 24v350l-76 3v17zM192 540l-16 10c18 36 43 88 88 88
c32 0 69 -37 103 -37c22 0 35 4 62 41l16 -10c-18 -36 -44 -88 -88 -88c-36 0 -68 37 -106 37c-19 0 -34 -9 -59 -41z" />
    <glyph glyph-name="ograve" unicode="&#xf2;" horiz-adv-x="550" 
d="M263 -14c-129 0 -218 84 -218 231c0 134 80 249 244 249c132 0 216 -87 216 -223c0 -155 -90 -257 -242 -257zM140 223c0 -133 49 -205 134 -205c83 0 136 90 136 211c0 143 -52 205 -130 205c-96 0 -140 -93 -140 -211zM295 508l-101 137l62 29l54 -159z" />
    <glyph glyph-name="oacute" unicode="&#xf3;" horiz-adv-x="550" 
d="M263 -14c-129 0 -218 84 -218 231c0 134 80 249 244 249c132 0 216 -87 216 -223c0 -155 -90 -257 -242 -257zM140 223c0 -133 49 -205 134 -205c83 0 136 90 136 211c0 143 -52 205 -130 205c-96 0 -140 -93 -140 -211zM280 508l-15 9l74 157l59 -34z" />
    <glyph glyph-name="ocircumflex" unicode="&#xf4;" horiz-adv-x="550" 
d="M263 -14c-129 0 -218 84 -218 231c0 134 80 249 244 249c132 0 216 -87 216 -223c0 -155 -90 -257 -242 -257zM140 223c0 -133 49 -205 134 -205c83 0 136 90 136 211c0 143 -52 205 -130 205c-96 0 -140 -93 -140 -211zM263 670h25l87 -159l-15 -5l-84 94l-84 -94l-15 5
z" />
    <glyph glyph-name="otilde" unicode="&#xf5;" horiz-adv-x="550" 
d="M263 -14c-129 0 -218 84 -218 231c0 134 80 249 244 249c132 0 216 -87 216 -223c0 -155 -90 -257 -242 -257zM140 223c0 -133 49 -205 134 -205c83 0 136 90 136 211c0 143 -52 205 -130 205c-96 0 -140 -93 -140 -211zM170 540l-16 10c18 36 43 88 88 88
c32 0 69 -37 103 -37c22 0 35 4 62 41l16 -10c-18 -36 -44 -88 -88 -88c-36 0 -68 37 -106 37c-19 0 -34 -9 -59 -41z" />
    <glyph glyph-name="odieresis" unicode="&#xf6;" horiz-adv-x="550" 
d="M263 -14c-129 0 -218 84 -218 231c0 134 80 249 244 249c132 0 216 -87 216 -223c0 -155 -90 -257 -242 -257zM140 223c0 -133 49 -205 134 -205c83 0 136 90 136 211c0 143 -52 205 -130 205c-96 0 -140 -93 -140 -211zM187 565c-26 0 -46 21 -46 46c0 26 20 47 46 47
s46 -21 46 -47c0 -25 -20 -46 -46 -46zM371 565c-26 0 -46 21 -46 46c0 26 20 47 46 47c25 0 46 -21 46 -47c0 -25 -21 -46 -46 -46z" />
    <glyph glyph-name="divide" unicode="&#xf7;" horiz-adv-x="618" 
d="M314 460c31 0 55 -24 55 -55s-24 -55 -55 -55s-55 24 -55 55s24 55 55 55zM74 208v56h470v-56h-470zM314 12c-31 0 -55 24 -55 55c0 30 24 54 55 54s55 -24 55 -54c0 -31 -24 -55 -55 -55z" />
    <glyph glyph-name="oslash" unicode="&#xf8;" horiz-adv-x="550" 
d="M442 509l29 -18l-45 -67c49 -36 79 -96 79 -175c0 -156 -90 -263 -242 -263c-42 0 -80 9 -112 26l-49 -75l-29 18l50 75c-48 37 -78 99 -78 183c0 134 79 253 245 253c41 0 77 -8 108 -23zM365 393c-22 29 -51 41 -89 41c-96 0 -136 -91 -136 -211c0 -55 10 -98 25 -130z
M384 359l-200 -300c22 -27 50 -41 90 -41c87 0 136 89 136 211c0 57 -11 100 -26 130z" />
    <glyph glyph-name="ugrave" unicode="&#xf9;" horiz-adv-x="588" 
d="M401 -14v109h-2c-32 -49 -98 -109 -180 -109c-88 0 -115 59 -115 155v263l-68 13v17l152 32v-296c0 -68 6 -127 78 -127c22 0 62 12 95 45c28 27 40 51 40 71v245l-70 29v17l154 6v-399l75 -1v-17zM297 508l-101 137l62 29l54 -159z" />
    <glyph glyph-name="uacute" unicode="&#xfa;" horiz-adv-x="588" 
d="M401 -14v109h-2c-32 -49 -98 -109 -180 -109c-88 0 -115 59 -115 155v263l-68 13v17l152 32v-296c0 -68 6 -127 78 -127c22 0 62 12 95 45c28 27 40 51 40 71v245l-70 29v17l154 6v-399l75 -1v-17zM299 508l-15 9l74 157l59 -34z" />
    <glyph glyph-name="ucircumflex" unicode="&#xfb;" horiz-adv-x="588" 
d="M401 -14v109h-2c-32 -49 -98 -109 -180 -109c-88 0 -115 59 -115 155v263l-68 13v17l152 32v-296c0 -68 6 -127 78 -127c22 0 62 12 95 45c28 27 40 51 40 71v245l-70 29v17l154 6v-399l75 -1v-17zM291 670h25l87 -159l-15 -5l-84 94l-84 -94l-15 5z" />
    <glyph glyph-name="udieresis" unicode="&#xfc;" horiz-adv-x="588" 
d="M401 -14v109h-2c-32 -49 -98 -109 -180 -109c-88 0 -115 59 -115 155v263l-68 13v17l152 32v-296c0 -68 6 -127 78 -127c22 0 62 12 95 45c28 27 40 51 40 71v245l-70 29v17l154 6v-399l75 -1v-17zM212 565c-26 0 -46 21 -46 46c0 26 20 47 46 47s46 -21 46 -47
c0 -25 -20 -46 -46 -46zM396 565c-26 0 -46 21 -46 46c0 26 20 47 46 47c25 0 46 -21 46 -47c0 -25 -21 -46 -46 -46z" />
    <glyph glyph-name="yacute" unicode="&#xfd;" horiz-adv-x="499" 
d="M446 413l-167 -427c-50 -123 -93 -202 -164 -202c-24 0 -47 6 -60 16v102h19c9 -40 32 -52 58 -52c39 0 82 52 110 151l-181 412l-48 22v17h210v-17l-70 -22l132 -316l106 316l-62 22v17h164v-17zM283 508l-15 9l74 157l59 -34z" />
    <glyph glyph-name="thorn" unicode="&#xfe;" horiz-adv-x="573" 
d="M198 710v-361h2c21 36 72 117 162 117c131 0 166 -108 166 -215c0 -149 -82 -265 -210 -265c-48 0 -86 14 -120 40v-201l98 -24v-17h-254v17l72 24v811l-84 2v17zM198 159c0 -105 50 -142 104 -142c81 0 132 90 132 216c0 107 -30 177 -96 177c-77 0 -122 -64 -134 -136
c-4 -27 -6 -81 -6 -115z" />
    <glyph glyph-name="ydieresis" unicode="&#xff;" horiz-adv-x="499" 
d="M446 413l-167 -427c-50 -123 -93 -202 -164 -202c-24 0 -47 6 -60 16v102h19c9 -40 32 -52 58 -52c39 0 82 52 110 151l-181 412l-48 22v17h210v-17l-70 -22l132 -316l106 316l-62 22v17h164v-17zM185 565c-26 0 -46 21 -46 46c0 26 20 47 46 47s46 -21 46 -47
c0 -25 -20 -46 -46 -46zM369 565c-26 0 -46 21 -46 46c0 26 20 47 46 47c25 0 46 -21 46 -47c0 -25 -21 -46 -46 -46z" />
    <glyph glyph-name="Amacron" unicode="&#x100;" horiz-adv-x="660" 
d="M75 41l254 598h18l242 -598l55 -24v-17h-233v17l76 24l-64 157h-230l-62 -157l73 -24v-17h-187v17zM304 502l-93 -257h193l-99 257h-1zM209 719v58h248v-58h-248z" />
    <glyph glyph-name="amacron" unicode="&#x101;" horiz-adv-x="506" 
d="M94 430c43 16 112 36 185 36c118 0 131 -60 131 -140v-276l78 -2v-17l-162 -45l2 81h-2c-29 -43 -88 -81 -157 -81c-73 0 -125 41 -125 119c0 116 128 147 282 160v58c0 69 -19 109 -80 109c-65 0 -110 -34 -130 -104h-22v102zM326 235c-126 -12 -194 -40 -194 -117
c0 -46 32 -77 83 -77c21 0 50 4 79 27c26 20 32 42 32 59v108zM135 572v52h231v-52h-231z" />
    <glyph glyph-name="Abreve" unicode="&#x102;" horiz-adv-x="660" 
d="M75 41l254 598h18l242 -598l55 -24v-17h-233v17l76 24l-64 157h-230l-62 -157l73 -24v-17h-187v17zM304 502l-93 -257h193l-99 257h-1zM430 804h25c-2 -57 -16 -120 -116 -120s-114 63 -116 120h26c6 -32 18 -60 90 -60c73 0 85 28 91 60z" />
    <glyph glyph-name="abreve" unicode="&#x103;" horiz-adv-x="506" 
d="M94 430c43 16 112 36 185 36c118 0 131 -60 131 -140v-276l78 -2v-17l-162 -45l2 81h-2c-29 -43 -88 -81 -157 -81c-73 0 -125 41 -125 119c0 116 128 147 282 160v58c0 69 -19 109 -80 109c-65 0 -110 -34 -130 -104h-22v102zM326 235c-126 -12 -194 -40 -194 -117
c0 -46 32 -77 83 -77c21 0 50 4 79 27c26 20 32 42 32 59v108zM341 654h24c-2 -57 -22 -125 -110 -125c-89 0 -108 68 -110 125h24c6 -32 11 -71 86 -71s80 39 86 71z" />
    <glyph glyph-name="Aogonek" unicode="&#x104;" horiz-adv-x="660" 
d="M631 -122l10 -23c-26 -19 -65 -42 -103 -42c-49 0 -77 27 -77 65c0 53 68 97 110 122h-160v17l76 24l-64 157h-230l-62 -157l73 -24v-17h-187v17l58 24l254 598h18l242 -598l55 -24v-17h-44c-46 -34 -75 -64 -75 -103c0 -35 30 -42 47 -42c16 0 40 6 59 23zM304 502
l-93 -257h193l-99 257h-1z" />
    <glyph glyph-name="aogonek" unicode="&#x105;" horiz-adv-x="506" 
d="M94 430c43 16 112 36 185 36c118 0 131 -60 131 -140v-276l78 -2v-17l-36 -10c-40 -27 -103 -81 -103 -130c0 -29 27 -40 47 -40c16 0 40 4 64 23l9 -16c-26 -23 -66 -47 -109 -47c-44 0 -70 26 -70 63c0 51 73 105 119 135l-83 -23l2 81h-2c-29 -43 -88 -81 -157 -81
c-73 0 -125 41 -125 119c0 116 128 147 282 160v58c0 69 -19 109 -80 109c-65 0 -110 -34 -130 -104h-22v102zM326 235c-126 -12 -194 -40 -194 -117c0 -46 32 -77 83 -77c21 0 50 4 79 27c26 20 32 42 32 59v108z" />
    <glyph glyph-name="Cacute" unicode="&#x106;" horiz-adv-x="637" 
d="M591 162l-13 -128c-52 -26 -113 -48 -221 -48c-213 0 -311 155 -311 324c0 196 133 330 337 330c90 0 152 -20 188 -39v-111h-22c-22 65 -66 117 -167 116c-138 0 -228 -109 -228 -292c0 -161 87 -294 222 -294c114 0 166 59 193 142h22zM365 673l-16 12l144 119l54 -52z
" />
    <glyph glyph-name="cacute" unicode="&#x107;" horiz-adv-x="470" 
d="M443 121l-25 -101c-33 -21 -88 -34 -149 -34c-142 0 -223 95 -223 240c0 119 78 240 234 240c66 0 114 -16 136 -27v-97h-25c-22 63 -50 91 -109 91c-91 0 -141 -91 -141 -199c0 -116 56 -212 147 -212c57 0 102 20 134 99h21zM271 508l-15 9l74 157l59 -34z" />
    <glyph glyph-name="Ccircumflex" unicode="&#x108;" horiz-adv-x="637" 
d="M591 162l-13 -128c-52 -26 -113 -48 -221 -48c-213 0 -311 155 -311 324c0 196 133 330 337 330c90 0 152 -20 188 -39v-111h-22c-22 65 -66 117 -167 116c-138 0 -228 -109 -228 -292c0 -161 87 -294 222 -294c114 0 166 59 193 142h22zM361 804h27l105 -125l-16 -5
l-103 59l-103 -59l-17 5z" />
    <glyph glyph-name="ccircumflex" unicode="&#x109;" horiz-adv-x="470" 
d="M443 121l-25 -101c-33 -21 -88 -34 -149 -34c-142 0 -223 95 -223 240c0 119 78 240 234 240c66 0 114 -16 136 -27v-97h-25c-22 63 -50 91 -109 91c-91 0 -141 -91 -141 -199c0 -116 56 -212 147 -212c57 0 102 20 134 99h21zM260 670h25l87 -159l-15 -5l-84 94l-84 -94
l-15 5z" />
    <glyph glyph-name="Cdotaccent" unicode="&#x10a;" horiz-adv-x="637" 
d="M591 162l-13 -128c-52 -26 -113 -48 -221 -48c-213 0 -311 155 -311 324c0 196 133 330 337 330c90 0 152 -20 188 -39v-111h-22c-22 65 -66 117 -167 116c-138 0 -228 -109 -228 -292c0 -161 87 -294 222 -294c114 0 166 59 193 142h22zM370 695c-31 0 -56 24 -56 56
c0 30 25 55 56 55s56 -25 56 -55c0 -32 -25 -56 -56 -56z" />
    <glyph glyph-name="cdotaccent" unicode="&#x10b;" horiz-adv-x="470" 
d="M443 121l-25 -101c-33 -21 -88 -34 -149 -34c-142 0 -223 95 -223 240c0 119 78 240 234 240c66 0 114 -16 136 -27v-97h-25c-22 63 -50 91 -109 91c-91 0 -141 -91 -141 -199c0 -116 56 -212 147 -212c57 0 102 20 134 99h21zM277 563c-26 0 -47 21 -47 48
c0 26 21 47 47 47c27 0 48 -21 48 -47c0 -27 -21 -48 -48 -48z" />
    <glyph glyph-name="Ccaron" unicode="&#x10c;" horiz-adv-x="637" 
d="M591 162l-13 -128c-52 -26 -113 -48 -221 -48c-213 0 -311 155 -311 324c0 196 133 330 337 330c90 0 152 -20 188 -39v-111h-22c-22 65 -66 117 -167 116c-138 0 -228 -109 -228 -292c0 -161 87 -294 222 -294c114 0 166 59 193 142h22zM270 800l17 6l103 -60l102 60
l17 -6l-106 -125h-26z" />
    <glyph glyph-name="ccaron" unicode="&#x10d;" horiz-adv-x="470" 
d="M443 121l-25 -101c-33 -21 -88 -34 -149 -34c-142 0 -223 95 -223 240c0 119 78 240 234 240c66 0 114 -16 136 -27v-97h-25c-22 63 -50 91 -109 91c-91 0 -141 -91 -141 -199c0 -116 56 -212 147 -212c57 0 102 20 134 99h21zM260 512l-87 159l16 5l83 -94l83 94l16 -5
l-87 -159h-24z" />
    <glyph glyph-name="Dcaron" unicode="&#x10e;" horiz-adv-x="709" 
d="M40 0v17l87 24v544l-87 24v17h269c185 0 354 -54 354 -295c0 -233 -160 -331 -369 -331h-254zM224 588v-547c25 -5 54 -7 74 -7c166 0 258 97 258 291c0 180 -80 269 -257 269c-12 0 -49 -1 -75 -6zM226 800l17 6l103 -60l102 60l17 -6l-106 -125h-26z" />
    <glyph glyph-name="dcaron" unicode="&#x10f;" horiz-adv-x="548" 
d="M293 656l165 54v-659l75 -2v-17l-160 -46v86h-2c-36 -50 -85 -86 -147 -86c-101 0 -179 84 -179 225c0 150 89 255 228 255c41 0 76 -7 100 -17v187l-80 3v17zM137 233c0 -126 53 -189 127 -189c45 0 93 28 105 86c5 24 5 94 5 139c0 33 1 87 -6 107
c-10 32 -48 57 -96 57c-81 0 -135 -75 -135 -200zM530 471l-17 10c17 25 32 61 32 89c0 27 -17 44 -37 62l42 34c20 -7 56 -35 56 -72c0 -36 -32 -76 -76 -123z" />
    <glyph glyph-name="Dcroat" unicode="&#x110;" horiz-adv-x="709" 
d="M40 0v17l87 24v272h-84v40h84v232l-87 24v17h269c185 0 354 -54 354 -295c0 -233 -160 -331 -369 -331h-254zM224 588v-235h140v-40h-140v-272c25 -5 54 -7 74 -7c166 0 258 97 258 291c0 180 -80 269 -257 269c-12 0 -49 -1 -75 -6z" />
    <glyph glyph-name="dcroat" unicode="&#x111;" horiz-adv-x="548" 
d="M293 656l165 54v-149h71v-35h-71v-475l75 -2v-17l-160 -46v86h-2c-36 -50 -85 -86 -147 -86c-101 0 -179 84 -179 225c0 150 89 255 228 255c41 0 76 -7 100 -17v77h-110v35h110v75l-80 3v17zM137 233c0 -126 53 -189 127 -189c45 0 93 28 105 86c5 24 5 94 5 139
c0 33 1 87 -6 107c-10 32 -48 57 -96 57c-81 0 -135 -75 -135 -200z" />
    <glyph glyph-name="Emacron" unicode="&#x112;" horiz-adv-x="581" 
d="M40 0v17l87 24v544l-87 24v17h456v-136h-22c-29 80 -42 98 -116 98h-134v-241l155 4l23 76h19v-195h-20l-22 76l-155 4v-270h149c86 0 104 4 134 121h22v-163h-489zM194 719v58h248v-58h-248z" />
    <glyph glyph-name="emacron" unicode="&#x113;" horiz-adv-x="491" 
d="M440 108l-30 -87c-37 -20 -73 -35 -146 -35c-133 0 -219 85 -219 232c0 136 84 248 224 248c144 0 177 -125 177 -213h-304c-1 -9 -2 -24 -2 -34c0 -121 65 -199 152 -199c56 0 99 30 125 88h23zM144 289h210c-1 62 -19 145 -97 145c-65 0 -100 -57 -113 -145zM157 572
v52h231v-52h-231z" />
    <glyph glyph-name="Ebreve" unicode="&#x114;" horiz-adv-x="581" 
d="M40 0v17l87 24v544l-87 24v17h456v-136h-22c-29 80 -42 98 -116 98h-134v-241l155 4l23 76h19v-195h-20l-22 76l-155 4v-270h149c86 0 104 4 134 121h22v-163h-489zM421 804h25c-2 -57 -16 -120 -116 -120s-114 63 -116 120h26c6 -32 18 -60 90 -60c73 0 85 28 91 60z
" />
    <glyph glyph-name="ebreve" unicode="&#x115;" horiz-adv-x="491" 
d="M440 108l-30 -87c-37 -20 -73 -35 -146 -35c-133 0 -219 85 -219 232c0 136 84 248 224 248c144 0 177 -125 177 -213h-304c-1 -9 -2 -24 -2 -34c0 -121 65 -199 152 -199c56 0 99 30 125 88h23zM144 289h210c-1 62 -19 145 -97 145c-65 0 -100 -57 -113 -145zM353 654
h24c-2 -57 -22 -125 -110 -125c-89 0 -108 68 -110 125h24c6 -32 11 -71 86 -71s80 39 86 71z" />
    <glyph glyph-name="Edotaccent" unicode="&#x116;" horiz-adv-x="581" 
d="M40 0v17l87 24v544l-87 24v17h456v-136h-22c-29 80 -42 98 -116 98h-134v-241l155 4l23 76h19v-195h-20l-22 76l-155 4v-270h149c86 0 104 4 134 121h22v-163h-489zM334 695c-31 0 -56 24 -56 56c0 30 25 55 56 55s56 -25 56 -55c0 -32 -25 -56 -56 -56z" />
    <glyph glyph-name="edotaccent" unicode="&#x117;" horiz-adv-x="491" 
d="M440 108l-30 -87c-37 -20 -73 -35 -146 -35c-133 0 -219 85 -219 232c0 136 84 248 224 248c144 0 177 -125 177 -213h-304c-1 -9 -2 -24 -2 -34c0 -121 65 -199 152 -199c56 0 99 30 125 88h23zM144 289h210c-1 62 -19 145 -97 145c-65 0 -100 -57 -113 -145zM261 563
c-26 0 -47 21 -47 48c0 26 21 47 47 47c27 0 48 -21 48 -47c0 -27 -21 -48 -48 -48z" />
    <glyph glyph-name="Eogonek" unicode="&#x118;" horiz-adv-x="581" 
d="M40 0v17l87 24v544l-87 24v17h456v-136h-22c-29 80 -42 98 -116 98h-134v-241l155 4l23 76h19v-195h-20l-22 76l-155 4v-270h149c86 0 104 4 134 121h22v-163h-62c-46 -34 -75 -64 -75 -103c0 -35 30 -42 47 -42c16 0 40 6 59 23l10 -23c-26 -19 -65 -42 -103 -42
c-49 0 -77 27 -77 65c0 53 68 97 110 122h-398z" />
    <glyph glyph-name="eogonek" unicode="&#x119;" horiz-adv-x="491" 
d="M366 -126l9 -16c-26 -23 -67 -47 -109 -47c-44 0 -70 26 -70 63c0 46 46 86 85 112h-17c-133 0 -219 85 -219 232c0 136 84 248 224 248c144 0 177 -125 177 -213h-304c-1 -9 -2 -24 -2 -34c0 -121 65 -199 152 -199c56 0 99 30 125 88h23l-30 -87
c-28 -15 -55 -27 -97 -32c-31 -25 -59 -58 -59 -98c0 -29 28 -40 47 -40c17 0 41 4 65 23zM144 289h210c-1 62 -19 145 -97 145c-65 0 -100 -57 -113 -145z" />
    <glyph glyph-name="Ecaron" unicode="&#x11a;" horiz-adv-x="581" 
d="M40 0v17l87 24v544l-87 24v17h456v-136h-22c-29 80 -42 98 -116 98h-134v-241l155 4l23 76h19v-195h-20l-22 76l-155 4v-270h149c86 0 104 4 134 121h22v-163h-489zM202 800l17 6l103 -60l102 60l17 -6l-106 -125h-26z" />
    <glyph glyph-name="ecaron" unicode="&#x11b;" horiz-adv-x="491" 
d="M440 108l-30 -87c-37 -20 -73 -35 -146 -35c-133 0 -219 85 -219 232c0 136 84 248 224 248c144 0 177 -125 177 -213h-304c-1 -9 -2 -24 -2 -34c0 -121 65 -199 152 -199c56 0 99 30 125 88h23zM144 289h210c-1 62 -19 145 -97 145c-65 0 -100 -57 -113 -145zM248 512
l-87 159l16 5l83 -94l83 94l16 -5l-87 -159h-24z" />
    <glyph glyph-name="Gcircumflex" unicode="&#x11c;" horiz-adv-x="700" 
d="M601 245v-164c0 -14 3 -22 9 -30c-54 -32 -138 -65 -242 -65c-215 0 -322 141 -322 323c0 196 130 331 355 331c86 0 148 -17 200 -41v-109h-22c-32 90 -109 117 -183 117c-145 0 -241 -107 -241 -296c0 -152 76 -291 232 -291c61 0 100 19 121 42v183l-82 24v17h241v-17
zM387 804h27l105 -125l-16 -5l-103 59l-103 -59l-17 5z" />
    <glyph glyph-name="gcircumflex" unicode="&#x11d;" horiz-adv-x="524" 
d="M260 466c34 0 67 -7 92 -18c24 -11 34 -17 37 -17c59 0 99 7 117 12v-54h-99c16 -20 27 -56 27 -83c0 -128 -111 -160 -217 -160l-62 -50c7 -17 26 -31 80 -31c53 0 92 1 126 1c78 0 125 -38 125 -103c0 -103 -102 -179 -243 -179c-168 0 -205 83 -206 148
c19 19 76 52 115 71v4c-11 3 -31 14 -42 25c-17 18 -26 44 -27 68c22 5 61 27 97 55c-28 7 -115 40 -115 145c0 96 76 166 195 166zM149 303c0 -72 32 -128 102 -128c71 0 99 67 99 129c0 65 -18 132 -98 132c-70 0 -103 -61 -103 -133zM182 -2c-36 -22 -67 -56 -67 -80
c0 -53 56 -99 136 -99c93 0 167 46 167 113c0 47 -33 60 -98 60c-71 0 -110 1 -138 6zM254 670h25l87 -159l-15 -5l-84 94l-84 -94l-15 5z" />
    <glyph glyph-name="Gbreve" unicode="&#x11e;" horiz-adv-x="700" 
d="M601 245v-164c0 -14 3 -22 9 -30c-54 -32 -138 -65 -242 -65c-215 0 -322 141 -322 323c0 196 130 331 355 331c86 0 148 -17 200 -41v-109h-22c-32 90 -109 117 -183 117c-145 0 -241 -107 -241 -296c0 -152 76 -291 232 -291c61 0 100 19 121 42v183l-82 24v17h241v-17
zM488 804h25c-2 -57 -16 -120 -116 -120s-114 63 -116 120h26c6 -32 18 -60 90 -60c73 0 85 28 91 60z" />
    <glyph glyph-name="gbreve" unicode="&#x11f;" horiz-adv-x="524" 
d="M260 466c34 0 67 -7 92 -18c24 -11 34 -17 37 -17c59 0 99 7 117 12v-54h-99c16 -20 27 -56 27 -83c0 -128 -111 -160 -217 -160l-62 -50c7 -17 26 -31 80 -31c53 0 92 1 126 1c78 0 125 -38 125 -103c0 -103 -102 -179 -243 -179c-168 0 -205 83 -206 148
c19 19 76 52 115 71v4c-11 3 -31 14 -42 25c-17 18 -26 44 -27 68c22 5 61 27 97 55c-28 7 -115 40 -115 145c0 96 76 166 195 166zM149 303c0 -72 32 -128 102 -128c71 0 99 67 99 129c0 65 -18 132 -98 132c-70 0 -103 -61 -103 -133zM182 -2c-36 -22 -67 -56 -67 -80
c0 -53 56 -99 136 -99c93 0 167 46 167 113c0 47 -33 60 -98 60c-71 0 -110 1 -138 6zM338 654h24c-2 -57 -22 -125 -110 -125c-89 0 -108 68 -110 125h24c6 -32 11 -71 86 -71s80 39 86 71z" />
    <glyph glyph-name="Gdotaccent" unicode="&#x120;" horiz-adv-x="700" 
d="M601 245v-164c0 -14 3 -22 9 -30c-54 -32 -138 -65 -242 -65c-215 0 -322 141 -322 323c0 196 130 331 355 331c86 0 148 -17 200 -41v-109h-22c-32 90 -109 117 -183 117c-145 0 -241 -107 -241 -296c0 -152 76 -291 232 -291c61 0 100 19 121 42v183l-82 24v17h241v-17
zM392 695c-31 0 -56 24 -56 56c0 30 25 55 56 55s56 -25 56 -55c0 -32 -25 -56 -56 -56z" />
    <glyph glyph-name="gdotaccent" unicode="&#x121;" horiz-adv-x="524" 
d="M260 466c34 0 67 -7 92 -18c24 -11 34 -17 37 -17c59 0 99 7 117 12v-54h-99c16 -20 27 -56 27 -83c0 -128 -111 -160 -217 -160l-62 -50c7 -17 26 -31 80 -31c53 0 92 1 126 1c78 0 125 -38 125 -103c0 -103 -102 -179 -243 -179c-168 0 -205 83 -206 148
c19 19 76 52 115 71v4c-11 3 -31 14 -42 25c-17 18 -26 44 -27 68c22 5 61 27 97 55c-28 7 -115 40 -115 145c0 96 76 166 195 166zM149 303c0 -72 32 -128 102 -128c71 0 99 67 99 129c0 65 -18 132 -98 132c-70 0 -103 -61 -103 -133zM182 -2c-36 -22 -67 -56 -67 -80
c0 -53 56 -99 136 -99c93 0 167 46 167 113c0 47 -33 60 -98 60c-71 0 -110 1 -138 6zM264 563c-26 0 -47 21 -47 48c0 26 21 47 47 47c27 0 48 -21 48 -47c0 -27 -21 -48 -48 -48z" />
    <glyph glyph-name="Gcommaaccent" unicode="&#x122;" horiz-adv-x="700" 
d="M601 245v-164c0 -14 3 -22 9 -30c-54 -32 -138 -65 -242 -65c-215 0 -322 141 -322 323c0 196 130 331 355 331c86 0 148 -17 200 -41v-109h-22c-32 90 -109 117 -183 117c-145 0 -241 -107 -241 -296c0 -152 76 -291 232 -291c61 0 100 19 121 42v183l-82 24v17h241v-17
zM359 -221l-20 8c27 35 38 59 38 87c0 22 -18 43 -44 60l46 29c20 -4 61 -29 61 -66c0 -36 -35 -83 -81 -118z" />
    <glyph glyph-name="gcommaaccent" unicode="&#x123;" horiz-adv-x="524" 
d="M260 466c34 0 67 -7 92 -18c24 -11 34 -17 37 -17c59 0 99 7 117 12v-54h-99c16 -20 27 -56 27 -83c0 -128 -111 -160 -217 -160l-62 -50c7 -17 26 -31 80 -31c53 0 92 1 126 1c78 0 125 -38 125 -103c0 -103 -102 -179 -243 -179c-168 0 -205 83 -206 148
c19 19 76 52 115 71v4c-11 3 -31 14 -42 25c-17 18 -26 44 -27 68c22 5 61 27 97 55c-28 7 -115 40 -115 145c0 96 76 166 195 166zM149 303c0 -72 32 -128 102 -128c71 0 99 67 99 129c0 65 -18 132 -98 132c-70 0 -103 -61 -103 -133zM182 -2c-36 -22 -67 -56 -67 -80
c0 -53 56 -99 136 -99c93 0 167 46 167 113c0 47 -33 60 -98 60c-71 0 -110 1 -138 6zM278 691l20 -9c-27 -34 -39 -56 -39 -85c0 -21 19 -42 45 -59l-45 -29c-20 4 -61 29 -61 66c0 36 34 80 80 116z" />
    <glyph glyph-name="Hcircumflex" unicode="&#x124;" horiz-adv-x="779" 
d="M40 0v17l87 24v544l-87 24v17h267v-17l-83 -24v-234h331v234l-83 24v17h267v-17l-87 -24v-544l87 -24v-17h-267v17l83 24v263h-331v-263l83 -24v-17h-267zM386 804h27l105 -125l-16 -5l-103 59l-103 -59l-17 5z" />
    <glyph glyph-name="hcircumflex" unicode="&#x125;" horiz-adv-x="604" 
d="M44 0v17l70 24v595l-75 3v17l159 54v-350h2c20 29 89 106 184 106c90 0 121 -55 121 -141v-284l73 -24v-17h-220v17l63 24v264c0 59 -10 101 -73 101c-32 0 -67 -11 -104 -40c-32 -25 -46 -46 -46 -66v-259l64 -24v-17h-218zM144 883h25l87 -159l-15 -5l-84 94l-84 -94
l-15 5z" />
    <glyph glyph-name="Hbar" unicode="&#x126;" horiz-adv-x="779" 
d="M40 0v17l87 24v415h-71v33h71v96l-87 24v17h267v-17l-83 -24v-96h331v96l-83 24v17h267v-17l-87 -24v-96h77v-33h-77v-415l87 -24v-17h-267v17l83 24v263h-331v-263l83 -24v-17h-267zM224 351h331v105h-331v-105z" />
    <glyph glyph-name="hbar" unicode="&#x127;" horiz-adv-x="604" 
d="M44 0v17l70 24v485h-84v35h84v75l-75 3v17l159 54v-149h139v-35h-139v-166h2c20 29 89 106 184 106c90 0 121 -55 121 -141v-284l73 -24v-17h-220v17l63 24v264c0 59 -10 101 -73 101c-32 0 -67 -11 -104 -40c-32 -25 -46 -46 -46 -66v-259l64 -24v-17h-218z" />
    <glyph glyph-name="Itilde" unicode="&#x128;" horiz-adv-x="351" 
d="M40 0v17l87 24v544l-87 24v17h271v-17l-87 -24v-544l87 -24v-17h-271zM57 688l-16 10c20 41 47 83 94 83c42 0 73 -34 106 -34c25 0 41 3 68 40l16 -11c-16 -33 -46 -82 -93 -82c-46 0 -74 34 -106 34c-26 0 -44 -9 -69 -40z" />
    <glyph glyph-name="itilde" unicode="&#x129;" horiz-adv-x="305" 
d="M47 0v17l72 24v350l-75 3v17l160 55v-425l73 -24v-17h-230zM37 540l-16 10c18 36 43 88 88 88c32 0 69 -37 103 -37c22 0 35 4 62 41l16 -10c-18 -36 -44 -88 -88 -88c-36 0 -68 37 -106 37c-19 0 -34 -9 -59 -41z" />
    <glyph glyph-name="Imacron" unicode="&#x12a;" horiz-adv-x="351" 
d="M40 0v17l87 24v544l-87 24v17h271v-17l-87 -24v-544l87 -24v-17h-271zM50 719v58h248v-58h-248z" />
    <glyph glyph-name="imacron" unicode="&#x12b;" horiz-adv-x="305" 
d="M47 0v17l72 24v350l-75 3v17l160 55v-425l73 -24v-17h-230zM28 572v52h231v-52h-231z" />
    <glyph glyph-name="Ibreve" unicode="&#x12c;" horiz-adv-x="351" 
d="M40 0v17l87 24v544l-87 24v17h271v-17l-87 -24v-544l87 -24v-17h-271zM271 804h25c-2 -57 -16 -120 -116 -120s-114 63 -116 120h26c6 -32 18 -60 90 -60c73 0 85 28 91 60z" />
    <glyph glyph-name="ibreve" unicode="&#x12d;" horiz-adv-x="305" 
d="M47 0v17l72 24v350l-75 3v17l160 55v-425l73 -24v-17h-230zM239 654h24c-2 -57 -22 -125 -110 -125c-89 0 -108 68 -110 125h24c6 -32 11 -71 86 -71s80 39 86 71z" />
    <glyph glyph-name="Iogonek" unicode="&#x12e;" horiz-adv-x="351" 
d="M40 0v17l87 24v544l-87 24v17h271v-17l-87 -24v-544l87 -24v-17h-67c-46 -34 -75 -64 -75 -103c0 -35 30 -42 47 -42c16 0 40 6 59 23l10 -23c-26 -19 -65 -42 -103 -42c-49 0 -77 27 -77 65c0 53 68 97 110 122h-175z" />
    <glyph glyph-name="iogonek" unicode="&#x12f;" horiz-adv-x="305" 
d="M47 0v17l72 24v350l-75 3v17l160 55v-425l73 -24v-17h-34c-35 -26 -73 -63 -73 -109c0 -29 28 -40 47 -40c17 0 41 4 65 23l9 -16c-26 -23 -67 -47 -109 -47c-44 0 -70 26 -70 63c0 55 66 101 105 126h-170zM108 616c0 27 22 49 50 49c27 0 49 -22 49 -49
c0 -28 -22 -50 -49 -50c-28 0 -50 22 -50 50z" />
    <glyph glyph-name="Idotaccent" unicode="&#x130;" horiz-adv-x="351" 
d="M40 0v17l87 24v544l-87 24v17h271v-17l-87 -24v-544l87 -24v-17h-271zM177 695c-31 0 -56 24 -56 56c0 30 25 55 56 55s56 -25 56 -55c0 -32 -25 -56 -56 -56z" />
    <glyph glyph-name="dotlessi" unicode="&#x131;" horiz-adv-x="305" 
d="M47 0v17l72 24v350l-75 3v17l160 55v-425l73 -24v-17h-230z" />
    <glyph glyph-name="IJ" unicode="&#x132;" horiz-adv-x="805" 
d="M40 0v17l87 24v544l-87 24v17h271v-17l-87 -24v-544l87 -24v-17h-271zM685 585v-393c0 -116 -47 -206 -182 -206c-51 0 -98 12 -130 27v123h22c28 -86 56 -120 107 -120c66 0 87 63 87 169v400l-89 24v17h264v-17z" />
    <glyph glyph-name="ij" unicode="&#x133;" horiz-adv-x="589" 
d="M47 0v17l72 24v350l-75 3v17l160 55v-425l73 -24v-17h-230zM108 616c0 27 22 49 50 49c27 0 49 -22 49 -49c0 -28 -22 -50 -49 -50c-28 0 -50 22 -50 50zM498 466v-453c0 -143 -50 -229 -164 -229c-47 0 -81 17 -96 25l1 99h20c12 -54 35 -96 80 -96c56 0 75 58 75 173
v406l-81 3v17zM403 616c0 27 21 49 49 49c27 0 50 -22 50 -49c0 -28 -23 -50 -50 -50c-28 0 -49 22 -49 50z" />
    <glyph glyph-name="Jcircumflex" unicode="&#x134;" horiz-adv-x="448" 
d="M337 585v-393c0 -116 -47 -206 -182 -206c-51 0 -98 12 -130 27v123h22c28 -86 56 -120 107 -120c66 0 87 63 87 169v400l-89 24v17h264v-17zM271 804h27l105 -125l-16 -5l-103 59l-103 -59l-17 5z" />
    <glyph glyph-name="jcircumflex" unicode="&#x135;" horiz-adv-x="295" 
d="M203 466v-453c0 -143 -50 -229 -164 -229c-47 0 -81 17 -96 25l1 99h20c12 -54 35 -96 80 -96c56 0 75 58 75 173v406l-81 3v17zM136 670h25l87 -159l-15 -5l-84 94l-84 -94l-15 5z" />
    <glyph glyph-name="Kcommaaccent" unicode="&#x136;" horiz-adv-x="682" 
d="M40 626h255v-17l-71 -24v-257l265 257l-69 24v17h209v-17l-71 -24l-230 -201l285 -343l62 -24v-17h-238v17l62 20l-237 286l-38 -26v-256l70 -24v-17h-254v17l87 24v544l-87 24v17zM323 -221l-20 8c27 35 38 59 38 87c0 22 -18 43 -44 60l46 29c20 -4 61 -29 61 -66
c0 -36 -35 -83 -81 -118z" />
    <glyph glyph-name="kcommaaccent" unicode="&#x137;" horiz-adv-x="555" 
d="M34 656l160 54v-474l182 175l-60 24v17h199v-17l-75 -24l-150 -128l210 -242l53 -24v-17h-200v17l48 19l-169 196l-38 -30v-161l64 -24v-17h-218v17l70 24v595l-76 3v17zM258 -221l-20 8c27 35 38 59 38 87c0 22 -18 43 -44 60l46 29c20 -4 61 -29 61 -66
c0 -36 -35 -83 -81 -118z" />
    <glyph glyph-name="kgreenlandic" unicode="&#x138;" horiz-adv-x="565" 
d="M34 412l160 54v-233l182 178l-66 24v17h210v-17l-80 -24l-152 -131l212 -239l63 -24v-17h-220v17l58 22l-169 191l-38 -31v-158l70 -24v-17h-230v17l76 24v351l-76 3v17z" />
    <glyph glyph-name="Lacute" unicode="&#x139;" horiz-adv-x="560" 
d="M40 0v17l87 24v544l-87 24v17h270v-17l-86 -24v-543h148c91 0 116 26 137 132h22v-174h-491zM182 673l-16 12l144 119l54 -52z" />
    <glyph glyph-name="lacute" unicode="&#x13a;" horiz-adv-x="302" 
d="M40 0v17l74 24v595l-76 3v17l161 54v-669l77 -24v-17h-236zM128 716l-15 9l74 157l59 -34z" />
    <glyph glyph-name="Lcommaaccent" unicode="&#x13b;" horiz-adv-x="560" 
d="M40 0v17l87 24v544l-87 24v17h270v-17l-86 -24v-543h148c91 0 116 26 137 132h22v-174h-491zM295 -221l-20 8c27 35 38 59 38 87c0 22 -18 43 -44 60l46 29c20 -4 61 -29 61 -66c0 -36 -35 -83 -81 -118z" />
    <glyph glyph-name="lcommaaccent" unicode="&#x13c;" horiz-adv-x="302" 
d="M40 0v17l74 24v595l-76 3v17l161 54v-669l77 -24v-17h-236zM126 -221l-20 8c27 35 38 59 38 87c0 22 -18 43 -44 60l46 29c20 -4 61 -29 61 -66c0 -36 -35 -83 -81 -118z" />
    <glyph glyph-name="Lcaron" unicode="&#x13d;" horiz-adv-x="560" 
d="M40 0v17l87 24v544l-87 24v17h270v-17l-86 -24v-543h148c91 0 116 26 137 132h22v-174h-491zM400 471l-17 10c17 25 32 61 32 89c0 27 -17 44 -37 62l42 34c20 -7 56 -35 56 -72c0 -36 -32 -76 -76 -123z" />
    <glyph glyph-name="lcaron" unicode="&#x13e;" horiz-adv-x="326" 
d="M40 0v17l74 24v595l-76 3v17l161 54v-669l77 -24v-17h-236zM286 471l-17 10c17 25 32 61 32 89c0 27 -17 44 -37 62l42 34c20 -7 56 -35 56 -72c0 -36 -32 -76 -76 -123z" />
    <glyph glyph-name="Ldot" unicode="&#x13f;" horiz-adv-x="560" 
d="M40 0v17l87 24v544l-87 24v17h270v-17l-86 -24v-543h148c91 0 116 26 137 132h22v-174h-491zM448 297c-31 0 -56 24 -56 56c0 30 25 55 56 55s56 -25 56 -55c0 -32 -25 -56 -56 -56z" />
    <glyph glyph-name="ldot" unicode="&#x140;" horiz-adv-x="358" 
d="M40 0v17l74 24v595l-76 3v17l161 54v-669l77 -24v-17h-236zM312 309c-26 0 -47 21 -47 48c0 26 21 47 47 47c27 0 48 -21 48 -47c0 -27 -21 -48 -48 -48z" />
    <glyph glyph-name="Lslash" unicode="&#x141;" horiz-adv-x="560" 
d="M40 0v17l87 24v241l-72 -39l-17 32l89 48v262l-87 24v17h270v-17l-86 -24v-209l145 79l16 -31l-161 -89v-293h148c91 0 116 26 137 132h22v-174h-491z" />
    <glyph glyph-name="lslash" unicode="&#x142;" horiz-adv-x="316" 
d="M47 0v17l74 24v284l-73 -37l-15 30l88 44v274l-76 3v17l161 54v-305l94 48l15 -30l-109 -55v-327l77 -24v-17h-236z" />
    <glyph glyph-name="Nacute" unicode="&#x143;" horiz-adv-x="752" 
d="M33 626h173l390 -473l2 2l-12 430l-82 24v17h207v-17l-68 -24l-14 -598h-20l-444 547l-2 -2l12 -491l85 -24v-17h-222v17l80 24l9 538l-94 30v17zM389 673l-16 12l144 119l54 -52z" />
    <glyph glyph-name="nacute" unicode="&#x144;" horiz-adv-x="608" 
d="M43 411l160 55l-2 -109h3c25 33 90 109 180 109c93 0 126 -56 126 -143v-282l72 -24v-17h-218v17l62 24v272c0 50 -12 94 -76 94c-31 0 -64 -12 -97 -38c-35 -29 -50 -52 -50 -68v-260l62 -24v-17h-218v17l72 24v350l-76 3v17zM304 508l-15 9l74 157l59 -34z" />
    <glyph glyph-name="Ncommaaccent" unicode="&#x145;" horiz-adv-x="752" 
d="M33 626h173l390 -473l2 2l-12 430l-82 24v17h207v-17l-68 -24l-14 -598h-20l-444 547l-2 -2l12 -491l85 -24v-17h-222v17l80 24l9 538l-94 30v17zM351 -221l-20 8c27 35 38 59 38 87c0 22 -18 43 -44 60l46 29c20 -4 61 -29 61 -66c0 -36 -35 -83 -81 -118z" />
    <glyph glyph-name="ncommaaccent" unicode="&#x146;" horiz-adv-x="608" 
d="M43 411l160 55l-2 -109h3c25 33 90 109 180 109c93 0 126 -56 126 -143v-282l72 -24v-17h-218v17l62 24v272c0 50 -12 94 -76 94c-31 0 -64 -12 -97 -38c-35 -29 -50 -52 -50 -68v-260l62 -24v-17h-218v17l72 24v350l-76 3v17zM287 -221l-20 8c27 35 38 59 38 87
c0 22 -18 43 -44 60l46 29c20 -4 61 -29 61 -66c0 -36 -35 -83 -81 -118z" />
    <glyph glyph-name="Ncaron" unicode="&#x147;" horiz-adv-x="752" 
d="M33 626h173l390 -473l2 2l-12 430l-82 24v17h207v-17l-68 -24l-14 -598h-20l-444 547l-2 -2l12 -491l85 -24v-17h-222v17l80 24l9 538l-94 30v17zM276 800l17 6l103 -60l102 60l17 -6l-106 -125h-26z" />
    <glyph glyph-name="ncaron" unicode="&#x148;" horiz-adv-x="608" 
d="M43 411l160 55l-2 -109h3c25 33 90 109 180 109c93 0 126 -56 126 -143v-282l72 -24v-17h-218v17l62 24v272c0 50 -12 94 -76 94c-31 0 -64 -12 -97 -38c-35 -29 -50 -52 -50 -68v-260l62 -24v-17h-218v17l72 24v350l-76 3v17zM289 512l-87 159l16 5l83 -94l83 94l16 -5
l-87 -159h-24z" />
    <glyph glyph-name="Eng" unicode="&#x14a;" horiz-adv-x="759" 
d="M31 626h178l393 -465l4 1l-12 423l-103 24v17h232v-17l-72 -24l-12 -537c-5 -200 -71 -251 -135 -261l-40 63l3 8c86 0 128 66 133 160l-433 516l-2 -2l12 -491l104 -24v-17h-244v17l84 24l9 538l-99 30v17z" />
    <glyph glyph-name="eng" unicode="&#x14b;" horiz-adv-x="598" 
d="M28 411l170 55v-112h2c26 32 88 112 186 112c90 0 120 -56 120 -140v-318c0 -143 -53 -224 -167 -224c-38 0 -74 14 -90 24l2 98h19c12 -50 32 -94 76 -94c56 0 75 54 75 181v309c0 60 -7 105 -70 105c-35 0 -70 -12 -103 -42c-34 -31 -50 -58 -50 -80v-244l65 -24v-17
h-229v17l80 24v351l-86 2v17z" />
    <glyph glyph-name="Omacron" unicode="&#x14c;" horiz-adv-x="751" 
d="M365 -14c-189 0 -319 122 -319 324c0 195 145 330 344 330c192 0 315 -116 315 -316c0 -209 -152 -338 -340 -338zM375 606c-132 0 -221 -121 -221 -291c0 -180 93 -295 220 -295c136 0 223 120 223 293c0 178 -91 293 -222 293zM260 719v58h248v-58h-248z" />
    <glyph glyph-name="omacron" unicode="&#x14d;" horiz-adv-x="550" 
d="M263 -14c-129 0 -218 84 -218 231c0 134 80 249 244 249c132 0 216 -87 216 -223c0 -155 -90 -257 -242 -257zM140 223c0 -133 49 -205 134 -205c83 0 136 90 136 211c0 143 -52 205 -130 205c-96 0 -140 -93 -140 -211zM173 572v52h231v-52h-231z" />
    <glyph glyph-name="Obreve" unicode="&#x14e;" horiz-adv-x="751" 
d="M365 -14c-189 0 -319 122 -319 324c0 195 145 330 344 330c192 0 315 -116 315 -316c0 -209 -152 -338 -340 -338zM375 606c-132 0 -221 -121 -221 -291c0 -180 93 -295 220 -295c136 0 223 120 223 293c0 178 -91 293 -222 293zM473 804h25c-2 -57 -16 -120 -116 -120
s-114 63 -116 120h26c6 -32 18 -60 90 -60c73 0 85 28 91 60z" />
    <glyph glyph-name="obreve" unicode="&#x14f;" horiz-adv-x="550" 
d="M263 -14c-129 0 -218 84 -218 231c0 134 80 249 244 249c132 0 216 -87 216 -223c0 -155 -90 -257 -242 -257zM140 223c0 -133 49 -205 134 -205c83 0 136 90 136 211c0 143 -52 205 -130 205c-96 0 -140 -93 -140 -211zM374 654h24c-2 -57 -22 -125 -110 -125
c-89 0 -108 68 -110 125h24c6 -32 11 -71 86 -71s80 39 86 71z" />
    <glyph glyph-name="Ohungarumlaut" unicode="&#x150;" horiz-adv-x="751" 
d="M365 -14c-189 0 -319 122 -319 324c0 195 145 330 344 330c192 0 315 -116 315 -316c0 -209 -152 -338 -340 -338zM375 606c-132 0 -221 -121 -221 -291c0 -180 93 -295 220 -295c136 0 223 120 223 293c0 178 -91 293 -222 293zM300 673l-12 14l116 122l51 -49zM445 673
l-12 14l118 122l51 -49z" />
    <glyph glyph-name="ohungarumlaut" unicode="&#x151;" horiz-adv-x="550" 
d="M263 -14c-129 0 -218 84 -218 231c0 134 80 249 244 249c132 0 216 -87 216 -223c0 -155 -90 -257 -242 -257zM140 223c0 -133 49 -205 134 -205c83 0 136 90 136 211c0 143 -52 205 -130 205c-96 0 -140 -93 -140 -211zM211 512l-15 9l100 154l50 -35zM332 513l-15 9
l110 153l50 -35z" />
    <glyph glyph-name="OE" unicode="&#x152;" horiz-adv-x="960" 
d="M480 626h390v-136h-22c-16 85 -35 98 -116 98h-129v-241l155 4l23 74h19v-193h-19l-23 76l-155 4v-270h147c89 0 111 12 136 121h22v-163h-444c-18 0 -40 -6 -59 -9c-20 -2 -31 -4 -51 -4c-206 0 -308 124 -308 323c0 204 129 330 324 330c40 0 76 -8 110 -14zM507 576
c-52 23 -88 30 -146 30c-132 0 -207 -121 -207 -291c0 -175 76 -295 206 -295c58 0 112 12 147 29v527z" />
    <glyph glyph-name="oe" unicode="&#x153;" horiz-adv-x="851" 
d="M278 466c81 0 143 -32 176 -99c28 54 91 99 173 99c141 0 167 -133 170 -213h-300c-1 -10 -2 -24 -2 -34c0 -119 47 -203 136 -203c75 0 115 38 151 103h22l-27 -89c-46 -25 -84 -44 -160 -44c-83 0 -141 35 -172 96c-51 -65 -102 -96 -188 -96c-129 0 -212 81 -212 230
c0 143 79 250 233 250zM140 223c0 -127 41 -207 127 -207c93 0 141 98 141 213c0 129 -46 207 -132 207c-96 0 -136 -100 -136 -213zM500 285l205 3c-4 61 -18 148 -91 148c-62 0 -101 -64 -114 -151z" />
    <glyph glyph-name="Racute" unicode="&#x154;" horiz-adv-x="638" 
d="M40 0v17l87 24v544l-87 24v17h274c157 0 218 -65 218 -156c0 -87 -61 -136 -133 -161l87 -138c84 -131 121 -153 156 -154v-17c-8 -1 -36 -2 -95 -2c-53 0 -86 27 -154 143l-82 144l-87 6v-250l76 -24v-17h-260zM224 589v-274c142 3 207 42 207 149
c0 96 -64 132 -142 132c-14 0 -44 -1 -65 -7zM296 673l-16 12l144 119l54 -52z" />
    <glyph glyph-name="racute" unicode="&#x155;" horiz-adv-x="407" 
d="M42 0v17l72 24v350l-78 3v17l162 55l-7 -124h6c22 47 67 124 141 124c25 0 45 -8 59 -19l-7 -96h-23c-14 35 -35 49 -64 49c-51 0 -105 -87 -105 -125v-234l85 -24v-17h-241zM243 508l-15 9l74 157l59 -34z" />
    <glyph glyph-name="Rcommaaccent" unicode="&#x156;" horiz-adv-x="638" 
d="M40 0v17l87 24v544l-87 24v17h274c157 0 218 -65 218 -156c0 -87 -61 -136 -133 -161l87 -138c84 -131 121 -153 156 -154v-17c-8 -1 -36 -2 -95 -2c-53 0 -86 27 -154 143l-82 144l-87 6v-250l76 -24v-17h-260zM224 589v-274c142 3 207 42 207 149
c0 96 -64 132 -142 132c-14 0 -44 -1 -65 -7zM328 -221l-20 8c27 35 38 59 38 87c0 22 -18 43 -44 60l46 29c20 -4 61 -29 61 -66c0 -36 -35 -83 -81 -118z" />
    <glyph glyph-name="rcommaaccent" unicode="&#x157;" horiz-adv-x="407" 
d="M42 0v17l72 24v350l-78 3v17l162 55l-7 -124h6c22 47 67 124 141 124c25 0 45 -8 59 -19l-7 -96h-23c-14 35 -35 49 -64 49c-51 0 -105 -87 -105 -125v-234l85 -24v-17h-241zM143 -221l-20 8c27 35 38 59 38 87c0 22 -18 43 -44 60l46 29c20 -4 61 -29 61 -66
c0 -36 -35 -83 -81 -118z" />
    <glyph glyph-name="Rcaron" unicode="&#x158;" horiz-adv-x="638" 
d="M40 0v17l87 24v544l-87 24v17h274c157 0 218 -65 218 -156c0 -87 -61 -136 -133 -161l87 -138c84 -131 121 -153 156 -154v-17c-8 -1 -36 -2 -95 -2c-53 0 -86 27 -154 143l-82 144l-87 6v-250l76 -24v-17h-260zM224 589v-274c142 3 207 42 207 149
c0 96 -64 132 -142 132c-14 0 -44 -1 -65 -7zM187 800l17 6l103 -60l102 60l17 -6l-106 -125h-26z" />
    <glyph glyph-name="rcaron" unicode="&#x159;" horiz-adv-x="407" 
d="M42 0v17l72 24v350l-78 3v17l162 55l-7 -124h6c22 47 67 124 141 124c25 0 45 -8 59 -19l-7 -96h-23c-14 35 -35 49 -64 49c-51 0 -105 -87 -105 -125v-234l85 -24v-17h-241zM230 512l-87 159l16 5l83 -94l83 94l16 -5l-87 -159h-24z" />
    <glyph glyph-name="Sacute" unicode="&#x15a;" horiz-adv-x="484" 
d="M400 502h-22c-17 65 -54 104 -129 104c-61 0 -107 -38 -107 -106c0 -155 291 -127 291 -328c0 -100 -83 -186 -218 -186c-69 0 -127 21 -159 41v127h22c22 -104 81 -134 140 -134c69 0 126 41 126 113c0 160 -282 129 -282 333c0 91 68 174 199 174c57 0 110 -15 139 -31
v-107zM244 673l-16 12l144 119l54 -52z" />
    <glyph glyph-name="sacute" unicode="&#x15b;" horiz-adv-x="407" 
d="M335 442v-87h-23c-18 68 -61 81 -94 81c-46 0 -79 -32 -79 -73c0 -38 23 -64 95 -90c77 -28 127 -68 127 -144c0 -81 -65 -143 -170 -143c-52 0 -97 16 -131 33v110h23c19 -86 59 -112 109 -112c56 0 94 36 94 82c0 35 -17 69 -98 100c-81 30 -118 69 -118 139
c0 72 59 128 158 128c51 0 87 -14 107 -24zM207 508l-15 9l74 157l59 -34z" />
    <glyph glyph-name="Scircumflex" unicode="&#x15c;" horiz-adv-x="484" 
d="M400 502h-22c-17 65 -54 104 -129 104c-61 0 -107 -38 -107 -106c0 -155 291 -127 291 -328c0 -100 -83 -186 -218 -186c-69 0 -127 21 -159 41v127h22c22 -104 81 -134 140 -134c69 0 126 41 126 113c0 160 -282 129 -282 333c0 91 68 174 199 174c57 0 110 -15 139 -31
v-107zM241 804h27l105 -125l-16 -5l-103 59l-103 -59l-17 5z" />
    <glyph glyph-name="scircumflex" unicode="&#x15d;" horiz-adv-x="407" 
d="M335 442v-87h-23c-18 68 -61 81 -94 81c-46 0 -79 -32 -79 -73c0 -38 23 -64 95 -90c77 -28 127 -68 127 -144c0 -81 -65 -143 -170 -143c-52 0 -97 16 -131 33v110h23c19 -86 59 -112 109 -112c56 0 94 36 94 82c0 35 -17 69 -98 100c-81 30 -118 69 -118 139
c0 72 59 128 158 128c51 0 87 -14 107 -24zM202 670h25l87 -159l-15 -5l-84 94l-84 -94l-15 5z" />
    <glyph glyph-name="Scedilla" unicode="&#x15e;" horiz-adv-x="484" 
d="M400 502h-22c-17 65 -54 104 -129 104c-61 0 -107 -38 -107 -106c0 -155 291 -127 291 -328c0 -99 -81 -183 -212 -186l-15 -41h15c48 0 98 -12 98 -62c0 -59 -66 -75 -125 -75c-13 0 -35 2 -51 4v20c7 -1 21 -2 26 -2c47 0 76 14 76 50c0 24 -21 45 -78 45l29 62
c-61 3 -111 22 -140 40v127h22c22 -104 81 -134 140 -134c69 0 126 41 126 113c0 160 -282 129 -282 333c0 91 68 174 199 174c57 0 110 -15 139 -31v-107z" />
    <glyph glyph-name="scedilla" unicode="&#x15f;" horiz-adv-x="407" 
d="M335 442v-87h-23c-18 68 -61 81 -94 81c-46 0 -79 -32 -79 -73c0 -38 23 -64 95 -90c77 -28 127 -68 127 -144c0 -79 -62 -140 -163 -143l-15 -41h15c48 0 98 -12 98 -62c0 -59 -66 -75 -125 -75c-13 0 -35 1 -51 4v20c7 -2 21 -2 26 -2c47 0 79 15 79 50
c0 24 -24 45 -81 45l29 62c-45 3 -83 17 -113 32v110h23c19 -86 59 -112 109 -112c56 0 94 36 94 82c0 35 -17 69 -98 100c-81 30 -118 69 -118 139c0 72 59 128 158 128c51 0 87 -14 107 -24z" />
    <glyph glyph-name="Scaron" unicode="&#x160;" horiz-adv-x="484" 
d="M400 502h-22c-17 65 -54 104 -129 104c-61 0 -107 -38 -107 -106c0 -155 291 -127 291 -328c0 -100 -83 -186 -218 -186c-69 0 -127 21 -159 41v127h22c22 -104 81 -134 140 -134c69 0 126 41 126 113c0 160 -282 129 -282 333c0 91 68 174 199 174c57 0 110 -15 139 -31
v-107zM130 800l17 6l103 -60l102 60l17 -6l-106 -125h-26z" />
    <glyph glyph-name="scaron" unicode="&#x161;" horiz-adv-x="407" 
d="M335 442v-87h-23c-18 68 -61 81 -94 81c-46 0 -79 -32 -79 -73c0 -38 23 -64 95 -90c77 -28 127 -68 127 -144c0 -81 -65 -143 -170 -143c-52 0 -97 16 -131 33v110h23c19 -86 59 -112 109 -112c56 0 94 36 94 82c0 35 -17 69 -98 100c-81 30 -118 69 -118 139
c0 72 59 128 158 128c51 0 87 -14 107 -24zM203 512l-87 159l16 5l83 -94l83 94l16 -5l-87 -159h-24z" />
    <glyph glyph-name="uni0162" unicode="&#x162;" horiz-adv-x="599" 
d="M23 626h553v-136h-23c-24 93 -37 97 -108 97h-97v-546l92 -24v-17h-282v17l93 24v546h-96c-72 0 -86 -4 -109 -97h-23v136zM274 -221l-20 8c27 35 38 59 38 87c0 22 -18 43 -44 60l46 29c20 -4 61 -29 61 -66c0 -36 -35 -83 -81 -118z" />
    <glyph glyph-name="uni0163" unicode="&#x163;" horiz-adv-x="354" 
d="M356 80l-36 -71c-29 -18 -68 -23 -96 -23c-88 0 -125 58 -125 160v245h-76v17l86 36l48 138h26v-141h135v-50h-135v-219c0 -71 9 -127 73 -127c33 0 59 10 90 43zM176 -221l-20 8c27 35 38 59 38 87c0 22 -18 43 -44 60l46 29c20 -4 61 -29 61 -66
c0 -36 -35 -83 -81 -118z" />
    <glyph glyph-name="Tcaron" unicode="&#x164;" horiz-adv-x="599" 
d="M23 626h553v-136h-23c-24 93 -37 97 -108 97h-97v-546l92 -24v-17h-282v17l93 24v546h-96c-72 0 -86 -4 -109 -97h-23v136zM180 800l17 6l103 -60l102 60l17 -6l-106 -125h-26z" />
    <glyph glyph-name="tcaron" unicode="&#x165;" horiz-adv-x="355" 
d="M356 80l-36 -71c-29 -18 -68 -23 -96 -23c-88 0 -125 58 -125 160v245h-76v17l86 36l48 138h26v-141h135v-50h-135v-219c0 -71 9 -127 73 -127c33 0 59 10 90 43zM268 501l-17 10c17 25 32 61 32 89c0 27 -17 44 -37 62l42 34c20 -7 56 -35 56 -72
c0 -36 -32 -76 -76 -123z" />
    <glyph glyph-name="Tbar" unicode="&#x166;" horiz-adv-x="599" 
d="M23 626h553v-136h-23c-24 93 -37 97 -108 97h-97v-242h115v-36h-115v-268l92 -24v-17h-282v17l93 24v268h-115v36h115v242h-96c-72 0 -86 -4 -109 -97h-23v136z" />
    <glyph glyph-name="tbar" unicode="&#x167;" horiz-adv-x="354" 
d="M356 80l-36 -71c-29 -18 -68 -23 -96 -23c-88 0 -125 58 -125 160v98h-71v35h71v112h-76v17l86 36l48 138h26v-141h135v-50h-135v-112h125v-35h-125v-72c0 -71 9 -127 73 -127c33 0 59 10 90 43z" />
    <glyph glyph-name="Utilde" unicode="&#x168;" horiz-adv-x="720" 
d="M30 626h265v-17l-82 -24v-318c0 -184 72 -229 179 -229c110 0 181 58 181 242l-1 305l-87 24v17h210v-17l-68 -24l-9 -326c-5 -173 -79 -273 -252 -273c-154 0 -250 70 -250 247v352l-86 24v17zM292 688l-16 10c20 41 47 83 94 83c42 0 73 -34 106 -34c25 0 41 3 68 40
l16 -11c-16 -33 -46 -82 -93 -82c-46 0 -74 34 -106 34c-26 0 -44 -9 -69 -40z" />
    <glyph glyph-name="utilde" unicode="&#x169;" horiz-adv-x="588" 
d="M401 -14v109h-2c-32 -49 -98 -109 -180 -109c-88 0 -115 59 -115 155v263l-68 13v17l152 32v-296c0 -68 6 -127 78 -127c22 0 62 12 95 45c28 27 40 51 40 71v245l-70 29v17l154 6v-399l75 -1v-17zM195 540l-16 10c18 36 43 88 88 88c32 0 69 -37 103 -37
c22 0 35 4 62 41l16 -10c-18 -36 -44 -88 -88 -88c-36 0 -68 37 -106 37c-19 0 -34 -9 -59 -41z" />
    <glyph glyph-name="Umacron" unicode="&#x16a;" horiz-adv-x="720" 
d="M30 626h265v-17l-82 -24v-318c0 -184 72 -229 179 -229c110 0 181 58 181 242l-1 305l-87 24v17h210v-17l-68 -24l-9 -326c-5 -173 -79 -273 -252 -273c-154 0 -250 70 -250 247v352l-86 24v17zM271 719v58h248v-58h-248z" />
    <glyph glyph-name="umacron" unicode="&#x16b;" horiz-adv-x="588" 
d="M401 -14v109h-2c-32 -49 -98 -109 -180 -109c-88 0 -115 59 -115 155v263l-68 13v17l152 32v-296c0 -68 6 -127 78 -127c22 0 62 12 95 45c28 27 40 51 40 71v245l-70 29v17l154 6v-399l75 -1v-17zM182 572v52h231v-52h-231z" />
    <glyph glyph-name="Ubreve" unicode="&#x16c;" horiz-adv-x="720" 
d="M30 626h265v-17l-82 -24v-318c0 -184 72 -229 179 -229c110 0 181 58 181 242l-1 305l-87 24v17h210v-17l-68 -24l-9 -326c-5 -173 -79 -273 -252 -273c-154 0 -250 70 -250 247v352l-86 24v17zM485 804h25c-2 -57 -16 -120 -116 -120s-114 63 -116 120h26
c6 -32 18 -60 90 -60c73 0 85 28 91 60z" />
    <glyph glyph-name="ubreve" unicode="&#x16d;" horiz-adv-x="588" 
d="M401 -14v109h-2c-32 -49 -98 -109 -180 -109c-88 0 -115 59 -115 155v263l-68 13v17l152 32v-296c0 -68 6 -127 78 -127c22 0 62 12 95 45c28 27 40 51 40 71v245l-70 29v17l154 6v-399l75 -1v-17zM389 654h24c-2 -57 -22 -125 -110 -125c-89 0 -108 68 -110 125h24
c6 -32 11 -71 86 -71s80 39 86 71z" />
    <glyph glyph-name="Uring" unicode="&#x16e;" horiz-adv-x="720" 
d="M30 626h265v-17l-82 -24v-318c0 -184 72 -229 179 -229c110 0 181 58 181 242l-1 305l-87 24v17h210v-17l-68 -24l-9 -326c-5 -173 -79 -273 -252 -273c-154 0 -250 70 -250 247v352l-86 24v17zM386 665c-47 0 -84 34 -84 81s37 82 84 82s84 -35 84 -82s-37 -81 -84 -81z
M341 746c0 -24 20 -43 45 -43s46 19 46 43c0 25 -21 44 -46 44s-45 -19 -45 -44z" />
    <glyph glyph-name="uring" unicode="&#x16f;" horiz-adv-x="588" 
d="M401 -14v109h-2c-32 -49 -98 -109 -180 -109c-88 0 -115 59 -115 155v263l-68 13v17l152 32v-296c0 -68 6 -127 78 -127c22 0 62 12 95 45c28 27 40 51 40 71v245l-70 29v17l154 6v-399l75 -1v-17zM301 520c-50 0 -87 36 -87 86s37 87 87 87c51 0 87 -37 87 -87
s-36 -86 -87 -86zM251 606c0 -28 22 -50 50 -50s51 22 51 50s-23 50 -51 50s-50 -22 -50 -50z" />
    <glyph glyph-name="Uhungarumlaut" unicode="&#x170;" horiz-adv-x="720" 
d="M30 626h265v-17l-82 -24v-318c0 -184 72 -229 179 -229c110 0 181 58 181 242l-1 305l-87 24v17h210v-17l-68 -24l-9 -326c-5 -173 -79 -273 -252 -273c-154 0 -250 70 -250 247v352l-86 24v17zM330 673l-12 14l116 122l51 -49zM475 673l-12 14l118 122l51 -49z" />
    <glyph glyph-name="uhungarumlaut" unicode="&#x171;" horiz-adv-x="588" 
d="M401 -14v109h-2c-32 -49 -98 -109 -180 -109c-88 0 -115 59 -115 155v263l-68 13v17l152 32v-296c0 -68 6 -127 78 -127c22 0 62 12 95 45c28 27 40 51 40 71v245l-70 29v17l154 6v-399l75 -1v-17zM239 512l-15 9l100 154l50 -35zM360 513l-15 9l110 153l50 -35z" />
    <glyph glyph-name="Uogonek" unicode="&#x172;" horiz-adv-x="720" 
d="M469 -122l10 -23c-26 -19 -65 -42 -103 -42c-49 0 -77 27 -77 65c0 45 47 83 88 109c-7 -1 -14 -1 -21 -1c-154 0 -250 70 -250 247v352l-86 24v17h265v-17l-82 -24v-318c0 -184 72 -229 179 -229c110 0 181 58 181 242l-1 305l-87 24v17h210v-17l-68 -24l-9 -326
c-5 -152 -62 -248 -193 -268c-38 -31 -62 -58 -62 -94c0 -35 30 -42 47 -42c16 0 40 6 59 23z" />
    <glyph glyph-name="uogonek" unicode="&#x173;" horiz-adv-x="588" 
d="M401 -10v105h-2c-32 -49 -98 -109 -180 -109c-88 0 -115 59 -115 155v263l-68 13v17l152 32v-296c0 -68 6 -127 78 -127c22 0 62 12 95 45c28 27 40 51 40 71v251l-70 26v17l154 13v-409l75 -1v-17l-28 -10c-42 -29 -109 -89 -109 -138c0 -29 28 -40 47 -40
c17 0 41 4 65 23l9 -16c-27 -23 -67 -47 -109 -47c-45 0 -70 26 -70 63c0 48 65 101 122 140v9z" />
    <glyph glyph-name="Wcircumflex" unicode="&#x174;" horiz-adv-x="855" 
d="M15 626h228v-17l-70 -24l106 -420h2l166 460h15l170 -460h2l100 420l-77 24v17h186v-17l-53 -24l-174 -599h-14l-171 470h-1l-180 -470h-15l-162 599l-58 24v17zM441 804h27l105 -125l-16 -5l-103 59l-103 -59l-17 5z" />
    <glyph glyph-name="wcircumflex" unicode="&#x175;" horiz-adv-x="695" 
d="M16 452h201v-17l-66 -22l78 -296h2l139 334h9l140 -327h2l71 289l-67 22v17h166v-17l-47 -22l-141 -427h-14l-138 325l-149 -325h-14l-123 427l-49 22v17zM363 670h25l87 -159l-15 -5l-84 94l-84 -94l-15 5z" />
    <glyph glyph-name="Ycircumflex" unicode="&#x176;" horiz-adv-x="610" 
d="M18 626h229v-17l-69 -24l162 -260l148 260l-76 24v17h180v-17l-47 -24l-190 -299v-245l85 -24v-17h-267v17l87 24v243l-187 301l-55 24v17zM320 804h27l105 -125l-16 -5l-103 59l-103 -59l-17 5z" />
    <glyph glyph-name="ycircumflex" unicode="&#x177;" horiz-adv-x="499" 
d="M446 413l-167 -427c-50 -123 -93 -202 -164 -202c-24 0 -47 6 -60 16v102h19c9 -40 32 -52 58 -52c39 0 82 52 110 151l-181 412l-48 22v17h210v-17l-70 -22l132 -316l106 316l-62 22v17h164v-17zM255 670h25l87 -159l-15 -5l-84 94l-84 -94l-15 5z" />
    <glyph glyph-name="Ydieresis" unicode="&#x178;" horiz-adv-x="610" 
d="M18 626h229v-17l-69 -24l162 -260l148 260l-76 24v17h180v-17l-47 -24l-190 -299v-245l85 -24v-17h-267v17l87 24v243l-187 301l-55 24v17zM231 696c-27 0 -48 22 -48 48c0 27 21 48 48 48c26 0 47 -21 47 -48c0 -26 -21 -48 -47 -48zM438 696c-27 0 -48 22 -48 48
c0 27 21 48 48 48c26 0 48 -21 48 -48c0 -26 -22 -48 -48 -48z" />
    <glyph glyph-name="Zacute" unicode="&#x179;" horiz-adv-x="620" 
d="M74 626h488v-19l-401 -566h223c116 0 144 10 171 130h22v-171h-546v17l408 573l-191 -1c-110 0 -127 -12 -153 -99h-21v136zM313 673l-16 12l144 119l54 -52z" />
    <glyph glyph-name="zacute" unicode="&#x17a;" horiz-adv-x="473" 
d="M35 0v16l293 398h-137c-58 0 -84 -10 -101 -79h-23v117h371v-19l-289 -393l163 -1c64 0 78 3 104 99h22v-138h-403zM258 508l-15 9l74 157l59 -34z" />
    <glyph glyph-name="Zdotaccent" unicode="&#x17b;" horiz-adv-x="620" 
d="M74 626h488v-19l-401 -566h223c116 0 144 10 171 130h22v-171h-546v17l408 573l-191 -1c-110 0 -127 -12 -153 -99h-21v136zM318 695c-31 0 -56 24 -56 56c0 30 25 55 56 55s56 -25 56 -55c0 -32 -25 -56 -56 -56z" />
    <glyph glyph-name="zdotaccent" unicode="&#x17c;" horiz-adv-x="473" 
d="M35 0v16l293 398h-137c-58 0 -84 -10 -101 -79h-23v117h371v-19l-289 -393l163 -1c64 0 78 3 104 99h22v-138h-403zM258 563c-26 0 -47 21 -47 48c0 26 21 47 47 47c27 0 48 -21 48 -47c0 -27 -21 -48 -48 -48z" />
    <glyph glyph-name="Zcaron" unicode="&#x17d;" horiz-adv-x="620" 
d="M74 626h488v-19l-401 -566h223c116 0 144 10 171 130h22v-171h-546v17l408 573l-191 -1c-110 0 -127 -12 -153 -99h-21v136zM206 800l17 6l103 -60l102 60l17 -6l-106 -125h-26z" />
    <glyph glyph-name="zcaron" unicode="&#x17e;" horiz-adv-x="473" 
d="M35 0v16l293 398h-137c-58 0 -84 -10 -101 -79h-23v117h371v-19l-289 -393l163 -1c64 0 78 3 104 99h22v-138h-403zM244 512l-87 159l16 5l83 -94l83 94l16 -5l-87 -159h-24z" />
    <glyph glyph-name="longs" unicode="&#x17f;" horiz-adv-x="336" 
d="M33 0v17l77 24v350l-49 26v16l49 7v23c0 117 33 235 188 235c31 0 69 -7 108 -24l-9 -106h-24c-13 61 -42 97 -91 97c-61 0 -87 -57 -87 -171v-453l98 -24v-17h-260z" />
    <glyph glyph-name="Schwa" unicode="&#x18f;" horiz-adv-x="630" 
d="M77 490l29 100c49 28 110 49 201 49c174 0 277 -116 277 -311c0 -192 -104 -342 -277 -342c-219 0 -261 202 -261 261l56 29h373c1 14 2 33 2 55c0 187 -88 274 -201 274c-87 0 -145 -71 -168 -115h-31zM472 237l-324 1c0 -84 29 -218 160 -218c102 0 154 105 164 217z
" />
    <glyph glyph-name="florin" unicode="&#x192;" horiz-adv-x="504" 
d="M0 -211l16 63l3 2c65 0 93 11 117 78c28 79 35 253 47 400l-105 6v24l111 7c9 93 42 256 202 256c46 0 77 -13 100 -28l-17 -95h-20c-5 53 -28 94 -72 94c-94 0 -98 -138 -106 -227l140 -7v-24l-145 -6c-19 -166 -41 -337 -115 -446c-50 -75 -96 -102 -153 -102z" />
    <glyph glyph-name="Obar" unicode="&#x19f;" horiz-adv-x="748" 
d="M361 -14c-186 0 -315 122 -315 324c0 195 144 330 343 330c181 0 313 -116 313 -314c0 -209 -152 -340 -341 -340zM372 20c132 0 217 115 222 279h-440c5 -170 95 -279 218 -279zM373 606c-126 0 -211 -111 -219 -269h439c-7 164 -95 269 -220 269z" />
    <glyph glyph-name="Yogh" unicode="&#x1b7;" horiz-adv-x="573" 
d="M74 626h425v-19l-194 -261c92 -13 198 -71 198 -202c0 -141 -138 -266 -414 -266l-9 32c204 2 320 98 320 217c0 87 -64 140 -149 154l-29 -8l-10 11l49 58l133 207h-220c-45 0 -60 -10 -79 -81h-21v158z" />
    <glyph glyph-name="Acaron" unicode="&#x1cd;" horiz-adv-x="660" 
d="M75 41l254 598h18l242 -598l55 -24v-17h-233v17l76 24l-64 157h-230l-62 -157l73 -24v-17h-187v17zM304 502l-93 -257h193l-99 257h-1zM213 800l17 6l103 -60l102 60l17 -6l-106 -125h-26z" />
    <glyph glyph-name="acaron" unicode="&#x1ce;" horiz-adv-x="506" 
d="M94 430c43 16 112 36 185 36c118 0 131 -60 131 -140v-276l78 -2v-17l-162 -45l2 81h-2c-29 -43 -88 -81 -157 -81c-73 0 -125 41 -125 119c0 116 128 147 282 160v58c0 69 -19 109 -80 109c-65 0 -110 -34 -130 -104h-22v102zM326 235c-126 -12 -194 -40 -194 -117
c0 -46 32 -77 83 -77c21 0 50 4 79 27c26 20 32 42 32 59v108zM242 512l-87 159l16 5l83 -94l83 94l16 -5l-87 -159h-24z" />
    <glyph glyph-name="Icaron" unicode="&#x1cf;" horiz-adv-x="351" 
d="M40 0v17l87 24v544l-87 24v17h271v-17l-87 -24v-544l87 -24v-17h-271zM56 800l17 6l103 -60l102 60l17 -6l-106 -125h-26z" />
    <glyph glyph-name="icaron" unicode="&#x1d0;" horiz-adv-x="305" 
d="M47 0v17l72 24v350l-75 3v17l160 55v-425l73 -24v-17h-230zM145 512l-87 159l16 5l83 -94l83 94l16 -5l-87 -159h-24z" />
    <glyph glyph-name="Ocaron" unicode="&#x1d1;" horiz-adv-x="751" 
d="M365 -14c-189 0 -319 122 -319 324c0 195 145 330 344 330c192 0 315 -116 315 -316c0 -209 -152 -338 -340 -338zM375 606c-132 0 -221 -121 -221 -291c0 -180 93 -295 220 -295c136 0 223 120 223 293c0 178 -91 293 -222 293zM257 800l17 6l103 -60l102 60l17 -6
l-106 -125h-26z" />
    <glyph glyph-name="ocaron" unicode="&#x1d2;" horiz-adv-x="550" 
d="M263 -14c-129 0 -218 84 -218 231c0 134 80 249 244 249c132 0 216 -87 216 -223c0 -155 -90 -257 -242 -257zM140 223c0 -133 49 -205 134 -205c83 0 136 90 136 211c0 143 -52 205 -130 205c-96 0 -140 -93 -140 -211zM263 512l-87 159l16 5l83 -94l83 94l16 -5
l-87 -159h-24z" />
    <glyph glyph-name="Ucaron" unicode="&#x1d3;" horiz-adv-x="720" 
d="M30 626h265v-17l-82 -24v-318c0 -184 72 -229 179 -229c110 0 181 58 181 242l-1 305l-87 24v17h210v-17l-68 -24l-9 -326c-5 -173 -79 -273 -252 -273c-154 0 -250 70 -250 247v352l-86 24v17zM274 800l17 6l103 -60l102 60l17 -6l-106 -125h-26z" />
    <glyph glyph-name="ucaron" unicode="&#x1d4;" horiz-adv-x="588" 
d="M401 -14v109h-2c-32 -49 -98 -109 -180 -109c-88 0 -115 59 -115 155v263l-68 13v17l152 32v-296c0 -68 6 -127 78 -127c22 0 62 12 95 45c28 27 40 51 40 71v245l-70 29v17l154 6v-399l75 -1v-17zM285 512l-87 159l16 5l83 -94l83 94l16 -5l-87 -159h-24z" />
    <glyph glyph-name="Udieresismacron" unicode="&#x1d5;" horiz-adv-x="720" 
d="M30 626h265v-17l-82 -24v-318c0 -184 72 -229 179 -229c110 0 181 58 181 242l-1 305l-87 24v17h210v-17l-68 -24l-9 -326c-5 -173 -79 -273 -252 -273c-154 0 -250 70 -250 247v352l-86 24v17zM299 696c-27 0 -48 22 -48 48c0 27 21 48 48 48c26 0 47 -21 47 -48
c0 -26 -21 -48 -47 -48zM506 696c-27 0 -48 22 -48 48c0 27 21 48 48 48c26 0 48 -21 48 -48c0 -26 -22 -48 -48 -48zM283 861v58h248v-58h-248z" />
    <glyph glyph-name="udieresismacron" unicode="&#x1d6;" horiz-adv-x="588" 
d="M401 -14v109h-2c-32 -49 -98 -109 -180 -109c-88 0 -115 59 -115 155v263l-68 13v17l152 32v-296c0 -68 6 -127 78 -127c22 0 62 12 95 45c28 27 40 51 40 71v245l-70 29v17l154 6v-399l75 -1v-17zM212 565c-26 0 -46 21 -46 46c0 26 20 47 46 47s46 -21 46 -47
c0 -25 -20 -46 -46 -46zM396 565c-26 0 -46 21 -46 46c0 26 20 47 46 47c25 0 46 -21 46 -47c0 -25 -21 -46 -46 -46zM188 715v52h231v-52h-231z" />
    <glyph glyph-name="Udieresisacute" unicode="&#x1d7;" horiz-adv-x="720" 
d="M30 626h265v-17l-82 -24v-318c0 -184 72 -229 179 -229c110 0 181 58 181 242l-1 305l-87 24v17h210v-17l-68 -24l-9 -326c-5 -173 -79 -273 -252 -273c-154 0 -250 70 -250 247v352l-86 24v17zM299 696c-27 0 -48 22 -48 48c0 27 21 48 48 48c26 0 47 -21 47 -48
c0 -26 -21 -48 -47 -48zM506 696c-27 0 -48 22 -48 48c0 27 21 48 48 48c26 0 48 -21 48 -48c0 -26 -22 -48 -48 -48zM394 806l-16 12l144 119l54 -52z" />
    <glyph glyph-name="udieresisacute" unicode="&#x1d8;" horiz-adv-x="588" 
d="M401 -14v109h-2c-32 -49 -98 -109 -180 -109c-88 0 -115 59 -115 155v263l-68 13v17l152 32v-296c0 -68 6 -127 78 -127c22 0 62 12 95 45c28 27 40 51 40 71v245l-70 29v17l154 6v-399l75 -1v-17zM212 565c-26 0 -46 21 -46 46c0 26 20 47 46 47s46 -21 46 -47
c0 -25 -20 -46 -46 -46zM396 565c-26 0 -46 21 -46 46c0 26 20 47 46 47c25 0 46 -21 46 -47c0 -25 -21 -46 -46 -46zM303 651l-15 9l74 157l59 -34z" />
    <glyph glyph-name="Udieresiscaron" unicode="&#x1d9;" horiz-adv-x="720" 
d="M30 626h265v-17l-82 -24v-318c0 -184 72 -229 179 -229c110 0 181 58 181 242l-1 305l-87 24v17h210v-17l-68 -24l-9 -326c-5 -173 -79 -273 -252 -273c-154 0 -250 70 -250 247v352l-86 24v17zM283 933l17 6l103 -60l102 60l17 -6l-106 -125h-26zM299 696
c-27 0 -48 22 -48 48c0 27 21 48 48 48c26 0 47 -21 47 -48c0 -26 -21 -48 -47 -48zM506 696c-27 0 -48 22 -48 48c0 27 21 48 48 48c26 0 48 -21 48 -48c0 -26 -22 -48 -48 -48z" />
    <glyph glyph-name="udieresiscaron" unicode="&#x1da;" horiz-adv-x="588" 
d="M401 -14v109h-2c-32 -49 -98 -109 -180 -109c-88 0 -115 59 -115 155v263l-68 13v17l152 32v-296c0 -68 6 -127 78 -127c22 0 62 12 95 45c28 27 40 51 40 71v245l-70 29v17l154 6v-399l75 -1v-17zM292 655l-87 159l16 5l83 -94l83 94l16 -5l-87 -159h-24zM212 565
c-26 0 -46 21 -46 46c0 26 20 47 46 47s46 -21 46 -47c0 -25 -20 -46 -46 -46zM396 565c-26 0 -46 21 -46 46c0 26 20 47 46 47c25 0 46 -21 46 -47c0 -25 -21 -46 -46 -46z" />
    <glyph glyph-name="Udieresisgrave" unicode="&#x1db;" horiz-adv-x="720" 
d="M30 626h265v-17l-82 -24v-318c0 -184 72 -229 179 -229c110 0 181 58 181 242l-1 305l-87 24v17h210v-17l-68 -24l-9 -326c-5 -173 -79 -273 -252 -273c-154 0 -250 70 -250 247v352l-86 24v17zM416 805l-158 80l58 53l116 -120zM299 696c-27 0 -48 22 -48 48
c0 27 21 48 48 48c26 0 47 -21 47 -48c0 -26 -21 -48 -47 -48zM506 696c-27 0 -48 22 -48 48c0 27 21 48 48 48c26 0 48 -21 48 -48c0 -26 -22 -48 -48 -48z" />
    <glyph glyph-name="udieresisgrave" unicode="&#x1dc;" horiz-adv-x="588" 
d="M401 -14v109h-2c-32 -49 -98 -109 -180 -109c-88 0 -115 59 -115 155v263l-68 13v17l152 32v-296c0 -68 6 -127 78 -127c22 0 62 12 95 45c28 27 40 51 40 71v245l-70 29v17l154 6v-399l75 -1v-17zM303 651l-101 137l62 29l54 -159zM212 565c-26 0 -46 21 -46 46
c0 26 20 47 46 47s46 -21 46 -47c0 -25 -20 -46 -46 -46zM396 565c-26 0 -46 21 -46 46c0 26 20 47 46 47c25 0 46 -21 46 -47c0 -25 -21 -46 -46 -46z" />
    <glyph glyph-name="uni01F1" unicode="&#x1f1;" horiz-adv-x="1329" 
d="M40 0v17l87 24v544l-87 24v17h269c185 0 354 -54 354 -295c0 -233 -160 -331 -369 -331h-254zM224 588v-547c25 -5 54 -7 74 -7c166 0 258 97 258 291c0 180 -80 269 -257 269c-12 0 -49 -1 -75 -6zM783 626h488v-19l-401 -566h223c116 0 144 10 171 130h22v-171h-546v17
l408 573l-191 -1c-110 0 -127 -12 -153 -99h-21v136z" />
    <glyph glyph-name="uni01F2" unicode="&#x1f2;" horiz-adv-x="1175" 
d="M40 0v17l87 24v544l-87 24v17h269c185 0 354 -54 354 -295c0 -233 -160 -331 -369 -331h-254zM224 588v-547c25 -5 54 -7 74 -7c166 0 258 97 258 291c0 180 -80 269 -257 269c-12 0 -49 -1 -75 -6zM737 0v16l293 398h-137c-58 0 -84 -10 -101 -79h-23v117h371v-19
l-289 -393l163 -1c64 0 78 3 104 99h22v-138h-403z" />
    <glyph glyph-name="uni01F3" unicode="&#x1f3;" horiz-adv-x="1013" 
d="M293 656l165 54v-659l75 -2v-17l-160 -46v86h-2c-36 -50 -85 -86 -147 -86c-101 0 -179 84 -179 225c0 150 89 255 228 255c41 0 76 -7 100 -17v187l-80 3v17zM137 233c0 -126 53 -189 127 -189c45 0 93 28 105 86c5 24 5 94 5 139c0 33 1 87 -6 107
c-10 32 -48 57 -96 57c-81 0 -135 -75 -135 -200zM575 0v16l293 398h-137c-58 0 -84 -10 -101 -79h-23v117h371v-19l-289 -393l163 -1c64 0 78 3 104 99h22v-138h-403z" />
    <glyph glyph-name="Aringacute" unicode="&#x1fa;" horiz-adv-x="660" 
d="M75 41l250 588c-41 5 -72 38 -72 81c0 47 37 82 84 82s84 -35 84 -82c0 -43 -30 -74 -71 -80l239 -589l55 -24v-17h-233v17l76 24l-64 157h-230l-62 -157l73 -24v-17h-187v17zM304 502l-93 -257h193l-99 257h-1zM323 812l-12 13l151 116l38 -51zM292 710
c0 -24 20 -43 45 -43s46 19 46 43c0 25 -21 44 -46 44s-45 -19 -45 -44z" />
    <glyph glyph-name="aringacute" unicode="&#x1fb;" horiz-adv-x="506" 
d="M252 724l-16 8l100 135l55 -36zM94 430c43 16 112 36 185 36c118 0 131 -60 131 -140v-276l78 -2v-17l-162 -45l2 81h-2c-29 -43 -88 -81 -157 -81c-73 0 -125 41 -125 119c0 116 128 147 282 160v58c0 69 -19 109 -80 109c-65 0 -110 -34 -130 -104h-22v102zM326 235
c-126 -12 -194 -40 -194 -117c0 -46 32 -77 83 -77c21 0 50 4 79 27c26 20 32 42 32 59v108zM264 520c-50 0 -87 36 -87 86s37 87 87 87c51 0 87 -37 87 -87s-36 -86 -87 -86zM214 606c0 -28 22 -50 50 -50s51 22 51 50s-23 50 -51 50s-50 -22 -50 -50z" />
    <glyph glyph-name="AEacute" unicode="&#x1fc;" horiz-adv-x="881" 
d="M314 626h478v-136h-23c-27 79 -35 98 -116 98h-126v-244l138 5l24 83h19v-211h-20l-23 84l-138 4v-267h146c87 0 104 12 134 121h22v-163h-475v17l76 24v218h-187l-127 -218l83 -24v-17h-209v17l66 24l342 547l-84 21v17zM267 303h163v277h-2zM549 673l-16 12l144 119
l54 -52z" />
    <glyph glyph-name="aeacute" unicode="&#x1fd;" horiz-adv-x="750" 
d="M96 429c38 16 106 37 174 37c71 0 101 -27 114 -68c34 45 87 68 143 68c161 0 177 -152 177 -213h-298c-1 -10 -2 -24 -2 -36c0 -117 43 -201 133 -201c76 0 115 42 140 98h22l-24 -87c-31 -23 -71 -41 -149 -41c-90 0 -161 37 -192 108c-30 -56 -83 -108 -163 -108
c-77 0 -128 40 -128 117c0 124 154 142 278 166v54c0 78 -30 111 -85 111c-58 0 -100 -37 -118 -105h-22v100zM321 240c-116 -16 -194 -48 -194 -126c0 -50 27 -80 74 -80c52 0 120 50 120 135v71zM407 285l205 3c-2 45 -8 148 -96 148c-56 0 -108 -55 -109 -151zM398 508
l-15 9l74 157l59 -34z" />
    <glyph glyph-name="Oslashacute" unicode="&#x1fe;" horiz-adv-x="766" 
d="M612 678l33 -19l-51 -74c80 -54 126 -144 126 -260c0 -211 -143 -339 -350 -339c-60 0 -111 11 -155 31l-59 -87l-33 18l58 88c-87 53 -135 150 -135 274c0 189 133 330 352 330c62 0 118 -13 163 -36zM526 552c-36 34 -84 54 -145 54c-148 0 -227 -120 -227 -291
c0 -93 24 -170 68 -219zM552 521l-304 -454c35 -31 79 -47 133 -47c153 0 230 120 230 293c0 88 -20 159 -59 208zM375 673l-16 12l144 119l54 -52z" />
    <glyph glyph-name="oslashacute" unicode="&#x1ff;" horiz-adv-x="550" 
d="M442 509l29 -18l-45 -67c49 -36 79 -96 79 -175c0 -156 -90 -263 -242 -263c-42 0 -80 9 -112 26l-49 -75l-29 18l50 75c-48 37 -78 99 -78 183c0 134 79 253 245 253c41 0 77 -8 108 -23zM365 393c-22 29 -51 41 -89 41c-96 0 -136 -91 -136 -211c0 -55 10 -98 25 -130z
M384 359l-200 -300c22 -27 50 -41 90 -41c87 0 136 89 136 211c0 57 -11 100 -26 130zM276 508l-15 9l74 157l59 -34z" />
    <glyph glyph-name="Scommaaccent" unicode="&#x218;" horiz-adv-x="484" 
d="M400 502h-22c-17 65 -54 104 -129 104c-61 0 -107 -38 -107 -106c0 -155 291 -127 291 -328c0 -100 -83 -186 -218 -186c-69 0 -127 21 -159 41v127h22c22 -104 81 -134 140 -134c69 0 126 41 126 113c0 160 -282 129 -282 333c0 91 68 174 199 174c57 0 110 -15 139 -31
v-107zM197 -221l-20 8c27 35 38 59 38 87c0 22 -18 43 -44 60l46 29c20 -4 61 -29 61 -66c0 -36 -35 -83 -81 -118z" />
    <glyph glyph-name="scommaaccent" unicode="&#x219;" horiz-adv-x="407" 
d="M335 442v-87h-23c-18 68 -61 81 -94 81c-46 0 -79 -32 -79 -73c0 -38 23 -64 95 -90c77 -28 127 -68 127 -144c0 -81 -65 -143 -170 -143c-52 0 -97 16 -131 33v110h23c19 -86 59 -112 109 -112c56 0 94 36 94 82c0 35 -17 69 -98 100c-81 30 -118 69 -118 139
c0 72 59 128 158 128c51 0 87 -14 107 -24zM168 -221l-20 8c27 35 38 59 38 87c0 22 -18 43 -44 60l46 29c20 -4 61 -29 61 -66c0 -36 -35 -83 -81 -118z" />
    <glyph glyph-name="uni021A" unicode="&#x21a;" horiz-adv-x="599" 
d="M23 626h553v-136h-23c-24 93 -37 97 -108 97h-97v-546l92 -24v-17h-282v17l93 24v546h-96c-72 0 -86 -4 -109 -97h-23v136zM274 -221l-20 8c27 35 38 59 38 87c0 22 -18 43 -44 60l46 29c20 -4 61 -29 61 -66c0 -36 -35 -83 -81 -118z" />
    <glyph glyph-name="uni021B" unicode="&#x21b;" horiz-adv-x="354" 
d="M356 80l-36 -71c-29 -18 -68 -23 -96 -23c-88 0 -125 58 -125 160v245h-76v17l86 36l48 138h26v-141h135v-50h-135v-219c0 -71 9 -127 73 -127c33 0 59 10 90 43zM176 -221l-20 8c27 35 38 59 38 87c0 22 -18 43 -44 60l46 29c20 -4 61 -29 61 -66
c0 -36 -35 -83 -81 -118z" />
    <glyph glyph-name="yogh" unicode="&#x292;" horiz-adv-x="453" 
d="M51 452h347v-19l-164 -215c88 -12 166 -62 166 -163c0 -135 -123 -231 -329 -231l-8 29c143 1 246 61 246 182c0 76 -58 119 -121 125l-24 -6l-8 11l42 47l113 175h-164c-45 0 -57 -4 -74 -71h-22v136z" />
    <glyph glyph-name="Ymacron" unicode="&#x232;" horiz-adv-x="610" 
d="M18 626h229v-17l-69 -24l162 -260l148 260l-76 24v17h180v-17l-47 -24l-190 -299v-245l85 -24v-17h-267v17l87 24v243l-187 301l-55 24v17zM199 719v58h248v-58h-248z" />
    <glyph glyph-name="ymacron" unicode="&#x233;" horiz-adv-x="499" 
d="M446 413l-167 -427c-50 -123 -93 -202 -164 -202c-24 0 -47 6 -60 16v102h19c9 -40 32 -52 58 -52c39 0 82 52 110 151l-181 412l-48 22v17h210v-17l-70 -22l132 -316l106 316l-62 22v17h164v-17zM149 572v52h231v-52h-231z" />
    <glyph glyph-name="dotlessj" unicode="&#x237;" horiz-adv-x="295" 
d="M203 466v-453c0 -143 -50 -229 -164 -229c-47 0 -81 17 -96 25l1 99h20c12 -54 35 -96 80 -96c56 0 75 58 75 173v406l-81 3v17z" />
    <glyph glyph-name="schwa" unicode="&#x259;" horiz-adv-x="491" 
d="M59 350l23 80c34 19 79 36 151 36c128 0 213 -79 213 -217c0 -151 -84 -263 -223 -263c-145 0 -178 129 -178 205l47 24h258c1 10 1 25 1 35c0 110 -64 183 -140 183c-69 0 -106 -37 -129 -83h-23zM347 179l-215 1c0 -78 24 -162 104 -162c63 0 104 71 111 161z" />
    <glyph glyph-name="obar" unicode="&#x275;" horiz-adv-x="551" 
d="M290 466c132 0 216 -79 216 -217c0 -156 -90 -263 -242 -263c-129 0 -219 78 -219 227c0 134 80 253 245 253zM410 253c-4 130 -53 181 -134 181c-87 0 -129 -76 -135 -181h269zM411 215h-271c1 -131 48 -197 135 -197c83 0 132 82 136 197z" />
    <glyph glyph-name="circumflex" unicode="&#x2c6;" horiz-adv-x="350" 
d="M162 670h25l87 -159l-15 -5l-84 94l-84 -94l-15 5z" />
    <glyph glyph-name="caron" unicode="&#x2c7;" horiz-adv-x="350" 
d="M163 512l-87 159l16 5l83 -94l83 94l16 -5l-87 -159h-24z" />
    <glyph glyph-name="uni02C9" unicode="&#x2c9;" horiz-adv-x="381" 
d="M75 572v52h231v-52h-231z" />
    <glyph glyph-name="breve" unicode="&#x2d8;" horiz-adv-x="350" 
d="M261 654h24c-2 -57 -22 -125 -110 -125c-89 0 -108 68 -110 125h24c6 -32 11 -71 86 -71s80 39 86 71z" />
    <glyph glyph-name="dotaccent" unicode="&#x2d9;" horiz-adv-x="381" 
d="M190 563c-26 0 -47 21 -47 48c0 26 21 47 47 47c27 0 48 -21 48 -47c0 -27 -21 -48 -48 -48z" />
    <glyph glyph-name="ring" unicode="&#x2da;" horiz-adv-x="381" 
d="M190 520c-50 0 -87 36 -87 86s37 87 87 87c51 0 87 -37 87 -87s-36 -86 -87 -86zM140 606c0 -28 22 -50 50 -50s51 22 51 50s-23 50 -51 50s-50 -22 -50 -50z" />
    <glyph glyph-name="ogonek" unicode="&#x2db;" horiz-adv-x="381" 
d="M279 -126l9 -16c-26 -23 -67 -47 -109 -47c-44 0 -70 26 -70 63c0 64 90 115 123 137h24c-38 -26 -89 -67 -89 -120c0 -29 28 -40 47 -40c17 0 41 4 65 23z" />
    <glyph glyph-name="tilde" unicode="&#x2dc;" horiz-adv-x="350" 
d="M57 540l-16 10c18 36 43 88 88 88c32 0 69 -37 103 -37c22 0 35 4 62 41l16 -10c-18 -36 -44 -88 -88 -88c-36 0 -68 37 -106 37c-19 0 -34 -9 -59 -41z" />
    <glyph glyph-name="hungarumlaut" unicode="&#x2dd;" horiz-adv-x="380" 
d="M73 512l-15 9l100 154l50 -35zM194 513l-15 9l110 153l50 -35z" />
    <glyph glyph-name="uni0394" unicode="&#x394;" horiz-adv-x="639" 
d="M103 66h403l-202 443h-3zM33 0l-7 17l304 623h8l278 -593l-27 -47h-556z" />
    <glyph glyph-name="Omega" unicode="&#x2126;" horiz-adv-x="774" 
d="M26 127h15l46 -60l158 -2l7 11c-90 56 -186 139 -186 264c0 149 129 300 336 300c182 0 306 -117 306 -274c0 -132 -106 -238 -191 -291l5 -10l171 2l45 63h16l-34 -130h-284l13 53c63 29 151 146 151 293c0 129 -70 261 -204 261c-136 0 -222 -119 -222 -272
c0 -105 36 -209 154 -286l-16 -49h-257z" />
    <glyph glyph-name="uni03BC" unicode="&#x3bc;" horiz-adv-x="595" 
d="M104 449l66 17h18v-296c0 -68 15 -128 84 -128c23 0 63 14 94 49c28 29 41 59 41 111v247l66 17h18v-303c0 -84 29 -111 66 -111v-15l-69 -46c-41 3 -71 49 -78 109h-2c-32 -49 -101 -114 -179 -114c-42 0 -79 24 -95 72c0 -28 5 -119 13 -158c6 -30 16 -69 32 -93v-4
l-68 -19c-7 18 -14 55 -14 114c0 77 7 189 7 278v273z" />
    <glyph glyph-name="pi" unicode="&#x3c0;" horiz-adv-x="582" 
d="M233 395l-43 -2c-67 -3 -113 -44 -145 -93l-13 13c42 84 110 139 216 139h238c46 0 92 10 92 10l-16 -42l-76 -16l-40 -180c-10 -47 -18 -92 -18 -106c0 -16 2 -37 9 -46l94 35l7 -16l-156 -94c-28 17 -34 53 -34 84c0 22 6 66 17 115l46 200h-147s-18 -173 -51 -258
c-50 -127 -109 -150 -183 -150v9l32 57c5 0 78 25 90 38c19 22 80 291 81 303z" />
    <glyph glyph-name="uni0400" unicode="&#x400;" horiz-adv-x="581" 
d="M40 0v17l87 24v544l-87 24v17h456v-136h-22c-29 80 -42 98 -116 98h-134v-241l155 4l23 76h19v-195h-20l-22 76l-155 4v-270h149c86 0 104 4 134 121h22v-163h-489zM334 672l-158 80l58 53l116 -120z" />
    <glyph glyph-name="afii10023" unicode="&#x401;" horiz-adv-x="581" 
d="M40 0v17l87 24v544l-87 24v17h456v-136h-22c-29 80 -42 98 -116 98h-134v-241l155 4l23 76h19v-195h-20l-22 76l-155 4v-270h149c86 0 104 4 134 121h22v-163h-489zM224 696c-27 0 -48 22 -48 48c0 27 21 48 48 48c26 0 47 -21 47 -48c0 -26 -21 -48 -47 -48zM431 696
c-27 0 -48 22 -48 48c0 27 21 48 48 48c26 0 48 -21 48 -48c0 -26 -22 -48 -48 -48z" />
    <glyph glyph-name="afii10051" unicode="&#x402;" horiz-adv-x="686" 
d="M29 626h545v-136h-24c-22 91 -35 98 -103 98h-127v-235c18 3 57 9 99 9c134 0 224 -42 224 -230c0 -133 -37 -281 -240 -284v26c123 0 140 122 140 260c0 186 -92 193 -154 193c-23 0 -53 -3 -69 -7v-279l83 -24v-17h-268v17l89 24v547h-67c-70 0 -83 -8 -104 -98h-24
v136z" />
    <glyph glyph-name="afii10052" unicode="&#x403;" horiz-adv-x="533" 
d="M224 585v-544l94 -24v-17h-275v17l84 24v544l-84 24v17h468v-136h-22c-24 76 -41 95 -116 95h-149zM303 673l-16 12l144 119l54 -52z" />
    <glyph glyph-name="afii10053" unicode="&#x404;" horiz-adv-x="632" 
d="M570 604v-108h-22c-20 59 -66 111 -167 110c-137 0 -219 -97 -228 -261l284 15v-66l-284 15c2 -159 83 -289 223 -289c112 0 166 57 192 133h22l-14 -123c-51 -24 -112 -44 -219 -44c-214 0 -311 149 -311 324c0 202 132 330 333 330c93 0 155 -19 191 -36z" />
    <glyph glyph-name="afii10054" unicode="&#x405;" horiz-adv-x="484" 
d="M400 502h-22c-17 65 -54 104 -129 104c-61 0 -107 -38 -107 -106c0 -155 291 -127 291 -328c0 -100 -83 -186 -218 -186c-69 0 -127 21 -159 41v127h22c22 -104 81 -134 140 -134c69 0 126 41 126 113c0 160 -282 129 -282 333c0 91 68 174 199 174c57 0 110 -15 139 -31
v-107z" />
    <glyph glyph-name="afii10055" unicode="&#x406;" horiz-adv-x="351" 
d="M40 0v17l87 24v544l-87 24v17h271v-17l-87 -24v-544l87 -24v-17h-271z" />
    <glyph glyph-name="afii10056" unicode="&#x407;" horiz-adv-x="351" 
d="M40 0v17l87 24v544l-87 24v17h271v-17l-87 -24v-544l87 -24v-17h-271zM74 696c-27 0 -48 22 -48 48c0 27 21 48 48 48c26 0 47 -21 47 -48c0 -26 -21 -48 -47 -48zM281 696c-27 0 -48 22 -48 48c0 27 21 48 48 48c26 0 48 -21 48 -48c0 -26 -22 -48 -48 -48z" />
    <glyph glyph-name="afii10057" unicode="&#x408;" horiz-adv-x="448" 
d="M337 585v-393c0 -116 -47 -206 -182 -206c-51 0 -98 12 -130 27v123h22c28 -86 56 -120 107 -120c66 0 87 63 87 169v400l-89 24v17h264v-17z" />
    <glyph glyph-name="afii10058" unicode="&#x409;" horiz-adv-x="881" 
d="M327 639h18l107 -285c25 2 82 10 139 10c178 0 244 -72 244 -179c0 -104 -77 -185 -244 -185h-207v17l85 24l-165 453h-1l-157 -453l78 -24v-17h-196v17l61 24zM466 318l105 -277c15 -5 34 -7 52 -7c64 0 112 43 112 136c0 116 -83 155 -174 155c-36 0 -66 -4 -95 -7z
" />
    <glyph glyph-name="afii10059" unicode="&#x40a;" horiz-adv-x="969" 
d="M40 626h257v-17l-73 -24v-230h285v230l-73 24v17h257v-17l-87 -24v-228c16 1 39 2 84 2c158 0 233 -66 233 -170c0 -111 -86 -189 -263 -189h-224v17l73 24v268h-285v-268l73 -24v-17h-257v17l87 24v544l-87 24v17zM606 316v-275c16 -5 47 -8 63 -8c93 0 153 52 153 148
c0 110 -85 139 -154 139c-27 0 -47 -2 -62 -4z" />
    <glyph glyph-name="afii10060" unicode="&#x40b;" horiz-adv-x="763" 
d="M29 626h545v-136h-24c-22 91 -35 98 -103 98h-127v-240c34 6 84 16 149 16c150 0 182 -59 182 -160v-163l87 -24v-17h-251v17l69 24v153c0 109 -57 131 -135 131c-29 0 -78 -7 -101 -12v-272l74 -24v-17h-258v17l88 24v547h-67c-70 0 -83 -7 -104 -98h-24v136z" />
    <glyph glyph-name="afii10061" unicode="&#x40c;" horiz-adv-x="681" 
d="M40 626h255v-17l-71 -24v-251l64 14l202 237l-68 24v17h212v-17l-75 -24l-215 -221l269 -323l59 -24v-17h-234v17l62 20l-227 273l-49 7v-276l70 -24v-17h-254v17l87 24v544l-87 24v17zM360 673l-16 12l144 119l54 -52z" />
    <glyph glyph-name="uni040D" unicode="&#x40d;" horiz-adv-x="779" 
d="M40 626h267v-17l-83 -24v-443l331 402v41l-83 24v17h267v-17l-87 -24v-544l87 -24v-17h-267v17l83 24v442l-331 -402v-40l83 -24v-17h-267v17l87 24v544l-87 24v17zM400 672l-158 80l58 53l116 -120z" />
    <glyph glyph-name="afii10062" unicode="&#x40e;" horiz-adv-x="605" 
d="M20 626h227v-17l-67 -24l169 -330h3l137 330l-74 24v17h178v-17l-47 -24l-179 -368c-51 -131 -99 -228 -146 -228c-28 0 -52 13 -69 31v9l28 64h5c14 -9 39 -18 59 -18c23 0 49 49 61 84l-231 426l-54 24v17zM427 815l30 -23c-2 -72 -37 -115 -125 -115
c-89 0 -123 43 -124 115l29 23l10 -4l-11 -44c0 -20 42 -34 96 -34s96 14 96 34l-11 44z" />
    <glyph glyph-name="afii10145" unicode="&#x40f;" horiz-adv-x="777" 
d="M40 626h266v-17l-82 -24v-539h330v539l-82 24v17h266v-17l-88 -24v-544l84 -24v-17h-304l-29 -152h-22l-30 152h-306v17l84 24v544l-87 24v17z" />
    <glyph glyph-name="afii10017" unicode="&#x410;" horiz-adv-x="660" 
d="M75 41l254 598h18l242 -598l55 -24v-17h-233v17l76 24l-64 157h-230l-62 -157l73 -24v-17h-187v17zM304 502l-93 -257h193l-99 257h-1z" />
    <glyph glyph-name="afii10018" unicode="&#x411;" horiz-adv-x="591" 
d="M43 626h449v-136h-23c-28 79 -42 98 -114 98h-131v-226c10 1 33 2 79 2c155 0 237 -62 237 -165c0 -124 -85 -199 -273 -199h-224v17l84 24v544l-84 24v17zM224 327v-283c13 -7 35 -11 62 -11c97 0 154 56 154 150c0 108 -84 146 -188 146c-9 0 -19 -1 -28 -2z" />
    <glyph glyph-name="afii10019" unicode="&#x412;" horiz-adv-x="583" 
d="M43 0v17l84 24v544l-84 24v17h252c122 0 207 -39 207 -137c0 -82 -65 -130 -114 -146v-7c64 -11 148 -54 148 -151c0 -112 -87 -185 -251 -185h-242zM224 589v-245c137 0 178 52 178 133c0 89 -63 119 -125 119c-18 0 -40 -3 -53 -7zM224 313v-272c19 -6 40 -8 64 -8
c85 0 148 48 148 139c0 108 -85 142 -174 142c-21 0 -30 0 -38 -1z" />
    <glyph glyph-name="afii10020" unicode="&#x413;" horiz-adv-x="533" 
d="M224 585v-544l94 -24v-17h-275v17l84 24v544l-84 24v17h468v-136h-22c-24 76 -41 95 -116 95h-149z" />
    <glyph glyph-name="afii10021" unicode="&#x414;" horiz-adv-x="668" 
d="M330 639h18l227 -598l66 -10l-36 -183h-20l-24 152h-454l-27 -152h-19l-34 183l65 10zM149 42h323l-166 450h-1z" />
    <glyph glyph-name="afii10022" unicode="&#x415;" horiz-adv-x="581" 
d="M40 0v17l87 24v544l-87 24v17h456v-136h-22c-29 80 -42 98 -116 98h-134v-241l155 4l23 76h19v-195h-20l-22 76l-155 4v-270h149c86 0 104 4 134 121h22v-163h-489z" />
    <glyph glyph-name="afii10024" unicode="&#x416;" horiz-adv-x="926" 
d="M39 626h210v-17l-66 -24l158 -237l76 -14v251l-70 24v17h232v-17l-70 -24v-251l77 14l157 237l-66 24v17h210v-17l-75 -24l-171 -220l213 -324l58 -24v-17h-229v17l65 20l-171 274l-68 6v-276l68 -24v-17h-228v17l68 24v276l-67 -6l-172 -274l65 -20v-17h-229v17l58 24
l214 324l-172 220l-75 24v17z" />
    <glyph glyph-name="afii10025" unicode="&#x417;" horiz-adv-x="551" 
d="M64 608c46 15 107 31 185 32c146 1 223 -44 223 -141c0 -83 -71 -138 -125 -154v-5c81 -11 158 -54 158 -152c0 -109 -92 -199 -268 -199c-83 0 -144 19 -187 42v132h23c9 -33 25 -69 43 -91c23 -28 64 -49 121 -49c106 0 161 70 161 156c0 112 -92 141 -197 141v26
c88 0 165 36 165 139c0 83 -56 121 -134 121c-56 0 -93 -22 -108 -41c-14 -17 -30 -59 -37 -81h-23v124z" />
    <glyph glyph-name="afii10026" unicode="&#x418;" horiz-adv-x="779" 
d="M40 626h267v-17l-83 -24v-443l331 402v41l-83 24v17h267v-17l-87 -24v-544l87 -24v-17h-267v17l83 24v442l-331 -402v-40l83 -24v-17h-267v17l87 24v544l-87 24v17z" />
    <glyph glyph-name="afii10027" unicode="&#x419;" horiz-adv-x="779" 
d="M40 626h267v-17l-83 -24v-443l331 402v41l-83 24v17h267v-17l-87 -24v-544l87 -24v-17h-267v17l83 24v442l-331 -402v-40l83 -24v-17h-267v17l87 24v544l-87 24v17zM492 815l30 -23c-2 -72 -37 -115 -125 -115c-89 0 -123 43 -124 115l29 23l10 -4l-11 -44
c0 -20 42 -34 96 -34s96 14 96 34l-11 44z" />
    <glyph glyph-name="afii10028" unicode="&#x41a;" horiz-adv-x="681" 
d="M40 626h255v-17l-71 -24v-251l64 14l202 237l-68 24v17h212v-17l-75 -24l-215 -221l269 -323l59 -24v-17h-234v17l62 20l-227 273l-49 7v-276l70 -24v-17h-254v17l87 24v544l-87 24v17z" />
    <glyph glyph-name="afii10029" unicode="&#x41b;" horiz-adv-x="657" 
d="M327 639h19l241 -598l59 -24v-17h-250v17l89 24l-181 458h-1l-172 -458l83 -24v-17h-201v17l62 24z" />
    <glyph glyph-name="afii10030" unicode="&#x41c;" horiz-adv-x="878" 
d="M36 0v17l75 24l32 539l-88 29v17h174l210 -469h1l209 469h174v-17l-83 -24l18 -544l73 -24v-17h-242v17l74 24l-17 489h-2l-229 -530h-8l-229 522h-2l-8 -481l77 -24v-17h-209z" />
    <glyph glyph-name="afii10031" unicode="&#x41d;" horiz-adv-x="779" 
d="M40 0v17l87 24v544l-87 24v17h267v-17l-83 -24v-234h331v234l-83 24v17h267v-17l-87 -24v-544l87 -24v-17h-267v17l83 24v263h-331v-263l83 -24v-17h-267z" />
    <glyph glyph-name="afii10032" unicode="&#x41e;" horiz-adv-x="751" 
d="M365 -14c-189 0 -319 122 -319 324c0 195 145 330 344 330c192 0 315 -116 315 -316c0 -209 -152 -338 -340 -338zM375 606c-132 0 -221 -121 -221 -291c0 -180 93 -295 220 -295c136 0 223 120 223 293c0 178 -91 293 -222 293z" />
    <glyph glyph-name="afii10033" unicode="&#x41f;" horiz-adv-x="778" 
d="M43 626h692v-17l-84 -24v-544l88 -24v-17h-267v17l83 24v536h-331v-536l82 -24v-17h-266v17l87 24v544l-84 24v17z" />
    <glyph glyph-name="afii10034" unicode="&#x420;" horiz-adv-x="572" 
d="M40 626h267c138 0 229 -47 229 -166c0 -124 -89 -199 -230 -199c-11 0 -60 9 -82 14v-234l97 -24v-17h-281v17l87 24v544l-87 24v17zM224 588v-289c8 -1 24 -3 37 -3c23 0 60 2 84 10c61 19 90 78 90 143c0 84 -50 147 -151 147c-27 0 -45 -4 -60 -8z" />
    <glyph glyph-name="afii10035" unicode="&#x421;" horiz-adv-x="637" 
d="M591 162l-13 -128c-52 -26 -113 -48 -221 -48c-213 0 -311 155 -311 324c0 196 133 330 337 330c90 0 152 -20 188 -39v-111h-22c-22 65 -66 117 -167 116c-138 0 -228 -109 -228 -292c0 -161 87 -294 222 -294c114 0 166 59 193 142h22z" />
    <glyph glyph-name="afii10036" unicode="&#x422;" horiz-adv-x="599" 
d="M23 626h553v-136h-23c-24 93 -37 97 -108 97h-97v-546l92 -24v-17h-282v17l93 24v546h-96c-72 0 -86 -4 -109 -97h-23v136z" />
    <glyph glyph-name="afii10037" unicode="&#x423;" horiz-adv-x="605" 
d="M20 626h227v-17l-67 -24l169 -330h3l137 330l-74 24v17h178v-17l-47 -24l-179 -368c-51 -131 -99 -228 -146 -228c-28 0 -52 13 -69 31v9l28 64h5c14 -9 39 -18 59 -18c23 0 49 49 61 84l-231 426l-54 24v17z" />
    <glyph glyph-name="afii10038" unicode="&#x424;" horiz-adv-x="752" 
d="M256 638h241v-17l-74 -23v-55c163 -6 283 -61 283 -219c0 -154 -123 -225 -283 -238v-58l74 -23v-17h-241v17l74 23v56c-168 8 -284 66 -284 226c0 146 116 218 284 232v56l-74 23v17zM330 512c-113 -8 -178 -68 -178 -197c0 -133 68 -192 178 -200v397zM423 512v-396
c115 9 178 71 178 197c0 132 -68 191 -178 199z" />
    <glyph glyph-name="afii10039" unicode="&#x425;" horiz-adv-x="657" 
d="M35 626h253v-17l-65 -24l128 -198l131 198l-67 24v17h203v-17l-68 -24l-179 -227l210 -317l66 -24v-17h-260v17l80 24l-162 248l-157 -248l77 -24v-17h-211v17l65 24l206 279l-175 265l-75 24v17z" />
    <glyph glyph-name="afii10040" unicode="&#x426;" horiz-adv-x="771" 
d="M40 626h266v-17l-82 -24v-539h324v539l-82 24v17h266v-17l-88 -24v-544l88 -10l-28 -183h-19l-32 152h-613v17l87 24v544l-87 24v17z" />
    <glyph glyph-name="afii10041" unicode="&#x427;" horiz-adv-x="699" 
d="M28 626h259v-17l-75 -24v-141c0 -124 70 -138 139 -138c52 0 103 14 125 26v253l-80 24v17h264v-17l-88 -24v-544l88 -24v-17h-272v17l88 24v254c-34 -13 -98 -32 -160 -32c-158 0 -201 62 -201 177v145l-87 24v17z" />
    <glyph glyph-name="afii10042" unicode="&#x428;" horiz-adv-x="966" 
d="M44 626h246v-17l-67 -24v-539h212v539l-69 24v17h234v-17l-69 -24v-539h212v539l-67 24v17h246v-17l-83 -24v-544l87 -24v-17h-886v17l87 24v544l-83 24v17z" />
    <glyph glyph-name="afii10043" unicode="&#x429;" horiz-adv-x="966" 
d="M44 626h246v-17l-67 -24v-539h212v539l-69 24v17h234v-17l-69 -24v-539h212v539l-67 24v17h246v-17l-83 -24v-544l88 -10l-28 -183h-20l-31 152h-808v17l87 24v544l-83 24v17z" />
    <glyph glyph-name="afii10044" unicode="&#x42a;" horiz-adv-x="684" 
d="M29 626h383v-17l-87 -21v-228c22 2 61 4 99 4c147 0 218 -66 218 -170c0 -113 -84 -194 -273 -194h-227v17l87 24v547h-73c-69 0 -82 -11 -103 -98h-24v136zM325 327v-286c20 -6 38 -8 54 -8c105 0 163 56 163 150c0 110 -83 146 -174 146c-14 0 -34 -1 -43 -2z" />
    <glyph glyph-name="afii10045" unicode="&#x42b;" horiz-adv-x="861" 
d="M39 626h272v-17l-87 -24v-225c12 2 55 4 83 4c159 0 234 -68 234 -171c0 -112 -85 -193 -274 -193h-228v17l88 24v544l-88 24v17zM224 327v-286c19 -6 38 -8 53 -8c104 0 163 56 163 151c0 109 -84 145 -189 145c-9 0 -19 -1 -27 -2zM550 626h272v-17l-88 -24v-544
l88 -24v-17h-272v17l88 24v544l-88 24v17z" />
    <glyph glyph-name="afii10046" unicode="&#x42c;" horiz-adv-x="582" 
d="M39 626h272v-17l-87 -24v-225c12 2 60 4 83 4c159 0 234 -68 234 -172c0 -111 -85 -192 -274 -192h-228v17l88 24v544l-88 24v17zM224 327v-286c19 -6 38 -8 53 -8c105 0 163 56 163 150c0 110 -85 146 -184 146c-11 0 -24 -1 -32 -2z" />
    <glyph glyph-name="afii10047" unicode="&#x42d;" horiz-adv-x="636" 
d="M66 604c29 14 107 36 207 36c194 0 317 -105 317 -308c0 -177 -105 -346 -325 -346c-91 0 -152 19 -205 44l-14 123h22c27 -75 84 -133 191 -133c130 0 218 128 224 289l-285 -15v66l285 -15c-5 165 -88 261 -228 261c-101 1 -143 -45 -167 -110h-22v108z" />
    <glyph glyph-name="afii10048" unicode="&#x42e;" horiz-adv-x="1009" 
d="M40 626h271v-17l-87 -24v-237h124c16 173 144 292 320 292c170 0 295 -117 295 -314c0 -209 -145 -340 -324 -340c-173 0 -292 122 -293 321h-122v-266l87 -24v-17h-271v17l87 24v544l-87 24v17zM652 606c-120 0 -201 -121 -201 -291c0 -179 85 -295 200 -295
c124 0 204 121 204 293c0 177 -84 293 -203 293z" />
    <glyph glyph-name="afii10049" unicode="&#x42f;" horiz-adv-x="641" 
d="M601 626v-17l-87 -24v-544l87 -24v-17h-260v17l76 24v244h-99l-75 -142c-67 -119 -99 -145 -184 -145c-33 0 -49 1 -60 2v17c35 1 68 20 154 154l77 130c-63 19 -121 70 -121 151c0 94 71 174 247 174h245zM417 589c-21 6 -43 7 -64 7c-81 0 -143 -44 -143 -139
c0 -92 59 -142 146 -142c26 0 46 2 61 4v270z" />
    <glyph glyph-name="afii10065" unicode="&#x430;" horiz-adv-x="506" 
d="M94 430c43 16 112 36 185 36c118 0 131 -60 131 -140v-276l78 -2v-17l-162 -45l2 81h-2c-29 -43 -88 -81 -157 -81c-73 0 -125 41 -125 119c0 116 128 147 282 160v58c0 69 -19 109 -80 109c-65 0 -110 -34 -130 -104h-22v102zM326 235c-126 -12 -194 -40 -194 -117
c0 -46 32 -77 83 -77c21 0 50 4 79 27c26 20 32 42 32 59v108z" />
    <glyph glyph-name="afii10066" unicode="&#x431;" horiz-adv-x="547" 
d="M466 711l15 -7l-29 -85c-19 -18 -63 -24 -109 -24c-31 0 -88 3 -108 1c-24 -3 -36 -8 -49 -25c-22 -27 -43 -96 -47 -177h7c41 52 97 71 149 71c129 0 207 -86 207 -222c0 -155 -86 -257 -237 -257c-128 0 -210 84 -210 271c0 89 15 231 96 323c44 49 113 94 214 94
c36 0 58 -2 66 -2c7 0 35 39 35 39zM146 223c0 -133 45 -205 130 -205c83 0 131 90 131 211c0 143 -48 204 -126 204c-96 0 -135 -92 -135 -210z" />
    <glyph glyph-name="afii10067" unicode="&#x432;" horiz-adv-x="510" 
d="M38 0v16l71 25v370l-71 25v16h232c82 0 164 -21 164 -98c0 -53 -32 -89 -91 -107v-7c60 -6 114 -37 114 -105c0 -80 -80 -135 -194 -135h-225zM193 415v-162c96 0 152 21 152 91c0 63 -55 77 -97 77c-21 0 -42 -3 -55 -6zM193 224v-183c18 -6 39 -8 65 -8
c69 0 111 35 111 99c0 75 -76 93 -153 93c-6 0 -17 0 -23 -1z" />
    <glyph glyph-name="afii10068" unicode="&#x433;" horiz-adv-x="433" 
d="M37 452h371v-122h-23c-18 78 -25 81 -90 81h-101v-370l75 -24v-17h-232v17l72 24v370l-72 24v17z" />
    <glyph glyph-name="afii10069" unicode="&#x434;" horiz-adv-x="502" 
d="M246 469h13l177 -430l53 -11l-24 -165h-20l-29 137h-331l-28 -137h-20l-24 165l51 11zM117 40h229l-120 302h-2z" />
    <glyph glyph-name="afii10070" unicode="&#x435;" horiz-adv-x="491" 
d="M440 108l-30 -87c-37 -20 -73 -35 -146 -35c-133 0 -219 85 -219 232c0 136 84 248 224 248c144 0 177 -125 177 -213h-304c-1 -9 -2 -24 -2 -34c0 -121 65 -199 152 -199c56 0 99 30 125 88h23zM144 289h210c-1 62 -19 145 -97 145c-65 0 -100 -57 -113 -145z" />
    <glyph glyph-name="afii10072" unicode="&#x436;" horiz-adv-x="755" 
d="M283 452h188v-17l-53 -22v-167l69 12l112 158l-50 19v17h164v-17l-57 -24l-124 -145l160 -228l46 -21v-17h-186v17l48 16l-125 191l-57 5v-190l52 -22v-17h-186v17l53 22v190l-58 -5l-124 -191l48 -16v-17h-186v17l46 21l159 228l-123 145l-57 24v17h163v-17l-50 -19
l113 -158l69 -12v167l-54 22v17z" />
    <glyph glyph-name="afii10073" unicode="&#x437;" horiz-adv-x="446" 
d="M63 439c40 11 82 20 140 21c93 1 167 -28 167 -103c0 -58 -44 -93 -98 -109v-6c68 -6 123 -37 123 -107c0 -80 -82 -143 -201 -143c-64 0 -110 15 -141 29v105h22c5 -26 15 -52 29 -68c13 -15 45 -33 89 -33c66 0 113 41 113 102c0 78 -71 98 -144 98v28
c61 0 120 23 120 94c0 65 -54 83 -93 83c-43 0 -68 -14 -79 -27c-13 -17 -19 -40 -26 -62h-21v98z" />
    <glyph glyph-name="afii10074" unicode="&#x438;" horiz-adv-x="610" 
d="M37 452h218v-17l-61 -24l-2 -276h4l220 240v36l-62 24v17h219v-17l-73 -24v-370l73 -24v-17h-219v17l62 24l2 279h-4l-220 -241v-38l61 -24v-17h-218v17l72 24v370l-72 24v17z" />
    <glyph glyph-name="afii10075" unicode="&#x439;" horiz-adv-x="610" 
d="M37 452h218v-17l-61 -24l-2 -276h4l220 240v36l-62 24v17h219v-17l-73 -24v-370l73 -24v-17h-219v17l62 24l2 279h-4l-220 -241v-38l61 -24v-17h-218v17l72 24v370l-72 24v17zM393 664l29 -29c-1 -64 -29 -110 -114 -110s-112 46 -114 110l29 29l11 -4l-11 -46
c0 -19 33 -38 85 -38c51 0 86 19 86 38l-11 46z" />
    <glyph glyph-name="afii10076" unicode="&#x43a;" horiz-adv-x="562" 
d="M44 452h203v-17l-53 -24v-165l59 12l145 156l-53 21v17h175v-17l-58 -24l-158 -145l196 -228l46 -21v-17h-192v17l44 16l-155 191l-49 5v-188l52 -24v-17h-202v17l65 24v370l-65 24v17z" />
    <glyph glyph-name="afii10077" unicode="&#x43b;" horiz-adv-x="497" 
d="M488 0h-205v17l66 22l-124 302h-3l-111 -302l65 -22v-17h-167v17l50 22l186 429h13l180 -429l50 -22v-17z" />
    <glyph glyph-name="afii10078" unicode="&#x43c;" horiz-adv-x="700" 
d="M37 0v17l59 24l24 370l-68 24v17h146l153 -320h3l150 320h150v-17l-68 -24l15 -370l62 -24v-17h-216v17l71 24l-12 337h-2l-171 -378h-9l-173 373h-2l-4 -332l72 -24v-17h-180z" />
    <glyph glyph-name="afii10079" unicode="&#x43d;" horiz-adv-x="610" 
d="M37 452h218v-17l-61 -24v-154h222v154l-62 24v17h219v-17l-73 -24v-370l73 -24v-17h-219v17l62 24v177h-222v-177l61 -24v-17h-218v17l72 24v370l-72 24v17z" />
    <glyph glyph-name="afii10080" unicode="&#x43e;" horiz-adv-x="550" 
d="M263 -14c-129 0 -218 84 -218 231c0 134 80 249 244 249c132 0 216 -87 216 -223c0 -155 -90 -257 -242 -257zM140 223c0 -133 49 -205 134 -205c83 0 136 90 136 211c0 143 -52 205 -130 205c-96 0 -140 -93 -140 -211z" />
    <glyph glyph-name="afii10081" unicode="&#x43f;" horiz-adv-x="607" 
d="M37 452h533v-17l-72 -24v-370l72 -24v-17h-218v17l62 24v367h-220v-367l61 -24v-17h-218v17l72 24v370l-72 24v17z" />
    <glyph glyph-name="afii10082" unicode="&#x440;" horiz-adv-x="572" 
d="M39 -216v17l75 24v566l-83 3v17l167 55l-3 -107h5c20 35 76 107 160 107c126 0 167 -108 167 -215c0 -149 -80 -264 -219 -264c-49 0 -81 13 -110 34v-196l90 -24v-17h-249zM196 149c0 -105 69 -129 106 -129c81 0 133 81 133 213c0 112 -40 176 -111 176
c-59 0 -118 -58 -125 -113c-3 -25 -3 -113 -3 -147z" />
    <glyph glyph-name="afii10083" unicode="&#x441;" horiz-adv-x="470" 
d="M443 121l-25 -101c-33 -21 -88 -34 -149 -34c-142 0 -223 95 -223 240c0 119 78 240 234 240c66 0 114 -16 136 -27v-97h-25c-22 63 -50 91 -109 91c-91 0 -141 -91 -141 -199c0 -116 56 -212 147 -212c57 0 102 20 134 99h21z" />
    <glyph glyph-name="afii10084" unicode="&#x442;" horiz-adv-x="483" 
d="M26 452h431v-123h-23c-18 80 -25 82 -90 82h-60v-370l80 -24v-17h-246v17l82 24v370h-62c-64 0 -70 -2 -89 -82h-23v123z" />
    <glyph glyph-name="afii10085" unicode="&#x443;" horiz-adv-x="499" 
d="M9 452h220v-17l-78 -22l134 -316l108 316l-70 22v17h176v-17l-51 -22l-163 -410c-58 -153 -106 -219 -149 -219c-27 0 -49 12 -65 29v9l23 52h5c14 -8 41 -17 56 -17c11 0 44 13 89 140l-185 416l-50 22v17z" />
    <glyph glyph-name="afii10086" unicode="&#x444;" horiz-adv-x="648" 
d="M205 629l160 54v-225c140 -13 238 -97 238 -231s-98 -220 -238 -233v-159l77 -24v-17h-232v17l73 24v159c-141 13 -238 97 -238 231c0 133 97 220 238 233v152l-78 2v17zM283 430c-81 -15 -147 -86 -147 -204c0 -121 59 -190 147 -205v409zM365 430v-409
c88 15 147 84 147 205c0 118 -66 189 -147 204z" />
    <glyph glyph-name="afii10087" unicode="&#x445;" horiz-adv-x="514" 
d="M14 0v17l44 24l157 180l-139 192l-53 22v17h205v-17l-55 -22l100 -137l105 137l-48 22v17h153v-17l-47 -22l-145 -161l154 -213l61 -22v-17h-219v17l59 22l-113 157l-114 -157l70 -22v-17h-175z" />
    <glyph glyph-name="afii10088" unicode="&#x446;" horiz-adv-x="607" 
d="M37 452h218v-17l-61 -24v-369h220v369l-62 24v17h218v-17l-72 -24v-370l75 -14l-28 -164h-19l-26 137h-463v17l72 24v370l-72 24v17z" />
    <glyph glyph-name="afii10089" unicode="&#x447;" horiz-adv-x="572" 
d="M31 452h209v-17l-53 -24v-81c0 -76 14 -116 89 -116c52 0 102 26 102 59v138l-57 24v17h213v-17l-72 -24v-370l72 -24v-17h-222v17l66 24v184c-26 -27 -82 -55 -141 -55c-110 0 -134 58 -134 141v100l-72 24v17z" />
    <glyph glyph-name="afii10090" unicode="&#x448;" horiz-adv-x="801" 
d="M37 452h213v-17l-57 -24v-369h166v369l-56 24v17h195v-17l-56 -24v-369h167v369l-57 24v17h212v-17l-72 -24v-370l72 -24v-17h-727v17l72 24v370l-72 24v17z" />
    <glyph glyph-name="afii10091" unicode="&#x449;" horiz-adv-x="801" 
d="M37 452h213v-17l-57 -24v-369h166v369l-56 24v17h195v-17l-56 -24v-369h167v369l-57 24v17h212v-17l-72 -24v-370l76 -14l-28 -164h-20l-27 137h-656v17l72 24v370l-72 24v17z" />
    <glyph glyph-name="afii10092" unicode="&#x44a;" horiz-adv-x="575" 
d="M34 452h322v-17l-73 -24v-149c23 1 46 2 77 2c138 -2 180 -58 180 -124c0 -81 -76 -140 -203 -140h-203v17l65 24v371h-53c-63 0 -71 -6 -89 -83h-23v123zM283 227v-186c17 -6 38 -8 65 -8c61 0 103 38 103 102c0 74 -66 96 -118 96c-25 0 -44 -3 -50 -4z" />
    <glyph glyph-name="afii10093" unicode="&#x44b;" horiz-adv-x="725" 
d="M42 452h216v-17l-64 -24v-151c19 1 46 2 73 2c140 -2 181 -57 181 -123c0 -81 -73 -139 -201 -139h-205v17l67 24v370l-67 24v17zM194 225v-184c18 -6 38 -8 65 -8c61 0 101 37 101 101c0 74 -71 95 -116 95c-25 0 -44 -2 -50 -4zM459 452h229v-17l-73 -24v-370l73 -24
v-17h-229v17l72 24v370l-72 24v17z" />
    <glyph glyph-name="afii10094" unicode="&#x44c;" horiz-adv-x="485" 
d="M37 452h221v-17l-64 -24v-151c19 1 46 2 73 2c145 -2 183 -57 183 -123c0 -81 -75 -139 -203 -139h-210v17l72 24v370l-72 24v17zM194 225v-184c18 -6 38 -8 65 -8c61 0 103 37 103 101c0 74 -65 95 -118 95c-25 0 -44 -2 -50 -4z" />
    <glyph glyph-name="afii10095" unicode="&#x44d;" horiz-adv-x="473" 
d="M59 439c18 9 80 27 145 27c156 0 224 -105 224 -222c0 -163 -90 -258 -234 -258c-50 0 -105 15 -138 36l-25 107h21c36 -74 77 -107 133 -107c88 0 146 83 150 200l-198 -11v54l197 -12c-5 106 -56 180 -140 180c-62 0 -89 -27 -111 -91h-24v97z" />
    <glyph glyph-name="afii10096" unicode="&#x44e;" horiz-adv-x="776" 
d="M37 452h224v-17l-67 -24v-156h99c12 113 81 211 231 211c132 0 207 -87 207 -223c0 -155 -81 -257 -233 -257c-128 0 -205 81 -206 234h-98v-179l67 -24v-17h-224v17l72 24v370l-72 24v17zM381 223c0 -133 46 -205 128 -205c80 0 127 90 127 211c0 143 -47 205 -121 205
c-93 0 -134 -93 -134 -211z" />
    <glyph glyph-name="afii10097" unicode="&#x44f;" horiz-adv-x="537" 
d="M501 452v-16l-74 -22v-376l74 -22v-16h-219v16l62 22v165h-72l-79 -128c-34 -59 -70 -77 -121 -77c-20 0 -51 1 -60 2v16c18 2 55 12 95 72l83 128c-49 15 -94 48 -94 110c0 76 59 126 183 126h222zM344 419c-15 4 -39 6 -55 6c-60 0 -108 -30 -108 -97
c0 -72 53 -97 107 -99c28 -1 42 1 56 3v187z" />
    <glyph glyph-name="uni0450" unicode="&#x450;" horiz-adv-x="491" 
d="M440 108l-30 -87c-37 -20 -73 -35 -146 -35c-133 0 -219 85 -219 232c0 136 84 248 224 248c144 0 177 -125 177 -213h-304c-1 -9 -2 -24 -2 -34c0 -121 65 -199 152 -199c56 0 99 30 125 88h23zM144 289h210c-1 62 -19 145 -97 145c-65 0 -100 -57 -113 -145zM267 508
l-101 137l62 29l54 -159z" />
    <glyph glyph-name="afii10071" unicode="&#x451;" horiz-adv-x="491" 
d="M440 108l-30 -87c-37 -20 -73 -35 -146 -35c-133 0 -219 85 -219 232c0 136 84 248 224 248c144 0 177 -125 177 -213h-304c-1 -9 -2 -24 -2 -34c0 -121 65 -199 152 -199c56 0 99 30 125 88h23zM144 289h210c-1 62 -19 145 -97 145c-65 0 -100 -57 -113 -145zM172 565
c-26 0 -46 21 -46 46c0 26 20 47 46 47s46 -21 46 -47c0 -25 -20 -46 -46 -46zM356 565c-26 0 -46 21 -46 46c0 26 20 47 46 47c25 0 46 -21 46 -47c0 -25 -21 -46 -46 -46z" />
    <glyph glyph-name="afii10099" unicode="&#x452;" horiz-adv-x="586" 
d="M30 561h81v75l-75 3v17l160 54v-149h141v-35h-141v-163h2c25 39 86 101 161 101c98 0 138 -74 138 -215v-46c0 -151 -28 -343 -237 -385v25c141 45 153 190 153 357v37c0 86 -11 169 -93 169c-48 0 -124 -60 -124 -97v-268l63 -24v-17h-217v17l69 24v485h-81v35z" />
    <glyph glyph-name="afii10100" unicode="&#x453;" horiz-adv-x="433" 
d="M37 452h371v-122h-23c-18 78 -25 81 -90 81h-101v-370l75 -24v-17h-232v17l72 24v370l-72 24v17zM253 508l-15 9l74 157l59 -34z" />
    <glyph glyph-name="afii10101" unicode="&#x454;" horiz-adv-x="470" 
d="M414 439v-97h-24c-23 61 -50 91 -110 91c-85 0 -136 -76 -142 -180l198 12v-54l-198 11c3 -115 61 -200 150 -200c56 0 101 28 133 107h21l-25 -107c-33 -21 -88 -36 -148 -36c-143 0 -224 95 -224 240c0 119 78 240 235 240c65 0 112 -16 134 -27z" />
    <glyph glyph-name="afii10102" unicode="&#x455;" horiz-adv-x="407" 
d="M335 442v-87h-23c-18 68 -61 81 -94 81c-46 0 -79 -32 -79 -73c0 -38 23 -64 95 -90c77 -28 127 -68 127 -144c0 -81 -65 -143 -170 -143c-52 0 -97 16 -131 33v110h23c19 -86 59 -112 109 -112c56 0 94 36 94 82c0 35 -17 69 -98 100c-81 30 -118 69 -118 139
c0 72 59 128 158 128c51 0 87 -14 107 -24z" />
    <glyph glyph-name="afii10103" unicode="&#x456;" horiz-adv-x="305" 
d="M47 0v17l72 24v350l-75 3v17l160 55v-425l73 -24v-17h-230zM108 616c0 27 22 49 50 49c27 0 49 -22 49 -49c0 -28 -22 -50 -49 -50c-28 0 -50 22 -50 50z" />
    <glyph glyph-name="afii10104" unicode="&#x457;" horiz-adv-x="305" 
d="M47 0v17l72 24v350l-75 3v17l160 55v-425l73 -24v-17h-230zM62 565c-26 0 -46 21 -46 46c0 26 20 47 46 47s46 -21 46 -47c0 -25 -20 -46 -46 -46zM246 565c-26 0 -46 21 -46 46c0 26 20 47 46 47c25 0 46 -21 46 -47c0 -25 -21 -46 -46 -46z" />
    <glyph glyph-name="afii10105" unicode="&#x458;" horiz-adv-x="295" 
d="M203 466v-453c0 -143 -50 -229 -164 -229c-47 0 -81 17 -96 25l1 99h20c12 -54 35 -96 80 -96c56 0 75 58 75 173v406l-81 3v17zM108 616c0 27 21 49 49 49c27 0 50 -22 50 -49c0 -28 -23 -50 -50 -50c-28 0 -49 22 -49 50z" />
    <glyph glyph-name="afii10106" unicode="&#x459;" horiz-adv-x="660" 
d="M233 469h13l77 -206c27 5 71 15 129 15c132 0 173 -70 173 -134c0 -84 -63 -144 -199 -144h-166v17l65 22l-112 302h-2l-107 -302l65 -22v-17h-166v17l49 22zM335 232l79 -195c5 -2 21 -6 40 -6c56 0 84 38 84 92c0 80 -50 119 -116 119c-41 0 -73 -6 -87 -10z" />
    <glyph glyph-name="afii10107" unicode="&#x45a;" horiz-adv-x="777" 
d="M39 452h215v-17l-59 -24v-154h206v154l-59 24v17h215v-17l-72 -24v-151c23 1 52 3 89 2c125 -3 168 -58 168 -124c0 -79 -74 -138 -203 -138h-197v17l59 24v178h-206v-178l59 -24v-17h-215v17l72 24v370l-72 24v17zM485 225v-184c18 -6 38 -10 65 -10
c62 0 104 38 104 103c0 73 -60 95 -106 95c-34 0 -57 -3 -63 -4z" />
    <glyph glyph-name="afii10108" unicode="&#x45b;" horiz-adv-x="604" 
d="M44 0v17l70 24v485h-84v35h84v75l-75 3v17l159 54v-149h139v-35h-139v-166h2c20 29 89 101 184 101c90 0 121 -50 121 -137v-283l73 -24v-17h-220v17l63 24v264c0 59 -15 97 -73 97c-32 0 -67 -7 -104 -36c-32 -25 -46 -46 -46 -66v-259l64 -24v-17h-218z" />
    <glyph glyph-name="afii10109" unicode="&#x45c;" horiz-adv-x="562" 
d="M44 452h203v-17l-53 -24v-165l59 12l145 156l-53 21v17h175v-17l-58 -24l-158 -145l196 -228l46 -21v-17h-192v17l44 16l-155 191l-49 5v-188l52 -24v-17h-202v17l65 24v370l-65 24v17zM303 508l-15 9l74 157l59 -34z" />
    <glyph glyph-name="uni045D" unicode="&#x45d;" horiz-adv-x="610" 
d="M37 452h218v-17l-61 -24l-2 -276h4l220 240v36l-62 24v17h219v-17l-73 -24v-370l73 -24v-17h-219v17l62 24l2 279h-4l-220 -241v-38l61 -24v-17h-218v17l72 24v370l-72 24v17zM309 508l-101 137l62 29l54 -159z" />
    <glyph glyph-name="afii10110" unicode="&#x45e;" horiz-adv-x="499" 
d="M9 452h220v-17l-78 -22l134 -316l108 316l-70 22v17h176v-17l-51 -22l-163 -410c-58 -153 -106 -219 -149 -219c-27 0 -49 12 -65 29v9l23 52h5c14 -8 41 -17 56 -17c11 0 44 13 89 140l-185 416l-50 22v17zM355 664l29 -29c-1 -64 -29 -110 -114 -110s-112 46 -114 110
l29 29l11 -4l-11 -46c0 -19 33 -38 85 -38c51 0 86 19 86 38l-11 46z" />
    <glyph glyph-name="afii10193" unicode="&#x45f;" horiz-adv-x="607" 
d="M37 452h218v-17l-61 -24v-369h220v369l-62 24v17h218v-17l-72 -24v-370l72 -24v-17h-232l-24 -137h-20l-25 137h-232v17l72 24v370l-72 24v17z" />
    <glyph glyph-name="afii10146" unicode="&#x462;" horiz-adv-x="675" 
d="M29 549h191v76l-88 24v17h272v-17l-87 -24v-76h240v-117h-24c-22 74 -37 78 -108 78h-108v-150c12 2 60 4 84 4c158 0 233 -68 233 -172c0 -111 -85 -192 -274 -192h-228v17l88 24v469h-61c-70 0 -84 -4 -106 -78h-24v117zM317 327v-286c19 -6 38 -8 53 -8
c105 0 163 56 163 150c0 110 -85 146 -183 146c-12 0 -25 -1 -33 -2z" />
    <glyph glyph-name="afii10194" unicode="&#x463;" horiz-adv-x="570" 
d="M34 452h160v111l-66 2v17l150 48v-178h196v-123h-23c-18 80 -25 87 -89 87h-84v-156c20 1 47 2 74 2c144 -2 183 -57 183 -123c0 -81 -76 -139 -203 -139h-210v17l72 24v375h-48c-64 0 -70 -7 -89 -87h-23v123zM278 225v-184c18 -6 39 -8 66 -8c61 0 103 37 103 101
c0 74 -66 95 -118 95c-26 0 -44 -2 -51 -4z" />
    <glyph glyph-name="afii10147" unicode="&#x472;" horiz-adv-x="748" 
d="M361 -14c-186 0 -315 122 -315 324c0 195 144 330 343 330c181 0 313 -116 313 -314c0 -209 -152 -340 -341 -340zM372 20c132 0 217 115 222 279h-440c5 -170 95 -279 218 -279zM373 606c-126 0 -211 -111 -219 -269h439c-7 164 -95 269 -220 269z" />
    <glyph glyph-name="afii10195" unicode="&#x473;" horiz-adv-x="551" 
d="M290 466c132 0 216 -79 216 -217c0 -156 -90 -263 -242 -263c-129 0 -219 78 -219 227c0 134 80 253 245 253zM410 253c-4 130 -53 181 -134 181c-87 0 -129 -76 -135 -181h269zM411 215h-271c1 -131 48 -197 135 -197c83 0 132 82 136 197z" />
    <glyph glyph-name="afii10148" unicode="&#x474;" horiz-adv-x="652" 
d="M353 140l135 370c38 103 65 125 105 125c20 0 42 -10 54 -22l-9 -76h-7c-17 10 -29 13 -41 13c-20 0 -35 -12 -67 -89l-197 -475h-14l-228 599l-67 24v17h239v-17l-71 -24l166 -445h2z" />
    <glyph glyph-name="afii10196" unicode="&#x475;" horiz-adv-x="492" 
d="M1 452h206v-17l-66 -22l119 -301h2l103 263c23 59 42 83 75 83c20 0 37 -11 46 -19l-8 -68h-7c-12 5 -23 9 -34 9c-17 0 -30 -14 -52 -63l-145 -331h-13l-176 427l-50 22v17z" />
    <glyph glyph-name="afii10050" unicode="&#x490;" horiz-adv-x="522" 
d="M43 626h319c75 0 93 22 116 103h22v-142h-276v-546l94 -24v-17h-275v17l84 24v544l-84 24v17z" />
    <glyph glyph-name="afii10098" unicode="&#x491;" horiz-adv-x="426" 
d="M37 452h251c65 0 72 3 91 81h23v-122h-208v-370l75 -24v-17h-232v17l72 24v370l-72 24v17z" />
    <glyph glyph-name="uni0492" unicode="&#x492;" horiz-adv-x="533" 
d="M224 585v-240h132v-36h-132v-268l94 -24v-17h-275v17l84 24v268h-64v36h64v240l-84 24v17h468v-136h-22c-24 76 -41 95 -116 95h-149z" />
    <glyph glyph-name="uni0493" unicode="&#x493;" horiz-adv-x="433" 
d="M37 452h371v-122h-23c-18 78 -25 81 -90 81h-101v-157h102v-35h-102v-178l75 -24v-17h-232v17l72 24v178h-65v35h65v157l-72 24v17z" />
    <glyph glyph-name="uni0496" unicode="&#x496;" horiz-adv-x="926" 
d="M39 626h210v-17l-66 -24l163 -237l71 -14v251l-70 24v17h232v-17l-69 -24v-251l70 14l163 237l-65 24v17h209v-17l-75 -24l-177 -220l219 -324l59 -24l-29 -169h-19l-32 152h-153v17l65 20l-176 274l-59 6v-276l67 -24v-17h-228v17l68 24v276l-60 -6l-176 -274l65 -20
v-17h-232v17l58 24l219 324l-177 220l-75 24v17z" />
    <glyph glyph-name="uni0497" unicode="&#x497;" horiz-adv-x="755" 
d="M283 452h188v-17l-53 -22v-167l69 12l112 158l-50 19v17h164v-17l-57 -24l-124 -145l160 -228l46 -21l-27 -154h-20l-26 137h-111v17l50 16l-129 191l-57 5v-190l52 -22v-17h-186v17l53 22v190l-58 -5l-127 -191l49 -16v-17h-184v17l46 21l159 228l-123 145l-57 24v17
h163v-17l-50 -19l113 -158l69 -12v167l-54 22v17z" />
    <glyph glyph-name="uni049A" unicode="&#x49a;" horiz-adv-x="681" 
d="M40 626h255v-17l-71 -24v-251l61 14l205 237l-68 24v17h212v-17l-75 -24l-218 -221l272 -323l59 -24l-29 -169h-19l-32 152h-154v17l62 20l-229 273l-47 7v-276l70 -24v-17h-254v17l87 24v544l-87 24v17z" />
    <glyph glyph-name="uni049B" unicode="&#x49b;" horiz-adv-x="562" 
d="M44 452h203v-17l-53 -24v-165l59 12l145 156l-53 21v17h175v-17l-58 -24l-158 -145l196 -228l46 -21l-26 -154h-20l-26 137h-119v17l49 16l-161 191l-49 5v-188l52 -24v-17h-202v17l65 24v370l-65 24v17z" />
    <glyph glyph-name="uni04A2" unicode="&#x4a2;" horiz-adv-x="779" 
d="M40 0v17l87 24v544l-87 24v17h267v-17l-83 -24v-235h331v235l-83 24v17h267v-17l-87 -24v-544l87 -24l-28 -169h-19l-32 152h-188v17l83 24v265h-331v-265l83 -24v-17h-267z" />
    <glyph glyph-name="uni04A3" unicode="&#x4a3;" horiz-adv-x="610" 
d="M37 452h218v-17l-61 -24v-155h222v155l-62 24v17h219v-17l-73 -24v-370l73 -24l-28 -154h-20l-26 137h-145v17l62 24v178h-222v-178l61 -24v-17h-218v17l72 24v370l-72 24v17z" />
    <glyph glyph-name="uni04AE" unicode="&#x4ae;" horiz-adv-x="610" 
d="M18 626h229v-17l-69 -24l162 -260l148 260l-76 24v17h180v-17l-47 -24l-190 -299v-245l85 -24v-17h-267v17l87 24v243l-187 301l-55 24v17z" />
    <glyph glyph-name="uni04AF" unicode="&#x4af;" horiz-adv-x="483" 
d="M5 452h206v-17l-67 -22l121 -304h2l114 304l-65 22v17h167v-17l-50 -22l-149 -344v-244l73 -24v-17h-230v17l72 24v237l-144 351l-50 22v17z" />
    <glyph glyph-name="uni04B0" unicode="&#x4b0;" horiz-adv-x="610" 
d="M18 626h229v-17l-69 -24l162 -260l148 260l-76 24v17h180v-17l-47 -24l-181 -284h102v-36h-111v-224l85 -24v-17h-267v17l87 24v224h-107v36h96l-176 284l-55 24v17z" />
    <glyph glyph-name="uni04B1" unicode="&#x4b1;" horiz-adv-x="483" 
d="M5 452h206v-17l-67 -22l121 -304h2l114 304l-65 22v17h167v-17l-50 -22l-145 -333h110v-35h-114v-220l73 -24v-17h-230v17l72 24v220h-114v35h106l-136 333l-50 22v17z" />
    <glyph glyph-name="uni04B2" unicode="&#x4b2;" horiz-adv-x="657" 
d="M35 626h254v-17l-64 -24l126 -198l131 198l-67 24v17h203v-17l-68 -24l-179 -227l210 -317l66 -24l-28 -169h-20l-32 152h-182v17l81 24l-161 248l-157 -248l77 -24v-17h-211v17l65 24l206 279l-175 265l-75 24v17z" />
    <glyph glyph-name="uni04B3" unicode="&#x4b3;" horiz-adv-x="514" 
d="M14 0v17l44 24l157 180l-139 192l-53 22v17h205v-17l-55 -22l100 -137l105 137l-48 22v17h153v-17l-47 -22l-145 -161l154 -213l61 -22l-28 -154h-19l-27 137h-145v17l59 22l-113 157l-114 -157l70 -22v-17h-175z" />
    <glyph glyph-name="uni04B6" unicode="&#x4b6;" horiz-adv-x="699" 
d="M28 626h259v-17l-75 -24v-141c0 -124 70 -138 139 -138c52 0 103 14 125 26v253l-80 24v17h264v-17l-88 -24v-544l88 -24l-29 -169h-19l-32 152h-192v17l88 24v254c-34 -13 -98 -32 -160 -32c-158 0 -201 62 -201 177v145l-87 24v17z" />
    <glyph glyph-name="uni04B7" unicode="&#x4b7;" horiz-adv-x="572" 
d="M31 452h209v-17l-53 -24v-77c0 -80 14 -117 89 -117c52 0 102 29 102 62v132l-57 24v17h213v-17l-72 -24v-370l72 -24l-28 -154h-19l-26 137h-149v17l66 24v190c-26 -27 -82 -58 -141 -58c-110 0 -134 55 -134 138v100l-72 24v17z" />
    <glyph glyph-name="uni04BA" unicode="&#x4ba;" horiz-adv-x="699" 
d="M671 0h-259v17l75 24v151c0 124 -70 138 -139 138c-52 0 -103 -14 -124 -26v-263l79 -24v-17h-263v17l87 24v544l-87 24v17h272v-17l-88 -24v-244c34 13 98 32 160 32c158 0 200 -62 200 -177v-155l87 -24v-17z" />
    <glyph glyph-name="uni04BB" unicode="&#x4bb;" horiz-adv-x="604" 
d="M44 0v17l70 24v595l-75 3v17l159 54v-350h2c20 29 89 106 184 106c90 0 121 -55 121 -141v-284l73 -24v-17h-220v17l63 24v264c0 59 -10 101 -73 101c-32 0 -67 -11 -104 -40c-32 -25 -46 -46 -46 -66v-259l64 -24v-17h-218z" />
    <glyph glyph-name="uni04C0" unicode="&#x4c0;" horiz-adv-x="351" 
d="M40 0v17l87 24v544l-87 24v17h271v-17l-87 -24v-544l87 -24v-17h-271z" />
    <glyph glyph-name="uni04CF" unicode="&#x4cf;" horiz-adv-x="351" 
d="M40 0v17l87 24v544l-87 24v17h271v-17l-87 -24v-544l87 -24v-17h-271z" />
    <glyph glyph-name="uni04D8" unicode="&#x4d8;" horiz-adv-x="630" 
d="M77 490l29 100c49 28 110 49 201 49c174 0 277 -116 277 -311c0 -192 -104 -342 -277 -342c-219 0 -261 202 -261 261l56 29h373c1 14 2 33 2 55c0 187 -88 274 -201 274c-87 0 -145 -71 -168 -115h-31zM472 237l-324 1c0 -84 29 -218 160 -218c102 0 154 105 164 217z
" />
    <glyph glyph-name="afii10846" unicode="&#x4d9;" horiz-adv-x="491" 
d="M59 350l23 80c34 19 79 36 151 36c128 0 213 -79 213 -217c0 -151 -84 -263 -223 -263c-145 0 -178 129 -178 205l47 24h258c1 10 1 25 1 35c0 110 -64 183 -140 183c-69 0 -106 -37 -129 -83h-23zM347 179l-215 1c0 -78 24 -162 104 -162c63 0 104 71 111 161z" />
    <glyph glyph-name="uni04E2" unicode="&#x4e2;" horiz-adv-x="779" 
d="M40 626h267v-17l-83 -24v-443l331 402v41l-83 24v17h267v-17l-87 -24v-544l87 -24v-17h-267v17l83 24v442l-331 -402v-40l83 -24v-17h-267v17l87 24v544l-87 24v17zM273 745v52h231v-52h-231z" />
    <glyph glyph-name="uni04E3" unicode="&#x4e3;" horiz-adv-x="610" 
d="M37 452h218v-17l-61 -24l-2 -276h4l220 240v36l-62 24v17h219v-17l-73 -24v-370l73 -24v-17h-219v17l62 24l2 279h-4l-220 -241v-38l61 -24v-17h-218v17l72 24v370l-72 24v17zM189 572v52h231v-52h-231z" />
    <glyph glyph-name="Obarredcyrillic" unicode="&#x4e8;" horiz-adv-x="748" 
d="M361 -14c-186 0 -315 122 -315 324c0 195 144 330 343 330c181 0 313 -116 313 -314c0 -209 -152 -340 -341 -340zM372 20c132 0 217 115 222 279h-440c5 -170 95 -279 218 -279zM373 606c-126 0 -211 -111 -219 -269h439c-7 164 -95 269 -220 269z" />
    <glyph glyph-name="obarredcyrillic" unicode="&#x4e9;" horiz-adv-x="551" 
d="M290 466c132 0 216 -79 216 -217c0 -156 -90 -263 -242 -263c-129 0 -219 78 -219 227c0 134 80 253 245 253zM410 253c-4 130 -53 181 -134 181c-87 0 -129 -76 -135 -181h269zM411 215h-271c1 -131 48 -197 135 -197c83 0 132 82 136 197z" />
    <glyph glyph-name="Umacroncyrillic" unicode="&#x4ee;" horiz-adv-x="605" 
d="M20 626h227v-17l-67 -24l169 -330h3l137 330l-74 24v17h178v-17l-47 -24l-179 -368c-51 -131 -99 -228 -146 -228c-28 0 -52 13 -69 31v9l28 64h5c14 -9 39 -18 59 -18c23 0 49 49 61 84l-231 426l-54 24v17zM203 719v58h248v-58h-248z" />
    <glyph glyph-name="umacroncyrillic" unicode="&#x4ef;" horiz-adv-x="499" 
d="M9 452h220v-17l-78 -22l134 -316l108 316l-70 22v17h176v-17l-51 -22l-163 -410c-58 -153 -106 -219 -149 -219c-27 0 -49 12 -65 29v9l23 52h5c14 -8 41 -17 56 -17c11 0 44 13 89 140l-185 416l-50 22v17zM147 572v52h231v-52h-231z" />
    <glyph glyph-name="Wgrave" unicode="&#x1e80;" horiz-adv-x="855" 
d="M15 626h228v-17l-70 -24l106 -420h2l166 460h15l170 -460h2l100 420l-77 24v17h186v-17l-53 -24l-174 -599h-14l-171 470h-1l-180 -470h-15l-162 599l-58 24v17zM467 672l-158 80l58 53l116 -120z" />
    <glyph glyph-name="wgrave" unicode="&#x1e81;" horiz-adv-x="695" 
d="M16 452h201v-17l-66 -22l78 -296h2l139 334h9l140 -327h2l71 289l-67 22v17h166v-17l-47 -22l-141 -427h-14l-138 325l-149 -325h-14l-123 427l-49 22v17zM382 508l-101 137l62 29l54 -159z" />
    <glyph glyph-name="Wacute" unicode="&#x1e82;" horiz-adv-x="855" 
d="M15 626h228v-17l-70 -24l106 -420h2l166 460h15l170 -460h2l100 420l-77 24v17h186v-17l-53 -24l-174 -599h-14l-171 470h-1l-180 -470h-15l-162 599l-58 24v17zM444 673l-16 12l144 119l54 -52z" />
    <glyph glyph-name="wacute" unicode="&#x1e83;" horiz-adv-x="695" 
d="M16 452h201v-17l-66 -22l78 -296h2l139 334h9l140 -327h2l71 289l-67 22v17h166v-17l-47 -22l-141 -427h-14l-138 325l-149 -325h-14l-123 427l-49 22v17zM370 508l-15 9l74 157l59 -34z" />
    <glyph glyph-name="Wdieresis" unicode="&#x1e84;" horiz-adv-x="855" 
d="M15 626h228v-17l-70 -24l106 -420h2l166 460h15l170 -460h2l100 420l-77 24v17h186v-17l-53 -24l-174 -599h-14l-171 470h-1l-180 -470h-15l-162 599l-58 24v17zM362 696c-27 0 -48 22 -48 48c0 27 21 48 48 48c26 0 47 -21 47 -48c0 -26 -21 -48 -47 -48zM569 696
c-27 0 -48 22 -48 48c0 27 21 48 48 48c26 0 48 -21 48 -48c0 -26 -22 -48 -48 -48z" />
    <glyph glyph-name="wdieresis" unicode="&#x1e85;" horiz-adv-x="695" 
d="M16 452h201v-17l-66 -22l78 -296h2l139 334h9l140 -327h2l71 289l-67 22v17h166v-17l-47 -22l-141 -427h-14l-138 325l-149 -325h-14l-123 427l-49 22v17zM279 565c-26 0 -46 21 -46 46c0 26 20 47 46 47s46 -21 46 -47c0 -25 -20 -46 -46 -46zM463 565
c-26 0 -46 21 -46 46c0 26 20 47 46 47c25 0 46 -21 46 -47c0 -25 -21 -46 -46 -46z" />
    <glyph glyph-name="Ygrave" unicode="&#x1ef2;" horiz-adv-x="610" 
d="M18 626h229v-17l-69 -24l162 -260l148 260l-76 24v17h180v-17l-47 -24l-190 -299v-245l85 -24v-17h-267v17l87 24v243l-187 301l-55 24v17zM347 672l-158 80l58 53l116 -120z" />
    <glyph glyph-name="ygrave" unicode="&#x1ef3;" horiz-adv-x="499" 
d="M446 413l-167 -427c-50 -123 -93 -202 -164 -202c-24 0 -47 6 -60 16v102h19c9 -40 32 -52 58 -52c39 0 82 52 110 151l-181 412l-48 22v17h210v-17l-70 -22l132 -316l106 316l-62 22v17h164v-17zM278 508l-101 137l62 29l54 -159z" />
    <glyph glyph-name="endash" unicode="&#x2013;" horiz-adv-x="500" 
d="M0 210v58h500v-58h-500z" />
    <glyph glyph-name="emdash" unicode="&#x2014;" horiz-adv-x="1000" 
d="M100 210v58h800v-58h-800z" />
    <glyph glyph-name="afii00208" unicode="&#x2015;" horiz-adv-x="1000" 
d="M200 210v57h600v-57h-600z" />
    <glyph glyph-name="quoteleft" unicode="&#x2018;" horiz-adv-x="184" 
d="M129 657l20 -9c-39 -58 -47 -106 -47 -135c0 -10 33 -47 47 -62l-50 -32c-20 6 -68 39 -68 81c0 46 44 106 98 157z" />
    <glyph glyph-name="commaaccent" horiz-adv-x="260" 
d="M110 -221l-20 8c27 35 38 59 38 87c0 22 -18 43 -44 60l46 29c20 -4 61 -29 61 -66c0 -36 -35 -83 -81 -118z" />
    <glyph glyph-name="quotesinglbase" unicode="&#x201a;" horiz-adv-x="222" 
d="M74 -140l-20 8c39 58 47 107 47 135c0 10 -33 47 -47 63l50 31c20 -6 68 -39 68 -80c0 -47 -44 -107 -98 -157z" />
    <glyph glyph-name="quotedblleft" unicode="&#x201c;" horiz-adv-x="358" 
d="M129 657l20 -9c-39 -58 -47 -106 -47 -135c0 -10 33 -47 47 -62l-50 -32c-20 6 -68 39 -68 81c0 46 44 106 98 157zM304 657l20 -9c-39 -58 -47 -106 -47 -135c0 -10 33 -47 47 -62l-50 -32c-20 6 -68 39 -68 81c0 46 44 106 98 157z" />
    <glyph glyph-name="quotedblright" unicode="&#x201d;" horiz-adv-x="358" 
d="M55 419l-20 9c38 58 46 106 46 134c0 11 -32 47 -47 63l51 32c20 -6 68 -40 68 -81c0 -46 -45 -107 -98 -157zM230 419l-20 9c38 58 46 106 46 134c0 11 -32 47 -47 63l51 32c20 -6 68 -40 68 -81c0 -46 -45 -107 -98 -157z" />
    <glyph glyph-name="quotedblbase" unicode="&#x201e;" horiz-adv-x="397" 
d="M74 -140l-20 8c39 58 47 107 47 135c0 10 -33 47 -47 63l50 31c20 -6 68 -39 68 -80c0 -47 -44 -107 -98 -157zM249 -140l-20 8c39 58 47 107 47 135c0 10 -33 47 -47 63l50 31c20 -6 68 -39 68 -80c0 -47 -44 -107 -98 -157z" />
    <glyph glyph-name="dagger" unicode="&#x2020;" horiz-adv-x="498" 
d="M283 -66h-68c2 59 9 189 9 238v229c-47 -2 -119 -6 -154 -9v63c35 -3 107 -7 154 -10c-2 45 -5 144 -9 181h68c-3 -37 -7 -136 -8 -181c46 3 119 7 153 10v-63c-34 3 -107 7 -153 9v-229c0 -49 7 -179 8 -238z" />
    <glyph glyph-name="daggerdbl" unicode="&#x2021;" horiz-adv-x="498" 
d="M283 -66h-68c4 37 7 136 9 180c-47 -3 -119 -7 -154 -10v63c35 -3 107 -7 154 -10v246c-47 -3 -119 -7 -154 -10v63c35 -3 107 -7 154 -10c-2 45 -5 143 -9 180h68c-3 -37 -7 -135 -8 -180c46 3 119 7 153 10v-63c-34 3 -107 7 -153 10v-246c46 3 119 7 153 10v-63
c-34 3 -107 7 -153 10c1 -44 5 -143 8 -180z" />
    <glyph glyph-name="bullet" unicode="&#x2022;" horiz-adv-x="430" 
d="M214 161c-84 0 -153 68 -153 151c0 84 69 153 153 153c83 0 152 -69 152 -153c0 -83 -69 -151 -152 -151z" />
    <glyph glyph-name="onedotenleader" unicode="&#x2024;" horiz-adv-x="249" 
d="M125 -14c-31 0 -57 25 -57 56s26 57 57 57s56 -26 56 -57s-25 -56 -56 -56z" />
    <glyph glyph-name="twodotenleader" unicode="&#x2025;" horiz-adv-x="498" 
d="M125 -14c-31 0 -57 25 -57 56s26 57 57 57s56 -26 56 -57s-25 -56 -56 -56zM374 -14c-31 0 -56 25 -56 56s25 57 56 57s56 -26 56 -57s-25 -56 -56 -56z" />
    <glyph glyph-name="ellipsis" unicode="&#x2026;" horiz-adv-x="936" 
d="M127 -9c-32 0 -59 27 -59 59s27 60 59 60s59 -28 59 -60s-27 -59 -59 -59zM467 -9c-31 0 -59 27 -59 59s28 60 59 60c33 0 60 -28 60 -60s-27 -59 -60 -59zM809 -9c-33 0 -59 27 -59 59s26 60 59 60c31 0 59 -28 59 -60s-28 -59 -59 -59z" />
    <glyph glyph-name="perthousand" unicode="&#x2030;" horiz-adv-x="1166" 
d="M590 620h46l-396 -620h-46zM230 620c90 0 137 -61 137 -176c0 -105 -50 -182 -144 -182c-96 0 -142 58 -142 175c0 105 51 183 149 183zM223 595c-49 0 -71 -63 -71 -154c0 -94 23 -154 74 -154c48 0 70 50 70 151c0 108 -24 157 -73 157zM607 349c90 0 137 -61 137 -176
c0 -105 -49 -182 -143 -182c-97 0 -142 58 -142 175c0 105 50 183 148 183zM601 324c-50 0 -72 -63 -72 -154c0 -94 24 -154 75 -154c48 0 70 50 70 151c0 108 -24 157 -73 157zM948 349c90 0 137 -61 137 -176c0 -105 -50 -182 -144 -182c-96 0 -142 58 -142 175
c0 105 51 183 149 183zM941 324c-49 0 -71 -63 -71 -154c0 -94 23 -154 74 -154c48 0 70 50 70 151c0 108 -24 157 -73 157z" />
    <glyph glyph-name="guilsinglleft" unicode="&#x2039;" horiz-adv-x="289" 
d="M233 43l-186 183l186 183l18 -14l-126 -169l125 -169z" />
    <glyph glyph-name="guilsinglright" unicode="&#x203a;" horiz-adv-x="289" 
d="M56 43l-17 14l125 169l-126 169l18 14l186 -183z" />
    <glyph glyph-name="interrobang" unicode="&#x203d;" horiz-adv-x="469" 
d="M196 175h-17c-13 56 -31 180 -31 235v24c0 22 5 47 39 47c35 0 37 -25 37 -47v-24c0 -24 -3 -58 -7 -93c58 34 113 81 113 163c0 66 -41 116 -115 116s-114 -57 -127 -105h-21v100c42 17 111 35 180 35c104 0 174 -52 174 -131c0 -105 -98 -140 -152 -176
c-31 -21 -51 -35 -59 -56c-5 -31 -10 -67 -14 -88zM197 -14c-31 0 -56 25 -56 56s25 57 56 57s56 -26 56 -57s-25 -56 -56 -56z" />
    <glyph glyph-name="fraction" unicode="&#x2044;" horiz-adv-x="100" 
d="M-140 -21l335 654h46l-335 -654h-46z" />
    <glyph glyph-name="colonmonetary" unicode="&#x20a1;" horiz-adv-x="646" 
d="M391 671h37l-17 -65c22 -1 42 -4 62 -7l19 72h38l-22 -80c21 -6 39 -12 53 -19v-117h-23c-7 37 -18 67 -45 86l-144 -516c6 -1 12 -1 19 -1c124 0 163 62 189 143h23l-13 -135c-41 -19 -105 -41 -228 -42l-23 -85h-37l24 87c-22 2 -42 6 -61 11l-27 -98h-38l31 111
c-97 45 -154 144 -154 268c0 194 121 319 319 323zM364 573c-131 -6 -208 -115 -208 -285c0 -87 25 -159 71 -205zM401 572l-144 -516c17 -11 36 -20 57 -25l148 529c-17 7 -38 10 -61 12z" />
    <glyph glyph-name="franc" unicode="&#x20a3;" horiz-adv-x="504" 
d="M44 609h421v-125h-22c-23 75 -40 87 -116 87h-115v-227l149 4l24 71h19v-187h-19l-24 72l-149 4v-129h137v-34h-137v-104l93 -24v-17h-261v17l78 24v104h-78v34h78v389l-78 24v17z" />
    <glyph glyph-name="lira" unicode="&#x20a4;" horiz-adv-x="504" 
d="M31 276h104c-1 24 -3 47 -5 70h-99v38h96c-1 18 -2 36 -2 57c0 111 75 191 187 191c47 0 82 -11 106 -26v-89h-21c-17 51 -44 86 -100 86c-42 0 -90 -32 -90 -134c0 -33 2 -61 6 -85h135v-38h-129c3 -21 6 -40 6 -58c0 -4 0 -8 -1 -12h124v-37h-131
c-20 -66 -75 -129 -113 -168l8 -7c45 28 80 34 115 34c53 0 94 -33 135 -33c45 0 69 33 82 100h22v-126c-39 -39 -84 -53 -125 -53c-67 0 -100 41 -176 41c-55 0 -92 -23 -127 -61l-21 21c42 46 112 126 117 252h-103v37z" />
    <glyph glyph-name="peseta" unicode="&#x20a7;" horiz-adv-x="504" 
d="M31 609h229c132 0 191 -36 194 -156h37v-30h-39c-13 -97 -72 -157 -181 -157c-18 0 -37 2 -50 5l-7 23c22 -1 50 -3 84 7c51 17 63 71 65 122h-170v-382l94 -24v-17h-256v17l71 24v382h-71v30h71v115l-71 24v17zM193 572v-119h171c-2 69 -25 127 -117 127
c-16 0 -41 -5 -54 -8z" />
    <glyph glyph-name="Euro" unicode="&#x20ac;" horiz-adv-x="504" 
d="M476 156l-9 -122c-45 -33 -91 -48 -158 -48c-144 0 -205 110 -221 249h-68l10 38h55v23c0 18 0 31 2 49h-67l10 38h62c22 129 108 235 244 235c55 0 89 -8 123 -27v-98h-20c-22 78 -59 96 -107 96c-87 0 -134 -94 -148 -206h204l-9 -38h-198c-2 -17 -2 -29 -2 -45
c0 -9 1 -18 1 -27h186l-10 -38h-175c9 -106 51 -219 143 -219c67 0 99 27 130 140h22z" />
    <glyph glyph-name="uni20B9" unicode="&#x20b9;" horiz-adv-x="504" 
d="M49 572l16 39h404l-16 -39h-124c29 -20 49 -47 56 -86h84l-16 -39h-65c-6 -78 -81 -139 -204 -154l137 -167c64 -79 114 -108 150 -109v-17c-8 -1 -36 -2 -64 -2c-81 0 -122 31 -177 99l-152 186v32c140 3 207 29 209 132h-238l16 39h218c-10 60 -52 86 -149 86h-85z" />
    <glyph glyph-name="uni20BA" unicode="&#x20ba;" horiz-adv-x="504" 
d="M36 373l86 30v166l-88 24v17h271v-17l-87 -24v-133l177 63v-40l-177 -63v-71l177 63v-40l-177 -63v-243c165 0 214 102 228 225h22v-134c-24 -61 -96 -133 -318 -133h-116v17l88 24v211l-86 -29v40l86 29v71l-86 -30v40z" />
    <glyph glyph-name="afii61248" unicode="&#x2105;" horiz-adv-x="843" 
d="M343 386l-20 -77c-25 -13 -63 -25 -110 -25c-105 0 -170 58 -170 162c0 89 62 162 179 162c50 0 77 -11 97 -20v-71h-25c-15 40 -32 63 -72 63c-64 0 -93 -51 -93 -130c0 -83 39 -137 100 -137c42 0 70 25 92 73h22zM262 -14l264 654h45l-264 -654h-45zM620 -10
c-100 0 -162 54 -162 154c0 91 55 170 182 170c101 0 159 -53 159 -147c0 -105 -64 -177 -179 -177zM543 150c0 -92 27 -132 85 -132s86 54 86 135c0 99 -29 132 -84 132c-64 0 -87 -56 -87 -135z" />
    <glyph glyph-name="afii61289" unicode="&#x2113;" horiz-adv-x="390" 
d="M355 108l18 -16c-38 -52 -111 -104 -149 -104c-47 0 -82 11 -103 35c-22 26 -35 59 -35 136v71l-58 -41l-11 23l68 53v117c0 149 13 204 50 247c24 29 53 45 84 45c59 0 86 -59 86 -124c0 -108 -59 -192 -141 -271v-84c0 -120 29 -151 83 -151c29 0 77 29 108 64z
M164 438v-117c52 62 91 144 91 229c0 51 -14 94 -44 94c-36 0 -47 -57 -47 -206z" />
    <glyph glyph-name="afii61352" unicode="&#x2116;" horiz-adv-x="980" 
d="M33 626h171l296 -465l2 2l-12 422l-78 24v17h203v-17l-68 -24l-14 -598h-20l-348 547l-2 -2l12 -491l81 -24v-17h-218v17l80 24l9 538l-94 30v17zM789 585c84 0 137 -60 137 -166c0 -97 -56 -172 -144 -172c-91 0 -142 56 -142 165c0 97 56 173 149 173zM782 560
c-49 0 -72 -63 -72 -144c0 -84 24 -144 75 -144c48 0 70 56 70 141c0 98 -24 147 -73 147zM647 143v41h277v-41h-277z" />
    <glyph glyph-name="trademark" unicode="&#x2122;" horiz-adv-x="585" 
d="M268 626h61l76 -132c25 46 51 86 76 132h63v-17l-38 -8l9 -149c10 -2 24 -6 35 -8v-17h-95v17l26 8c-2 41 -5 73 -7 115c-23 -44 -52 -90 -74 -132l-75 131l-3 -114c9 -2 17 -6 26 -8v-17h-89v17l32 8c4 49 9 99 14 148c-11 2 -27 6 -37 9v17zM35 626h192v-65h-18
c-6 33 -9 40 -29 40h-29v-149l32 -8v-17h-102v17l33 8v149h-31c-19 0 -23 -7 -29 -40h-19v65z" />
    <glyph glyph-name="estimated" unicode="&#x212e;" horiz-adv-x="830" 
d="M723 303h-537c-3 0 -5 -1 -5 -4v-163c0 -8 3 -15 7 -21c48 -58 113 -97 199 -97c88 0 144 31 198 95h79c-65 -76 -161 -126 -278 -126c-200 0 -337 145 -337 325c0 181 137 327 337 327c201 0 337 -146 337 -327v-9zM593 344v154c0 8 -3 18 -9 23c-53 54 -123 86 -197 86
c-76 0 -145 -32 -198 -88c-5 -6 -8 -16 -8 -25v-150c0 -2 2 -6 5 -6h403c3 0 4 4 4 6z" />
    <glyph glyph-name="onethird" unicode="&#x2153;" horiz-adv-x="788" 
d="M94 278v14l66 20v256l-93 6v15l159 30v-307l66 -20v-14h-198zM212 -21l335 654h46l-335 -654h-46zM512 256v66c27 8 65 17 111 17c68 0 106 -23 106 -66c0 -48 -44 -73 -85 -85v-2c45 -4 101 -21 101 -84c0 -65 -58 -110 -145 -110c-47 0 -78 10 -107 21v77h20
c14 -46 40 -75 81 -75c42 0 80 24 80 75c0 42 -29 71 -79 71c-7 0 -19 -1 -26 -2l2 19c39 7 88 24 88 81c0 41 -29 58 -58 58c-40 0 -58 -26 -69 -61h-20z" />
    <glyph glyph-name="twothirds" unicode="&#x2154;" horiz-adv-x="771" 
d="M27 278v16c49 50 176 155 176 236c0 41 -27 63 -60 63c-43 0 -64 -29 -77 -72h-19v76c24 7 73 20 119 20c67 0 108 -24 108 -81c0 -77 -102 -126 -172 -202v-2h152l19 45h13v-99h-259zM199 -21l335 654h46l-335 -654h-46zM494 256v66c27 8 65 17 111 17
c68 0 106 -23 106 -66c0 -48 -44 -73 -85 -85v-2c45 -4 101 -21 101 -84c0 -65 -58 -110 -145 -110c-47 0 -78 10 -107 21v77h20c14 -46 40 -75 81 -75c42 0 80 24 80 75c0 42 -29 71 -79 71c-7 0 -19 -1 -26 -2l2 19c39 7 88 24 88 81c0 41 -29 58 -58 58
c-40 0 -58 -26 -69 -61h-20z" />
    <glyph glyph-name="oneeighth" unicode="&#x215b;" horiz-adv-x="786" 
d="M205 -21l307 654h46l-307 -654h-46zM597 -8c-83 0 -138 34 -138 100s53 92 104 98v3c-48 4 -86 28 -86 75c0 53 49 85 130 85c75 0 121 -25 121 -76c0 -48 -41 -78 -87 -84v-3c52 -4 103 -21 103 -86c0 -63 -56 -112 -147 -112zM552 271c0 -44 18 -66 50 -66s50 22 50 69
c0 36 -16 56 -50 56c-33 0 -50 -24 -50 -59zM537 97c0 -46 23 -81 65 -81c39 0 64 31 64 81c0 52 -18 81 -64 81c-45 0 -65 -29 -65 -81zM75 278v14l66 20v256l-93 6v15l159 30v-307l66 -20v-14h-198z" />
    <glyph glyph-name="threeeighths" unicode="&#x215c;" horiz-adv-x="783" 
d="M203 -21l307 654h47l-308 -654h-46zM594 -8c-82 0 -138 34 -138 100s53 92 104 98v3c-48 4 -86 28 -86 75c0 53 49 85 130 85c76 0 121 -25 121 -76c0 -48 -41 -78 -86 -84v-3c51 -4 102 -21 102 -86c0 -63 -56 -112 -147 -112zM549 271c0 -44 18 -66 50 -66
c33 0 51 22 51 69c0 36 -16 56 -50 56s-51 -24 -51 -59zM534 97c0 -46 24 -81 65 -81c40 0 65 31 65 81c0 52 -19 81 -65 81c-45 0 -65 -29 -65 -81zM60 537v66c28 8 65 17 111 17c68 0 109 -23 109 -66c0 -49 -48 -73 -89 -85v-2c46 -3 105 -21 105 -84
c0 -65 -61 -110 -148 -110c-48 0 -78 10 -106 21v77h19c14 -46 41 -75 82 -75s78 24 78 75c0 42 -28 71 -78 71c-6 0 -17 -1 -23 -2l-5 18c40 7 91 25 91 82c0 42 -28 58 -57 58c-39 0 -58 -26 -69 -61h-20z" />
    <glyph glyph-name="fiveeighths" unicode="&#x215d;" horiz-adv-x="805" 
d="M225 -21l307 654h46l-307 -654h-46zM616 -8c-82 0 -138 34 -138 100s53 92 104 98v3c-48 4 -86 28 -86 75c0 53 49 85 130 85c76 0 121 -25 121 -76c0 -48 -41 -78 -87 -84v-3c52 -4 103 -21 103 -86c0 -63 -56 -112 -147 -112zM571 271c0 -44 18 -66 50 -66s50 22 50 69
c0 36 -16 56 -50 56c-33 0 -50 -24 -50 -59zM556 97c0 -46 23 -81 65 -81c39 0 64 31 64 81c0 52 -18 81 -64 81c-45 0 -65 -29 -65 -81zM126 564l-24 -89c22 10 51 20 87 20c84 0 127 -42 127 -105c0 -74 -64 -125 -157 -125c-46 0 -78 10 -101 22v77h19
c13 -44 39 -75 83 -75c42 0 77 29 77 81c0 53 -31 78 -80 78c-33 0 -55 -12 -71 -21l-11 4l26 190h182v-57h-157z" />
    <glyph glyph-name="seveneighths" unicode="&#x215e;" horiz-adv-x="756" 
d="M164 -21l307 654h47l-307 -654h-47zM567 -8c-82 0 -138 34 -138 100s53 92 104 98v3c-48 4 -86 28 -86 75c0 53 49 85 130 85c76 0 121 -25 121 -76c0 -48 -41 -78 -87 -84v-3c52 -4 103 -21 103 -86c0 -63 -56 -112 -147 -112zM522 271c0 -44 18 -66 50 -66s50 22 50 69
c0 36 -16 56 -49 56c-34 0 -51 -24 -51 -59zM507 97c0 -46 23 -81 65 -81c39 0 64 31 64 81c0 52 -18 81 -64 81c-45 0 -65 -29 -65 -81zM139 263l-56 10l182 283h-183l-19 -56h-15v120h280v-6z" />
    <glyph glyph-name="arrowleft" unicode="&#x2190;" horiz-adv-x="549" 
d="M44 237l210 185l30 -31l-157 -132h356v-43h-357l158 -134l-30 -30z" />
    <glyph glyph-name="arrowup" unicode="&#x2191;" horiz-adv-x="496" 
d="M63 258l185 210l185 -210l-30 -29l-132 156v-385h-47v383l-130 -154z" />
    <glyph glyph-name="arrowright" unicode="&#x2192;" horiz-adv-x="549" 
d="M292 422l210 -185l-210 -185l-30 30l158 134h-358v43h357l-157 132z" />
    <glyph glyph-name="arrowdown" unicode="&#x2193;" horiz-adv-x="496" 
d="M248 -10l-185 210l31 30l130 -155v383h47v-384l132 156l30 -30z" />
    <glyph glyph-name="partialdiff" unicode="&#x2202;" horiz-adv-x="469" 
d="M278 403c43 0 70 -15 85 -28l5 5c5 30 8 86 8 129c0 81 -33 132 -99 132c-29 0 -68 -11 -112 -38l-7 6l35 70c18 9 36 15 56 16c98 3 194 -109 194 -294c0 -199 -82 -415 -272 -415c-94 0 -139 62 -139 146c0 113 85 271 246 271zM286 376c-110 0 -171 -169 -171 -259
c0 -49 11 -104 69 -104c105 0 178 212 178 304c0 21 -27 59 -76 59z" />
    <glyph glyph-name="product" unicode="&#x220f;" horiz-adv-x="741" 
d="M53 626h635v-17l-84 -24v-621l84 -24v-17h-255v17l76 24v621h-277v-621l77 -24v-17h-256v17l84 24v621l-84 24v17z" />
    <glyph glyph-name="summation" unicode="&#x2211;" horiz-adv-x="536" 
d="M17 -77v17l204 315l-175 354v17h414v-140h-21c-32 95 -44 102 -117 102h-162l137 -275l-180 -315h239c79 0 97 7 125 117h21v-192h-485z" />
    <glyph glyph-name="minus" unicode="&#x2212;" horiz-adv-x="618" 
d="M74 208v56h470v-56h-470z" />
    <glyph glyph-name="uni2215" unicode="&#x2215;" horiz-adv-x="100" 
d="M-140 -21l335 654h46l-335 -654h-46z" />
    <glyph glyph-name="uni2219" unicode="&#x2219;" horiz-adv-x="258" 
d="M129 190c-34 0 -61 27 -61 60c0 34 27 61 61 61c33 0 60 -27 60 -61c0 -33 -27 -60 -60 -60z" />
    <glyph glyph-name="radical" unicode="&#x221a;" horiz-adv-x="524" 
d="M19 316l122 78l125 -324h2l189 700h56l-264 -866h-7l-155 405l-67 -12z" />
    <glyph glyph-name="infinity" unicode="&#x221e;" horiz-adv-x="702" 
d="M44 257c0 86 62 147 145 147c67 0 118 -47 166 -104c43 48 88 104 166 104s134 -58 134 -142v-1c0 -92 -68 -148 -140 -148c-54 0 -102 30 -164 105c-47 -55 -96 -105 -169 -105c-74 0 -138 61 -138 144zM188 164h2c53 0 97 52 133 91c-39 49 -78 99 -140 99
c-52 0 -86 -43 -85 -97c0 -53 38 -93 90 -93zM515 354h-1c-57 0 -103 -62 -134 -94c58 -67 91 -96 138 -96c53 0 84 48 84 93c0 61 -37 97 -87 97z" />
    <glyph glyph-name="integral" unicode="&#x222b;" horiz-adv-x="350" 
d="M274 772c25 0 57 -14 57 -43c0 -27 -20 -41 -40 -41c-15 0 -27 44 -50 44c-19 0 -43 -28 -38 -154l17 -353c16 -331 -61 -406 -143 -406c-34 0 -57 20 -57 44c-1 23 23 42 47 42c11 0 25 -46 46 -46c28 0 43 61 38 154l-19 375c-15 317 65 384 142 384z" />
    <glyph glyph-name="approxequal" unicode="&#x2248;" horiz-adv-x="618" 
d="M66 259c30 55 91 107 149 107c56 0 147 -75 202 -75c69 0 95 75 95 75l40 -30c-26 -54 -80 -104 -135 -104c-63 0 -161 75 -206 75c-70 0 -103 -77 -103 -77zM66 103c30 55 91 107 149 107c56 0 147 -75 202 -75c69 0 95 76 95 76l40 -31c-26 -53 -80 -104 -135 -104
c-63 0 -161 76 -206 76c-70 0 -103 -78 -103 -78z" />
    <glyph glyph-name="notequal" unicode="&#x2260;" horiz-adv-x="618" 
d="M74 282v55h277l71 122l47 -26l-55 -96h130v-55h-162l-59 -103h221v-54h-252l-70 -121l-46 26l54 95h-156v54h187l59 103h-246z" />
    <glyph glyph-name="lessequal" unicode="&#x2264;" horiz-adv-x="618" 
d="M101 349l408 189v-63l-332 -152l332 -150v-63l-408 188v51zM74 0v56h470v-56h-470z" />
    <glyph glyph-name="greaterequal" unicode="&#x2265;" horiz-adv-x="618" 
d="M107 538l408 -189v-51l-408 -188v63l333 150l-333 152v63zM72 56h471v-56h-471v56z" />
    <glyph glyph-name="fisheye" unicode="&#x25c9;" horiz-adv-x="416" 
d="M54 230c0 85 68 157 154 157s154 -72 154 -157c0 -86 -68 -158 -154 -158s-154 72 -154 158zM93 230c0 -64 51 -119 115 -119s116 55 116 119s-52 118 -116 118s-115 -54 -115 -118zM140 230c0 -39 30 -72 68 -72s68 33 68 72c0 38 -30 71 -68 71s-68 -33 -68 -71z" />
    <glyph glyph-name="lozenge" unicode="&#x25ca;" horiz-adv-x="610" 
d="M97 316l194 386h28l194 -384l-194 -388h-28zM162 316l143 -293c-2 2 143 295 143 293s-145 291 -143 293z" />
    <glyph glyph-name="checkmark" unicode="&#x2713;" horiz-adv-x="591" 
d="M94 330l31 55l13 1c41 -48 92 -218 101 -291l9 -3l245 525l54 31l10 -5l-344 -671l-18 -4c-5 120 -49 271 -101 362z" />
    <glyph glyph-name="D_Zcaron" horiz-adv-x="1329" 
d="M40 0v17l87 24v544l-87 24v17h269c185 0 354 -54 354 -295c0 -233 -160 -331 -369 -331h-254zM224 588v-547c25 -5 54 -7 74 -7c166 0 258 97 258 291c0 180 -80 269 -257 269c-12 0 -49 -1 -75 -6zM783 626h488v-19l-401 -566h223c116 0 144 10 171 130h22v-171h-546v17
l408 573l-191 -1c-110 0 -127 -12 -153 -99h-21v136zM907 800l17 6l103 -60l102 60l17 -6l-106 -125h-26z" />
    <glyph glyph-name="D_zcaron" horiz-adv-x="1175" 
d="M40 0v17l87 24v544l-87 24v17h269c185 0 354 -54 354 -295c0 -233 -160 -331 -369 -331h-254zM224 588v-547c25 -5 54 -7 74 -7c166 0 258 97 258 291c0 180 -80 269 -257 269c-12 0 -49 -1 -75 -6zM737 0v16l293 398h-137c-58 0 -84 -10 -101 -79h-23v117h371v-19
l-289 -393l163 -1c64 0 78 3 104 99h22v-138h-403zM943 512l-87 159l16 5l83 -94l83 94l16 -5l-87 -159h-24z" />
    <glyph glyph-name="L_J" unicode="&#x1c7;" horiz-adv-x="1007" 
d="M40 0v17l87 24v544l-87 24v17h270v-17l-86 -24v-543h148c91 0 116 26 137 132h22v-174h-491zM897 585v-393c0 -116 -47 -206 -182 -206c-51 0 -98 12 -130 27v123h22c28 -86 56 -120 107 -120c66 0 87 63 87 169v400l-89 24v17h264v-17z" />
    <glyph glyph-name="L_j" unicode="&#x1c8;" horiz-adv-x="869" 
d="M40 0v17l87 24v544l-87 24v17h270v-17l-86 -24v-543h148c91 0 116 26 137 132h22v-174h-491zM777 466v-453c0 -143 -50 -229 -164 -229c-47 0 -81 17 -96 25l1 99h20c12 -54 35 -96 80 -96c56 0 75 58 75 173v406l-81 3v17zM682 616c0 27 21 49 49 49c27 0 50 -22 50 -49
c0 -28 -23 -50 -50 -50c-28 0 -49 22 -49 50z" />
    <glyph glyph-name="N_J" unicode="&#x1ca;" horiz-adv-x="1198" 
d="M33 626h173l390 -473l2 2l-12 430l-82 24v17h207v-17l-68 -24l-14 -598h-20l-444 547l-2 -2l12 -491l85 -24v-17h-222v17l80 24l9 538l-94 30v17zM1087 585v-393c0 -116 -47 -206 -182 -206c-51 0 -98 12 -130 27v123h22c28 -86 56 -120 107 -120c66 0 87 63 87 169v400
l-89 24v17h264v-17z" />
    <glyph glyph-name="N_j" unicode="&#x1cb;" horiz-adv-x="1042" 
d="M33 626h173l390 -473l2 2l-12 430l-82 24v17h207v-17l-68 -24l-14 -598h-20l-444 547l-2 -2l12 -491l85 -24v-17h-222v17l80 24l9 538l-94 30v17zM950 466v-453c0 -143 -50 -229 -164 -229c-47 0 -81 17 -96 25l1 99h20c12 -54 35 -96 80 -96c56 0 75 58 75 173v406
l-81 3v17zM855 616c0 27 21 49 49 49c27 0 50 -22 50 -49c0 -28 -23 -50 -50 -50c-28 0 -49 22 -49 50z" />
    <glyph glyph-name="R_p" horiz-adv-x="1043" 
d="M535 -216v17l81 24v172h-20c-82 0 -132 35 -188 102l-134 159h-52v-217l80 -24v-17h-267v17l91 24v504l-91 24v17h264c164 0 217 -58 217 -149c0 -98 -92 -138 -152 -156l156 -178c40 -45 72 -69 96 -79v322l-75 2v17l159 55v-115h2c22 36 64 115 155 115
c114 0 143 -109 143 -206c0 -143 -91 -228 -203 -228c-42 0 -71 7 -97 35v-196l100 -24v-17h-265zM222 549v-264c121 3 193 33 193 144c0 86 -43 128 -128 128c-21 0 -39 -3 -65 -8zM699 135c0 -88 44 -116 91 -116c70 0 117 52 117 188c0 97 -28 155 -87 155
c-67 0 -102 -59 -114 -131c-5 -25 -7 -62 -7 -96z" />
    <glyph glyph-name="c_h" horiz-adv-x="1034" 
d="M443 121l-25 -101c-33 -21 -88 -34 -149 -34c-142 0 -223 95 -223 240c0 119 78 240 234 240c66 0 114 -16 136 -27v-97h-25c-22 63 -50 91 -109 91c-91 0 -141 -91 -141 -199c0 -116 56 -212 147 -212c57 0 102 20 134 99h21zM477 0v17l70 24v595l-75 3v17l159 54v-350
h2c20 29 89 106 184 106c90 0 121 -55 121 -141v-284l73 -24v-17h-220v17l63 24v264c0 59 -10 101 -73 101c-32 0 -67 -11 -104 -40c-32 -25 -46 -46 -46 -66v-259l64 -24v-17h-218z" />
    <glyph glyph-name="c_k" horiz-adv-x="991" 
d="M443 121l-25 -101c-33 -21 -88 -34 -149 -34c-142 0 -223 95 -223 240c0 119 78 240 234 240c66 0 114 -16 136 -27v-97h-25c-22 63 -50 91 -109 91c-91 0 -141 -91 -141 -199c0 -116 56 -212 147 -212c57 0 102 20 134 99h21zM463 656l160 54v-474l182 175l-60 24v17
h199v-17l-75 -24l-150 -128l210 -242l53 -24v-17h-200v17l48 19l-169 196l-38 -30v-161l64 -24v-17h-218v17l70 24v595l-76 3v17z" />
    <glyph glyph-name="c_t" horiz-adv-x="838" 
d="M839 77l-51 -72c-18 -10 -52 -19 -78 -19c-116 0 -127 84 -127 234v171h-70v17l80 35c21 34 42 86 47 124c-9 39 -65 86 -149 86c-104 0 -157 -57 -157 -113c0 -31 12 -65 35 -85c21 -5 36 -12 46 -16v-97h-25c-22 61 -49 91 -109 91c-90 0 -140 -91 -140 -199
c0 -116 56 -212 147 -212c57 0 102 27 134 107h21l-25 -107c-33 -21 -88 -36 -149 -36c-142 0 -223 95 -223 240c0 119 78 240 234 240c17 0 33 -1 47 -3c-15 22 -25 47 -25 80c0 79 58 166 194 166c125 0 171 -89 171 -154v-114h134v-50h-134v-216c0 -73 11 -130 70 -130
c31 0 66 16 91 44z" />
    <glyph glyph-name="d_z" horiz-adv-x="1013" 
d="M293 656l165 54v-659l75 -2v-17l-160 -46v86h-2c-36 -50 -85 -86 -147 -86c-101 0 -179 84 -179 225c0 150 89 255 228 255c41 0 76 -7 100 -17v187l-80 3v17zM137 233c0 -126 53 -189 127 -189c45 0 93 28 105 86c5 24 5 94 5 139c0 33 1 87 -6 107
c-10 32 -48 57 -96 57c-81 0 -135 -75 -135 -200zM575 0v16l293 398h-137c-58 0 -84 -10 -101 -79h-23v117h371v-19l-289 -393l163 -1c64 0 78 3 104 99h22v-138h-403z" />
    <glyph glyph-name="d_zcaron" horiz-adv-x="1013" 
d="M293 656l165 54v-659l75 -2v-17l-160 -46v86h-2c-36 -50 -85 -86 -147 -86c-101 0 -179 84 -179 225c0 150 89 255 228 255c41 0 76 -7 100 -17v187l-80 3v17zM137 233c0 -126 53 -189 127 -189c45 0 93 28 105 86c5 24 5 94 5 139c0 33 1 87 -6 107
c-10 32 -48 57 -96 57c-81 0 -135 -75 -135 -200zM575 0v16l293 398h-137c-58 0 -84 -10 -101 -79h-23v117h371v-19l-289 -393l163 -1c64 0 78 3 104 99h22v-138h-403zM784 512l-87 159l16 5l83 -94l83 94l16 -5l-87 -159h-24z" />
    <glyph glyph-name="f_f_t" horiz-adv-x="962" 
d="M42 408l68 30v15c0 139 79 230 215 230c45 0 88 -7 122 -23l-7 -87c39 89 125 125 206 125c58 0 110 -12 149 -27v-230h133v-50h-133v-216c0 -73 8 -132 72 -132c29 0 55 10 84 44l13 -10l-49 -70c-22 -14 -49 -21 -76 -21c-93 0 -128 59 -128 160v245h-210v-350l85 -24
v-17h-226v17l57 24v350h-222v-350l65 -24v-17h-218v17l68 24v350h-68v17zM195 439h222v14c0 40 6 78 18 108h-18c-17 57 -46 90 -102 90c-71 0 -120 -48 -120 -183v-29zM501 439h214c32 61 50 112 55 141c-10 42 -61 87 -132 87c-67 0 -137 -35 -137 -184v-44z" />
    <glyph glyph-name="f_t" horiz-adv-x="655" 
d="M33 409l77 34v11c0 178 115 244 234 244c58 0 108 -12 145 -27v-230h133v-50h-133v-216c0 -73 8 -132 67 -132c30 0 64 18 90 46l11 -12l-53 -72c-17 -10 -49 -19 -75 -19c-90 0 -125 59 -125 162v243h-209v-350l97 -24v-17h-259v17l77 24v350h-77v18zM195 439h213
c24 42 47 87 55 130c-17 62 -58 98 -123 98c-82 0 -145 -35 -145 -213v-15z" />
    <glyph glyph-name="l_j" unicode="&#x1c9;" horiz-adv-x="586" 
d="M37 0v17l74 24v595l-76 3v17l161 54v-669l77 -24v-17h-236zM494 466v-453c0 -143 -50 -229 -164 -229c-47 0 -81 17 -96 25l1 99h20c12 -54 35 -96 80 -96c56 0 75 58 75 173v406l-81 3v17zM399 616c0 27 21 49 49 49c27 0 50 -22 50 -49c0 -28 -23 -50 -50 -50
c-28 0 -49 22 -49 50z" />
    <glyph glyph-name="n_j" unicode="&#x1cc;" horiz-adv-x="896" 
d="M43 411l160 55l-2 -109h3c25 33 90 109 180 109c93 0 126 -56 126 -143v-282l72 -24v-17h-218v17l62 24v272c0 50 -12 94 -76 94c-31 0 -64 -12 -97 -38c-35 -29 -50 -52 -50 -68v-260l62 -24v-17h-218v17l72 24v350l-76 3v17zM804 466v-453c0 -143 -50 -229 -164 -229
c-47 0 -81 17 -96 25l1 99h20c12 -54 35 -96 80 -96c56 0 75 58 75 173v406l-81 3v17zM709 616c0 27 21 49 49 49c27 0 50 -22 50 -49c0 -28 -23 -50 -50 -50c-28 0 -49 22 -49 50z" />
    <glyph glyph-name="s_t" unicode="&#xfb06;" horiz-adv-x="752" 
d="M754 77l-52 -72c-17 -10 -52 -19 -77 -19c-90 0 -128 59 -128 162v243h-75v17l86 35c22 41 40 81 46 119c-6 44 -67 91 -147 91c-106 0 -156 -58 -156 -114c0 -31 15 -63 33 -82c16 -5 27 -10 37 -15v-81h-23c-17 63 -57 75 -90 75c-47 0 -76 -32 -76 -73
c0 -38 20 -64 92 -90c76 -28 123 -68 123 -144c0 -81 -62 -143 -166 -143c-53 0 -95 16 -129 33v97h23c17 -70 57 -99 105 -99c57 0 92 36 92 82c0 35 -14 69 -94 100c-82 30 -115 69 -115 139c0 72 55 128 154 128c8 0 16 -1 25 -1c-15 22 -24 51 -24 81
c0 76 61 162 193 162c109 0 171 -76 171 -162v-105h134v-50h-134v-216c0 -73 10 -130 70 -130c31 0 66 16 91 44z" />
    <glyph glyph-name="t_t" horiz-adv-x="663" 
d="M664 77l-52 -75c-23 -14 -55 -16 -79 -16c-90 0 -127 59 -127 162v243h-223v-220c0 -70 13 -126 78 -126c22 0 61 6 101 46l13 -12l-58 -72c-33 -17 -67 -21 -91 -21c-90 0 -127 59 -127 162v243h-76v17l86 35l48 148h26v-150h233l48 150h26v-150h134v-50h-134v-216
c0 -73 12 -130 76 -130c25 0 58 14 87 43z" />
    <glyph glyph-name="bar_bar" horiz-adv-x="570" 
d="M138 750h58v-1000h-58v1000zM374 750h58v-1000h-58v1000z" />
    <glyph glyph-name="Gtilde" horiz-adv-x="700" 
d="M601 245v-164c0 -14 3 -22 9 -30c-54 -32 -138 -65 -242 -65c-215 0 -322 141 -322 323c0 196 130 331 355 331c86 0 148 -17 200 -41v-109h-22c-32 90 -109 117 -183 117c-145 0 -241 -107 -241 -296c0 -152 76 -291 232 -291c61 0 100 19 121 42v183l-82 24v17h241v-17
zM272 688l-16 10c20 41 47 83 94 83c42 0 73 -34 106 -34c25 0 41 3 68 40l16 -11c-16 -33 -46 -82 -93 -82c-46 0 -74 34 -106 34c-26 0 -44 -9 -69 -40z" />
    <glyph glyph-name="Mcircumflex" horiz-adv-x="878" 
d="M36 0v17l75 24l32 539l-88 29v17h174l210 -469h1l209 469h174v-17l-83 -24l18 -544l73 -24v-17h-242v17l74 24l-17 489h-2l-229 -530h-8l-229 522h-2l-8 -481l77 -24v-17h-209zM422 804h27l105 -125l-16 -5l-103 59l-103 -59l-17 5z" />
    <glyph glyph-name="Ncircumflex" horiz-adv-x="752" 
d="M33 626h173l390 -473l2 2l-12 430l-82 24v17h207v-17l-68 -24l-14 -598h-20l-444 547l-2 -2l12 -491l85 -24v-17h-222v17l80 24l9 538l-94 30v17zM382 804h27l105 -125l-16 -5l-103 59l-103 -59l-17 5z" />
    <glyph glyph-name="abrevedown" horiz-adv-x="506" 
d="M94 430c43 16 112 36 185 36c118 0 131 -60 131 -140v-276l78 -2v-17l-162 -45l2 81h-2c-29 -43 -88 -81 -157 -81c-73 0 -125 41 -125 119c0 116 128 147 282 160v58c0 69 -19 109 -80 109c-65 0 -110 -34 -130 -104h-22v102zM326 235c-126 -12 -194 -40 -194 -117
c0 -46 32 -77 83 -77c21 0 50 4 79 27c26 20 32 42 32 59v108zM374 520h-24c-6 32 -11 71 -86 71s-80 -39 -86 -71h-24c2 57 21 125 110 125c88 0 108 -68 110 -125z" />
    <glyph glyph-name="adoublegrave" horiz-adv-x="506" 
d="M94 430c43 16 112 36 185 36c118 0 131 -60 131 -140v-276l78 -2v-17l-162 -45l2 81h-2c-29 -43 -88 -81 -157 -81c-73 0 -125 41 -125 119c0 116 128 147 282 160v58c0 69 -19 109 -80 109c-65 0 -110 -34 -130 -104h-22v102zM326 235c-126 -12 -194 -40 -194 -117
c0 -46 32 -77 83 -77c21 0 50 4 79 27c26 20 32 42 32 59v108zM209 513l-97 138l59 21l53 -152zM324 513l-97 138l59 21l53 -152z" />
    <glyph glyph-name="brevedown" horiz-adv-x="350" 
d="M285 520h-24c-6 32 -11 71 -86 71s-80 -39 -86 -71h-24c2 57 21 125 110 125c88 0 108 -68 110 -125z" />
    <glyph glyph-name="checkmarkcircle" horiz-adv-x="826" 
d="M96 306c0 174 143 317 317 317c62 0 121 -19 168 -49l37 93l57 40l9 -8l-69 -149c70 -57 115 -146 115 -244c0 -175 -142 -317 -317 -317c-15 0 -37 1 -49 3l-13 -27l-18 -1c0 11 0 24 -1 35c-136 36 -236 160 -236 307zM387 102l183 447c-35 24 -98 46 -158 46
c-154 0 -284 -127 -284 -289c0 -134 90 -246 204 -278c-8 119 -37 242 -82 323l37 65l12 -3c39 -69 72 -210 79 -307zM602 526l-226 -507c11 -2 25 -2 38 -2c162 0 285 126 285 289c0 88 -45 174 -97 220z" />
    <glyph glyph-name="checkmarkempty" horiz-adv-x="823" 
d="M102 0v580l48 34h571v-567l-37 -47h-582zM669 567h-540v-540h540v540z" />
    <glyph glyph-name="checkmarksquare" horiz-adv-x="725" 
d="M100 0v518l43 30h395l21 46l55 28l7 -6l-39 -68h71v-506l-33 -42h-292l-13 -31l-17 -1c0 10 0 22 -1 32h-197zM124 506v-482h173c-6 94 -41 231 -72 290l36 49l13 -3c30 -60 58 -191 64 -267l9 -3l175 416h-398zM606 506h-45l-224 -482h269v482z" />
    <glyph glyph-name="diamondblack" horiz-adv-x="399" 
d="M35 229l164 165l165 -165l-165 -164z" />
    <glyph glyph-name="doublegrave" horiz-adv-x="380" 
d="M170 513l-97 138l59 21l53 -152zM285 513l-97 138l59 21l53 -152z" />
    <glyph glyph-name="ebrevedown" horiz-adv-x="491" 
d="M440 108l-30 -87c-37 -20 -73 -35 -146 -35c-133 0 -219 85 -219 232c0 136 84 248 224 248c144 0 177 -125 177 -213h-304c-1 -9 -2 -24 -2 -34c0 -121 65 -199 152 -199c56 0 99 30 125 88h23zM144 289h210c-1 62 -19 145 -97 145c-65 0 -100 -57 -113 -145zM370 520
h-24c-6 32 -11 71 -86 71s-80 -39 -86 -71h-24c2 57 21 125 110 125c88 0 108 -68 110 -125z" />
    <glyph glyph-name="edoublegrave" horiz-adv-x="491" 
d="M440 108l-30 -87c-37 -20 -73 -35 -146 -35c-133 0 -219 85 -219 232c0 136 84 248 224 248c144 0 177 -125 177 -213h-304c-1 -9 -2 -24 -2 -34c0 -121 65 -199 152 -199c56 0 99 30 125 88h23zM144 289h210c-1 62 -19 145 -97 145c-65 0 -100 -57 -113 -145zM204 513
l-97 138l59 21l53 -152zM319 513l-97 138l59 21l53 -152z" />
    <glyph glyph-name="gtilde" horiz-adv-x="524" 
d="M260 466c34 0 67 -7 92 -18c24 -11 34 -17 37 -17c59 0 99 7 117 12v-54h-99c16 -20 27 -56 27 -83c0 -128 -111 -160 -217 -160l-62 -50c7 -17 26 -31 80 -31c53 0 92 1 126 1c78 0 125 -38 125 -103c0 -103 -102 -179 -243 -179c-168 0 -205 83 -206 148
c19 19 76 52 115 71v4c-11 3 -31 14 -42 25c-17 18 -26 44 -27 68c22 5 61 27 97 55c-28 7 -115 40 -115 145c0 96 76 166 195 166zM149 303c0 -72 32 -128 102 -128c71 0 99 67 99 129c0 65 -18 132 -98 132c-70 0 -103 -61 -103 -133zM182 -2c-36 -22 -67 -56 -67 -80
c0 -53 56 -99 136 -99c93 0 167 46 167 113c0 47 -33 60 -98 60c-71 0 -110 1 -138 6zM153 540l-16 10c18 36 43 88 88 88c32 0 69 -37 103 -37c22 0 35 4 62 41l16 -10c-18 -36 -44 -88 -88 -88c-36 0 -68 37 -106 37c-19 0 -34 -9 -59 -41z" />
    <glyph glyph-name="ibrevedown" horiz-adv-x="305" 
d="M47 0v17l72 24v350l-75 3v17l160 55v-425l73 -24v-17h-230zM270 520h-24c-6 32 -11 71 -86 71s-80 -39 -86 -71h-24c2 57 21 125 110 125c88 0 108 -68 110 -125z" />
    <glyph glyph-name="idoublegrave" horiz-adv-x="305" 
d="M47 0v17l72 24v350l-75 3v17l160 55v-425l73 -24v-17h-230zM100 513l-97 138l59 21l53 -152zM215 513l-97 138l59 21l53 -152z" />
    <glyph glyph-name="mcircumflex" horiz-adv-x="903" 
d="M43 411l160 55l-2 -108h2c33 43 98 108 184 108c82 0 110 -58 112 -108h4c28 37 91 108 183 108c91 0 119 -61 119 -145v-280l73 -24v-17h-221v17l64 24v272c0 57 -12 94 -71 94c-32 0 -65 -12 -103 -42c-27 -22 -43 -43 -43 -58v-266l62 -24v-17h-208v17l62 24v266
c0 57 -10 100 -67 100c-35 0 -66 -11 -103 -39c-32 -24 -47 -44 -47 -68v-259l64 -24v-17h-220v17l72 24v350l-76 3v17zM450 670h25l87 -159l-15 -5l-84 94l-84 -94l-15 5z" />
    <glyph glyph-name="ncircumflex" horiz-adv-x="608" 
d="M43 411l160 55l-2 -109h3c25 33 90 109 180 109c93 0 126 -56 126 -143v-282l72 -24v-17h-218v17l62 24v272c0 50 -12 94 -76 94c-31 0 -64 -12 -97 -38c-35 -29 -50 -52 -50 -68v-260l62 -24v-17h-218v17l72 24v350l-76 3v17zM303 670h25l87 -159l-15 -5l-84 94l-84 -94
l-15 5z" />
    <glyph glyph-name="obrevedown" horiz-adv-x="550" 
d="M263 -14c-129 0 -218 84 -218 231c0 134 80 249 244 249c132 0 216 -87 216 -223c0 -155 -90 -257 -242 -257zM140 223c0 -133 49 -205 134 -205c83 0 136 90 136 211c0 143 -52 205 -130 205c-96 0 -140 -93 -140 -211zM394 520h-24c-6 32 -11 71 -86 71
s-80 -39 -86 -71h-24c2 57 21 125 110 125c88 0 108 -68 110 -125z" />
    <glyph glyph-name="odoublegrave" horiz-adv-x="550" 
d="M263 -14c-129 0 -218 84 -218 231c0 134 80 249 244 249c132 0 216 -87 216 -223c0 -155 -90 -257 -242 -257zM140 223c0 -133 49 -205 134 -205c83 0 136 90 136 211c0 143 -52 205 -130 205c-96 0 -140 -93 -140 -211zM225 513l-97 138l59 21l53 -152zM340 513l-97 138
l59 21l53 -152z" />
    <glyph glyph-name="published" unicode="&#x2117;" horiz-adv-x="817" 
d="M409 -18c-184 0 -321 147 -321 328c0 182 137 327 321 327c182 0 322 -145 322 -327c0 -181 -140 -328 -322 -328zM143 310c0 -154 110 -284 266 -284c155 0 266 130 266 284c0 155 -111 282 -266 282c-156 0 -266 -127 -266 -282zM264 483h171c74 0 134 -24 134 -92
s-60 -111 -131 -111c-25 0 -40 1 -57 4v-106l56 -19v-14h-173v14l53 19v273l-53 17v15zM381 452v-148c21 0 60 2 78 10c34 16 43 38 43 77c0 43 -26 66 -79 66c-13 0 -28 -2 -42 -5z" />
    <glyph glyph-name="rbrevedown" horiz-adv-x="407" 
d="M42 0v17l72 24v350l-78 3v17l162 55l-7 -124h6c22 47 67 124 141 124c25 0 45 -8 59 -19l-7 -96h-23c-14 35 -35 49 -64 49c-51 0 -105 -87 -105 -125v-234l85 -24v-17h-241zM364 520h-24c-6 32 -11 71 -86 71s-80 -39 -86 -71h-24c2 57 21 125 110 125
c88 0 108 -68 110 -125z" />
    <glyph glyph-name="rdoublegrave" horiz-adv-x="407" 
d="M42 0v17l72 24v350l-78 3v17l162 55l-7 -124h6c22 47 67 124 141 124c25 0 45 -8 59 -19l-7 -96h-23c-14 35 -35 49 -64 49c-51 0 -105 -87 -105 -125v-234l85 -24v-17h-241zM170 513l-97 138l59 21l53 -152zM285 513l-97 138l59 21l53 -152z" />
    <glyph glyph-name="rmacron" horiz-adv-x="407" 
d="M42 0v17l72 24v350l-78 3v17l162 55l-7 -124h6c22 47 67 124 141 124c25 0 45 -8 59 -19l-7 -96h-23c-14 35 -35 49 -64 49c-51 0 -105 -87 -105 -125v-234l85 -24v-17h-241zM126 572v52h231v-52h-231z" />
    <glyph glyph-name="squareblack" horiz-adv-x="340" 
d="M54 112v232h232v-232h-232z" />
    <glyph glyph-name="squareshadow" horiz-adv-x="382" 
d="M328 151l-49 -58h-225v223l57 49h217v-214zM88 304v-178h177v178h-177z" />
    <glyph glyph-name="triangleblackleft" horiz-adv-x="471" 
d="M405 410v-337l-361 169z" />
    <glyph glyph-name="triangleblackright" horiz-adv-x="471" 
d="M66 73v337l361 -168z" />
    <glyph glyph-name="trianglewhiteleft" horiz-adv-x="471" 
d="M405 410v-337l-361 169zM367 132v219l-236 -109z" />
    <glyph glyph-name="trianglewhiteright" horiz-adv-x="471" 
d="M62 73v337l361 -168zM100 351v-219l236 110z" />
    <glyph glyph-name="ubrevedown" horiz-adv-x="588" 
d="M401 -14v109h-2c-32 -49 -98 -109 -180 -109c-88 0 -115 59 -115 155v263l-68 13v17l152 32v-296c0 -68 6 -127 78 -127c22 0 62 12 95 45c28 27 40 51 40 71v245l-70 29v17l154 6v-399l75 -1v-17zM405 520h-24c-6 32 -11 71 -86 71s-80 -39 -86 -71h-24
c2 57 21 125 110 125c88 0 108 -68 110 -125z" />
    <glyph glyph-name="udoublegrave" horiz-adv-x="588" 
d="M401 -14v109h-2c-32 -49 -98 -109 -180 -109c-88 0 -115 59 -115 155v263l-68 13v17l152 32v-296c0 -68 6 -127 78 -127c22 0 62 12 95 45c28 27 40 51 40 71v245l-70 29v17l154 6v-399l75 -1v-17zM239 513l-97 138l59 21l53 -152zM354 513l-97 138l59 21l53 -152z" />
    <glyph glyph-name="uniF8FF" unicode="&#xf8ff;" horiz-adv-x="494" 
d="M0 -4v672h494v-672h-494zM42 628v-592h410v592h-410zM199 262v74c38 20 97 40 97 115c0 54 -32 80 -72 80c-42 0 -73 -35 -90 -82h-22v84c33 13 81 30 136 30c98 0 130 -51 130 -102c0 -88 -78 -98 -114 -125c-26 -20 -34 -49 -43 -74h-22zM216 98c-29 0 -53 23 -53 52
c0 28 24 52 53 52c28 0 51 -24 51 -52c0 -29 -23 -52 -51 -52z" />
    </font>
</defs>
</svg>
